<?xml version="1.0" encoding="utf-8"?>
<!-- Generator: Adobe Illustrator 25.4.1, SVG Export Plug-In . SVG Version: 6.00 Build 0)  -->
<svg version="1.0" id="Layer_1" xmlns="http://www.w3.org/2000/svg" xmlns:xlink="http://www.w3.org/1999/xlink" x="0px" y="0px"
     viewBox="0 0 292 193.6" style="enable-background:new 0 0 292 193.6;" xml:space="preserve">
<style type="text/css">
	.st0{opacity:0.25;fill:#59C1A7;enable-background:new    ;}
	.st1{opacity:0.25;fill:#36C3F2;enable-background:new    ;}
	.st2{opacity:0.15;fill:#EF3D55;enable-background:new    ;}
	.st3{opacity:0.15;fill:#6A266D;enable-background:new    ;}
	.st4{fill:#6A266D;}
	.st5{fill:#36C3F2;}
	.st6{fill:#59C1A7;}
	.st7{fill:#EF3D55;}
	.st8{fill:#333332;}
	.st9{fill:none;}
</style>
    <g id="Lines">

		<rect x="140.4" y="74.4" transform="matrix(0.7071 -0.7071 0.7071 0.7071 -12.7722 138.3672)" class="st0" width="40.4" height="20.3"/>

        <rect x="150.3" y="35.6" transform="matrix(0.7071 -0.7071 0.7071 0.7071 7.5244 129.821)" class="st1" width="20.3" height="40.4"/>

        <rect x="121.3" y="64.4" transform="matrix(0.7071 -0.7071 0.7071 0.7071 -21.341 117.7495)" class="st2" width="20.3" height="40.4"/>

        <rect x="111.9" y="45" transform="matrix(0.7071 -0.7071 0.7071 0.7071 -0.2944 109.5877)" class="st3" width="40.4" height="20.4"/>
</g>
    <g id="Nodes">
	<circle class="st4" cx="146" cy="41.3" r="10.2"/>
        <circle class="st5" cx="174.9" cy="70.4" r="10.2"/>
        <circle class="st6" cx="146" cy="99.3" r="10.2"/>
        <circle class="st7" cx="117.1" cy="70.3" r="10.2"/>
</g>
    <g id="Iterable">
	<path class="st8" d="M116.7,139.6h-12.5c-0.2,0-0.4,0.2-0.4,0.4v22c0,0.2,0.2,0.4,0.4,0.4h12.5c0.2,0,0.4-0.2,0.4-0.4v-3.5
		c0-0.2-0.2-0.4-0.4-0.4h-7.6c-0.4,0-0.8-0.3-0.8-0.8c0,0,0,0,0,0v-3.6c0-0.4,0.3-0.8,0.8-0.8c0,0,0,0,0,0h7c0.2,0,0.4-0.2,0.4-0.4
		v-3.1c0-0.2-0.2-0.4-0.4-0.4h-7c-0.4,0-0.8-0.3-0.8-0.8c0,0,0,0,0,0v-3.4c0-0.4,0.3-0.8,0.8-0.8c0,0,0,0,0,0h7.6
		c0.2,0,0.4-0.2,0.4-0.4v-3.5C117.1,139.8,116.9,139.6,116.7,139.6C116.7,139.6,116.7,139.6,116.7,139.6z"/>
        <path class="st8" d="M168.6,162.4c0.1,0,0.3-0.1,0.3-0.2c0.1-0.1,0.1-0.3,0-0.4l-8.8-22c-0.1-0.2-0.2-0.3-0.4-0.3h-2.2
		c-0.2,0-0.3,0.1-0.4,0.3l-8.8,22c-0.1,0.1-0.1,0.3,0,0.4c0.1,0.1,0.2,0.2,0.3,0.2h4c0.2,0,0.3-0.1,0.4-0.3l1.1-3
		c0.1-0.3,0.4-0.5,0.8-0.5h7.4c0.3,0,0.6,0.2,0.8,0.5l1.1,3c0.1,0.2,0.2,0.3,0.4,0.3H168.6z M161,154.3c-0.1,0.2-0.4,0.3-0.6,0.3
		h-3.5c-0.3,0-0.5-0.1-0.6-0.3c-0.1-0.2-0.2-0.5-0.1-0.7l1.7-4.8c0.1-0.4,0.6-0.6,1-0.5c0.2,0.1,0.4,0.3,0.5,0.5l1.7,4.8
		C161.2,153.9,161.1,154.1,161,154.3z"/>
        <path class="st8" d="M212.1,162.4c0.2,0,0.4-0.2,0.4-0.4v-3.5c0-0.2-0.2-0.4-0.4-0.4h-6.5c-0.4,0-0.8-0.3-0.8-0.8c0,0,0,0,0,0V140
		c0-0.2-0.2-0.4-0.4-0.4h-3.6c-0.2,0-0.4,0.2-0.4,0.4v22c0,0.2,0.2,0.4,0.4,0.4L212.1,162.4z"/>
        <path class="st8" d="M176.7,162.4h8.6c1.3,0,2.7-0.3,3.8-0.9c2-1.1,3.3-3.2,3.3-5.6c0.1-2.4-1.3-4.6-3.4-5.6
		c-0.1,0-0.1-0.1-0.1-0.2V150l0.1-0.1c1.3-1.1,2-2.7,2-4.3c0-1-0.3-2.1-0.8-3c-0.5-0.9-1.3-1.7-2.3-2.2c-1.2-0.6-2.5-0.9-3.8-0.8
		h-7.3c-0.2,0-0.4,0.2-0.5,0.4c0,0,0,0,0,0V162C176.3,162.2,176.4,162.4,176.7,162.4C176.7,162.4,176.7,162.4,176.7,162.4z
		 M180.7,144.6c0-0.4,0.3-0.7,0.7-0.7c0,0,0,0,0,0h2c0.8,0,1.5,0.2,2.1,0.7c0.4,0.4,0.7,0.9,0.8,1.4c0.1,0.8-0.2,1.6-0.8,2.1
		c-0.6,0.5-1.3,0.8-2.1,0.8h-2c-0.4,0-0.7-0.3-0.7-0.7c0,0,0,0,0,0L180.7,144.6z M180.7,153.4c0-0.4,0.3-0.7,0.7-0.7c0,0,0,0,0,0h3
		c0.8,0,1.6,0.2,2.2,0.8c0.6,0.5,0.9,1.2,0.9,1.9c0,0.8-0.3,1.5-0.8,2c-0.6,0.6-1.4,0.8-2.2,0.8h-3c-0.4,0-0.7-0.3-0.7-0.7l0,0
		L180.7,153.4z"/>
        <path class="st8" d="M137.7,154.5c-0.2-0.4-0.1-0.9,0.3-1.1c0,0,0,0,0,0c1-0.6,1.8-1.4,2.4-2.4c0.7-1.2,1.1-2.6,1-4
		c0-1.3-0.4-2.6-1-3.7c-0.6-1.1-1.6-2.1-2.7-2.8c-1.2-0.7-2.7-1.1-4.1-1.1h-7c-0.2,0-0.4,0.2-0.4,0.4v22c0,0.2,0.2,0.4,0.4,0.4h3.6
		c0.2,0,0.4-0.2,0.4-0.4v-6.6c0-0.4,0.3-0.8,0.8-0.8c0,0,0,0,0,0h1.1c0.3,0,0.6,0.2,0.7,0.4l3.8,7.2c0.1,0.1,0.2,0.2,0.4,0.2h4.2
		c0.2,0,0.4-0.2,0.4-0.4c0-0.1,0-0.1,0-0.2L137.7,154.5z M135.8,149.4c-0.7,0.6-1.6,0.9-2.5,0.9h-1.8c-0.4,0-0.8-0.3-0.8-0.8
		c0,0,0,0,0,0v-4.7c0-0.4,0.3-0.8,0.8-0.8c0,0,0,0,0,0h1.8c0.9,0,1.8,0.3,2.5,0.9C137.1,146.1,137.1,148.1,135.8,149.4
		C135.9,149.4,135.8,149.4,135.8,149.4L135.8,149.4z"/>
        <path class="st8" d="M95.4,139.6H81c-0.2,0-0.4,0.2-0.4,0.4l0,0v3.5c0,0.2,0.2,0.4,0.4,0.4h4.2c0.4,0,0.8,0.3,0.8,0.8c0,0,0,0,0,0
		l0,0v17.3c0,0.2,0.2,0.4,0.4,0.4h3.7c0.2,0,0.4-0.2,0.4-0.4l0,0v-17.4c0-0.4,0.3-0.8,0.8-0.8c0,0,0,0,0,0h4.1
		c0.2,0,0.4-0.2,0.4-0.4V140C95.8,139.8,95.6,139.6,95.4,139.6L95.4,139.6z"/>
        <path class="st8" d="M233.4,158.1h-7.6c-0.4,0-0.8-0.3-0.8-0.8c0,0,0,0,0,0v-3.6c0-0.4,0.3-0.8,0.8-0.8c0,0,0,0,0,0h7
		c0.2,0,0.4-0.2,0.4-0.4v-3.1c0-0.2-0.2-0.4-0.4-0.4h-7c-0.4,0-0.8-0.3-0.8-0.7c0,0,0,0,0,0v-3.4c0-0.4,0.3-0.8,0.8-0.8c0,0,0,0,0,0
		h7.6c0.2,0,0.4-0.2,0.4-0.4v-3.5c0-0.2-0.2-0.4-0.4-0.4h-12.5c-0.2,0-0.4,0.2-0.4,0.4v22c0,0.2,0.2,0.4,0.4,0.4h12.5
		c0.2,0,0.4-0.2,0.4-0.4v-3.5C233.8,158.3,233.6,158.1,233.4,158.1z"/>
        <path class="st8" d="M72.1,158.1h-3.6c-0.4,0-0.8-0.3-0.8-0.8c0,0,0,0,0,0l0,0v-12.6c0-0.4,0.3-0.8,0.8-0.8c0,0,0,0,0,0h3.6
		c0.2,0,0.4-0.2,0.4-0.4l0,0V140c0-0.2-0.2-0.4-0.4-0.4H58.6c-0.2,0-0.4,0.2-0.4,0.4l0,0v3.5c0,0.2,0.2,0.4,0.4,0.4h3.8
		c0.4,0,0.8,0.3,0.8,0.8c0,0,0,0,0,0v12.6c0,0.4-0.4,0.8-0.8,0.8h-3.8c-0.2,0-0.4,0.2-0.4,0.4l0,0v3.5c0,0.2,0.2,0.4,0.4,0.4h4.9
		c0,0,0.1,0,0.1,0h3.7c0,0,0.1,0,0.1,0h4.8c0.2,0,0.4-0.2,0.4-0.4l0,0v-3.5C72.6,158.3,72.4,158.1,72.1,158.1L72.1,158.1z"/>
</g>
    <rect x="50" y="25.3" class="st9" width="192" height="143"/>
</svg>
