<svg width="66" height="64" viewBox="0 0 66 64" fill="none" xmlns="http://www.w3.org/2000/svg">
<path d="M24.5072 18.9904C26.4821 18.9904 28.2101 20.0795 29.1976 21.6527H51.2916V18.2643C51.2916 15.3599 48.9464 13.0607 45.9841 13.0607H18.2123C15.4968 13.0607 13.3985 15.2389 13.3985 17.7802V33.1491C13.3985 34.9643 14.8796 36.4165 16.7311 36.4165H34.9988C35.8628 34.4802 37.8377 33.1491 40.0595 33.1491C43.1452 33.1491 45.7373 35.6904 45.7373 38.8368C45.7373 41.9831 43.1452 44.5244 40.0595 44.5244C38.4549 44.5244 36.9737 43.7984 35.8628 42.5882H13.1516V46.5817C13.1516 49.002 15.1265 50.9382 17.5951 50.9382H47.8356C49.687 50.9382 51.1682 49.486 51.0448 47.6708V32.181C51.0448 30.0027 49.1933 28.1875 46.9716 28.1875H28.9507C27.9633 29.5186 26.3587 30.3657 24.5072 30.3657C21.4215 30.3657 18.8294 27.8244 18.8294 24.6781C18.8294 21.5317 21.4215 18.9904 24.5072 18.9904Z" fill="#00249C"/>
<path d="M57.0292 0H8.02359C3.57976 0 0 3.54198 0 7.93893V56.0611C0 60.458 3.57976 64 8.02359 64H57.0292C61.4731 64 65.0528 60.458 65.0528 56.0611V7.93893C65.1763 3.54198 61.4731 0 57.0292 0ZM59.1277 51.6641C59.1277 55.2061 56.1652 58.1374 52.5854 58.1374H12.4674C8.88767 58.1374 5.92512 55.2061 5.92512 51.6641V12.3359C5.92512 8.79389 8.88767 5.8626 12.4674 5.8626H52.7088C56.2886 5.8626 59.2512 8.79389 59.2512 12.3359V51.6641H59.1277Z" fill="#00249C"/>
</svg>
