<svg xml:space="preserve" style="enable-background:new 0 0 512 512;" viewBox="0 0 512 512" y="0px" x="0px" xmlns:xlink="http://www.w3.org/1999/xlink" xmlns="http://www.w3.org/2000/svg" id="Layer_1" version="1.1">
<style type="text/css">
	.st0{fill:#212124;}
</style>
<g>
	<path d="M231.3,293.2c4.2-40,29.3-72.6,58.6-72.6s45.1,32.6,41,72.6s-28.4,73.1-55.9,73.1
		C247.6,366.3,225.3,341.2,231.3,293.2 M256,474.8c-65.2,0.1-127-28.9-168.5-79.1c36.3,11.6,76.8,1.4,108.5-29.8
		c3.3-3.4,6.5-6.9,9.3-10.7c14.4,31.2,42.4,47,70.3,47c47.5,0,87.5-48.9,92.2-109.4c4.7-60.5-29.3-108.5-74.5-108.5
		c-16.4-0.2-32.5,4.1-46.5,12.6l14-81.5c1.4-6.5-0.1-13.3-4.2-18.6c-4.2-6.5-7.9-9.3-13.5-9.3h-65.2c-3.9,0.2-7,3.2-7.4,7
		c-1.7,7.7-3,15.4-3.7,23.3c-0.5,5.1,3.3,7,7.4,7h47.5c-7.4,46.5-22.3,136.8-26.5,159.7c-4.4,21.6-14.9,41.5-30.3,57.3
		c-26.1,26.1-74,32.1-102.4,3.7C52.6,335.1,37.2,310,37.2,256c0-120.8,97.9-218.8,218.8-218.8S474.8,135.2,474.8,256
		S376.8,474.8,256,474.8 M256,0C114.6,0,0,114.6,0,256s114.6,256,256,256s256-114.6,256-256c0-67.9-27-133-75-181S323.9,0,256,0" class="st0"></path>
</g>
</svg>
