<svg width="46" height="46" viewBox="0 0 46 46" fill="none" xmlns="http://www.w3.org/2000/svg">
<path d="M45.8387 23.0026C45.8387 23.966 45.7797 24.9248 45.6615 25.8564C45.5388 26.8288 45.3616 27.7831 45.1207 28.7146C44.8708 29.6916 44.5527 30.6459 44.1801 31.5684C43.8347 32.4272 43.4349 33.2588 42.985 34.0631C42.9214 34.1858 42.8532 34.304 42.785 34.4221C42.2034 35.4264 41.549 36.3806 40.8265 37.2804C40.6038 37.5621 40.3721 37.8348 40.1312 38.1074C39.4996 38.83 38.8225 39.5025 38.1045 40.1341C37.8364 40.375 37.5592 40.6113 37.2775 40.8339C36.3778 41.5565 35.428 42.2108 34.4238 42.7879C34.3056 42.8561 34.1875 42.9243 34.0693 42.9879C33.265 43.4332 32.4334 43.8331 31.57 44.183C30.6476 44.5556 29.6933 44.8737 28.7117 45.1236C27.7802 45.3599 26.8305 45.5417 25.858 45.6644C24.9264 45.7825 23.9722 45.8416 23.0043 45.8416C22.0364 45.8416 21.0821 45.7825 20.146 45.6644C19.1735 45.5417 18.2238 45.3645 17.2923 45.1236C16.3107 44.8692 15.361 44.5556 14.4385 44.183C13.5751 43.8331 12.739 43.4332 11.9347 42.9879C11.8165 42.9243 11.6984 42.8561 11.5802 42.7879V31.5729V23.0072C11.5802 22.0211 11.7029 21.0623 11.9392 20.1489C12.2028 19.1355 12.5981 18.1767 13.1116 17.2951C13.4933 16.6362 13.9387 16.0182 14.4385 15.4547C14.7521 15.0958 15.0929 14.7549 15.4519 14.4414C16.0153 13.9415 16.6379 13.4962 17.2923 13.1145C18.1738 12.6056 19.1326 12.2057 20.146 11.9421C21.0594 11.7058 22.0136 11.5831 23.0043 11.5831C23.9949 11.5831 24.9446 11.7058 25.858 11.9421V9.01566C24.9355 8.82935 23.9813 8.72938 23.0043 8.72938C22.0273 8.72938 21.073 8.82935 20.146 9.01566C19.1508 9.22015 18.1965 9.52006 17.2923 9.9154C16.2744 10.3607 15.3201 10.9197 14.4385 11.5786C13.3615 12.392 12.3982 13.3508 11.5848 14.4323C10.9259 15.3093 10.3669 16.2682 9.92161 17.286C9.52627 18.1903 9.2218 19.1446 9.02186 20.1398C8.83555 21.0623 8.73557 22.0165 8.73557 22.9981V40.8203C8.45384 40.5976 8.17664 40.3613 7.90853 40.1205C7.19055 39.4889 6.51348 38.8118 5.88184 38.0938V22.9981C5.88184 22.0256 5.96364 21.0713 6.11814 20.1398C6.28173 19.1537 6.53165 18.204 6.85883 17.286C7.20873 16.2909 7.65407 15.3321 8.1721 14.4323C8.34932 14.1233 8.54017 13.8188 8.73557 13.5235C9.18999 12.8373 9.6944 12.1875 10.2442 11.574C10.6668 11.1014 11.1167 10.6516 11.5893 10.229C12.2028 9.67911 12.8526 9.1747 13.5388 8.72029C13.8341 8.52489 14.1386 8.33403 14.4476 8.15681C15.3473 7.63423 16.3062 7.19345 17.3013 6.84355C18.2193 6.52091 19.169 6.27098 20.1551 6.10739C21.0866 5.95289 22.0364 5.87109 23.0134 5.87109C23.9904 5.87109 24.9401 5.95289 25.8671 6.10739C26.8486 6.27098 27.8029 6.52091 28.7208 6.84355V16.6135C27.8983 15.8728 26.9304 15.2957 25.8671 14.9231C24.9764 14.605 24.0131 14.4323 23.0134 14.4323C22.0136 14.4323 21.0503 14.605 20.1551 14.9231C19.0917 15.2957 18.1238 15.8774 17.3013 16.6135C17.065 16.8225 16.8424 17.0498 16.6333 17.2815C15.8926 18.104 15.311 19.0719 14.9384 20.1352C14.6203 21.0259 14.4476 21.9893 14.4476 22.9935V34.4085H14.4431L14.4476 34.413V41.0475C15.361 41.4837 16.3153 41.8518 17.3013 42.1427C18.2238 42.4198 19.1781 42.6289 20.1551 42.7652C21.0866 42.9015 22.0409 42.9697 23.0134 42.9697C23.9858 42.9697 24.9355 42.9015 25.8671 42.7652C26.8441 42.6289 27.7984 42.4198 28.7208 42.1427C29.7069 41.8518 30.6612 41.4837 31.5791 41.0475C32.1744 40.7658 32.747 40.4568 33.3059 40.116C33.6922 39.8887 34.0693 39.6434 34.4329 39.3843C35.3462 38.7482 36.2051 38.0393 36.9958 37.2622C37.0957 37.1668 37.1912 37.0714 37.2866 36.9714C38.0637 36.1762 38.7771 35.3219 39.4133 34.4085C39.6723 34.0449 39.9131 33.6723 40.1449 33.2861C40.4811 32.7271 40.7901 32.1455 41.0719 31.5547C41.5081 30.6414 41.8762 29.6871 42.1716 28.701C42.4488 27.774 42.6578 26.8243 42.7987 25.8427C42.9305 24.9112 43.0032 23.9569 43.0032 22.989V11.9285C43.4485 12.7328 43.8484 13.5644 44.1983 14.4278C44.5709 15.3502 44.889 16.3 45.1389 17.2815C45.3752 18.2131 45.5615 19.1628 45.6797 20.1352C45.7978 21.0713 45.8569 22.0256 45.8569 22.9935L45.8387 23.0026Z" fill="white"/>
<path d="M40.1281 7.90083V23.0011C40.1281 23.9736 40.0463 24.9278 39.8918 25.8548C39.7282 26.8409 39.4783 27.7952 39.1511 28.7131C38.8012 29.7083 38.3559 30.6671 37.8378 31.5669C37.6606 31.8759 37.4697 32.1803 37.2743 32.4757C36.8199 33.1619 36.3155 33.8071 35.7702 34.4206C35.3476 34.8932 34.8977 35.3431 34.4206 35.7702C33.8071 36.3201 33.1573 36.8245 32.4712 37.2789C32.1758 37.4743 31.8759 37.6651 31.5669 37.8424C30.6626 38.3649 29.7083 38.8057 28.7086 39.1602C27.7907 39.4828 26.8364 39.7327 25.8548 39.8963C24.9278 40.0508 23.9736 40.1326 23.0011 40.1326C22.0287 40.1326 21.0744 40.0508 20.1428 39.8963C19.1613 39.7327 18.207 39.4828 17.2891 39.1602V29.3902C18.1116 30.1309 19.0795 30.7126 20.1428 31.0806C21.0335 31.4033 21.9968 31.5714 23.0011 31.5714C24.0054 31.5714 24.9642 31.3987 25.8548 31.0806C26.9182 30.708 27.8861 30.1264 28.7086 29.3902C28.9449 29.1766 29.1721 28.954 29.3811 28.7177C30.1218 27.8906 30.7035 26.9273 31.0761 25.8594C31.3942 24.9687 31.5669 24.0054 31.5669 23.0056V4.94258C30.6535 4.50634 29.6992 4.13826 28.7086 3.84743C27.7861 3.57024 26.8318 3.3612 25.8548 3.22488C24.9233 3.08855 23.969 3.02039 23.0011 3.02039C22.0332 3.02039 21.0789 3.08855 20.1428 3.22488C19.1704 3.3612 18.2116 3.57024 17.2891 3.84743C16.303 4.13826 15.3487 4.50634 14.4353 4.94258C13.8401 5.22431 13.2629 5.53786 12.6995 5.87413C12.3132 6.10134 11.9451 6.34672 11.5771 6.6012C10.6637 7.23738 9.80484 7.95082 9.01416 8.72787C8.91418 8.8233 8.81875 8.91872 8.72332 9.0187C7.94627 9.81393 7.23284 10.6682 6.6012 11.5816C6.34219 11.9497 6.09679 12.3223 5.86959 12.7131C5.52877 13.272 5.22432 13.8446 4.93804 14.4399C4.5018 15.3533 4.13372 16.3075 3.84289 17.2936C3.5657 18.2161 3.35667 19.1704 3.22034 20.1474C3.08402 21.0789 3.01585 22.0377 3.01585 23.0056V34.0616C2.57052 33.2573 2.17063 32.4257 1.82073 31.5669C1.44811 30.6444 1.13001 29.6901 0.880082 28.7131C0.643785 27.7816 0.462031 26.8273 0.339339 25.8548C0.22119 24.9233 0.162109 23.9645 0.162109 23.0011C0.162109 22.0377 0.22119 21.0789 0.339339 20.1428C0.462031 19.1704 0.639241 18.2206 0.880082 17.2891C1.13456 16.3075 1.44811 15.3578 1.82073 14.4353C2.16609 13.5765 2.56597 12.7404 3.01585 11.9361C3.07947 11.8134 3.14763 11.6998 3.21579 11.5771C3.79745 10.5728 4.4518 9.62307 5.16978 8.72332C5.39699 8.44159 5.62874 8.16439 5.86959 7.89629C6.50122 7.17831 7.1783 6.50123 7.89628 5.86959C8.16439 5.62875 8.44613 5.39245 8.72787 5.16978C9.62762 4.44726 10.5773 3.79745 11.5816 3.21579C11.7043 3.14763 11.8179 3.07947 11.9406 3.01585C12.7449 2.57052 13.5765 2.17063 14.4399 1.82073C15.3624 1.44811 16.3121 1.13002 17.2936 0.880088C18.2252 0.643791 19.1749 0.462025 20.1474 0.339332C21.0835 0.221184 22.0377 0.162109 23.0056 0.162109C23.9736 0.162109 24.9278 0.221184 25.8594 0.339332C26.8318 0.462025 27.7816 0.639247 28.7131 0.880088C29.6947 1.13456 30.6444 1.44811 31.5714 1.82073C32.4303 2.17063 33.2618 2.56598 34.0662 3.01585C34.1889 3.07947 34.307 3.14763 34.4251 3.21579V14.4308V22.9966C34.4251 23.9826 34.3025 24.9369 34.0662 25.8503C33.8026 26.8636 33.4073 27.8225 32.8938 28.7086C32.5166 29.3675 32.0713 29.981 31.5714 30.5444C31.2579 30.9034 30.9171 31.2442 30.5581 31.5578C29.9946 32.0576 29.372 32.503 28.7177 32.8801C27.8361 33.3936 26.8773 33.789 25.8639 34.0525C24.9506 34.2888 23.9963 34.4115 23.0102 34.4115C22.0241 34.4115 21.0698 34.2888 20.1519 34.0525V36.9835C21.0744 37.1698 22.0287 37.2698 23.0102 37.2698C23.9917 37.2698 24.9415 37.1698 25.8639 36.9835C26.8546 36.7836 27.8088 36.4791 28.7177 36.0838C29.7356 35.6384 30.6944 35.0795 31.576 34.4161C32.6529 33.6027 33.6117 32.6438 34.4251 31.5669C35.084 30.6898 35.643 29.731 36.0883 28.7131C36.4837 27.8088 36.7881 26.85 36.9881 25.8548C37.1744 24.9324 37.2743 23.9781 37.2743 23.0011V5.17433C37.5561 5.40154 37.8378 5.63329 38.1059 5.87413C38.8284 6.50577 39.501 7.18285 40.1326 7.90083H40.1281Z" fill="white"/>
</svg>
