<svg height="150" viewBox="0 0 122 123" fill="none" xmlns="http://www.w3.org/2000/svg" opacity=".8">
<path d="M61 24.9563C94.6894 24.9563 122 19.3696 122 12.4781C122 5.58666 94.6894 0 61 0C27.3106 0 0 5.58666 0 12.4781C0 19.3696 27.3106 24.9563 61 24.9563Z" fill="url(#paint0_linear_214_1281)"/>
<path d="M61 60.6092C94.6894 60.6092 122 55.4216 122 49.0224C122 42.6232 94.6894 37.4355 61 37.4355C27.3106 37.4355 0 42.6232 0 49.0224C0 55.4216 27.3106 60.6092 61 60.6092Z" fill="url(#paint1_linear_214_1281)"/>
<path d="M61 98.0432C94.6894 98.0432 122 92.4565 122 85.5651C122 78.6736 94.6894 73.0869 61 73.0869C27.3106 73.0869 0 78.6736 0 85.5651C0 92.4565 27.3106 98.0432 61 98.0432Z" fill="url(#paint2_linear_214_1281)"/>
<path d="M122 12.4785V37.439C122 44.3199 94.6898 49.913 61 49.913C27.3102 49.913 0 44.3199 0 37.439V12.4785C0 19.372 27.3102 24.9525 61 24.9525C94.6898 24.9525 122 19.372 122 12.4785Z" fill="url(#paint3_linear_214_1281)"/>
<path d="M122 46.3477V72.4968C122 79.7053 94.6898 85.5647 61 85.5647C27.3102 85.5647 0 79.7053 0 72.4968V46.3477C0 53.5694 27.3102 59.4156 61 59.4156C94.6898 59.4156 122 53.5694 122 46.3477Z" fill="url(#paint4_linear_214_1281)"/>
<path d="M122 85.5654V110.526C122 117.407 94.6898 123 61 123C27.3102 123 0 117.407 0 110.526V85.5654C0 92.4589 27.3102 98.0394 61 98.0394C94.6898 98.0394 122 92.4589 122 85.5654Z" fill="url(#paint5_linear_214_1281)"/>
<defs>
<linearGradient id="paint0_linear_214_1281" x1="61" y1="0" x2="61" y2="24.9563" gradientUnits="userSpaceOnUse">
<stop stop-color="#ff7a6d"/>
<stop offset="0.432292" stop-color="#e44030"/>
<stop offset="1" stop-color="#ff7a6d"/>
</linearGradient>
<linearGradient id="paint1_linear_214_1281" x1="61" y1="37.4355" x2="61" y2="60.6092" gradientUnits="userSpaceOnUse">
<stop stop-color="#ff7a6d"/>
<stop offset="0.432292" stop-color="#e44030"/>
<stop offset="1" stop-color="#ff7a6d"/>
</linearGradient>
<linearGradient id="paint2_linear_214_1281" x1="61" y1="73.0869" x2="61" y2="98.0432" gradientUnits="userSpaceOnUse">
<stop stop-color="#ff7a6d"/>
<stop offset="0.432292" stop-color="#e44030"/>
<stop offset="1" stop-color="#ff7a6d"/>
</linearGradient>
<linearGradient id="paint3_linear_214_1281" x1="1.17308" y1="35.1428" x2="122" y2="34.5555" gradientUnits="userSpaceOnUse">
<stop stop-color="#e44030"/>
<stop offset="0.257517" stop-color="#e44030"/>
<stop offset="1" stop-color="#ff7a6d"/>
</linearGradient>
<linearGradient id="paint4_linear_214_1281" x1="1.17308" y1="70.0912" x2="122" y2="69.5306" gradientUnits="userSpaceOnUse">
<stop stop-color="#e44030"/>
<stop offset="0.257517" stop-color="#e44030"/>
<stop offset="1" stop-color="#ff7a6d"/>
</linearGradient>
<linearGradient id="paint5_linear_214_1281" x1="1.17308" y1="108.23" x2="122" y2="107.642" gradientUnits="userSpaceOnUse">
<stop stop-color="#e44030"/>
<stop offset="0.257517" stop-color="#e44030"/>
<stop offset="1" stop-color="#ff7a6d"/>
</linearGradient>
</defs>
</svg>
