<svg width="14" height="14" viewBox="0 0 14 14" fill="none" xmlns="http://www.w3.org/2000/svg">
  <path d="M5.05544 9.17787C5.19836 9.27879 5.36869 9.33246 5.54311 9.33187V9.32954C5.70778 9.32989 5.86892 9.28187 6.00653 9.19144C6.14415 9.10102 6.25217 8.97216 6.31719 8.82087L6.67478 7.73354C6.75732 7.48719 6.89606 7.26344 7.08002 7.07998C7.26399 6.89653 7.48812 6.7584 7.73469 6.67654L8.77186 6.33937C8.93922 6.28097 9.08385 6.17118 9.18511 6.02569C9.28637 5.8802 9.33908 5.70644 9.33572 5.52922C9.33235 5.35199 9.27309 5.18035 9.16638 5.03881C9.05968 4.89727 8.91098 4.79305 8.74153 4.74104L7.71778 4.40854C7.47013 4.32614 7.24512 4.18711 7.06061 4.00251C6.87611 3.8179 6.73721 3.59281 6.65494 3.34512L6.31778 2.30854C6.25897 2.14344 6.15021 2.00076 6.00659 1.90032C5.86297 1.79987 5.69163 1.74666 5.51638 1.74807C5.34113 1.74949 5.17067 1.80545 5.02868 1.90819C4.8867 2.01093 4.78024 2.15535 4.72411 2.32137L4.38403 3.36671C4.30202 3.60719 4.16648 3.82592 3.98762 4.00639C3.80876 4.18687 3.59127 4.32437 3.35153 4.40854L2.31494 4.74104C2.14857 4.79861 2.00442 4.90685 1.90274 5.05057C1.80106 5.19429 1.74697 5.36626 1.74806 5.5423C1.74916 5.71835 1.80538 5.88963 1.90884 6.03207C2.0123 6.17451 2.15778 6.28096 2.32486 6.33646L3.34803 6.66837C3.59564 6.75136 3.82056 6.89079 4.00502 7.07565C4.18948 7.26051 4.32842 7.48574 4.41086 7.73354L4.74803 8.76896C4.80578 8.93404 4.91311 9.07696 5.05544 9.17787ZM4.83728 6.69812C4.77223 6.61312 4.70148 6.53263 4.62553 6.45721H4.62728C4.3456 6.17531 4.00205 5.96299 3.62394 5.83712L2.69061 5.54079L3.63036 5.23512C4.00225 5.10636 4.33956 4.8938 4.61619 4.61387C4.89163 4.33217 5.09929 3.99145 5.22344 3.61754L5.52386 2.69471L5.82486 3.62046C5.9505 3.99785 6.16262 4.34065 6.44428 4.6215C6.72594 4.90236 7.06936 5.11348 7.44711 5.23804L8.39211 5.54254L7.46461 5.84296C7.08757 5.96833 6.74498 6.17994 6.46407 6.46095C6.18317 6.74196 5.97168 7.08462 5.84644 7.46171L5.54603 8.38454L5.24561 7.45996C5.15389 7.18461 5.01579 6.92695 4.83728 6.69812ZM9.52786 12.1214C9.41662 12.042 9.333 11.9298 9.28869 11.8005L9.09736 11.2137C9.06059 11.1018 8.99811 11.0001 8.91494 10.9168C8.83178 10.8334 8.73023 10.7707 8.61844 10.7336L8.04036 10.5452C7.90803 10.5006 7.79296 10.4157 7.71127 10.3024C7.62958 10.1891 7.58535 10.0531 7.58478 9.91346C7.58478 9.77468 7.62813 9.63938 7.70876 9.52643C7.78939 9.41348 7.90328 9.32854 8.03453 9.28346L8.62136 9.09329C8.73051 9.0545 8.82933 8.99122 8.91022 8.9083C8.99112 8.82538 9.05194 8.72503 9.08803 8.61496L9.27703 8.03687C9.32149 7.90607 9.40549 7.7923 9.51741 7.71131C9.62934 7.63032 9.76366 7.58609 9.90181 7.58474C10.04 7.5834 10.1751 7.625 10.2886 7.7038C10.4021 7.7826 10.4883 7.89471 10.5353 8.02462L10.7272 8.61612C10.7647 8.72703 10.8275 8.82772 10.9104 8.91031C10.9934 8.9929 11.0944 9.05513 11.2055 9.09212L11.7842 9.28054C11.9176 9.32226 12.0345 9.40491 12.1183 9.51678C12.202 9.62864 12.2485 9.76405 12.251 9.90379C12.2535 10.0435 12.212 10.1805 12.1323 10.2953C12.0526 10.4102 11.9387 10.497 11.8069 10.5435L11.2154 10.7354C11.1042 10.7729 11.0032 10.8358 10.9204 10.919C10.8376 11.0022 10.7753 11.1035 10.7383 11.2149L10.5504 11.7918C10.5049 11.926 10.4186 12.0426 10.3025 12.1243C10.1893 12.2048 10.0537 12.2478 9.91472 12.2473C9.77578 12.2468 9.64049 12.2027 9.52786 12.1214ZM8.92703 9.91462C9.15616 9.99633 9.36407 10.1283 9.53548 10.301C9.70689 10.4736 9.83744 10.6824 9.91753 10.9121C9.99855 10.6834 10.1296 10.4757 10.3012 10.3041C10.4728 10.1326 10.6805 10.0015 10.9092 9.92046C10.6785 9.83954 10.4688 9.70808 10.2954 9.5357C10.122 9.36332 9.98929 9.15437 9.90703 8.92412C9.82649 9.15134 9.69679 9.35798 9.52719 9.5293C9.35758 9.70062 9.15226 9.83239 8.92586 9.91521" fill="#101828"/>
</svg>