<svg width="1025" height="1025" viewBox="0 0 1025 1025" fill="none" xmlns="http://www.w3.org/2000/svg">
	<path
		d="M215.74 647.688C215.74 706.893 167.375 755.258 108.17 755.258C48.9648 755.258 0.600006 706.893 0.600006 647.688C0.600006 588.483 48.9648 540.118 108.17 540.118H215.74V647.688Z"
		fill="#E01E5A" />
	<path
		d="M269.942 647.688C269.942 588.483 318.307 540.118 377.512 540.118C436.717 540.118 485.082 588.483 485.082 647.688V917.03C485.082 976.235 436.717 1024.6 377.512 1024.6C318.307 1024.6 269.942 976.235 269.942 917.03V647.688Z"
		fill="#E01E5A" />
	<path
		d="M377.512 215.74C318.307 215.74 269.942 167.375 269.942 108.17C269.942 48.9648 318.307 0.600006 377.512 0.600006C436.717 0.600006 485.082 48.9648 485.082 108.17V215.74H377.512Z"
		fill="#36C5F0" />
	<path
		d="M377.512 269.942C436.717 269.942 485.082 318.307 485.082 377.512C485.082 436.717 436.717 485.082 377.512 485.082H108.17C48.9648 485.082 0.600006 436.717 0.600006 377.512C0.600006 318.307 48.9648 269.942 108.17 269.942H377.512Z"
		fill="#36C5F0" />
	<path
		d="M809.46 377.512C809.46 318.307 857.825 269.942 917.03 269.942C976.235 269.942 1024.6 318.307 1024.6 377.512C1024.6 436.717 976.235 485.082 917.03 485.082H809.46V377.512Z"
		fill="#2EB67D" />
	<path
		d="M755.258 377.512C755.258 436.717 706.893 485.082 647.688 485.082C588.483 485.082 540.118 436.717 540.118 377.512V108.17C540.118 48.9648 588.483 0.600006 647.688 0.600006C706.893 0.600006 755.258 48.9648 755.258 108.17V377.512Z"
		fill="#2EB67D" />
	<path
		d="M647.688 809.46C706.893 809.46 755.258 857.825 755.258 917.03C755.258 976.235 706.893 1024.6 647.688 1024.6C588.483 1024.6 540.118 976.235 540.118 917.03V809.46H647.688Z"
		fill="#ECB22E" />
	<path
		d="M647.688 755.258C588.483 755.258 540.118 706.893 540.118 647.688C540.118 588.483 588.483 540.118 647.688 540.118H917.03C976.235 540.118 1024.6 588.483 1024.6 647.688C1024.6 706.893 976.235 755.258 917.03 755.258H647.688Z"
		fill="#ECB22E" />
</svg>