<svg xmlns="http://www.w3.org/2000/svg" viewBox="0 0 451.84 152.4" width="451.84" height="152.4" fill="none"><g fill="#dc244c"><path d="M212.69 116c0 5.523-4.477 10.001-10 10.001h-6.836v-7.808h-.244c-.732 1.057-1.708 2.155-2.928 3.293-1.139 1.058-2.521 2.034-4.148 2.929-1.545.894-3.294 1.626-5.246 2.196a20.015 20.015 0 0 1-5.856.853c-4.392 0-8.377-.732-11.956-2.196-3.579-1.545-6.669-3.66-9.272-6.344-2.521-2.765-4.473-6.018-5.856-9.759-1.383-3.742-2.074-7.849-2.074-12.322 0-4.148.61-8.093 1.83-11.835 1.301-3.822 3.091-7.198 5.368-10.126a26.176 26.176 0 0 1 8.54-6.954c3.335-1.789 7.117-2.683 11.346-2.683 3.823 0 7.361.61 10.614 1.83 3.335 1.138 6.059 3.13 8.174 5.978h.244V43.769c0-5.523 4.477-10 10-10h8.3zm-16.836-19.646c0-4.473-1.301-8.092-3.904-10.858-2.521-2.765-6.1-4.148-10.736-4.148s-8.255 1.383-10.858 4.148c-2.521 2.766-3.782 6.385-3.782 10.858 0 4.474 1.261 8.093 3.782 10.858 2.603 2.766 6.222 4.149 10.858 4.149s8.215-1.383 10.736-4.149c2.603-2.765 3.904-6.384 3.904-10.858zM224.53 76.708c0-5.522 4.477-10 10-10h8.3v9.516h.244c1.952-3.66 4.27-6.384 6.954-8.174 2.684-1.87 6.059-2.805 10.126-2.805 1.057 0 2.114.04 3.172.121 1.057.082 2.033.245 2.928.489v16.713a22.4 22.4 0 0 0-3.904-.854 19.895 19.895 0 0 0-3.904-.367c-3.498 0-6.263.489-8.296 1.465-2.034.975-3.62 2.358-4.758 4.147-1.058 1.708-1.749 3.782-2.074 6.222-.326 2.441-.488 5.124-.488 8.052V116c0 5.524-4.477 10.002-10 10.002h-8.3zM310.64 118.56h-.244c-2.033 3.172-4.758 5.449-8.174 6.832-3.334 1.382-6.872 2.073-10.614 2.073-2.765 0-5.449-.406-8.052-1.219-2.521-.732-4.758-1.871-6.71-3.416-1.952-1.546-3.497-3.457-4.636-5.735-1.138-2.277-1.708-4.92-1.708-7.929 0-3.416.61-6.304 1.83-8.662 1.302-2.359 3.01-4.311 5.124-5.856 2.196-1.546 4.677-2.725 7.442-3.538a50.076 50.076 0 0 1 8.54-1.953c3.01-.406 5.978-.65 8.906-.732 3.01-.081 5.775-.121 8.296-.121 0-3.254-1.179-5.816-3.538-7.687-2.277-1.952-5.002-2.928-8.174-2.928-3.009 0-5.774.651-8.296 1.952-2.44 1.221-4.636 2.929-6.588 5.124l-9.76-10.004c3.416-3.171 7.402-5.53 11.956-7.075a41.766 41.766 0 0 1 14.152-2.44c5.368 0 9.76.69 13.176 2.073 3.498 1.302 6.263 3.254 8.296 5.856 2.115 2.603 3.579 5.816 4.392 9.638.814 3.742 1.22 8.093 1.22 13.054v20.135c0 5.522-4.477 10-10 10h-6.836zm-4.514-18.545c-1.382 0-3.131.082-5.246.244a24.865 24.865 0 0 0-5.978.976c-1.87.57-3.497 1.424-4.88 2.562-1.301 1.139-1.952 2.725-1.952 4.759 0 2.196.936 3.822 2.806 4.879 1.871 1.058 3.823 1.586 5.856 1.586 1.79 0 3.498-.244 5.124-.732 1.708-.488 3.213-1.179 4.514-2.074a9.45 9.45 0 0 0 3.05-3.416c.814-1.382 1.22-3.009 1.22-4.879v-3.905zM340.18 76.708c0-5.522 4.477-10 10-10h7.568v8.052h.244c.569-1.138 1.382-2.277 2.44-3.416 1.057-1.138 2.318-2.155 3.782-3.05s3.131-1.626 5.002-2.195c1.87-.57 3.904-.854 6.1-.854 4.636 0 8.377.732 11.224 2.196 2.846 1.382 5.042 3.334 6.588 5.855 1.626 2.522 2.724 5.49 3.294 8.906.569 3.416.854 7.117.854 11.103V116c0 5.523-4.477 10.001-10 10.001h-8.3V96.964a58.2 58.2 0 0 0-.244-5.246c-.082-1.87-.448-3.578-1.098-5.123a8.154 8.154 0 0 0-2.806-3.783c-1.22-.976-3.01-1.464-5.368-1.464-2.359 0-4.27.448-5.734 1.342a8.629 8.629 0 0 0-3.416 3.416c-.732 1.383-1.22 2.969-1.464 4.758a41.535 41.535 0 0 0-.366 5.612V116c0 5.523-4.477 10.001-10 10.001h-8.3zM451.84 71.348c0 5.522-4.477 10-10 10h-6.104v19.764c0 1.627.082 3.132.244 4.514.163 1.301.529 2.44 1.098 3.415.57.977 1.424 1.75 2.562 2.32 1.22.487 2.806.73 4.758.73.976 0 2.237-.08 3.782-.243 1.627-.245 2.847-.732 3.66-1.464v8.725c0 3.915-2.452 7.557-6.344 7.989a58.528 58.528 0 0 1-6.466.366c-3.09 0-5.937-.325-8.54-.976-2.602-.65-4.88-1.667-6.832-3.05-1.952-1.463-3.497-3.334-4.636-5.612-1.057-2.277-1.586-5.042-1.586-8.295V81.347h-11.712v-4.64c0-5.522 4.478-9.999 10-9.999h1.712V59.14c0-5.523 4.478-10 10-10h8.3v17.568h16.104z"/></g><g fill-rule="evenodd" clip-rule="evenodd"><path fill="#24386c" d="m103.79 140.09-3.039-83.784-5.503-22.089 36.734 3.889v101.35l-22.44 12.95z"/><path fill="#7589be" d="m131.98 38.1-22.44 12.96-46.308-10.158L9.029 62.971-.001 38.1l32.99-19.05 33-19.05 32.99 19.05z"/><path fill="#b2bfe8" d="m0 38.1 22.44 12.96 13.008 38.686 43.921 35.142L65.991 152.4l-33-19.051L0 114.299v-76.2"/><path fill="#24386c" d="m80.868 104.56-14.877 21.932v25.91l21.11-12.18 10.877-16.242"/><path fill="#7589be" d="M66 100.59 44.881 64.025l4.549-12.119 17.293-8.384L87.1 64.026z"/><path fill="#b2bfe8" d="m44.881 64.022 21.11 12.18v24.38l-19.524.84-11.81-15.08 10.224-22.32"/><path fill="#24386c" d="m65.991 76.2 21.11-12.179 14.367 23.922-17.386 14.365-18.091-1.727z"/><path fill="#dc244c" d="m87.101 140.22 22.44 12.181V51.061l-21.78-12.57-21.77-12.57-21.78 12.57-21.77 12.57v50.289l21.77 12.57 21.78 12.571 21.11-12.191zm0-51.83-21.11 12.19-21.11-12.19V64.02l21.11-12.19 21.11 12.19v24.37"/></g><path fill="url(#a)" d="M66 126.5v-25.914L45 88.5v25.871z"/><defs><linearGradient id="a" x1="62.128" x2="41.202" y1="105.54" y2="105.54" gradientUnits="userSpaceOnUse"><stop offset="0" stop-color="#FF3364"/><stop offset="1" stop-color="#C91540" stop-opacity="0"/></linearGradient></defs></svg>