<svg xml:space="preserve" style="enable-background:new 0 0 512 512;" viewBox="0 0 512 512" y="0px" x="0px" xmlns:xlink="http://www.w3.org/1999/xlink" xmlns="http://www.w3.org/2000/svg" id="Layer_1" version="1.1">
<style type="text/css">
	.st0{fill:#205B97;}
	.st1{fill:#5193CE;}
	.st2{fill:#2E73B7;}
</style>
<g>
	<path d="M256,391.5l194.7,46.4V73.1L256,119.5L256,391.5z" class="st0"></path>
	<path d="M450.7,73.1l37.1,18.5v327.6l-37.1,18.5V73.1z M256,391.5L61.3,437.8V73.1L256,119.5V391.5z" class="st1"></path>
	<path d="M61.3,73.1L24.2,91.7v327.6l37.1,18.5V73.1z" class="st0"></path>
	<path d="M305.5,512l74.2-37.1V37.1L305.5,0l-22.7,243.1L305.5,512z" class="st1"></path>
	<path d="M206.5,512l-74.2-37.1V37.1L206.5,0l22.7,243.1L206.5,512z" class="st0"></path>
	<path d="M206.5,0h99.9v511h-99.9L206.5,0z" class="st2"></path>
</g>
</svg>
