<svg width="304" height="160" viewBox="0 0 304 160" fill="none" xmlns="http://www.w3.org/2000/svg">
<g clip-path="url(#clip0_5709_15144)">
<rect width="304" height="160" fill="white"/>
<mask id="mask0_5709_15144" style="mask-type:alpha" maskUnits="userSpaceOnUse" x="0" y="0" width="304" height="160">
<rect width="304" height="160" fill="url(#paint0_radial_5709_15144)"/>
</mask>
<g mask="url(#mask0_5709_15144)">
<g filter="url(#filter0_d_5709_15144)">
<circle opacity="0.8" cx="152.501" cy="80.5003" r="61.8929" stroke="#F2F4F7" stroke-width="1.21359"/>
<circle opacity="0.8" cx="152.501" cy="80.5007" r="93.8734" stroke="#F2F4F7" stroke-width="1.25165"/>
<circle opacity="0.8" cx="152.5" cy="80.5" r="124.911" stroke="#F2F4F7" stroke-width="1.1784"/>
<g filter="url(#filter1_d_5709_15144)">
<circle cx="152.298" cy="80.2981" r="37.7089" fill="white" stroke="#EAECF0" stroke-width="1.1784"/>
<path d="M167.64 66.3309C168.392 67.0543 168.884 68.009 169 69.0506C169 69.4846 168.884 69.774 168.624 70.3237C168.363 70.8734 165.152 76.4286 164.197 77.962C163.647 78.859 163.358 79.9295 163.358 80.9711C163.358 82.0416 163.647 83.0832 164.197 83.9801C165.152 85.5136 168.363 91.0976 168.624 91.6474C168.884 92.1971 169 92.4575 169 92.8915C168.884 93.9331 168.421 94.8879 167.669 95.5823C166.946 96.3345 165.991 96.8264 164.978 96.9132C164.544 96.9132 164.255 96.7975 163.734 96.5371C163.213 96.2767 157.543 93.1519 156.009 92.1971C155.893 92.1392 155.778 92.0524 155.633 91.9946L148.052 87.5099C148.226 88.9566 148.863 90.3454 149.904 91.358C150.107 91.5606 150.309 91.7342 150.541 91.9078C150.367 91.9946 150.165 92.0814 149.991 92.1971C148.457 93.1519 142.873 96.3635 142.324 96.6239C141.774 96.8843 141.514 97 141.051 97C140.009 96.8843 139.054 96.4213 138.36 95.6691C137.608 94.9457 137.116 93.991 137 92.9494C137.029 92.5154 137.145 92.0814 137.376 91.7052C137.637 91.1555 140.848 85.5714 141.803 84.038C142.353 83.1411 142.642 82.0994 142.642 81.0289C142.642 79.9584 142.353 78.9168 141.803 78.0199C140.848 76.4286 137.608 70.8445 137.376 70.2948C137.145 69.9186 137.029 69.4846 137 69.0506C137.116 68.009 137.579 67.0543 138.331 66.3309C139.054 65.5787 140.009 65.1157 141.051 65C141.485 65.0289 141.919 65.1447 142.324 65.3761C142.787 65.5787 146.866 67.9512 149.036 69.2242L149.528 69.5136C149.702 69.6293 149.846 69.7161 149.962 69.774L150.193 69.9186L157.919 74.4901C157.745 72.7541 156.848 71.1627 155.459 70.0922C155.633 70.0054 155.835 69.9186 156.009 69.8029C157.543 68.8481 163.127 65.6076 163.676 65.3761C164.052 65.1447 164.486 65.0289 164.949 65C165.962 65.1157 166.917 65.5787 167.64 66.3309ZM153.405 83.0543L155.054 81.405C155.286 81.1736 155.286 80.8264 155.054 80.595L153.405 78.9457C153.174 78.7143 152.826 78.7143 152.595 78.9457L150.946 80.595C150.714 80.8264 150.714 81.1736 150.946 81.405L152.595 83.0543C152.797 83.2568 153.174 83.2568 153.405 83.0543Z" fill="#FD684A"/>
</g>
<rect x="19.2334" y="18.2334" width="102.208" height="18.1357" rx="9.06784" fill="white"/>
<rect x="19.2334" y="18.2334" width="102.208" height="18.1357" rx="9.06784" stroke="#EAECF0" stroke-width="0.46688"/>
<path d="M32.1079 30.0561H32.0725C31.7768 30.6239 31.3066 30.9077 30.662 30.9077C30.1002 30.9077 29.6596 30.6978 29.3403 30.2779C29.0269 29.858 28.8701 29.2696 28.8701 28.5126C28.8701 27.7557 29.0269 27.1672 29.3403 26.7473C29.6596 26.3275 30.1002 26.1175 30.662 26.1175C31.3066 26.1175 31.7768 26.4014 32.0725 26.9691H32.1079V24.2369H32.8176V30.8013H32.1079V30.0561ZM30.937 30.2779C31.0967 30.2779 31.2475 30.2572 31.3894 30.2158C31.5314 30.1744 31.6555 30.1153 31.762 30.0384C31.8684 29.9556 31.9512 29.858 32.0104 29.7457C32.0754 29.6274 32.1079 29.4914 32.1079 29.3376V27.6876C32.1079 27.5339 32.0754 27.4008 32.0104 27.2885C31.9512 27.1702 31.8684 27.0726 31.762 26.9957C31.6555 26.9129 31.5314 26.8508 31.3894 26.8094C31.2475 26.768 31.0967 26.7473 30.937 26.7473C30.523 26.7473 30.2007 26.8745 29.9701 27.1288C29.7454 27.3772 29.633 27.7083 29.633 28.1223V28.9029C29.633 29.3169 29.7454 29.651 29.9701 29.9053C30.2007 30.1537 30.523 30.2779 30.937 30.2779ZM34.4109 24.2369H35.1205V26.9691H35.156C35.4517 26.4014 35.9219 26.1175 36.5665 26.1175C37.1283 26.1175 37.5659 26.3275 37.8793 26.7473C38.1987 27.1672 38.3583 27.7557 38.3583 28.5126C38.3583 29.2696 38.1987 29.858 37.8793 30.2779C37.5659 30.6978 37.1283 30.9077 36.5665 30.9077C35.9219 30.9077 35.4517 30.6239 35.156 30.0561H35.1205V30.8013H34.4109V24.2369ZM36.2915 30.2779C36.7054 30.2779 37.0248 30.1537 37.2495 29.9053C37.4801 29.651 37.5955 29.3169 37.5955 28.9029V28.1223C37.5955 27.7083 37.4801 27.3772 37.2495 27.1288C37.0248 26.8745 36.7054 26.7473 36.2915 26.7473C36.1318 26.7473 35.981 26.768 35.8391 26.8094C35.6971 26.8508 35.5729 26.9129 35.4665 26.9957C35.36 27.0726 35.2743 27.1702 35.2092 27.2885C35.1501 27.4008 35.1205 27.5339 35.1205 27.6876V29.3376C35.1205 29.4914 35.1501 29.6274 35.2092 29.7457C35.2743 29.858 35.36 29.9556 35.4665 30.0384C35.5729 30.1153 35.6971 30.1744 35.8391 30.2158C35.981 30.2572 36.1318 30.2779 36.2915 30.2779ZM41.6814 30.8013C41.3325 30.8013 41.0752 30.7037 40.9097 30.5085C40.75 30.3134 40.6701 30.062 40.6701 29.7545V26.8272H39.1444V26.224H40.2798C40.4336 26.224 40.54 26.1944 40.5992 26.1353C40.6642 26.0702 40.6968 25.9608 40.6968 25.8071V24.6095H41.3798V26.224H43.4644V26.8272H41.3798V30.1981H43.4644V30.8013H41.6814ZM46.6899 30.8811C46.4474 30.8811 46.2759 30.8308 46.1754 30.7303C46.0808 30.6298 46.0335 30.5026 46.0335 30.3489V30.1892C46.0335 30.0354 46.0808 29.9083 46.1754 29.8077C46.2759 29.7072 46.4474 29.6569 46.6899 29.6569C46.9324 29.6569 47.1009 29.7072 47.1955 29.8077C47.2961 29.9083 47.3463 30.0354 47.3463 30.1892V30.3489C47.3463 30.5026 47.2961 30.6298 47.1955 30.7303C47.1009 30.8308 46.9324 30.8811 46.6899 30.8811ZM49.738 30.8013V26.224H50.3944V26.7562H50.4299C50.5008 26.5788 50.6014 26.428 50.7315 26.3038C50.8616 26.1796 51.0538 26.1175 51.3081 26.1175C51.5742 26.1175 51.7723 26.1855 51.9024 26.3216C52.0325 26.4517 52.1124 26.6232 52.1419 26.8361H52.1685C52.2513 26.6291 52.3696 26.4576 52.5234 26.3216C52.6771 26.1855 52.89 26.1175 53.1621 26.1175C53.5346 26.1175 53.783 26.2476 53.9072 26.5078C54.0373 26.768 54.1024 27.1406 54.1024 27.6255V30.8013H53.4459V27.7409C53.4459 27.3506 53.4045 27.0815 53.3217 26.9336C53.2449 26.7799 53.1 26.703 52.8871 26.703C52.6978 26.703 52.5441 26.7651 52.4258 26.8893C52.3075 27.0076 52.2484 27.1909 52.2484 27.4393V30.8013H51.5919V27.7409C51.5919 27.3506 51.5505 27.0815 51.4678 26.9336C51.3909 26.7799 51.2489 26.703 51.042 26.703C50.8527 26.703 50.696 26.7651 50.5718 26.8893C50.4535 27.0076 50.3944 27.1909 50.3944 27.4393V30.8013H49.738ZM57.1504 30.9077C56.8311 30.9077 56.5413 30.8515 56.2811 30.7392C56.0268 30.6268 55.808 30.4671 55.6247 30.2602C55.4472 30.0473 55.3112 29.7959 55.2166 29.5061C55.122 29.2105 55.0747 28.8793 55.0747 28.5126C55.0747 28.1519 55.122 27.8237 55.2166 27.528C55.3112 27.2323 55.4472 26.9809 55.6247 26.774C55.808 26.5611 56.0268 26.3984 56.2811 26.2861C56.5413 26.1737 56.8311 26.1175 57.1504 26.1175C57.4698 26.1175 57.7566 26.1737 58.0109 26.2861C58.2711 26.3984 58.4899 26.5611 58.6673 26.774C58.8506 26.9809 58.9896 27.2323 59.0842 27.528C59.1789 27.8237 59.2262 28.1519 59.2262 28.5126C59.2262 28.8793 59.1789 29.2105 59.0842 29.5061C58.9896 29.7959 58.8506 30.0473 58.6673 30.2602C58.4899 30.4671 58.2711 30.6268 58.0109 30.7392C57.7566 30.8515 57.4698 30.9077 57.1504 30.9077ZM57.1504 30.2956C57.5467 30.2956 57.866 30.1774 58.1085 29.9408C58.3509 29.7043 58.4722 29.3376 58.4722 28.8408V28.1844C58.4722 27.6876 58.3509 27.321 58.1085 27.0844C57.866 26.8479 57.5467 26.7296 57.1504 26.7296C56.7542 26.7296 56.4349 26.8479 56.1924 27.0844C55.9499 27.321 55.8287 27.6876 55.8287 28.1844V28.8408C55.8287 29.3376 55.9499 29.7043 56.1924 29.9408C56.4349 30.1774 56.7542 30.2956 57.1504 30.2956ZM63.4895 30.0561H63.454C63.1584 30.6239 62.6882 30.9077 62.0436 30.9077C61.4818 30.9077 61.0412 30.6978 60.7219 30.2779C60.4084 29.858 60.2517 29.2696 60.2517 28.5126C60.2517 27.7557 60.4084 27.1672 60.7219 26.7473C61.0412 26.3275 61.4818 26.1175 62.0436 26.1175C62.6882 26.1175 63.1584 26.4014 63.454 26.9691H63.4895V24.2369H64.1992V30.8013H63.4895V30.0561ZM62.3186 30.2779C62.4783 30.2779 62.6291 30.2572 62.771 30.2158C62.9129 30.1744 63.0371 30.1153 63.1436 30.0384C63.25 29.9556 63.3328 29.858 63.392 29.7457C63.457 29.6274 63.4895 29.4914 63.4895 29.3376V27.6876C63.4895 27.5339 63.457 27.4008 63.392 27.2885C63.3328 27.1702 63.25 27.0726 63.1436 26.9957C63.0371 26.9129 62.9129 26.8508 62.771 26.8094C62.6291 26.768 62.4783 26.7473 62.3186 26.7473C61.9046 26.7473 61.5823 26.8745 61.3517 27.1288C61.127 27.3772 61.0146 27.7083 61.0146 28.1223V28.9029C61.0146 29.3169 61.127 29.651 61.3517 29.9053C61.5823 30.1537 61.9046 30.2779 62.3186 30.2779ZM67.6908 30.9077C67.3596 30.9077 67.061 30.8515 66.7948 30.7392C66.5346 30.6268 66.3099 30.4671 66.1207 30.2602C65.9373 30.0473 65.7954 29.7959 65.6949 29.5061C65.5943 29.2105 65.5441 28.8822 65.5441 28.5215C65.5441 28.1548 65.5943 27.8237 65.6949 27.528C65.8013 27.2323 65.9462 26.9809 66.1295 26.774C66.3129 26.5611 66.5317 26.3984 66.786 26.2861C67.0462 26.1737 67.333 26.1175 67.6464 26.1175C67.954 26.1175 68.2319 26.1737 68.4803 26.2861C68.7346 26.3984 68.9504 26.5551 69.1278 26.7562C69.3053 26.9514 69.4413 27.185 69.5359 27.457C69.6305 27.729 69.6778 28.0277 69.6778 28.3529V28.69H66.2892V28.9029C66.2892 29.104 66.3217 29.2903 66.3868 29.4618C66.4518 29.6333 66.5435 29.7811 66.6618 29.9053C66.786 30.0295 66.9338 30.1271 67.1053 30.1981C67.2827 30.2631 67.4779 30.2956 67.6908 30.2956C67.9983 30.2956 68.2644 30.2247 68.4892 30.0827C68.7139 29.9408 68.8854 29.7457 69.0037 29.4973L69.527 29.8521C69.391 30.1596 69.1633 30.4139 68.844 30.615C68.5306 30.8101 68.1462 30.9077 67.6908 30.9077ZM67.6464 26.703C67.4513 26.703 67.2709 26.7385 67.1053 26.8094C66.9397 26.8804 66.7948 26.978 66.6707 27.1022C66.5524 27.2264 66.4578 27.3742 66.3868 27.5457C66.3217 27.7113 66.2892 27.8946 66.2892 28.0957V28.1578H68.9149V28.0602C68.9149 27.8591 68.8824 27.6758 68.8174 27.5102C68.7582 27.3446 68.6725 27.2027 68.5601 27.0844C68.4537 26.9602 68.3206 26.8656 68.1609 26.8006C68.0072 26.7355 67.8357 26.703 67.6464 26.703ZM70.8897 30.1981H72.4864V24.8401H70.8897V24.2369H73.196V30.1981H74.7928V30.8013H70.8897V30.1981ZM78.0715 30.8811C77.829 30.8811 77.6575 30.8308 77.557 30.7303C77.4624 30.6298 77.415 30.5026 77.415 30.3489V30.1892C77.415 30.0354 77.4624 29.9083 77.557 29.8077C77.6575 29.7072 77.829 29.6569 78.0715 29.6569C78.3139 29.6569 78.4825 29.7072 78.5771 29.8077C78.6776 29.9083 78.7279 30.0354 78.7279 30.1892V30.3489C78.7279 30.5026 78.6776 30.6298 78.5771 30.7303C78.4825 30.8308 78.3139 30.8811 78.0715 30.8811ZM81.5099 30.8013V26.224H82.2195V26.9691H82.255C82.3023 26.8568 82.3614 26.7503 82.4324 26.6498C82.5034 26.5433 82.5891 26.4517 82.6897 26.3748C82.7961 26.2979 82.9203 26.2358 83.0622 26.1885C83.2042 26.1412 83.3698 26.1175 83.559 26.1175C84.038 26.1175 84.4224 26.2713 84.7122 26.5788C85.002 26.8804 85.1469 27.3092 85.1469 27.8651V30.8013H84.4372V27.9892C84.4372 27.5694 84.3455 27.2589 84.1622 27.0578C83.9789 26.8508 83.7098 26.7473 83.355 26.7473C83.213 26.7473 83.0741 26.7651 82.938 26.8006C82.802 26.8361 82.6808 26.8893 82.5743 26.9602C82.4679 27.0312 82.3821 27.1229 82.3171 27.2352C82.252 27.3476 82.2195 27.4777 82.2195 27.6255V30.8013H81.5099ZM90.2618 30.8013C89.9838 30.8013 89.7857 30.7303 89.6675 30.5884C89.5492 30.4464 89.4753 30.269 89.4457 30.0561H89.4013C89.3008 30.3223 89.1382 30.5322 88.9134 30.686C88.6946 30.8338 88.3989 30.9077 88.0264 30.9077C87.5474 30.9077 87.1659 30.7835 86.8821 30.5351C86.5982 30.2868 86.4563 29.9467 86.4563 29.515C86.4563 29.0892 86.61 28.761 86.9175 28.5304C87.231 28.2997 87.7336 28.1844 88.4256 28.1844H89.4013V27.732C89.4013 27.3949 89.3067 27.1436 89.1175 26.978C88.9282 26.8065 88.6592 26.7207 88.3102 26.7207C88.0027 26.7207 87.7514 26.7828 87.5562 26.907C87.3611 27.0253 87.2044 27.1879 87.0861 27.3949L86.6071 27.0401C86.6662 26.9218 86.746 26.8065 86.8466 26.6941C86.9471 26.5818 87.0713 26.4842 87.2191 26.4014C87.367 26.3127 87.5355 26.2447 87.7248 26.1974C87.914 26.1441 88.124 26.1175 88.3546 26.1175C88.8927 26.1175 89.3185 26.2535 89.632 26.5256C89.9513 26.7976 90.111 27.1761 90.111 27.661V30.1803H90.7497V30.8013H90.2618ZM88.1506 30.3134C88.3339 30.3134 88.4995 30.2927 88.6473 30.2513C88.8011 30.204 88.9341 30.1448 89.0465 30.0739C89.1589 29.997 89.2446 29.9083 89.3038 29.8077C89.3688 29.7013 89.4013 29.5889 89.4013 29.4707V28.7166H88.4256C87.9998 28.7166 87.6893 28.7758 87.4941 28.8941C87.299 29.0123 87.2014 29.1838 87.2014 29.4086V29.5949C87.2014 29.8314 87.2842 30.0118 87.4498 30.136C87.6213 30.2542 87.8549 30.3134 88.1506 30.3134ZM91.5801 30.8013V26.224H92.2365V26.7562H92.272C92.343 26.5788 92.4435 26.428 92.5736 26.3038C92.7037 26.1796 92.8959 26.1175 93.1502 26.1175C93.4163 26.1175 93.6144 26.1855 93.7445 26.3216C93.8746 26.4517 93.9545 26.6232 93.984 26.8361H94.0106C94.0934 26.6291 94.2117 26.4576 94.3655 26.3216C94.5192 26.1855 94.7321 26.1175 95.0042 26.1175C95.3767 26.1175 95.6251 26.2476 95.7493 26.5078C95.8794 26.768 95.9445 27.1406 95.9445 27.6255V30.8013H95.288V27.7409C95.288 27.3506 95.2466 27.0815 95.1638 26.9336C95.087 26.7799 94.9421 26.703 94.7292 26.703C94.5399 26.703 94.3862 26.7651 94.2679 26.8893C94.1496 27.0076 94.0905 27.1909 94.0905 27.4393V30.8013H93.4341V27.7409C93.4341 27.3506 93.3927 27.0815 93.3099 26.9336C93.233 26.7799 93.0911 26.703 92.8841 26.703C92.6948 26.703 92.5381 26.7651 92.4139 26.8893C92.2956 27.0076 92.2365 27.1909 92.2365 27.4393V30.8013H91.5801ZM99.0724 30.9077C98.7412 30.9077 98.4425 30.8515 98.1764 30.7392C97.9162 30.6268 97.6915 30.4671 97.5022 30.2602C97.3189 30.0473 97.177 29.7959 97.0765 29.5061C96.9759 29.2105 96.9257 28.8822 96.9257 28.5215C96.9257 28.1548 96.9759 27.8237 97.0765 27.528C97.1829 27.2323 97.3278 26.9809 97.5111 26.774C97.6944 26.5611 97.9133 26.3984 98.1676 26.2861C98.4278 26.1737 98.7146 26.1175 99.028 26.1175C99.3355 26.1175 99.6135 26.1737 99.8619 26.2861C100.116 26.3984 100.332 26.5551 100.509 26.7562C100.687 26.9514 100.823 27.185 100.917 27.457C101.012 27.729 101.059 28.0277 101.059 28.3529V28.69H97.6708V28.9029C97.6708 29.104 97.7033 29.2903 97.7684 29.4618C97.8334 29.6333 97.9251 29.7811 98.0434 29.9053C98.1676 30.0295 98.3154 30.1271 98.4869 30.1981C98.6643 30.2631 98.8595 30.2956 99.0724 30.2956C99.3799 30.2956 99.646 30.2247 99.8707 30.0827C100.095 29.9408 100.267 29.7457 100.385 29.4973L100.909 29.8521C100.773 30.1596 100.545 30.4139 100.226 30.615C99.9121 30.8101 99.5277 30.9077 99.0724 30.9077ZM99.028 26.703C98.8329 26.703 98.6525 26.7385 98.4869 26.8094C98.3213 26.8804 98.1764 26.978 98.0522 27.1022C97.934 27.2264 97.8393 27.3742 97.7684 27.5457C97.7033 27.7113 97.6708 27.8946 97.6708 28.0957V28.1578H100.297V28.0602C100.297 27.8591 100.264 27.6758 100.199 27.5102C100.14 27.3446 100.054 27.2027 99.9417 27.0844C99.8353 26.9602 99.7022 26.8656 99.5425 26.8006C99.3888 26.7355 99.2173 26.703 99.028 26.703ZM104.223 30.8811C103.98 30.8811 103.809 30.8308 103.708 30.7303C103.614 30.6298 103.566 30.5026 103.566 30.3489V30.1892C103.566 30.0354 103.614 29.9083 103.708 29.8077C103.809 29.7072 103.98 29.6569 104.223 29.6569C104.465 29.6569 104.634 29.7072 104.728 29.8077C104.829 29.9083 104.879 30.0354 104.879 30.1892V30.3489C104.879 30.5026 104.829 30.6298 104.728 30.7303C104.634 30.8308 104.465 30.8811 104.223 30.8811ZM107.546 30.8013V30.1537H109.32V25.1595H109.258L107.697 26.6143L107.262 26.1441L108.903 24.6095H110.065V30.1537H111.697V30.8013H107.546Z" fill="#667085"/>
<rect x="191.221" y="42.2212" width="97.25" height="16.8654" rx="8.43269" fill="white"/>
<rect x="191.221" y="42.2212" width="97.25" height="16.8654" rx="8.43269" stroke="#EAECF0" stroke-width="0.442308"/>
<path d="M203.417 52.9479H203.384C203.104 53.4858 202.658 53.7547 202.048 53.7547C201.515 53.7547 201.098 53.5558 200.795 53.158C200.498 52.7602 200.35 52.2028 200.35 51.4856C200.35 50.7685 200.498 50.2111 200.795 49.8133C201.098 49.4155 201.515 49.2166 202.048 49.2166C202.658 49.2166 203.104 49.4855 203.384 50.0234H203.417V47.435H204.09V53.6538H203.417V52.9479ZM202.308 53.158C202.459 53.158 202.602 53.1384 202.737 53.0992C202.871 53.06 202.989 53.0039 203.09 52.9311C203.19 52.8527 203.269 52.7602 203.325 52.6538C203.387 52.5417 203.417 52.4129 203.417 52.2672V50.7041C203.417 50.5584 203.387 50.4324 203.325 50.3259C203.269 50.2139 203.19 50.1214 203.09 50.0486C202.989 49.9702 202.871 49.9113 202.737 49.8721C202.602 49.8329 202.459 49.8133 202.308 49.8133C201.916 49.8133 201.611 49.9337 201.392 50.1746C201.179 50.41 201.073 50.7237 201.073 51.1159V51.8554C201.073 52.2476 201.179 52.5641 201.392 52.8051C201.611 53.0404 201.916 53.158 202.308 53.158ZM205.599 47.435H206.271V50.0234H206.305C206.585 49.4855 207.031 49.2166 207.641 49.2166C208.173 49.2166 208.588 49.4155 208.885 49.8133C209.187 50.2111 209.339 50.7685 209.339 51.4856C209.339 52.2028 209.187 52.7602 208.885 53.158C208.588 53.5558 208.173 53.7547 207.641 53.7547C207.031 53.7547 206.585 53.4858 206.305 52.9479H206.271V53.6538H205.599V47.435ZM207.381 53.158C207.773 53.158 208.075 53.0404 208.288 52.8051C208.507 52.5641 208.616 52.2476 208.616 51.8554V51.1159C208.616 50.7237 208.507 50.41 208.288 50.1746C208.075 49.9337 207.773 49.8133 207.381 49.8133C207.229 49.8133 207.087 49.8329 206.952 49.8721C206.818 49.9113 206.7 49.9702 206.599 50.0486C206.498 50.1214 206.417 50.2139 206.355 50.3259C206.299 50.4324 206.271 50.5584 206.271 50.7041V52.2672C206.271 52.4129 206.299 52.5417 206.355 52.6538C206.417 52.7602 206.498 52.8527 206.599 52.9311C206.7 53.0039 206.818 53.06 206.952 53.0992C207.087 53.1384 207.229 53.158 207.381 53.158ZM212.487 53.6538C212.156 53.6538 211.913 53.5614 211.756 53.3765C211.605 53.1916 211.529 52.9535 211.529 52.6622V49.8889H210.083V49.3175H211.159C211.305 49.3175 211.406 49.2894 211.462 49.2334C211.523 49.1718 211.554 49.0681 211.554 48.9225V47.788H212.201V49.3175H214.176V49.8889H212.201V53.0824H214.176V53.6538H212.487ZM217.232 53.7295C217.002 53.7295 216.84 53.6819 216.744 53.5866C216.655 53.4914 216.61 53.3709 216.61 53.2252V53.074C216.61 52.9283 216.655 52.8079 216.744 52.7126C216.84 52.6174 217.002 52.5697 217.232 52.5697C217.462 52.5697 217.621 52.6174 217.711 52.7126C217.806 52.8079 217.854 52.9283 217.854 53.074V53.2252C217.854 53.3709 217.806 53.4914 217.711 53.5866C217.621 53.6819 217.462 53.7295 217.232 53.7295ZM220.119 53.6538V49.3175H220.741V49.8217H220.775C220.842 49.6536 220.937 49.5107 221.061 49.3931C221.184 49.2754 221.366 49.2166 221.607 49.2166C221.859 49.2166 222.047 49.281 222.17 49.4099C222.293 49.5332 222.369 49.6956 222.397 49.8973H222.422C222.501 49.7012 222.613 49.5388 222.758 49.4099C222.904 49.281 223.106 49.2166 223.363 49.2166C223.716 49.2166 223.952 49.3399 224.069 49.5864C224.193 49.8329 224.254 50.1859 224.254 50.6453V53.6538H223.632V50.7545C223.632 50.3847 223.593 50.1298 223.515 49.9898C223.442 49.8441 223.305 49.7713 223.103 49.7713C222.924 49.7713 222.778 49.8301 222.666 49.9477C222.554 50.0598 222.498 50.2335 222.498 50.4688V53.6538H221.876V50.7545C221.876 50.3847 221.837 50.1298 221.758 49.9898C221.685 49.8441 221.551 49.7713 221.355 49.7713C221.176 49.7713 221.027 49.8301 220.909 49.9477C220.797 50.0598 220.741 50.2335 220.741 50.4688V53.6538H220.119ZM227.142 53.7547C226.839 53.7547 226.565 53.7015 226.318 53.595C226.077 53.4886 225.87 53.3373 225.696 53.1412C225.528 52.9395 225.399 52.7014 225.31 52.4269C225.22 52.1467 225.175 51.833 225.175 51.4856C225.175 51.1439 225.22 50.8329 225.31 50.5528C225.399 50.2727 225.528 50.0346 225.696 49.8385C225.87 49.6368 226.077 49.4827 226.318 49.3763C226.565 49.2698 226.839 49.2166 227.142 49.2166C227.444 49.2166 227.716 49.2698 227.957 49.3763C228.203 49.4827 228.411 49.6368 228.579 49.8385C228.753 50.0346 228.884 50.2727 228.974 50.5528C229.063 50.8329 229.108 51.1439 229.108 51.4856C229.108 51.833 229.063 52.1467 228.974 52.4269C228.884 52.7014 228.753 52.9395 228.579 53.1412C228.411 53.3373 228.203 53.4886 227.957 53.595C227.716 53.7015 227.444 53.7547 227.142 53.7547ZM227.142 53.1748C227.517 53.1748 227.82 53.0628 228.049 52.8387C228.279 52.6146 228.394 52.2672 228.394 51.7966V51.1747C228.394 50.7041 228.279 50.3567 228.049 50.1326C227.82 49.9085 227.517 49.7965 227.142 49.7965C226.766 49.7965 226.464 49.9085 226.234 50.1326C226.004 50.3567 225.89 50.7041 225.89 51.1747V51.7966C225.89 52.2672 226.004 52.6146 226.234 52.8387C226.464 53.0628 226.766 53.1748 227.142 53.1748ZM233.147 52.9479H233.114C232.834 53.4858 232.388 53.7547 231.777 53.7547C231.245 53.7547 230.828 53.5558 230.525 53.158C230.228 52.7602 230.08 52.2028 230.08 51.4856C230.08 50.7685 230.228 50.2111 230.525 49.8133C230.828 49.4155 231.245 49.2166 231.777 49.2166C232.388 49.2166 232.834 49.4855 233.114 50.0234H233.147V47.435H233.82V53.6538H233.147V52.9479ZM232.038 53.158C232.189 53.158 232.332 53.1384 232.467 53.0992C232.601 53.06 232.719 53.0039 232.82 52.9311C232.92 52.8527 232.999 52.7602 233.055 52.6538C233.116 52.5417 233.147 52.4129 233.147 52.2672V50.7041C233.147 50.5584 233.116 50.4324 233.055 50.3259C232.999 50.2139 232.92 50.1214 232.82 50.0486C232.719 49.9702 232.601 49.9113 232.467 49.8721C232.332 49.8329 232.189 49.8133 232.038 49.8133C231.646 49.8133 231.34 49.9337 231.122 50.1746C230.909 50.41 230.803 50.7237 230.803 51.1159V51.8554C230.803 52.2476 230.909 52.5641 231.122 52.8051C231.34 53.0404 231.646 53.158 232.038 53.158ZM237.127 53.7547C236.814 53.7547 236.531 53.7015 236.279 53.595C236.032 53.4886 235.819 53.3373 235.64 53.1412C235.466 52.9395 235.332 52.7014 235.237 52.4269C235.141 52.1467 235.094 51.8358 235.094 51.4941C235.094 51.1467 235.141 50.8329 235.237 50.5528C235.337 50.2727 235.475 50.0346 235.648 49.8385C235.822 49.6368 236.029 49.4827 236.27 49.3763C236.517 49.2698 236.788 49.2166 237.085 49.2166C237.377 49.2166 237.64 49.2698 237.875 49.3763C238.116 49.4827 238.321 49.6312 238.489 49.8217C238.657 50.0066 238.786 50.2279 238.875 50.4856C238.965 50.7433 239.01 51.0262 239.01 51.3344V51.6537H235.8V51.8554C235.8 52.0459 235.83 52.2224 235.892 52.3849C235.954 52.5473 236.041 52.6874 236.153 52.8051C236.27 52.9227 236.41 53.0151 236.573 53.0824C236.741 53.144 236.926 53.1748 237.127 53.1748C237.419 53.1748 237.671 53.1076 237.884 52.9731C238.097 52.8387 238.259 52.6538 238.371 52.4185L238.867 52.7546C238.738 53.046 238.522 53.2869 238.22 53.4774C237.923 53.6622 237.559 53.7547 237.127 53.7547ZM237.085 49.7713C236.9 49.7713 236.73 49.8049 236.573 49.8721C236.416 49.9393 236.279 50.0318 236.161 50.1494C236.049 50.2671 235.959 50.4072 235.892 50.5696C235.83 50.7265 235.8 50.9002 235.8 51.0907V51.1495H238.287V51.0571C238.287 50.8666 238.256 50.6929 238.195 50.536C238.139 50.3791 238.057 50.2447 237.951 50.1326C237.85 50.015 237.724 49.9253 237.573 49.8637C237.427 49.8021 237.265 49.7713 237.085 49.7713ZM240.158 53.0824H241.671V48.0065H240.158V47.435H242.343V53.0824H243.856V53.6538H240.158V53.0824ZM246.962 53.7295C246.732 53.7295 246.57 53.6819 246.474 53.5866C246.385 53.4914 246.34 53.3709 246.34 53.2252V53.074C246.34 52.9283 246.385 52.8079 246.474 52.7126C246.57 52.6174 246.732 52.5697 246.962 52.5697C247.191 52.5697 247.351 52.6174 247.441 52.7126C247.536 52.8079 247.584 52.9283 247.584 53.074V53.2252C247.584 53.3709 247.536 53.4914 247.441 53.5866C247.351 53.6819 247.191 53.7295 246.962 53.7295ZM250.219 53.6538V49.3175H250.891V50.0234H250.925C250.97 49.9169 251.026 49.8161 251.093 49.7208C251.16 49.62 251.242 49.5332 251.337 49.4603C251.438 49.3875 251.555 49.3287 251.69 49.2838C251.824 49.239 251.981 49.2166 252.16 49.2166C252.614 49.2166 252.978 49.3623 253.253 49.6536C253.527 49.9393 253.665 50.3455 253.665 50.8722V53.6538H252.992V50.9898C252.992 50.592 252.906 50.2979 252.732 50.1074C252.558 49.9113 252.303 49.8133 251.967 49.8133C251.833 49.8133 251.701 49.8301 251.572 49.8637C251.443 49.8973 251.328 49.9477 251.228 50.015C251.127 50.0822 251.046 50.169 250.984 50.2755C250.922 50.3819 250.891 50.5052 250.891 50.6453V53.6538H250.219ZM258.51 53.6538C258.247 53.6538 258.059 53.5866 257.947 53.4521C257.835 53.3177 257.765 53.1496 257.737 52.9479H257.695C257.6 53.2 257.446 53.3989 257.233 53.5446C257.026 53.6847 256.746 53.7547 256.393 53.7547C255.939 53.7547 255.578 53.637 255.309 53.4017C255.04 53.1664 254.905 52.8443 254.905 52.4353C254.905 52.0319 255.051 51.721 255.342 51.5025C255.639 51.284 256.115 51.1747 256.771 51.1747H257.695V50.7461C257.695 50.4268 257.606 50.1887 257.426 50.0318C257.247 49.8693 256.992 49.7881 256.662 49.7881C256.37 49.7881 256.132 49.8469 255.947 49.9646C255.762 50.0766 255.614 50.2307 255.502 50.4268L255.048 50.0906C255.104 49.9786 255.18 49.8693 255.275 49.7629C255.37 49.6564 255.488 49.564 255.628 49.4855C255.768 49.4015 255.928 49.3371 256.107 49.2922C256.286 49.2418 256.485 49.2166 256.704 49.2166C257.213 49.2166 257.617 49.3455 257.914 49.6032C258.216 49.8609 258.368 50.2195 258.368 50.6789V53.0656H258.973V53.6538H258.51ZM256.51 53.1916C256.684 53.1916 256.841 53.172 256.981 53.1328C257.127 53.088 257.253 53.032 257.359 52.9647C257.466 52.8919 257.547 52.8079 257.603 52.7126C257.664 52.6118 257.695 52.5053 257.695 52.3933V51.6789H256.771C256.367 51.6789 256.073 51.735 255.888 51.847C255.704 51.9591 255.611 52.1215 255.611 52.3344V52.5109C255.611 52.735 255.69 52.9059 255.846 53.0236C256.009 53.1356 256.23 53.1916 256.51 53.1916ZM259.759 53.6538V49.3175H260.381V49.8217H260.415C260.482 49.6536 260.577 49.5107 260.701 49.3931C260.824 49.2754 261.006 49.2166 261.247 49.2166C261.499 49.2166 261.687 49.281 261.81 49.4099C261.933 49.5332 262.009 49.6956 262.037 49.8973H262.062C262.14 49.7012 262.252 49.5388 262.398 49.4099C262.544 49.281 262.746 49.2166 263.003 49.2166C263.356 49.2166 263.592 49.3399 263.709 49.5864C263.832 49.8329 263.894 50.1859 263.894 50.6453V53.6538H263.272V50.7545C263.272 50.3847 263.233 50.1298 263.155 49.9898C263.082 49.8441 262.944 49.7713 262.743 49.7713C262.563 49.7713 262.418 49.8301 262.306 49.9477C262.194 50.0598 262.138 50.2335 262.138 50.4688V53.6538H261.516V50.7545C261.516 50.3847 261.477 50.1298 261.398 49.9898C261.325 49.8441 261.191 49.7713 260.995 49.7713C260.815 49.7713 260.667 49.8301 260.549 49.9477C260.437 50.0598 260.381 50.2335 260.381 50.4688V53.6538H259.759ZM266.857 53.7547C266.544 53.7547 266.261 53.7015 266.009 53.595C265.762 53.4886 265.549 53.3373 265.37 53.1412C265.196 52.9395 265.062 52.7014 264.966 52.4269C264.871 52.1467 264.824 51.8358 264.824 51.4941C264.824 51.1467 264.871 50.8329 264.966 50.5528C265.067 50.2727 265.205 50.0346 265.378 49.8385C265.552 49.6368 265.759 49.4827 266 49.3763C266.247 49.2698 266.518 49.2166 266.815 49.2166C267.107 49.2166 267.37 49.2698 267.605 49.3763C267.846 49.4827 268.051 49.6312 268.219 49.8217C268.387 50.0066 268.516 50.2279 268.605 50.4856C268.695 50.7433 268.74 51.0262 268.74 51.3344V51.6537H265.53V51.8554C265.53 52.0459 265.56 52.2224 265.622 52.3849C265.684 52.5473 265.77 52.6874 265.882 52.8051C266 52.9227 266.14 53.0151 266.303 53.0824C266.471 53.144 266.656 53.1748 266.857 53.1748C267.149 53.1748 267.401 53.1076 267.614 52.9731C267.827 52.8387 267.989 52.6538 268.101 52.4185L268.597 52.7546C268.468 53.046 268.252 53.2869 267.95 53.4774C267.653 53.6622 267.289 53.7547 266.857 53.7547ZM266.815 49.7713C266.63 49.7713 266.46 49.8049 266.303 49.8721C266.146 49.9393 266.009 50.0318 265.891 50.1494C265.779 50.2671 265.689 50.4072 265.622 50.5696C265.56 50.7265 265.53 50.9002 265.53 51.0907V51.1495H268.017V51.0571C268.017 50.8666 267.986 50.6929 267.925 50.536C267.869 50.3791 267.787 50.2447 267.681 50.1326C267.58 50.015 267.454 49.9253 267.303 49.8637C267.157 49.8021 266.995 49.7713 266.815 49.7713ZM271.737 53.7295C271.507 53.7295 271.344 53.6819 271.249 53.5866C271.16 53.4914 271.115 53.3709 271.115 53.2252V53.074C271.115 52.9283 271.16 52.8079 271.249 52.7126C271.344 52.6174 271.507 52.5697 271.737 52.5697C271.966 52.5697 272.126 52.6174 272.216 52.7126C272.311 52.8079 272.359 52.9283 272.359 53.074V53.2252C272.359 53.3709 272.311 53.4914 272.216 53.5866C272.126 53.6819 271.966 53.7295 271.737 53.7295ZM278.683 53.6538H274.767V52.9311L276.725 51.1663C277.011 50.9086 277.246 50.6453 277.431 50.3763C277.616 50.1018 277.709 49.8133 277.709 49.5107V49.4099C277.709 49.0569 277.616 48.7852 277.431 48.5947C277.246 48.3986 276.972 48.3006 276.608 48.3006C276.249 48.3006 275.972 48.393 275.776 48.5779C275.585 48.7572 275.442 48.9981 275.347 49.3006L274.717 49.0653C274.773 48.8917 274.848 48.7236 274.944 48.5611C275.045 48.393 275.171 48.2446 275.322 48.1157C275.473 47.9868 275.655 47.8832 275.868 47.8048C276.087 47.7263 276.339 47.6871 276.624 47.6871C276.916 47.6871 277.173 47.7291 277.398 47.8132C277.627 47.8972 277.818 48.0149 277.969 48.1661C278.126 48.3174 278.244 48.4967 278.322 48.704C278.406 48.9113 278.448 49.1382 278.448 49.3847C278.448 49.6088 278.414 49.8189 278.347 50.015C278.286 50.2111 278.196 50.3987 278.078 50.578C277.966 50.7573 277.829 50.9338 277.667 51.1075C277.51 51.2756 277.333 51.4436 277.137 51.6117L275.498 53.0404H278.683V53.6538Z" fill="#667085"/>
<rect x="31.1714" y="110.242" width="75.3671" height="13.7702" rx="6.8851" fill="white"/>
<rect x="31.1714" y="110.242" width="75.3671" height="13.7702" rx="6.8851" stroke="#EAECF0" stroke-width="0.342745"/>
<path d="M40.6222 118.58H40.5961C40.379 118.997 40.0339 119.205 39.5607 119.205C39.1482 119.205 38.8248 119.051 38.5904 118.743C38.3603 118.434 38.2452 118.002 38.2452 117.447C38.2452 116.891 38.3603 116.459 38.5904 116.151C38.8248 115.842 39.1482 115.688 39.5607 115.688C40.0339 115.688 40.379 115.897 40.5961 116.314H40.6222V114.308H41.1431V119.127H40.6222V118.58ZM39.7626 118.743C39.8798 118.743 39.9905 118.727 40.0947 118.697C40.1989 118.667 40.29 118.623 40.3682 118.567C40.4463 118.506 40.5071 118.434 40.5505 118.352C40.5983 118.265 40.6222 118.165 40.6222 118.052V116.841C40.6222 116.728 40.5983 116.63 40.5505 116.548C40.5071 116.461 40.4463 116.389 40.3682 116.333C40.29 116.272 40.1989 116.227 40.0947 116.196C39.9905 116.166 39.8798 116.151 39.7626 116.151C39.4587 116.151 39.222 116.244 39.0527 116.431C38.8878 116.613 38.8053 116.856 38.8053 117.16V117.733C38.8053 118.037 38.8878 118.282 39.0527 118.469C39.222 118.651 39.4587 118.743 39.7626 118.743ZM42.3128 114.308H42.8337V116.314H42.8598C43.0769 115.897 43.422 115.688 43.8952 115.688C44.3077 115.688 44.6289 115.842 44.859 116.151C45.0935 116.459 45.2107 116.891 45.2107 117.447C45.2107 118.002 45.0935 118.434 44.859 118.743C44.6289 119.051 44.3077 119.205 43.8952 119.205C43.422 119.205 43.0769 118.997 42.8598 118.58H42.8337V119.127H42.3128V114.308ZM43.6934 118.743C43.9973 118.743 44.2317 118.651 44.3967 118.469C44.566 118.282 44.6506 118.037 44.6506 117.733V117.16C44.6506 116.856 44.566 116.613 44.3967 116.431C44.2317 116.244 43.9973 116.151 43.6934 116.151C43.5761 116.151 43.4654 116.166 43.3612 116.196C43.257 116.227 43.1659 116.272 43.0877 116.333C43.0096 116.389 42.9466 116.461 42.8989 116.548C42.8555 116.63 42.8337 116.728 42.8337 116.841V118.052C42.8337 118.165 42.8555 118.265 42.8989 118.352C42.9466 118.434 43.0096 118.506 43.0877 118.567C43.1659 118.623 43.257 118.667 43.3612 118.697C43.4654 118.727 43.5761 118.743 43.6934 118.743ZM47.6502 119.127C47.3941 119.127 47.2052 119.055 47.0836 118.912C46.9664 118.769 46.9078 118.584 46.9078 118.358V116.209H45.7877V115.766H46.6213C46.7342 115.766 46.8123 115.745 46.8557 115.701C46.9035 115.654 46.9274 115.573 46.9274 115.46V114.581H47.4288V115.766H48.9591V116.209H47.4288V118.684H48.9591V119.127H47.6502ZM51.327 119.185C51.149 119.185 51.0231 119.148 50.9493 119.075C50.8799 119.001 50.8451 118.908 50.8451 118.795V118.677C50.8451 118.565 50.8799 118.471 50.9493 118.397C51.0231 118.324 51.149 118.287 51.327 118.287C51.505 118.287 51.6288 118.324 51.6982 118.397C51.772 118.471 51.8089 118.565 51.8089 118.677V118.795C51.8089 118.908 51.772 119.001 51.6982 119.075C51.6288 119.148 51.505 119.185 51.327 119.185ZM53.5647 119.127V115.766H54.0466V116.157H54.0726C54.1247 116.027 54.1985 115.916 54.294 115.825C54.3895 115.734 54.5306 115.688 54.7173 115.688C54.9127 115.688 55.0581 115.738 55.1536 115.838C55.2491 115.934 55.3077 116.06 55.3295 116.216H55.349C55.4098 116.064 55.4966 115.938 55.6095 115.838C55.7224 115.738 55.8786 115.688 56.0784 115.688C56.3519 115.688 56.5342 115.784 56.6254 115.975C56.7209 116.166 56.7686 116.439 56.7686 116.795V119.127H56.2867V116.88C56.2867 116.594 56.2564 116.396 56.1956 116.287C56.1391 116.175 56.0328 116.118 55.8765 116.118C55.7376 116.118 55.6247 116.164 55.5378 116.255C55.451 116.342 55.4076 116.476 55.4076 116.659V119.127H54.9257V116.88C54.9257 116.594 54.8953 116.396 54.8345 116.287C54.7781 116.175 54.6739 116.118 54.5219 116.118C54.383 116.118 54.268 116.164 54.1768 116.255C54.09 116.342 54.0466 116.476 54.0466 116.659V119.127H53.5647ZM59.0063 119.205C58.7718 119.205 58.5591 119.164 58.3681 119.081C58.1814 118.999 58.0208 118.881 57.8862 118.73C57.7559 118.573 57.6561 118.389 57.5866 118.176C57.5172 117.959 57.4824 117.716 57.4824 117.447C57.4824 117.182 57.5172 116.941 57.5866 116.724C57.6561 116.507 57.7559 116.322 57.8862 116.17C58.0208 116.014 58.1814 115.895 58.3681 115.812C58.5591 115.73 58.7718 115.688 59.0063 115.688C59.2407 115.688 59.4513 115.73 59.638 115.812C59.829 115.895 59.9896 116.014 60.1199 116.17C60.2544 116.322 60.3565 116.507 60.4259 116.724C60.4954 116.941 60.5301 117.182 60.5301 117.447C60.5301 117.716 60.4954 117.959 60.4259 118.176C60.3565 118.389 60.2544 118.573 60.1199 118.73C59.9896 118.881 59.829 118.999 59.638 119.081C59.4513 119.164 59.2407 119.205 59.0063 119.205ZM59.0063 118.756C59.2972 118.756 59.5316 118.669 59.7096 118.495C59.8876 118.321 59.9766 118.052 59.9766 117.688V117.206C59.9766 116.841 59.8876 116.572 59.7096 116.398C59.5316 116.225 59.2972 116.138 59.0063 116.138C58.7154 116.138 58.481 116.225 58.303 116.398C58.125 116.572 58.036 116.841 58.036 117.206V117.688C58.036 118.052 58.125 118.321 58.303 118.495C58.481 118.669 58.7154 118.756 59.0063 118.756ZM63.6599 118.58H63.6339C63.4168 118.997 63.0717 119.205 62.5984 119.205C62.186 119.205 61.8626 119.051 61.6281 118.743C61.398 118.434 61.283 118.002 61.283 117.447C61.283 116.891 61.398 116.459 61.6281 116.151C61.8626 115.842 62.186 115.688 62.5984 115.688C63.0717 115.688 63.4168 115.897 63.6339 116.314H63.6599V114.308H64.1809V119.127H63.6599V118.58ZM62.8003 118.743C62.9175 118.743 63.0283 118.727 63.1324 118.697C63.2366 118.667 63.3278 118.623 63.406 118.567C63.4841 118.506 63.5449 118.434 63.5883 118.352C63.6361 118.265 63.6599 118.165 63.6599 118.052V116.841C63.6599 116.728 63.6361 116.63 63.5883 116.548C63.5449 116.461 63.4841 116.389 63.406 116.333C63.3278 116.272 63.2366 116.227 63.1324 116.196C63.0283 116.166 62.9175 116.151 62.8003 116.151C62.4964 116.151 62.2598 116.244 62.0905 116.431C61.9255 116.613 61.843 116.856 61.843 117.16V117.733C61.843 118.037 61.9255 118.282 62.0905 118.469C62.2598 118.651 62.4964 118.743 62.8003 118.743ZM66.7441 119.205C66.501 119.205 66.2818 119.164 66.0864 119.081C65.8954 118.999 65.7304 118.881 65.5915 118.73C65.4569 118.573 65.3527 118.389 65.2789 118.176C65.2051 117.959 65.1682 117.718 65.1682 117.453C65.1682 117.184 65.2051 116.941 65.2789 116.724C65.3571 116.507 65.4634 116.322 65.598 116.17C65.7326 116.014 65.8932 115.895 66.0799 115.812C66.2709 115.73 66.4815 115.688 66.7116 115.688C66.9373 115.688 67.1414 115.73 67.3237 115.812C67.5104 115.895 67.6689 116.01 67.7991 116.157C67.9294 116.3 68.0292 116.472 68.0987 116.672C68.1681 116.871 68.2029 117.091 68.2029 117.329V117.577H65.7152V117.733C65.7152 117.881 65.7391 118.018 65.7869 118.143C65.8346 118.269 65.9019 118.378 65.9887 118.469C66.0799 118.56 66.1884 118.632 66.3143 118.684C66.4446 118.732 66.5879 118.756 66.7441 118.756C66.9699 118.756 67.1653 118.703 67.3302 118.599C67.4952 118.495 67.6211 118.352 67.7079 118.169L68.0922 118.43C67.9923 118.656 67.8252 118.842 67.5907 118.99C67.3606 119.133 67.0784 119.205 66.7441 119.205ZM66.7116 116.118C66.5683 116.118 66.4359 116.144 66.3143 116.196C66.1928 116.248 66.0864 116.32 65.9953 116.411C65.9084 116.502 65.839 116.611 65.7869 116.737C65.7391 116.858 65.7152 116.993 65.7152 117.141V117.186H67.6428V117.115C67.6428 116.967 67.6189 116.832 67.5712 116.711C67.5278 116.589 67.4648 116.485 67.3823 116.398C67.3042 116.307 67.2065 116.238 67.0893 116.19C66.9764 116.142 66.8505 116.118 66.7116 116.118ZM69.0925 118.684H70.2647V114.751H69.0925V114.308H70.7857V118.684H71.9578V119.127H69.0925V118.684ZM74.3648 119.185C74.1868 119.185 74.0609 119.148 73.9871 119.075C73.9176 119.001 73.8829 118.908 73.8829 118.795V118.677C73.8829 118.565 73.9176 118.471 73.9871 118.397C74.0609 118.324 74.1868 118.287 74.3648 118.287C74.5428 118.287 74.6665 118.324 74.736 118.397C74.8098 118.471 74.8467 118.565 74.8467 118.677V118.795C74.8467 118.908 74.8098 119.001 74.736 119.075C74.6665 119.148 74.5428 119.185 74.3648 119.185ZM76.889 119.127V115.766H77.4099V116.314H77.436C77.4707 116.231 77.5141 116.153 77.5662 116.079C77.6183 116.001 77.6813 115.934 77.7551 115.877C77.8332 115.821 77.9244 115.775 78.0286 115.74C78.1328 115.706 78.2544 115.688 78.3933 115.688C78.7449 115.688 79.0271 115.801 79.2399 116.027C79.4526 116.248 79.559 116.563 79.559 116.971V119.127H79.038V117.062C79.038 116.754 78.9707 116.526 78.8361 116.379C78.7015 116.227 78.504 116.151 78.2435 116.151C78.1393 116.151 78.0373 116.164 77.9374 116.19C77.8376 116.216 77.7486 116.255 77.6704 116.307C77.5923 116.359 77.5293 116.426 77.4816 116.509C77.4338 116.591 77.4099 116.687 77.4099 116.795V119.127H76.889ZM83.3139 119.127C83.1099 119.127 82.9644 119.075 82.8776 118.97C82.7908 118.866 82.7365 118.736 82.7148 118.58H82.6822C82.6084 118.775 82.489 118.929 82.3241 119.042C82.1634 119.151 81.9464 119.205 81.6729 119.205C81.3212 119.205 81.0412 119.114 80.8328 118.931C80.6244 118.749 80.5202 118.499 80.5202 118.183C80.5202 117.87 80.6331 117.629 80.8588 117.46C81.0889 117.29 81.458 117.206 81.9659 117.206H82.6822V116.874C82.6822 116.626 82.6128 116.442 82.4739 116.32C82.3349 116.194 82.1374 116.131 81.8812 116.131C81.6555 116.131 81.471 116.177 81.3277 116.268C81.1844 116.355 81.0694 116.474 80.9826 116.626L80.6309 116.366C80.6743 116.279 80.7329 116.194 80.8067 116.112C80.8805 116.029 80.9717 115.958 81.0803 115.897C81.1888 115.832 81.3125 115.782 81.4514 115.747C81.5904 115.708 81.7445 115.688 81.9138 115.688C82.3089 115.688 82.6215 115.788 82.8516 115.988C83.086 116.188 83.2032 116.465 83.2032 116.821V118.671H83.6721V119.127H83.3139ZM81.764 118.769C81.8986 118.769 82.0202 118.753 82.1287 118.723C82.2416 118.688 82.3393 118.645 82.4218 118.593C82.5042 118.536 82.5672 118.471 82.6106 118.397C82.6584 118.319 82.6822 118.237 82.6822 118.15V117.596H81.9659C81.6533 117.596 81.4254 117.64 81.2821 117.727C81.1389 117.813 81.0672 117.939 81.0672 118.104V118.241C81.0672 118.415 81.128 118.547 81.2496 118.638C81.3755 118.725 81.547 118.769 81.764 118.769ZM84.2817 119.127V115.766H84.7636V116.157H84.7896C84.8417 116.027 84.9155 115.916 85.0111 115.825C85.1066 115.734 85.2477 115.688 85.4343 115.688C85.6297 115.688 85.7751 115.738 85.8707 115.838C85.9662 115.934 86.0248 116.06 86.0465 116.216H86.066C86.1268 116.064 86.2136 115.938 86.3265 115.838C86.4394 115.738 86.5957 115.688 86.7954 115.688C87.0689 115.688 87.2512 115.784 87.3424 115.975C87.4379 116.166 87.4857 116.439 87.4857 116.795V119.127H87.0038V116.88C87.0038 116.594 86.9734 116.396 86.9126 116.287C86.8562 116.175 86.7498 116.118 86.5935 116.118C86.4546 116.118 86.3417 116.164 86.2549 116.255C86.168 116.342 86.1246 116.476 86.1246 116.659V119.127H85.6427V116.88C85.6427 116.594 85.6123 116.396 85.5516 116.287C85.4951 116.175 85.3909 116.118 85.239 116.118C85.1001 116.118 84.985 116.164 84.8938 116.255C84.807 116.342 84.7636 116.476 84.7636 116.659V119.127H84.2817ZM89.7819 119.205C89.5388 119.205 89.3196 119.164 89.1242 119.081C88.9332 118.999 88.7682 118.881 88.6293 118.73C88.4947 118.573 88.3905 118.389 88.3167 118.176C88.2429 117.959 88.206 117.718 88.206 117.453C88.206 117.184 88.2429 116.941 88.3167 116.724C88.3948 116.507 88.5012 116.322 88.6358 116.17C88.7704 116.014 88.931 115.895 89.1177 115.812C89.3087 115.73 89.5193 115.688 89.7494 115.688C89.9751 115.688 90.1792 115.73 90.3615 115.812C90.5482 115.895 90.7066 116.01 90.8369 116.157C90.9671 116.3 91.067 116.472 91.1364 116.672C91.2059 116.871 91.2406 117.091 91.2406 117.329V117.577H88.753V117.733C88.753 117.881 88.7769 118.018 88.8246 118.143C88.8724 118.269 88.9397 118.378 89.0265 118.469C89.1177 118.56 89.2262 118.632 89.3521 118.684C89.4824 118.732 89.6256 118.756 89.7819 118.756C90.0077 118.756 90.203 118.703 90.368 118.599C90.533 118.495 90.6589 118.352 90.7457 118.169L91.1299 118.43C91.0301 118.656 90.8629 118.842 90.6285 118.99C90.3984 119.133 90.1162 119.205 89.7819 119.205ZM89.7494 116.118C89.6061 116.118 89.4737 116.144 89.3521 116.196C89.2306 116.248 89.1242 116.32 89.033 116.411C88.9462 116.502 88.8767 116.611 88.8246 116.737C88.7769 116.858 88.753 116.993 88.753 117.141V117.186H90.6806V117.115C90.6806 116.967 90.6567 116.832 90.609 116.711C90.5656 116.589 90.5026 116.485 90.4201 116.398C90.342 116.307 90.2443 116.238 90.1271 116.19C90.0142 116.142 89.8883 116.118 89.7494 116.118ZM93.5629 119.185C93.3849 119.185 93.259 119.148 93.1852 119.075C93.1158 119.001 93.081 118.908 93.081 118.795V118.677C93.081 118.565 93.1158 118.471 93.1852 118.397C93.259 118.324 93.3849 118.287 93.5629 118.287C93.7409 118.287 93.8647 118.324 93.9341 118.397C94.0079 118.471 94.0448 118.565 94.0448 118.677V118.795C94.0448 118.908 94.0079 119.001 93.9341 119.075C93.8647 119.148 93.7409 119.185 93.5629 119.185ZM97.2072 116.509C97.5241 116.509 97.7607 116.439 97.917 116.3C98.0777 116.157 98.158 115.975 98.158 115.753V115.708C98.158 115.465 98.0798 115.282 97.9235 115.161C97.7716 115.039 97.5719 114.979 97.3244 114.979C97.0813 114.979 96.8838 115.033 96.7318 115.141C96.5842 115.246 96.4626 115.384 96.3671 115.558L95.9569 115.246C96.0133 115.154 96.0828 115.065 96.1653 114.979C96.2477 114.887 96.3433 114.807 96.4518 114.738C96.5647 114.668 96.6927 114.612 96.836 114.568C96.9836 114.525 97.1508 114.503 97.3374 114.503C97.5328 114.503 97.7152 114.529 97.8845 114.581C98.0538 114.629 98.2014 114.703 98.3273 114.803C98.4532 114.898 98.5509 115.018 98.6203 115.161C98.6941 115.304 98.731 115.467 98.731 115.649C98.731 115.797 98.7072 115.929 98.6594 116.047C98.616 116.164 98.553 116.266 98.4706 116.353C98.3924 116.439 98.2991 116.513 98.1905 116.574C98.082 116.635 97.967 116.68 97.8454 116.711V116.737C97.9713 116.763 98.0929 116.806 98.2101 116.867C98.3273 116.923 98.4315 116.999 98.5227 117.095C98.6138 117.186 98.6855 117.299 98.7376 117.434C98.794 117.564 98.8222 117.714 98.8222 117.883C98.8222 118.078 98.7831 118.258 98.705 118.423C98.6312 118.584 98.5248 118.723 98.3859 118.84C98.2513 118.953 98.0863 119.042 97.891 119.107C97.7 119.172 97.4872 119.205 97.2528 119.205C97.0531 119.205 96.8751 119.183 96.7188 119.14C96.5668 119.096 96.4301 119.038 96.3085 118.964C96.1913 118.89 96.0871 118.808 95.9959 118.717C95.9091 118.625 95.831 118.53 95.7615 118.43L96.1718 118.117C96.2326 118.209 96.2955 118.291 96.3606 118.365C96.4257 118.439 96.4995 118.504 96.582 118.56C96.6689 118.612 96.7665 118.654 96.8751 118.684C96.9836 118.714 97.1095 118.73 97.2528 118.73C97.5741 118.73 97.8193 118.656 97.9887 118.508C98.1623 118.361 98.2491 118.15 98.2491 117.876V117.824C98.2491 117.555 98.1645 117.347 97.9952 117.199C97.8302 117.052 97.5806 116.978 97.2463 116.978H96.7058V116.509H97.2072Z" fill="#667085"/>
<rect x="194.171" y="124.171" width="75.3671" height="13.7702" rx="6.8851" fill="white"/>
<rect x="194.171" y="124.171" width="75.3671" height="13.7702" rx="6.8851" stroke="#EAECF0" stroke-width="0.342745"/>
<path d="M203.622 132.509H203.596C203.379 132.926 203.034 133.135 202.561 133.135C202.148 133.135 201.825 132.98 201.59 132.672C201.36 132.364 201.245 131.932 201.245 131.376C201.245 130.821 201.36 130.389 201.59 130.08C201.825 129.772 202.148 129.618 202.561 129.618C203.034 129.618 203.379 129.826 203.596 130.243H203.622V128.237H204.143V133.056H203.622V132.509ZM202.763 132.672C202.88 132.672 202.99 132.657 203.095 132.627C203.199 132.596 203.29 132.553 203.368 132.496C203.446 132.436 203.507 132.364 203.551 132.282C203.598 132.195 203.622 132.095 203.622 131.982V130.771C203.622 130.658 203.598 130.56 203.551 130.478C203.507 130.391 203.446 130.319 203.368 130.263C203.29 130.202 203.199 130.156 203.095 130.126C202.99 130.096 202.88 130.08 202.763 130.08C202.459 130.08 202.222 130.174 202.053 130.36C201.888 130.543 201.805 130.786 201.805 131.09V131.663C201.805 131.967 201.888 132.212 202.053 132.399C202.222 132.581 202.459 132.672 202.763 132.672ZM205.313 128.237H205.834V130.243H205.86C206.077 129.826 206.422 129.618 206.895 129.618C207.308 129.618 207.629 129.772 207.859 130.08C208.093 130.389 208.211 130.821 208.211 131.376C208.211 131.932 208.093 132.364 207.859 132.672C207.629 132.98 207.308 133.135 206.895 133.135C206.422 133.135 206.077 132.926 205.86 132.509H205.834V133.056H205.313V128.237ZM206.693 132.672C206.997 132.672 207.232 132.581 207.397 132.399C207.566 132.212 207.651 131.967 207.651 131.663V131.09C207.651 130.786 207.566 130.543 207.397 130.36C207.232 130.174 206.997 130.08 206.693 130.08C206.576 130.08 206.465 130.096 206.361 130.126C206.257 130.156 206.166 130.202 206.088 130.263C206.01 130.319 205.947 130.391 205.899 130.478C205.855 130.56 205.834 130.658 205.834 130.771V131.982C205.834 132.095 205.855 132.195 205.899 132.282C205.947 132.364 206.01 132.436 206.088 132.496C206.166 132.553 206.257 132.596 206.361 132.627C206.465 132.657 206.576 132.672 206.693 132.672ZM210.65 133.056C210.394 133.056 210.205 132.985 210.084 132.842C209.966 132.698 209.908 132.514 209.908 132.288V130.139H208.788V129.696H209.621C209.734 129.696 209.812 129.674 209.856 129.631C209.903 129.583 209.927 129.503 209.927 129.39V128.511H210.429V129.696H211.959V130.139H210.429V132.614H211.959V133.056H210.65ZM214.327 133.115C214.149 133.115 214.023 133.078 213.949 133.004C213.88 132.931 213.845 132.837 213.845 132.724V132.607C213.845 132.494 213.88 132.401 213.949 132.327C214.023 132.253 214.149 132.216 214.327 132.216C214.505 132.216 214.629 132.253 214.698 132.327C214.772 132.401 214.809 132.494 214.809 132.607V132.724C214.809 132.837 214.772 132.931 214.698 133.004C214.629 133.078 214.505 133.115 214.327 133.115ZM216.565 133.056V129.696H217.047V130.087H217.073C217.125 129.957 217.199 129.846 217.294 129.755C217.39 129.664 217.531 129.618 217.717 129.618C217.913 129.618 218.058 129.668 218.154 129.768C218.249 129.863 218.308 129.989 218.329 130.146H218.349C218.41 129.994 218.497 129.868 218.609 129.768C218.722 129.668 218.879 129.618 219.078 129.618C219.352 129.618 219.534 129.714 219.625 129.905C219.721 130.096 219.769 130.369 219.769 130.725V133.056H219.287V130.81C219.287 130.523 219.256 130.326 219.196 130.217C219.139 130.104 219.033 130.048 218.876 130.048C218.738 130.048 218.625 130.093 218.538 130.185C218.451 130.271 218.408 130.406 218.408 130.588V133.056H217.926V130.81C217.926 130.523 217.895 130.326 217.835 130.217C217.778 130.104 217.674 130.048 217.522 130.048C217.383 130.048 217.268 130.093 217.177 130.185C217.09 130.271 217.047 130.406 217.047 130.588V133.056H216.565ZM222.006 133.135C221.772 133.135 221.559 133.093 221.368 133.011C221.181 132.928 221.021 132.811 220.886 132.659C220.756 132.503 220.656 132.318 220.587 132.106C220.517 131.889 220.482 131.645 220.482 131.376C220.482 131.111 220.517 130.871 220.587 130.653C220.656 130.436 220.756 130.252 220.886 130.1C221.021 129.944 221.181 129.824 221.368 129.742C221.559 129.659 221.772 129.618 222.006 129.618C222.241 129.618 222.451 129.659 222.638 129.742C222.829 129.824 222.99 129.944 223.12 130.1C223.254 130.252 223.356 130.436 223.426 130.653C223.495 130.871 223.53 131.111 223.53 131.376C223.53 131.645 223.495 131.889 223.426 132.106C223.356 132.318 223.254 132.503 223.12 132.659C222.99 132.811 222.829 132.928 222.638 133.011C222.451 133.093 222.241 133.135 222.006 133.135ZM222.006 132.685C222.297 132.685 222.532 132.598 222.71 132.425C222.888 132.251 222.977 131.982 222.977 131.617V131.135C222.977 130.771 222.888 130.502 222.71 130.328C222.532 130.154 222.297 130.067 222.006 130.067C221.715 130.067 221.481 130.154 221.303 130.328C221.125 130.502 221.036 130.771 221.036 131.135V131.617C221.036 131.982 221.125 132.251 221.303 132.425C221.481 132.598 221.715 132.685 222.006 132.685ZM226.66 132.509H226.634C226.417 132.926 226.072 133.135 225.598 133.135C225.186 133.135 224.863 132.98 224.628 132.672C224.398 132.364 224.283 131.932 224.283 131.376C224.283 130.821 224.398 130.389 224.628 130.08C224.863 129.772 225.186 129.618 225.598 129.618C226.072 129.618 226.417 129.826 226.634 130.243H226.66V128.237H227.181V133.056H226.66V132.509ZM225.8 132.672C225.918 132.672 226.028 132.657 226.132 132.627C226.237 132.596 226.328 132.553 226.406 132.496C226.484 132.436 226.545 132.364 226.588 132.282C226.636 132.195 226.66 132.095 226.66 131.982V130.771C226.66 130.658 226.636 130.56 226.588 130.478C226.545 130.391 226.484 130.319 226.406 130.263C226.328 130.202 226.237 130.156 226.132 130.126C226.028 130.096 225.918 130.08 225.8 130.08C225.496 130.08 225.26 130.174 225.091 130.36C224.926 130.543 224.843 130.786 224.843 131.09V131.663C224.843 131.967 224.926 132.212 225.091 132.399C225.26 132.581 225.496 132.672 225.8 132.672ZM229.744 133.135C229.501 133.135 229.282 133.093 229.086 133.011C228.895 132.928 228.73 132.811 228.591 132.659C228.457 132.503 228.353 132.318 228.279 132.106C228.205 131.889 228.168 131.648 228.168 131.383C228.168 131.114 228.205 130.871 228.279 130.653C228.357 130.436 228.463 130.252 228.598 130.1C228.733 129.944 228.893 129.824 229.08 129.742C229.271 129.659 229.481 129.618 229.712 129.618C229.937 129.618 230.141 129.659 230.324 129.742C230.51 129.824 230.669 129.939 230.799 130.087C230.929 130.23 231.029 130.402 231.099 130.601C231.168 130.801 231.203 131.02 231.203 131.259V131.507H228.715V131.663C228.715 131.81 228.739 131.947 228.787 132.073C228.835 132.199 228.902 132.308 228.989 132.399C229.08 132.49 229.188 132.562 229.314 132.614C229.445 132.661 229.588 132.685 229.744 132.685C229.97 132.685 230.165 132.633 230.33 132.529C230.495 132.425 230.621 132.282 230.708 132.099L231.092 132.36C230.992 132.585 230.825 132.772 230.591 132.92C230.361 133.063 230.078 133.135 229.744 133.135ZM229.712 130.048C229.568 130.048 229.436 130.074 229.314 130.126C229.193 130.178 229.086 130.25 228.995 130.341C228.908 130.432 228.839 130.541 228.787 130.666C228.739 130.788 228.715 130.923 228.715 131.07V131.116H230.643V131.044C230.643 130.897 230.619 130.762 230.571 130.64C230.528 130.519 230.465 130.415 230.382 130.328C230.304 130.237 230.207 130.167 230.089 130.119C229.976 130.072 229.851 130.048 229.712 130.048ZM232.092 132.614H233.265V128.68H232.092V128.237H233.786V132.614H234.958V133.056H232.092V132.614ZM237.365 133.115C237.187 133.115 237.061 133.078 236.987 133.004C236.918 132.931 236.883 132.837 236.883 132.724V132.607C236.883 132.494 236.918 132.401 236.987 132.327C237.061 132.253 237.187 132.216 237.365 132.216C237.543 132.216 237.667 132.253 237.736 132.327C237.81 132.401 237.847 132.494 237.847 132.607V132.724C237.847 132.837 237.81 132.931 237.736 133.004C237.667 133.078 237.543 133.115 237.365 133.115ZM239.889 133.056V129.696H240.41V130.243H240.436C240.471 130.161 240.514 130.083 240.566 130.009C240.618 129.931 240.681 129.863 240.755 129.807C240.833 129.75 240.924 129.705 241.029 129.67C241.133 129.635 241.254 129.618 241.393 129.618C241.745 129.618 242.027 129.731 242.24 129.957C242.453 130.178 242.559 130.493 242.559 130.901V133.056H242.038V130.992C242.038 130.684 241.971 130.456 241.836 130.308C241.702 130.156 241.504 130.08 241.243 130.08C241.139 130.08 241.037 130.093 240.937 130.119C240.838 130.146 240.749 130.185 240.67 130.237C240.592 130.289 240.529 130.356 240.482 130.439C240.434 130.521 240.41 130.617 240.41 130.725V133.056H239.889ZM246.314 133.056C246.11 133.056 245.964 133.004 245.878 132.9C245.791 132.796 245.737 132.666 245.715 132.509H245.682C245.608 132.705 245.489 132.859 245.324 132.972C245.163 133.08 244.946 133.135 244.673 133.135C244.321 133.135 244.041 133.043 243.833 132.861C243.624 132.679 243.52 132.429 243.52 132.112C243.52 131.8 243.633 131.559 243.859 131.389C244.089 131.22 244.458 131.135 244.966 131.135H245.682V130.803C245.682 130.556 245.613 130.371 245.474 130.25C245.335 130.124 245.137 130.061 244.881 130.061C244.655 130.061 244.471 130.106 244.328 130.198C244.184 130.284 244.069 130.404 243.983 130.556L243.631 130.295C243.674 130.208 243.733 130.124 243.807 130.041C243.881 129.959 243.972 129.887 244.08 129.826C244.189 129.761 244.313 129.711 244.451 129.677C244.59 129.638 244.744 129.618 244.914 129.618C245.309 129.618 245.621 129.718 245.852 129.918C246.086 130.117 246.203 130.395 246.203 130.751V132.601H246.672V133.056H246.314ZM244.764 132.698C244.899 132.698 245.02 132.683 245.129 132.653C245.242 132.618 245.339 132.575 245.422 132.522C245.504 132.466 245.567 132.401 245.611 132.327C245.658 132.249 245.682 132.166 245.682 132.08V131.526H244.966C244.653 131.526 244.425 131.57 244.282 131.656C244.139 131.743 244.067 131.869 244.067 132.034V132.171C244.067 132.344 244.128 132.477 244.25 132.568C244.375 132.655 244.547 132.698 244.764 132.698ZM247.282 133.056V129.696H247.764V130.087H247.79C247.842 129.957 247.916 129.846 248.011 129.755C248.107 129.664 248.248 129.618 248.434 129.618C248.63 129.618 248.775 129.668 248.871 129.768C248.966 129.863 249.025 129.989 249.046 130.146H249.066C249.127 129.994 249.214 129.868 249.327 129.768C249.439 129.668 249.596 129.618 249.795 129.618C250.069 129.618 250.251 129.714 250.342 129.905C250.438 130.096 250.486 130.369 250.486 130.725V133.056H250.004V130.81C250.004 130.523 249.973 130.326 249.913 130.217C249.856 130.104 249.75 130.048 249.594 130.048C249.455 130.048 249.342 130.093 249.255 130.185C249.168 130.271 249.125 130.406 249.125 130.588V133.056H248.643V130.81C248.643 130.523 248.612 130.326 248.552 130.217C248.495 130.104 248.391 130.048 248.239 130.048C248.1 130.048 247.985 130.093 247.894 130.185C247.807 130.271 247.764 130.406 247.764 130.588V133.056H247.282ZM252.782 133.135C252.539 133.135 252.32 133.093 252.124 133.011C251.933 132.928 251.768 132.811 251.629 132.659C251.495 132.503 251.39 132.318 251.317 132.106C251.243 131.889 251.206 131.648 251.206 131.383C251.206 131.114 251.243 130.871 251.317 130.653C251.395 130.436 251.501 130.252 251.636 130.1C251.77 129.944 251.931 129.824 252.118 129.742C252.309 129.659 252.519 129.618 252.749 129.618C252.975 129.618 253.179 129.659 253.362 129.742C253.548 129.824 253.707 129.939 253.837 130.087C253.967 130.23 254.067 130.402 254.136 130.601C254.206 130.801 254.241 131.02 254.241 131.259V131.507H251.753V131.663C251.753 131.81 251.777 131.947 251.825 132.073C251.872 132.199 251.94 132.308 252.027 132.399C252.118 132.49 252.226 132.562 252.352 132.614C252.482 132.661 252.626 132.685 252.782 132.685C253.008 132.685 253.203 132.633 253.368 132.529C253.533 132.425 253.659 132.282 253.746 132.099L254.13 132.36C254.03 132.585 253.863 132.772 253.629 132.92C253.398 133.063 253.116 133.135 252.782 133.135ZM252.749 130.048C252.606 130.048 252.474 130.074 252.352 130.126C252.231 130.178 252.124 130.25 252.033 130.341C251.946 130.432 251.877 130.541 251.825 130.666C251.777 130.788 251.753 130.923 251.753 131.07V131.116H253.681V131.044C253.681 130.897 253.657 130.762 253.609 130.64C253.566 130.519 253.503 130.415 253.42 130.328C253.342 130.237 253.244 130.167 253.127 130.119C253.014 130.072 252.888 130.048 252.749 130.048ZM256.563 133.115C256.385 133.115 256.259 133.078 256.185 133.004C256.116 132.931 256.081 132.837 256.081 132.724V132.607C256.081 132.494 256.116 132.401 256.185 132.327C256.259 132.253 256.385 132.216 256.563 132.216C256.741 132.216 256.865 132.253 256.934 132.327C257.008 132.401 257.045 132.494 257.045 132.607V132.724C257.045 132.837 257.008 132.931 256.934 133.004C256.865 133.078 256.741 133.115 256.563 133.115ZM260.911 133.056V132.164H258.67V131.682L260.637 128.511H261.431V131.715H262.109V132.164H261.431V133.056H260.911ZM259.159 131.715H260.911V128.934H260.884L259.159 131.715Z" fill="#667085"/>
</g>
</g>
</g>
<defs>
<filter id="filter0_d_5709_15144" x="-5" y="-69" width="317.692" height="299" filterUnits="userSpaceOnUse" color-interpolation-filters="sRGB">
<feFlood flood-opacity="0" result="BackgroundImageFix"/>
<feColorMatrix in="SourceAlpha" type="matrix" values="0 0 0 0 0 0 0 0 0 0 0 0 0 0 0 0 0 0 127 0" result="hardAlpha"/>
<feOffset/>
<feGaussianBlur stdDeviation="12"/>
<feComposite in2="hardAlpha" operator="out"/>
<feColorMatrix type="matrix" values="0 0 0 0 0 0 0 0 0 0 0 0 0 0 0 0 0 0 0.06 0"/>
<feBlend mode="normal" in2="BackgroundImageFix" result="effect1_dropShadow_5709_15144"/>
<feBlend mode="normal" in="SourceGraphic" in2="effect1_dropShadow_5709_15144" result="shape"/>
</filter>
<filter id="filter1_d_5709_15144" x="90.4319" y="18.4319" width="123.733" height="123.732" filterUnits="userSpaceOnUse" color-interpolation-filters="sRGB">
<feFlood flood-opacity="0" result="BackgroundImageFix"/>
<feColorMatrix in="SourceAlpha" type="matrix" values="0 0 0 0 0 0 0 0 0 0 0 0 0 0 0 0 0 0 127 0" result="hardAlpha"/>
<feOffset/>
<feGaussianBlur stdDeviation="11.784"/>
<feComposite in2="hardAlpha" operator="out"/>
<feColorMatrix type="matrix" values="0 0 0 0 0 0 0 0 0 0 0 0 0 0 0 0 0 0 0.1 0"/>
<feBlend mode="normal" in2="BackgroundImageFix" result="effect1_dropShadow_5709_15144"/>
<feBlend mode="normal" in="SourceGraphic" in2="effect1_dropShadow_5709_15144" result="shape"/>
</filter>
<radialGradient id="paint0_radial_5709_15144" cx="0" cy="0" r="1" gradientUnits="userSpaceOnUse" gradientTransform="translate(152 79.5812) rotate(90) scale(80.4188 393.143)">
<stop offset="0.106626" stop-color="#D9D9D9"/>
<stop offset="1" stop-color="#D9D9D9" stop-opacity="0"/>
</radialGradient>
<clipPath id="clip0_5709_15144">
<rect width="304" height="160" fill="white"/>
</clipPath>
</defs>
</svg>
