<svg width="100" height="100" viewBox="0 0 100 100" fill="none" xmlns="http://www.w3.org/2000/svg">
<g clip-path="url(#clip0_396_24205)">
<path opacity="0.04" d="M48.6168 3H1.98761C0.88988 3 0 3.88991 0 4.98763V43.0542C0 44.1519 0.88988 45.0418 1.98761 45.0418H48.6168C49.7146 45.0418 50.6044 44.1519 50.6044 43.0542V4.98763C50.6044 3.88991 49.7146 3 48.6168 3Z" fill="black"/>
<path d="M54.8561 10.958H8.22687C7.12914 10.958 6.23926 11.8479 6.23926 12.9456V51.0122C6.23926 52.1099 7.12914 52.9998 8.22687 52.9998H54.8561C55.9538 52.9998 56.8437 52.1099 56.8437 51.0122V12.9456C56.8437 11.8479 55.9538 10.958 54.8561 10.958Z" fill="#D0D5DD"/>
<path d="M21.2516 35.4556H11.1877V40.4875H21.2516V35.4556Z" fill="#EAECF0"/>
<path d="M50.6041 35.4556H22.0898V40.4875H50.6041V35.4556Z" fill="#EAECF0"/>
<path d="M21.2516 28.7461H11.1877V34.6167H21.2516V28.7461Z" fill="#EAECF0"/>
<path d="M21.2516 22.8755H11.1877V27.9074H21.2516V22.8755Z" fill="#EAECF0"/>
<path d="M50.6041 28.7461H22.0898V34.6167H50.6041V28.7461Z" fill="#EAECF0"/>
<path d="M50.6041 41.3262H22.0898V47.1968H50.6041V41.3262Z" fill="#EAECF0"/>
<path d="M50.6041 22.8755H22.0898V27.9074H50.6041V22.8755Z" fill="#EAECF0"/>
<path d="M21.2516 41.3262H11.1877V47.1968H21.2516V41.3262Z" fill="#EAECF0"/>
<path d="M21.2516 16.1665H11.1877V22.0371H21.2516V16.1665Z" fill="#EAECF0"/>
<path d="M50.6041 16.1665H22.0898V22.0371H50.6041V16.1665Z" fill="#EAECF0"/>
<path d="M64.6992 59.0574C71.8701 60.4575 77.7716 61.1405 77.8805 60.583C77.9893 60.0255 72.2643 58.4386 65.0933 57.0385C57.9224 55.6384 52.0209 54.9554 51.912 55.5129C51.8032 56.0704 57.5282 57.6574 64.6992 59.0574Z" fill="black"/>
<path opacity="0.3" d="M35.8454 78.1805L63.834 38.6127L63.9505 38.016C63.965 37.9637 65.0478 32.6129 66.1048 27.3079C66.7267 24.1879 67.2134 21.6949 67.5604 19.8958C67.6003 19.6915 68.1916 16.6631 68.2283 16.4751L77.3463 18.2553L73.0821 40.0959L84.2266 87.6266C84.4265 88.4717 83.686 89.2436 82.8319 89.0768L36.5922 80.0489C35.738 79.8821 35.3415 78.8925 35.8454 78.1805Z" fill="#D0D5DD"/>
<path d="M80.7666 18.918L64.6599 15.7733C63.5156 15.5499 62.769 14.441 62.9924 13.2967C63.2158 12.1523 64.3247 11.4057 65.4691 11.6292L81.5757 14.7739C82.72 14.9973 83.4666 16.1062 83.2432 17.2505C83.0198 18.3948 81.9109 19.1415 80.7666 18.918Z" fill="#D0D5DD"/>
<path d="M65.3269 15.9042C65.4781 15.9337 61.1217 37.4424 61.1217 37.4424L33.1282 77.0135C31.5817 79.1978 32.806 82.2497 35.4339 82.7628L83.1162 92.0724C85.6297 92.5632 87.8161 90.2959 87.2297 87.8013L76.0327 40.0397L80.1788 18.8039L65.331 15.905L65.3269 15.9042Z" fill="#D0D5DD"/>
<path opacity="0.7" d="M65.3269 15.9042C65.4781 15.9337 61.1217 37.4424 61.1217 37.4424L33.1282 77.0135C31.5817 79.1978 32.806 82.2497 35.4339 82.7628L83.1162 92.0724C85.6297 92.5632 87.8161 90.2959 87.2297 87.8013L76.0327 40.0397L80.1788 18.8039L65.331 15.905L65.3269 15.9042Z" fill="white"/>
<path opacity="0.3" d="M35.8454 78.1805L63.834 38.6127L63.9505 38.016C63.965 37.9637 65.0478 32.6129 66.1048 27.3079C66.7267 24.1879 67.2134 21.6949 67.5604 19.8958C67.6003 19.6915 68.1916 16.6631 68.2283 16.4751L77.3463 18.2553L73.0821 40.0959L84.2266 87.6266C84.4265 88.4717 83.686 89.2436 82.8319 89.0768L36.5922 80.0489C35.738 79.8821 35.3415 78.8925 35.8454 78.1805Z" fill="#D0D5DD"/>
<path opacity="0.3" d="M80.1733 18.8022L65.3254 15.9033L65.0406 17.3623L79.8884 20.2613L80.1733 18.8022Z" fill="black"/>
<path d="M84.2223 87.6248L77.8563 60.4715L51.8859 55.4985L35.8411 78.1787C35.338 78.8866 35.7378 79.8811 36.5879 80.0471L82.8235 89.0742C83.6777 89.241 84.4173 88.4732 84.2182 87.624L84.2223 87.6248Z" fill="#D0D5DD"/>
<g opacity="0.2">
<path d="M83.944 86.2683C83.7785 86.3123 83.5988 86.3197 83.4149 86.2838L37.1793 77.2566C36.9954 77.2207 36.8326 77.1423 36.6949 77.0433L35.8859 78.1878C35.3829 78.8957 35.7827 79.8902 36.6328 80.0562L82.8683 89.0833C83.7225 89.2501 84.4621 88.4823 84.2631 87.6331L83.944 86.2683Z" fill="black"/>
</g>
<path d="M64.6901 59.056C71.8611 60.456 77.7626 61.1391 77.8714 60.5816C77.9803 60.024 72.2553 58.4371 65.0843 57.037C57.9133 55.6369 52.0119 54.9539 51.903 55.5114C51.7942 56.0689 57.5191 57.6559 64.6901 59.056Z" fill="#D0D5DD"/>
<path opacity="0.3" d="M64.6901 59.056C71.8611 60.456 77.7626 61.1391 77.8714 60.5816C77.9803 60.024 72.2553 58.4371 65.0843 57.037C57.9133 55.6369 52.0119 54.9539 51.903 55.5114C51.7942 56.0689 57.5191 57.6559 64.6901 59.056Z" fill="black"/>
<path opacity="0.7" d="M80.7666 18.918L64.6599 15.7733C63.5156 15.5499 62.769 14.441 62.9924 13.2967C63.2158 12.1523 64.3247 11.4057 65.4691 11.6292L81.5757 14.7739C82.72 14.9973 83.4666 16.1062 83.2432 17.2505C83.0198 18.3948 81.9109 19.1415 80.7666 18.918Z" fill="white"/>
<g opacity="0.3">
<path d="M65.5389 47.6762C66.4459 48.6806 65.5491 50.1008 65.2186 50.6854C62.8506 54.8604 61.3904 58.0586 58.7818 62.1187C57.9774 63.3702 56.9604 64.559 55.6175 65.2005C54.2746 65.842 52.4002 65.6416 51.6308 64.367C50.7972 62.9866 51.6026 61.2303 52.4063 59.8302L57.3824 51.141C58.0516 49.9734 58.7379 48.7837 59.7341 47.8751C60.7296 46.9706 62.1095 46.3787 63.428 46.6446C63.428 46.6446 64.9865 47.0719 65.5348 47.6754L65.5389 47.6762Z" fill="white"/>
</g>
<path opacity="0.3" d="M51.7492 71.9688C50.5262 73.8429 48.4794 74.6779 47.1779 73.8256C45.8796 72.9781 45.8188 70.7685 47.0418 68.8944C48.2647 67.0203 50.3115 66.1853 51.6131 67.0376C52.9114 67.8851 52.9721 70.0947 51.7492 71.9688Z" fill="white"/>
<path opacity="0.2" d="M77.3248 79.4862C77.1388 80.4385 76.2164 81.056 75.2682 80.8709C74.3201 80.6858 73.6984 79.7625 73.8835 78.8143C74.0687 77.8662 74.9919 77.2446 75.9401 77.4297C76.8883 77.6148 77.5099 78.538 77.3248 79.4862Z" fill="black"/>
<path opacity="0.2" d="M66.6672 76.6873C66.4071 78.0197 65.1175 78.888 63.7852 78.6278C62.4528 78.3677 61.5845 77.0781 61.8446 75.7458C62.1048 74.4134 63.3944 73.5451 64.7267 73.8053C66.0591 74.0654 66.9274 75.355 66.6672 76.6873Z" fill="black"/>
<path opacity="0.2" d="M69.3973 73.3727C69.2673 74.0389 68.6225 74.473 67.9563 74.343C67.2901 74.2129 66.856 73.5681 66.986 72.9019C67.1161 72.2358 67.7609 71.8016 68.4271 71.9317C69.0933 72.0617 69.5274 72.7065 69.3973 73.3727Z" fill="black"/>
<path opacity="0.2" d="M71.9342 77.8948C71.8289 78.4343 71.3062 78.7862 70.7667 78.6809C70.2273 78.5756 69.8754 78.0529 69.9807 77.5134C70.086 76.9739 70.6087 76.622 71.1482 76.7273C71.6876 76.8327 72.0396 77.3553 71.9342 77.8948Z" fill="black"/>
</g>
<defs>
<clipPath id="clip0_396_24205">
<rect width="100" height="100" fill="white"/>
</clipPath>
</defs>
</svg>
