<svg width="112" height="112" viewBox="0 0 112 112" fill="none" xmlns="http://www.w3.org/2000/svg">
<rect x="8.06787" y="25.3984" width="79.2509" height="65.4527" rx="4.24558" transform="rotate(-4.52042 8.06787 25.3984)" fill="#EAECF0"/>
<circle cx="14.725" cy="30.4223" r="1.99492" transform="rotate(-4.52042 14.725 30.4223)" fill="#D0D5DD"/>
<circle cx="21.8276" cy="29.8603" r="1.99492" transform="rotate(-4.52042 21.8276 29.8603)" fill="#D0D5DD"/>
<circle cx="28.9301" cy="29.2993" r="1.99492" transform="rotate(-4.52042 28.9301 29.2993)" fill="#D0D5DD"/>
<rect x="11.8101" y="36.8145" width="73.5901" height="50.947" rx="3.53799" transform="rotate(-4.52042 11.8101 36.8145)" fill="#F9FAFB"/>
<g filter="url(#filter0_b_4662_15990)">
<path fill-rule="evenodd" clip-rule="evenodd" d="M78.3436 65.6745C74.9449 70.4502 68.6947 71.9777 63.5689 69.5967C62.9126 69.2852 62.276 68.9183 61.6671 68.4851C61.3538 68.263 61.0544 68.0297 60.7672 67.7793C60.1929 67.2795 59.6712 66.7311 59.2215 66.1495C58.437 65.1713 57.8342 64.0946 57.4109 62.948C56.0632 59.3556 56.4685 55.1761 58.8582 51.8192C61.2534 48.4527 65.071 46.7067 68.9061 46.7954C70.1286 46.8264 71.3444 47.0427 72.5248 47.4563C73.2239 47.698 73.9045 48.0125 74.5659 48.391C74.8956 48.5796 75.2144 48.7867 75.527 49.0099C76.1368 49.4429 76.6988 49.9219 77.2007 50.4419C81.1314 54.5022 81.7359 60.9078 78.3436 65.6745" fill="white" fill-opacity="0.1"/>
</g>
<path fill-rule="evenodd" clip-rule="evenodd" d="M77.0637 65.0625C73.5281 70.0325 66.6365 71.1932 61.6665 67.6576C56.7029 64.1257 55.5413 57.2335 59.0778 52.2642C62.6096 47.3005 69.5011 46.139 74.4647 49.6708C79.4339 53.2066 80.5955 60.0989 77.0637 65.0625M76.2839 47.1178C69.9055 42.5793 61.0603 44.0701 56.5219 50.4485C51.9841 56.8259 53.4711 65.6775 59.8486 70.2161C65.6535 74.345 73.5154 73.4806 78.3048 68.4799C78.7725 67.991 79.2123 67.4571 79.621 66.8836C80.0288 66.3095 80.389 65.719 80.6969 65.117C83.8513 58.9524 82.0881 51.2476 76.2839 47.1178" fill="#EAECF0"/>
<path fill-rule="evenodd" clip-rule="evenodd" d="M104.564 83.8398L104.374 84.1076C103.113 85.8799 100.631 86.2984 98.8582 85.0372L82.5004 73.398L87.2769 66.6851L103.635 78.3243C105.407 79.5855 105.825 82.0673 104.564 83.8398" fill="#D0D5DD"/>
<path fill-rule="evenodd" clip-rule="evenodd" d="M80.9266 64.638L85.7604 68.0774L83.3185 71.5083L78.4855 68.0687C78.9628 67.5698 79.4108 67.0251 79.8286 66.4398C80.2449 65.8548 80.6125 65.2523 80.9266 64.638" fill="#EAECF0"/>
<path fill-rule="evenodd" clip-rule="evenodd" d="M87.6277 66.8287L82.7517 73.6817L81.7335 72.9573L86.6095 66.1044L87.6277 66.8287Z" fill="#D0D5DD"/>
<path fill-rule="evenodd" clip-rule="evenodd" d="M71.4084 48.6815L59.4503 65.4867C58.745 64.6073 58.2032 63.6393 57.8234 62.6084L68.1556 48.0873C69.2546 48.1159 70.3474 48.3097 71.4084 48.6815" fill="white" fill-opacity="0.5"/>
<path fill-rule="evenodd" clip-rule="evenodd" d="M76.6991 51.3054L63.6227 68.5936C63.0041 68.3209 62.4046 67.9976 61.8318 67.6147C61.5369 67.4175 61.2548 67.2119 60.9859 66.9899L74.2213 49.4896C74.5328 49.6564 74.8328 49.8392 75.1268 50.0365C75.6996 50.4195 76.2284 50.8438 76.6991 51.3054" fill="white" fill-opacity="0.5"/>
<defs>
<filter id="filter0_b_4662_15990" x="55.828" y="45.9735" width="25.5476" height="25.549" filterUnits="userSpaceOnUse" color-interpolation-filters="sRGB">
<feFlood flood-opacity="0" result="BackgroundImageFix"/>
<feGaussianBlur in="BackgroundImageFix" stdDeviation="0.409232"/>
<feComposite in2="SourceAlpha" operator="in" result="effect1_backgroundBlur_4662_15990"/>
<feBlend mode="normal" in="SourceGraphic" in2="effect1_backgroundBlur_4662_15990" result="shape"/>
</filter>
</defs>
</svg>
