<svg width="58" height="58" viewBox="0 0 58 58" fill="none" xmlns="http://www.w3.org/2000/svg">
<path d="M57.7924 29.0035C57.7924 30.2077 57.7186 31.4062 57.5709 32.5707C57.4175 33.7862 57.196 34.9791 56.8949 36.1435C56.5825 37.3648 56.1849 38.5576 55.7191 39.7107C55.2874 40.7843 54.7876 41.8237 54.2252 42.8291C54.1457 42.9825 54.0605 43.1302 53.9753 43.2779C53.2482 44.5332 52.4303 45.7261 51.5271 46.8507C51.2488 47.2029 50.9591 47.5437 50.6581 47.8845C49.8685 48.7877 49.0222 49.6284 48.1247 50.4179C47.7896 50.719 47.4431 51.0143 47.0909 51.2927C45.9662 52.1958 44.779 53.0138 43.5237 53.7351C43.376 53.8204 43.2284 53.9056 43.0807 53.9851C42.0753 54.5417 41.0358 55.0416 39.9566 55.479C38.8035 55.9448 37.6106 56.3424 36.3837 56.6548C35.2192 56.9501 34.0321 57.1774 32.8165 57.3307C31.6521 57.4784 30.4592 57.5523 29.2493 57.5523C28.0395 57.5523 26.8466 57.4784 25.6765 57.3307C24.4609 57.1774 23.2738 56.9558 22.1093 56.6548C20.8824 56.3367 19.6952 55.9448 18.5422 55.479C17.4629 55.0416 16.4178 54.5417 15.4124 53.9851C15.2647 53.9056 15.117 53.8204 14.9693 53.7351V39.7164V29.0092C14.9693 27.7766 15.1227 26.5781 15.418 25.4363C15.7475 24.1697 16.2417 22.9711 16.8835 21.8692C17.3607 21.0455 17.9173 20.273 18.5422 19.5687C18.9341 19.1199 19.3601 18.6939 19.8088 18.302C20.5132 17.6772 21.2914 17.1205 22.1093 16.6434C23.2113 16.0072 24.4098 15.5073 25.6765 15.1779C26.8182 14.8825 28.0111 14.7291 29.2493 14.7291C30.4876 14.7291 31.6748 14.8825 32.8165 15.1779V11.5198C31.6634 11.2869 30.4706 11.162 29.2493 11.162C28.0281 11.162 26.8353 11.2869 25.6765 11.5198C24.4325 11.7754 23.2397 12.1503 22.1093 12.6445C20.837 13.2012 19.6441 13.8998 18.5422 14.7235C17.196 15.7402 15.9917 16.9387 14.975 18.2906C14.1514 19.3869 13.4527 20.5854 12.896 21.8578C12.4019 22.9882 12.0213 24.181 11.7713 25.425C11.5385 26.5781 11.4135 27.7709 11.4135 28.9978V51.2756C11.0613 50.9973 10.7148 50.7019 10.3797 50.4009C9.48221 49.6113 8.63586 48.765 7.84631 47.8675V28.9978C7.84631 27.7823 7.94857 26.5894 8.1417 25.425C8.34618 24.1924 8.65858 23.0052 9.06756 21.8578C9.50493 20.6138 10.0616 19.4153 10.7091 18.2906C10.9307 17.9044 11.1692 17.5238 11.4135 17.1546C11.9815 16.2969 12.612 15.4846 13.2993 14.7178C13.8276 14.127 14.3899 13.5647 14.9807 13.0364C15.7475 12.3491 16.5598 11.7186 17.4175 11.1506C17.7867 10.9064 18.1673 10.6678 18.5535 10.4463C19.6782 9.79303 20.8767 9.24205 22.1207 8.80468C23.2681 8.40138 24.4553 8.08897 25.6879 7.88448C26.8523 7.69135 28.0395 7.58911 29.2607 7.58911C30.482 7.58911 31.6691 7.69135 32.8279 7.88448C34.0548 8.08897 35.2477 8.40138 36.3951 8.80468V21.0171C35.3669 20.0913 34.1571 19.3699 32.8279 18.9041C31.7146 18.5065 30.5104 18.2906 29.2607 18.2906C28.0111 18.2906 26.8069 18.5065 25.6879 18.9041C24.3587 19.3699 23.1488 20.0969 22.1207 21.0171C21.8253 21.2784 21.547 21.5624 21.2857 21.8521C20.3598 22.8802 19.6327 24.0901 19.167 25.4193C18.7694 26.5326 18.5535 27.7368 18.5535 28.9921V43.2608H18.5478L18.5535 43.2665V51.5596C19.6952 52.1049 20.8881 52.565 22.1207 52.9286C23.2738 53.2751 24.4666 53.5363 25.6879 53.7067C26.8523 53.8772 28.0452 53.9624 29.2607 53.9624C30.4763 53.9624 31.6634 53.8772 32.8279 53.7067C34.0491 53.5363 35.242 53.2751 36.3951 52.9286C37.6277 52.565 38.8205 52.1049 39.9679 51.5596C40.712 51.2075 41.4277 50.8212 42.1264 50.3952C42.6092 50.1112 43.0807 49.8044 43.5351 49.4807C44.6768 48.6854 45.7504 47.7993 46.7387 46.828C46.8637 46.7087 46.983 46.5894 47.1023 46.4645C48.0736 45.4704 48.9654 44.4026 49.7606 43.2608C50.0844 42.8064 50.3854 42.3406 50.6751 41.8578C51.0954 41.1592 51.4817 40.4321 51.8339 39.6937C52.3792 38.5519 52.8393 37.3591 53.2085 36.1265C53.555 34.9677 53.8163 33.7806 53.9923 32.5536C54.1571 31.3892 54.248 30.1964 54.248 28.9865V15.1608C54.8046 16.1662 55.3045 17.2057 55.7419 18.2849C56.2076 19.438 56.6053 20.6252 56.9177 21.8521C57.213 23.0166 57.4459 24.2037 57.5936 25.4193C57.7413 26.5894 57.8151 27.7823 57.8151 28.9921L57.7924 29.0035Z" fill="white"/>
<path d="M50.6541 10.1267V29.0021C50.6541 30.2176 50.5518 31.4105 50.3587 32.5693C50.1542 33.8019 49.8418 34.9947 49.4328 36.1421C48.9954 37.3861 48.4388 38.5846 47.7912 39.7093C47.5697 40.0955 47.3311 40.4761 47.0869 40.8453C46.5189 41.703 45.8884 42.5096 45.2067 43.2765C44.6785 43.8672 44.1161 44.4295 43.5197 44.9635C42.7529 45.6508 41.9406 46.2813 41.0829 46.8493C40.7137 47.0936 40.3388 47.3321 39.9526 47.5537C38.8222 48.2069 37.6293 48.7579 36.3797 49.2009C35.2323 49.6042 34.0394 49.9166 32.8125 50.1211C31.6538 50.3142 30.4609 50.4165 29.2453 50.4165C28.0298 50.4165 26.8369 50.3142 25.6725 50.1211C24.4456 49.9166 23.2527 49.6042 22.1053 49.2009V36.9885C23.1334 37.9143 24.3433 38.6414 25.6725 39.1015C26.7858 39.5048 27.99 39.715 29.2453 39.715C30.5007 39.715 31.6992 39.4991 32.8125 39.1015C34.1417 38.6357 35.3516 37.9087 36.3797 36.9885C36.6751 36.7215 36.9591 36.4432 37.2204 36.1478C38.1462 35.114 38.8733 33.9098 39.3391 32.5749C39.7367 31.4616 39.9526 30.2574 39.9526 29.0078V6.42892C38.8108 5.88362 37.618 5.42352 36.3797 5.05999C35.2266 4.7135 34.0338 4.45221 32.8125 4.2818C31.6481 4.1114 30.4552 4.02619 29.2453 4.02619C28.0355 4.02619 26.8426 4.1114 25.6725 4.2818C24.4569 4.45221 23.2584 4.7135 22.1053 5.05999C20.8727 5.42352 19.6799 5.88362 18.5381 6.42892C17.794 6.7811 17.0726 7.17303 16.3683 7.59337C15.8855 7.87738 15.4254 8.18411 14.9653 8.5022C13.8236 9.29743 12.75 10.1892 11.7617 11.1605C11.6367 11.2798 11.5174 11.3991 11.3981 11.5241C10.4268 12.5181 9.53501 13.586 8.74546 14.7277C8.42169 15.1878 8.11495 15.6536 7.83094 16.1421C7.40492 16.8407 7.02436 17.5565 6.6665 18.3006C6.1212 19.4423 5.6611 20.6351 5.29757 21.8677C4.95108 23.0208 4.68979 24.2137 4.51938 25.4349C4.34898 26.5994 4.26377 27.7979 4.26377 29.0078V42.8277C3.70711 41.8223 3.20724 40.7828 2.76987 39.7093C2.30409 38.5562 1.90647 37.3634 1.59406 36.1421C1.29869 34.9777 1.0715 33.7848 0.918131 32.5693C0.770445 31.4048 0.696594 30.2063 0.696594 29.0021C0.696594 27.7979 0.770445 26.5994 0.918131 25.4292C1.0715 24.2137 1.29301 23.0265 1.59406 21.8621C1.91215 20.6351 2.30409 19.448 2.76987 18.2949C3.20156 17.2213 3.70143 16.1762 4.26377 15.1708C4.34329 15.0174 4.42849 14.8754 4.5137 14.722C5.24076 13.4667 6.05871 12.2795 6.95618 11.1549C7.24019 10.8027 7.52989 10.4562 7.83094 10.1211C8.62049 9.22359 9.46684 8.37723 10.3643 7.58768C10.6994 7.28663 11.0516 6.99126 11.4038 6.71293C12.5285 5.80978 13.7156 4.99751 14.971 4.27044C15.1243 4.18524 15.2663 4.10003 15.4197 4.02051C16.4251 3.46385 17.4646 2.96399 18.5438 2.52662C19.6969 2.06084 20.8841 1.66322 22.111 1.35081C23.2754 1.05544 24.4626 0.828233 25.6782 0.674867C26.8483 0.527181 28.0411 0.453339 29.251 0.453339C30.4609 0.453339 31.6537 0.527181 32.8182 0.674867C34.0338 0.828233 35.2209 1.04976 36.3854 1.35081C37.6123 1.6689 38.7995 2.06084 39.9582 2.52662C41.0318 2.96399 42.0713 3.45817 43.0767 4.02051C43.23 4.10003 43.3777 4.18524 43.5254 4.27044V18.2892V28.9964C43.5254 30.229 43.372 31.4219 43.0767 32.5636C42.7472 33.8303 42.253 35.0288 41.6112 36.1364C41.1397 36.9601 40.583 37.7269 39.9582 38.4312C39.5663 38.88 39.1403 39.306 38.6915 39.6979C37.9872 40.3227 37.209 40.8794 36.391 41.3509C35.2891 41.9927 34.0906 42.4869 32.8239 42.8164C31.6822 43.1117 30.4893 43.2651 29.2567 43.2651C28.0241 43.2651 26.8312 43.1117 25.6838 42.8164V46.4801C26.8369 46.713 28.0298 46.838 29.2567 46.838C30.4836 46.838 31.6708 46.713 32.8239 46.4801C34.0622 46.2302 35.255 45.8496 36.391 45.3554C37.6634 44.7988 38.8619 44.1001 39.9639 43.2708C41.3101 42.254 42.5086 41.0555 43.5254 39.7093C44.349 38.613 45.0477 37.4145 45.6044 36.1421C46.0985 35.0117 46.4791 33.8132 46.729 32.5693C46.9619 31.4162 47.0869 30.2233 47.0869 29.0021V6.71861C47.4391 7.00262 47.7912 7.29231 48.1264 7.59337C49.0295 8.38291 49.8702 9.22927 50.6597 10.1267H50.6541Z" fill="white"/>
</svg>
