<svg width="65" height="64" viewBox="0 0 65 64" fill="none" xmlns="http://www.w3.org/2000/svg">
<path d="M64.2184 31.9969C64.2184 33.3469 64.1357 34.6906 63.9701 35.9961C63.7981 37.3589 63.5498 38.6962 63.2123 40.0017C62.862 41.3708 62.4162 42.7081 61.8941 44.0009C61.4101 45.2044 60.8497 46.3698 60.2192 47.497C60.1301 47.6689 60.0345 47.8345 59.939 48.0001C59.1239 49.4074 58.2069 50.7447 57.1944 52.0056C56.8823 52.4005 56.5575 52.7826 56.22 53.1646C55.3348 54.1772 54.386 55.1197 53.3798 56.0048C53.0041 56.3424 52.6156 56.6735 52.2208 56.9855C50.9599 57.9981 49.629 58.9151 48.2216 59.7239C48.056 59.8194 47.8905 59.9149 47.7249 60.0041C46.5977 60.6281 45.4324 61.1885 44.2224 61.6789C42.9297 62.2011 41.5924 62.6468 40.2168 62.9971C38.9114 63.3282 37.5804 63.583 36.2176 63.7549C34.9122 63.9205 33.5748 64.0033 32.2184 64.0033C30.862 64.0033 29.5247 63.9205 28.2129 63.7549C26.8501 63.583 25.5191 63.3346 24.2137 62.9971C22.8381 62.6405 21.5072 62.2011 20.2145 61.6789C19.0045 61.1885 17.8328 60.6281 16.7056 60.0041C16.54 59.9149 16.3745 59.8194 16.2089 59.7239V44.0072V32.0033C16.2089 30.6214 16.3808 29.2777 16.712 27.9977C17.0813 26.5776 17.6353 25.2339 18.3549 23.9985C18.8899 23.0751 19.514 22.209 20.2145 21.4194C20.6539 20.9163 21.1315 20.4387 21.6345 19.9993C22.4242 19.2988 23.2966 18.6747 24.2137 18.1398C25.4491 17.4265 26.7928 16.8661 28.2129 16.4968C29.4929 16.1656 30.8302 15.9937 32.2184 15.9937C33.6067 15.9937 34.9376 16.1656 36.2176 16.4968V12.3957C34.9249 12.1346 33.5876 11.9945 32.2184 11.9945C30.8493 11.9945 29.512 12.1346 28.2129 12.3957C26.8182 12.6823 25.4809 13.1026 24.2137 13.6566C22.7872 14.2807 21.4499 15.0639 20.2145 15.9873C18.7052 17.1272 17.3552 18.4709 16.2153 19.9865C15.2919 21.2156 14.5086 22.5593 13.8845 23.9857C13.3305 25.253 12.9038 26.5903 12.6236 27.9849C12.3625 29.2777 12.2224 30.615 12.2224 31.9905V56.9664C11.8276 56.6544 11.4391 56.3232 11.0634 55.9857C10.0572 55.1006 9.10838 54.1517 8.22321 53.1455V31.9905C8.22321 30.6277 8.33784 29.2904 8.55436 27.9849C8.78362 26.6031 9.13385 25.2721 9.59236 23.9857C10.0827 22.5911 10.7068 21.2474 11.4328 19.9865C11.6811 19.5535 11.9486 19.1268 12.2224 18.7129C12.8592 17.7513 13.5661 16.8407 14.3366 15.981C14.9289 15.3187 15.5593 14.6882 16.2216 14.096C17.0813 13.3254 17.992 12.6186 18.9536 11.9818C19.3675 11.7079 19.7942 11.4405 20.2272 11.1921C21.4881 10.4598 22.8318 9.84206 24.2264 9.35171C25.5128 8.89957 26.8437 8.54932 28.2256 8.32007C29.5311 8.10355 30.862 7.98892 32.2312 7.98892C33.6003 7.98892 34.9313 8.10355 36.2304 8.32007C37.6059 8.54932 38.9432 8.89957 40.2296 9.35171V23.0433C39.0769 22.0052 37.7205 21.1965 36.2304 20.6743C34.9822 20.2285 33.6322 19.9865 32.2312 19.9865C30.8302 19.9865 29.4801 20.2285 28.2256 20.6743C26.7354 21.1965 25.379 22.0116 24.2264 23.0433C23.8952 23.3362 23.5832 23.6546 23.2903 23.9794C22.2523 25.132 21.4371 26.4884 20.9149 27.9786C20.4692 29.2267 20.2272 30.5768 20.2272 31.9841V47.981H20.2208L20.2272 47.9873V57.2848C21.5072 57.8962 22.8445 58.412 24.2264 58.8196C25.5191 59.208 26.8564 59.501 28.2256 59.692C29.5311 59.8831 30.8684 59.9786 32.2312 59.9786C33.594 59.9786 34.9249 59.8831 36.2304 59.692C37.5995 59.501 38.9368 59.208 40.2296 58.8196C41.6115 58.412 42.9488 57.8962 44.2352 57.2848C45.0694 56.89 45.8718 56.457 46.6551 55.9794C47.1963 55.661 47.7249 55.3171 48.2344 54.9541C49.5144 54.0626 50.7179 53.0691 51.826 51.9802C51.9661 51.8464 52.0998 51.7127 52.2336 51.5726C53.3225 50.4582 54.3223 49.261 55.2139 47.981C55.5768 47.4715 55.9143 46.9493 56.2391 46.408C56.7104 45.6247 57.1434 44.8096 57.5382 43.9818C58.1496 42.7018 58.6654 41.3644 59.0793 39.9826C59.4678 38.6835 59.7607 37.3525 59.9581 35.977C60.1428 34.6715 60.2447 33.3342 60.2447 31.9778V16.4777C60.8688 17.6048 61.4292 18.7702 61.9195 19.9802C62.4417 21.2729 62.8875 22.6038 63.2377 23.9794C63.5689 25.2848 63.83 26.6158 63.9956 27.9786C64.1611 29.2904 64.2439 30.6277 64.2439 31.9841L64.2184 31.9969Z" fill="#00249C"/>
<path d="M56.008 10.8417V32.0031C56.008 33.3659 55.8933 34.7032 55.6768 36.0023C55.4476 37.3842 55.0973 38.7215 54.6388 40.0079C54.1485 41.4025 53.5244 42.7462 52.7984 44.0071C52.5501 44.4401 52.2826 44.8668 52.0088 45.2807C51.372 46.2423 50.6651 47.1466 49.9009 48.0063C49.3087 48.6686 48.6782 49.299 48.0096 49.8976C47.1499 50.6682 46.2392 51.375 45.2776 52.0119C44.8637 52.2857 44.4434 52.5532 44.0104 52.8015C42.7431 53.5339 41.4058 54.1516 40.0048 54.6483C38.7184 55.1004 37.3811 55.4507 36.0056 55.6799C34.7065 55.8964 33.3692 56.0111 32.0064 56.0111C30.6436 56.0111 29.3063 55.8964 28.0008 55.6799C26.6253 55.4507 25.288 55.1004 24.0016 54.6483V40.9567C25.1542 41.9947 26.5106 42.8099 28.0008 43.3257C29.249 43.7778 30.599 44.0135 32.0064 44.0135C33.4137 44.0135 34.7574 43.7715 36.0056 43.3257C37.4957 42.8035 38.8521 41.9884 40.0048 40.9567C40.3359 40.6574 40.6543 40.3454 40.9473 40.0143C41.9853 38.8552 42.8004 37.5052 43.3226 36.0087C43.7684 34.7605 44.0104 33.4105 44.0104 32.0095V6.69604C42.7304 6.0847 41.393 5.56887 40.0048 5.16131C38.712 4.77285 37.3747 4.47992 36.0056 4.28887C34.7001 4.09783 33.3628 4.00231 32.0064 4.00231C30.65 4.00231 29.3126 4.09783 28.0008 4.28887C26.638 4.47992 25.2943 4.77285 24.0016 5.16131C22.6197 5.56887 21.2824 6.0847 20.0024 6.69604C19.1682 7.09086 18.3594 7.53027 17.5697 8.00151C17.0285 8.31992 16.5126 8.6638 15.9968 9.02042C14.7168 9.91196 13.5132 10.9118 12.4052 12.0007C12.2651 12.1344 12.1313 12.2682 11.9976 12.4083C10.9087 13.5227 9.90886 14.7199 9.02369 15.9999C8.66071 16.5157 8.31682 17.0379 7.99841 17.5856C7.52079 18.3689 7.09414 19.1713 6.69294 20.0055C6.0816 21.2855 5.56578 22.6228 5.15821 24.0047C4.76976 25.2974 4.47682 26.6347 4.28578 28.0039C4.09473 29.3094 3.9992 30.6531 3.9992 32.0095V47.5032C3.37512 46.376 2.81472 45.2107 2.32437 44.0071C1.80219 42.7144 1.35641 41.377 1.00616 40.0079C0.675016 38.7024 0.420308 37.3651 0.248368 36.0023C0.0827954 34.6968 0 33.3532 0 32.0031C0 30.6531 0.0827954 29.3094 0.248368 27.9975C0.420308 26.6347 0.668648 25.3038 1.00616 23.9983C1.36278 22.6228 1.80219 21.2919 2.32437 19.9991C2.80835 18.7955 3.36876 17.6238 3.9992 16.4966C4.08836 16.3247 4.18388 16.1655 4.2794 15.9936C5.09453 14.5862 6.01154 13.2552 7.0177 11.9943C7.33611 11.5995 7.66089 11.2111 7.99841 10.8353C8.88358 9.82917 9.83243 8.88032 10.8386 7.99514C11.2143 7.65763 11.6092 7.32649 12.004 7.01445C13.2649 6.00191 14.5958 5.09126 16.0032 4.27614C16.1751 4.18062 16.3343 4.08509 16.5063 3.99594C17.6334 3.37186 18.7988 2.81146 20.0088 2.32111C21.3015 1.79892 22.6324 1.35315 24.008 1.0029C25.3134 0.67176 26.6444 0.417033 28.0072 0.245093C29.319 0.0795207 30.6563 -0.00326538 32.0127 -0.00326538C33.3691 -0.00326538 34.7065 0.0795207 36.0119 0.245093C37.3747 0.417033 38.7057 0.665391 40.0111 1.0029C41.3867 1.35952 42.7176 1.79892 44.0167 2.32111C45.2203 2.81146 46.3857 3.36549 47.5128 3.99594C47.6848 4.08509 47.8503 4.18062 48.0159 4.27614V19.9928V31.9967C48.0159 33.3786 47.844 34.7159 47.5128 35.9959C47.1435 37.416 46.5895 38.7597 45.8699 40.0015C45.3413 40.9249 44.7172 41.7846 44.0167 42.5742C43.5773 43.0773 43.0997 43.555 42.5966 43.9944C41.807 44.6949 40.9345 45.3189 40.0175 45.8475C38.7821 46.5671 37.4384 47.1211 36.0183 47.4905C34.7383 47.8216 33.401 47.9936 32.0191 47.9936C30.6372 47.9936 29.2999 47.8216 28.0135 47.4905V51.5979C29.3063 51.859 30.6436 51.9991 32.0191 51.9991C33.3946 51.9991 34.7256 51.859 36.0183 51.5979C37.4066 51.3177 38.7439 50.8911 40.0175 50.337C41.444 49.713 42.7877 48.9297 44.0231 47.9999C45.5323 46.86 46.876 45.5163 48.0159 44.0071C48.9393 42.778 49.7226 41.4343 50.3467 40.0079C50.9007 38.7406 51.3274 37.3969 51.6076 36.0023C51.8687 34.7096 52.0088 33.3723 52.0088 32.0031V7.02082C52.4036 7.33922 52.7984 7.664 53.1741 8.00151C54.1867 8.88669 55.1292 9.83554 56.0143 10.8417H56.008Z" fill="#00249C"/>
</svg>
