<svg width="396" height="64" viewBox="0 0 396 64" fill="none" xmlns="http://www.w3.org/2000/svg">
<g clip-path="url(#clip0_8_2371)">
<path d="M274.504 32.0002C274.504 33.3502 274.421 34.6939 274.256 35.9994C274.084 37.3621 273.835 38.6995 273.498 40.0049C273.148 41.3741 272.702 42.7114 272.18 44.0041C271.696 45.2077 271.135 46.3731 270.505 47.5002C270.416 47.6722 270.32 47.8378 270.225 48.0033C269.41 49.4107 268.493 50.748 267.48 52.0089C267.168 52.4037 266.843 52.7858 266.506 53.1679C265.621 54.1804 264.672 55.1229 263.666 56.0081C263.29 56.3456 262.901 56.6768 262.507 56.9888C261.246 58.0013 259.915 58.9184 258.507 59.7271C258.342 59.8226 258.176 59.9182 258.011 60.0073C256.883 60.6314 255.718 61.1918 254.508 61.6821C253.215 62.2043 251.878 62.6501 250.503 63.0003C249.197 63.3315 247.866 63.5862 246.503 63.7582C245.198 63.9237 243.861 64.0065 242.504 64.0065C241.148 64.0065 239.81 63.9237 238.499 63.7582C237.136 63.5862 235.805 63.3379 234.499 63.0003C233.124 62.6437 231.793 62.2043 230.5 61.6821C229.29 61.1918 228.118 60.6314 226.991 60.0073C226.826 59.9182 226.66 59.8226 226.495 59.7271V44.0105V32.0065C226.495 30.6246 226.667 29.2809 226.998 28.0009C227.367 26.5808 227.921 25.2372 228.641 24.0017C229.176 23.0784 229.8 22.2123 230.5 21.4226C230.94 20.9196 231.417 20.4419 231.92 20.0025C232.71 19.302 233.582 18.678 234.499 18.143C235.735 17.4298 237.078 16.8694 238.499 16.5C239.779 16.1689 241.116 15.997 242.504 15.997C243.892 15.997 245.223 16.1689 246.503 16.5V12.399C245.211 12.1379 243.873 11.9978 242.504 11.9978C241.135 11.9978 239.798 12.1379 238.499 12.399C237.104 12.6855 235.767 13.1058 234.499 13.6599C233.073 14.2839 231.736 15.0672 230.5 15.9906C228.991 17.1305 227.641 18.4742 226.501 19.9898C225.578 21.2189 224.794 22.5625 224.17 23.989C223.616 25.2563 223.19 26.5936 222.909 27.9882C222.648 29.2809 222.508 30.6183 222.508 31.9938V56.9697C222.113 56.6577 221.725 56.3265 221.349 55.989C220.343 55.1038 219.394 54.155 218.509 53.1488V31.9938C218.509 30.631 218.624 29.2937 218.84 27.9882C219.069 26.6063 219.42 25.2754 219.878 23.989C220.368 22.5944 220.992 21.2507 221.718 19.9898C221.967 19.5568 222.234 19.1301 222.508 18.7162C223.145 17.7546 223.852 16.8439 224.622 15.9842C225.215 15.3219 225.845 14.6915 226.507 14.0993C227.367 13.3287 228.278 12.6218 229.239 11.985C229.653 11.7112 230.08 11.4437 230.513 11.1954C231.774 10.463 233.117 9.84532 234.512 9.35497C235.798 8.90283 237.129 8.55259 238.511 8.32333C239.817 8.10681 241.148 7.99219 242.517 7.99219C243.886 7.99219 245.217 8.10681 246.516 8.32333C247.892 8.55259 249.229 8.90283 250.515 9.35497V23.0465C249.363 22.0085 248.006 21.1998 246.516 20.6776C245.268 20.2318 243.918 19.9898 242.517 19.9898C241.116 19.9898 239.766 20.2318 238.511 20.6776C237.021 21.1998 235.665 22.0149 234.512 23.0465C234.181 23.3395 233.869 23.6579 233.576 23.9826C232.538 25.1353 231.723 26.4917 231.201 27.9818C230.755 29.23 230.513 30.58 230.513 31.9874V47.9842H230.507L230.513 47.9906V57.2881C231.793 57.8995 233.13 58.4153 234.512 58.8228C235.805 59.2113 237.142 59.5042 238.511 59.6953C239.817 59.8863 241.154 59.9818 242.517 59.9818C243.88 59.9818 245.211 59.8863 246.516 59.6953C247.885 59.5042 249.223 59.2113 250.515 58.8228C251.897 58.4153 253.234 57.8995 254.521 57.2881C255.355 56.8933 256.157 56.4603 256.941 55.9826C257.482 55.6642 258.011 55.3204 258.52 54.9574C259.8 54.0658 261.004 53.0724 262.112 51.9834C262.252 51.8497 262.386 51.716 262.519 51.5759C263.608 50.4614 264.608 49.2642 265.5 47.9842C265.863 47.4748 266.2 46.9526 266.525 46.4113C266.996 45.628 267.429 44.8129 267.824 43.985C268.435 42.705 268.951 41.3677 269.365 39.9858C269.754 38.6867 270.046 37.3558 270.244 35.9802C270.429 34.6748 270.53 33.3375 270.53 31.981V16.4809C271.154 17.6081 271.715 18.7735 272.205 19.9834C272.727 21.2762 273.173 22.6071 273.523 23.9826C273.855 25.2881 274.116 26.6191 274.281 27.9818C274.447 29.2937 274.53 30.631 274.53 31.9874L274.504 32.0002Z" fill="#00249C"/>
<path d="M266.294 10.845V32.0064C266.294 33.3692 266.179 34.7065 265.963 36.0056C265.733 37.3875 265.383 38.7248 264.925 40.0111C264.434 41.4058 263.81 42.7495 263.084 44.0104C262.836 44.4434 262.568 44.8701 262.294 45.284C261.658 46.2456 260.951 47.1499 260.187 48.0096C259.594 48.6718 258.964 49.3023 258.295 49.9009C257.436 50.6714 256.525 51.3783 255.563 52.0151C255.149 52.289 254.729 52.5564 254.296 52.8048C253.029 53.5371 251.691 54.1548 250.29 54.6515C249.004 55.1037 247.667 55.4539 246.291 55.6832C244.992 55.8997 243.655 56.0143 242.292 56.0143C240.929 56.0143 239.592 55.8997 238.287 55.6832C236.911 55.4539 235.574 55.1037 234.287 54.6515V40.96C235.44 41.998 236.796 42.8131 238.287 43.329C239.535 43.7811 240.885 44.0167 242.292 44.0167C243.699 44.0167 245.043 43.7747 246.291 43.329C247.781 42.8068 249.138 41.9916 250.29 40.96C250.622 40.6607 250.94 40.3487 251.233 40.0175C252.271 38.8585 253.086 37.5085 253.608 36.0119C254.054 34.7638 254.296 33.4137 254.296 32.0127V6.6993C253.016 6.08796 251.679 5.57214 250.29 5.16458C248.998 4.77612 247.66 4.48318 246.291 4.29214C244.986 4.1011 243.648 4.00557 242.292 4.00557C240.936 4.00557 239.598 4.1011 238.287 4.29214C236.924 4.48318 235.58 4.77612 234.287 5.16458C232.905 5.57214 231.568 6.08796 230.288 6.6993C229.454 7.09413 228.645 7.53353 227.855 8.00478C227.314 8.32318 226.798 8.66707 226.283 9.02368C225.003 9.91523 223.799 10.915 222.691 12.004C222.551 12.1377 222.417 12.2714 222.283 12.4115C221.194 13.526 220.195 14.7232 219.309 16.0032C218.946 16.519 218.603 17.0412 218.284 17.5889C217.807 18.3721 217.38 19.1745 216.979 20.0088C216.367 21.2888 215.851 22.6261 215.444 24.008C215.055 25.3007 214.763 26.638 214.571 28.0072C214.38 29.3126 214.285 30.6563 214.285 32.0127V47.5065C213.661 46.3793 213.1 45.2139 212.61 44.0104C212.088 42.7176 211.642 41.3803 211.292 40.0111C210.961 38.7057 210.706 37.3684 210.534 36.0056C210.369 34.7001 210.286 33.3564 210.286 32.0064C210.286 30.6563 210.369 29.3126 210.534 28.0008C210.706 26.638 210.954 25.3071 211.292 24.0016C211.648 22.6261 212.088 21.2951 212.61 20.0024C213.094 18.7988 213.654 17.6271 214.285 16.4999C214.374 16.328 214.47 16.1688 214.565 15.9968C215.38 14.5895 216.297 13.2585 217.303 11.9976C217.622 11.6028 217.947 11.2143 218.284 10.8386C219.169 9.83244 220.118 8.88358 221.124 7.99841C221.5 7.6609 221.895 7.32975 222.29 7.01771C223.551 6.00517 224.882 5.09453 226.289 4.2794C226.461 4.18388 226.62 4.08836 226.792 3.9992C227.919 3.37512 229.085 2.81473 230.294 2.32438C231.587 1.80219 232.918 1.35642 234.294 1.00617C235.599 0.675025 236.93 0.420299 238.293 0.248358C239.605 0.0827861 240.942 0 242.298 0C243.655 0 244.992 0.0827861 246.298 0.248358C247.66 0.420299 248.991 0.668657 250.297 1.00617C251.672 1.36279 253.003 1.80219 254.302 2.32438C255.506 2.81473 256.671 3.36876 257.799 3.9992C257.97 4.08836 258.136 4.18388 258.302 4.2794V19.996V32C258.302 33.3819 258.13 34.7192 257.799 35.9992C257.429 37.4193 256.875 38.763 256.156 40.0048C255.627 40.9282 255.003 41.7879 254.302 42.5775C253.863 43.0806 253.385 43.5582 252.882 43.9976C252.093 44.6981 251.22 45.3222 250.303 45.8507C249.068 46.5704 247.724 47.1244 246.304 47.4937C245.024 47.8249 243.687 47.9968 242.305 47.9968C240.923 47.9968 239.586 47.8249 238.299 47.4937V51.6012C239.592 51.8623 240.929 52.0024 242.305 52.0024C243.68 52.0024 245.011 51.8623 246.304 51.6012C247.692 51.321 249.03 50.8943 250.303 50.3403C251.73 49.7162 253.073 48.9329 254.309 48.0032C255.818 46.8633 257.162 45.5196 258.302 44.0104C259.225 42.7813 260.008 41.4376 260.632 40.0111C261.186 38.7439 261.613 37.4002 261.893 36.0056C262.154 34.7128 262.294 33.3755 262.294 32.0064V7.02408C262.689 7.34249 263.084 7.66726 263.46 8.00478C264.472 8.88995 265.415 9.83881 266.3 10.845H266.294Z" fill="#00249C"/>
<path d="M0.00665283 13.4814H8.7183V16.8374H8.85839C9.64168 15.5511 12.3545 12.125 19.213 12.125C21.3527 12.125 26.9249 12.6217 30.6375 18.3403C34.7768 12.4116 40.6355 12.125 43.4184 12.125C51.2003 12.125 55.0594 16.2643 56.4859 18.2639C58.0588 20.3336 59.4853 24.1162 59.4853 29.9749V53.1105H49.9903V31.1149C49.9903 28.8287 49.9903 20.8303 42.495 20.8303C39.8522 20.8303 37.2795 22.2567 35.9231 24.5429C34.5667 26.6826 34.4966 30.1851 34.4966 32.6114V53.1041H25.0017V31.1085C25.0017 25.6828 22.932 20.8239 17.0733 20.8239C9.50158 20.8239 9.50158 29.1089 9.50158 33.3182V53.0977H0.00665283V13.4814Z" fill="#1D2939"/>
<path d="M100.693 13.48V53.1091H91.9809V49.1099H91.8408C90.2678 51.2496 87.7015 54.3954 81.6262 54.3954C74.4111 54.3954 70.3419 50.8229 68.3423 48.1101C65.4129 43.8943 65.4129 37.4689 65.4129 34.1829V13.48H74.9078V33.6862C74.9078 36.9021 74.9078 45.6838 83.1928 45.6838C89.1916 45.6838 91.1912 40.0416 91.1912 33.7562V13.4736H100.686L100.693 13.48Z" fill="#1D2939"/>
<path d="M107.119 0.273438H116.614V53.1164H107.119V0.273438Z" fill="#1D2939"/>
<path d="M125.116 21.9061H120.473V13.481H125.116V0.273438H134.61V13.481H140.323V21.9061H134.61V53.1101H125.116V21.9061Z" fill="#1D2939"/>
<path d="M142.754 0.273438H152.249V8.98508H142.754V0.273438ZM142.754 13.481H152.249V53.1101H142.754V13.481Z" fill="#1D2939"/>
<path d="M155.465 13.4799H165.603L172.819 37.6853H172.959L179.454 13.4799H187.026L193.451 37.6853H193.591L200.877 13.4799H211.015L196.521 53.109H190.669L183.243 27.4007H183.103L175.608 53.109H169.755L155.472 13.4799H155.465Z" fill="#1D2939"/>
<path d="M273.777 13.4799H284.061L293.633 39.7613H293.849L302.847 13.4799H313.272L297.205 53.109H289.78L273.783 13.4799H273.777Z" fill="#1D2939"/>
<path d="M324.333 37.5452C324.76 40.118 328.472 45.6838 335.261 45.6838C339.476 45.6838 342.616 43.9007 344.399 40.6147H354.397C352.111 47.7534 344.615 54.3954 335.261 54.3954C323.193 54.3954 314.335 44.9705 314.335 33.3996C314.335 21.8286 322.62 12.1172 335.184 12.1172C347.749 12.1172 355.677 22.7584 355.677 32.7564C355.677 34.6159 355.39 36.2525 355.104 37.5389H324.326L324.333 37.5452ZM345.972 29.9035C344.902 23.548 340.33 20.8352 335.261 20.8352C331.408 20.8352 325.836 22.5482 324.046 29.9035H345.965H345.972Z" fill="#1D2939"/>
<path d="M360.259 13.4814H369.041V16.9075C370.614 15.4046 373.899 12.125 379.892 12.125C383.318 12.125 388.534 13.6215 391.82 17.6207C395.462 21.9765 395.462 28.6185 395.462 31.688V53.1105H385.967V33.5475C385.967 30.2615 385.967 20.8366 377.969 20.8366C376.256 20.8366 373.186 21.6963 371.473 24.3328C369.76 26.759 369.76 30.9047 369.76 34.2607V53.1105H360.265V13.4814H360.259Z" fill="#1D2939"/>
</g>
<defs>
<clipPath id="clip0_8_2371">
<rect width="395.456" height="64" fill="white"/>
</clipPath>
</defs>
</svg>
