<svg width="200" height="119" viewBox="0 0 200 119" fill="none" xmlns="http://www.w3.org/2000/svg">
<g id="freepik--background-complete--inject-120">
<path id="Vector" d="M200 113.778H0V113.878H200V113.778Z" fill="#D9DDE4"/>
<path id="Vector_2" d="M55.6522 118.322H36.2002V118.422H55.6522V118.322Z" fill="#D9DDE4"/>
<path id="Vector_3" d="M31.8719 118.374H26.7559V118.474H31.8719V118.374Z" fill="#D9DDE4"/>
<path id="Vector_4" d="M83.8757 117.702H77.8877V117.802H83.8757V117.702Z" fill="#D9DDE4"/>
<path id="Vector_5" d="M110.664 117.702H86.1763V117.802H110.664V117.702Z" fill="#D9DDE4"/>
<path id="Vector_6" d="M168.268 118.474H145.556V118.574H168.268V118.474Z" fill="#D9DDE4"/>
<path id="Vector_7" d="M143.332 118.474H137.316V118.574H143.332V118.474Z" fill="#D9DDE4"/>
<path id="Vector_8" d="M179.424 116.67H174.268V116.77H179.424V116.67Z" fill="#D9DDE4"/>
<path id="Vector_9" d="M200 107.854H172.44C172.143 107.854 171.857 107.736 171.647 107.526C171.436 107.316 171.317 107.031 171.316 106.734V34.2658C171.316 34.0208 171.219 33.7858 171.046 33.6125C170.872 33.4392 170.637 33.3418 170.392 33.3418H167.492V33.1418H170.4C170.698 33.1418 170.984 33.2603 171.195 33.4711C171.406 33.6818 171.524 33.9677 171.524 34.2658V106.734C171.525 106.978 171.623 107.212 171.796 107.385C171.969 107.557 172.204 107.654 172.448 107.654H200V107.854Z" fill="#D9DDE4"/>
<path id="Vector_10" d="M200 106.393H173.376C173.078 106.393 172.792 106.275 172.581 106.064C172.371 105.853 172.252 105.567 172.252 105.269V32.8174C172.252 32.573 172.155 32.3386 171.983 32.1654C171.811 31.9922 171.577 31.8944 171.332 31.8934H167.492V31.6934H171.332C171.63 31.6944 171.914 31.8133 172.124 32.024C172.334 32.2347 172.452 32.5199 172.452 32.8174V105.269C172.453 105.514 172.551 105.748 172.724 105.922C172.897 106.095 173.131 106.192 173.376 106.193H200V106.393Z" fill="#D9DDE4"/>
<path id="Vector_11" d="M200 104.93H174.312C174.014 104.93 173.728 104.811 173.517 104.601C173.307 104.39 173.188 104.104 173.188 103.806V31.3379C173.188 31.0935 173.091 30.8591 172.919 30.6859C172.747 30.5127 172.513 30.4149 172.268 30.4139H167.492V30.2139H172.268C172.566 30.2149 172.85 30.3338 173.06 30.5445C173.27 30.7552 173.388 31.0405 173.388 31.3379V103.806C173.389 104.051 173.487 104.285 173.66 104.458C173.833 104.631 174.067 104.729 174.312 104.73H200V104.93Z" fill="#D9DDE4"/>
<path id="Vector_12" d="M200 103.466H175.248C174.951 103.465 174.666 103.346 174.456 103.135C174.246 102.924 174.128 102.639 174.128 102.342V29.8737C174.127 29.6293 174.029 29.3953 173.856 29.2229C173.683 29.0505 173.449 28.9537 173.204 28.9537H167.492V28.7537H173.2C173.498 28.7537 173.783 28.8715 173.994 29.0815C174.204 29.2914 174.323 29.5763 174.324 29.8737V102.342C174.324 102.586 174.421 102.82 174.593 102.994C174.766 103.167 175 103.265 175.244 103.266H200V103.466Z" fill="#D9DDE4"/>
<path id="Vector_13" d="M200 102.017H176.184C175.887 102.016 175.602 101.898 175.392 101.687C175.182 101.476 175.064 101.191 175.064 100.893V28.4175C175.064 28.1724 174.967 27.9374 174.794 27.7641C174.62 27.5908 174.385 27.4935 174.14 27.4935H167.492V27.2935H174.14C174.288 27.2935 174.434 27.3225 174.57 27.379C174.707 27.4355 174.831 27.5183 174.935 27.6227C175.039 27.727 175.122 27.8509 175.179 27.9873C175.235 28.1237 175.264 28.2699 175.264 28.4175V100.877C175.264 101.122 175.361 101.356 175.533 101.529C175.706 101.703 175.94 101.8 176.184 101.801H200V102.017Z" fill="#D9DDE4"/>
<path id="Vector_14" d="M200 100.537H177.124C176.826 100.537 176.54 100.419 176.329 100.208C176.118 99.9974 176 99.7115 176 99.4134V26.9494C176 26.7044 175.903 26.4694 175.729 26.2961C175.556 26.1228 175.321 26.0254 175.076 26.0254H167.476V25.8254H175.076C175.374 25.8254 175.66 25.9439 175.871 26.1547C176.082 26.3654 176.2 26.6513 176.2 26.9494V99.4134C176.2 99.5349 176.223 99.6553 176.269 99.7677C176.316 99.88 176.384 99.9821 176.47 100.068C176.555 100.154 176.658 100.222 176.77 100.268C176.882 100.314 177.003 100.338 177.124 100.337H200V100.537Z" fill="#D9DDE4"/>
<path id="Vector_15" d="M200 99.0733H178.06C177.763 99.0733 177.477 98.9555 177.267 98.7455C177.056 98.5356 176.937 98.2507 176.936 97.9533V25.4853C176.935 25.2406 176.837 25.0062 176.664 24.8331C176.491 24.6601 176.257 24.5624 176.012 24.5613H167.492V24.3613H176C176.298 24.3613 176.584 24.4797 176.795 24.6905C177.006 24.9013 177.124 25.1872 177.124 25.4853V97.9533C177.124 98.0745 177.148 98.1944 177.195 98.3063C177.241 98.4182 177.309 98.5198 177.395 98.6053C177.481 98.6908 177.583 98.7585 177.695 98.8045C177.807 98.8504 177.927 98.8739 178.048 98.8733H200V99.0733Z" fill="#D9DDE4"/>
<path id="Vector_16" d="M111.536 40.4255H86.8159V40.6255H111.536V40.4255Z" fill="#D9DDE4"/>
<path id="Vector_17" d="M111.536 38.9614H86.8159V39.1614H111.536V38.9614Z" fill="#D9DDE4"/>
<path id="Vector_18" d="M111.536 37.4973H86.8159V37.6973H111.536V37.4973Z" fill="#D9DDE4"/>
<path id="Vector_19" d="M111.536 36.0332H86.8159V36.2332H111.536V36.0332Z" fill="#D9DDE4"/>
<path id="Vector_20" d="M111.536 34.574H86.8159V34.774H111.536V34.574Z" fill="#D9DDE4"/>
<path id="Vector_21" d="M111.536 33.1099H86.8159V33.3099H111.536V33.1099Z" fill="#D9DDE4"/>
<path id="Vector_22" d="M111.536 31.6458H86.8159V31.8458H111.536V31.6458Z" fill="#D9DDE4"/>
<path id="Vector_23" d="M111.536 90.0098H86.8159V90.2098H111.536V90.0098Z" fill="#D9DDE4"/>
<path id="Vector_24" d="M111.536 88.5459H86.8159V88.7459H111.536V88.5459Z" fill="#D9DDE4"/>
<path id="Vector_25" d="M111.536 87.0818H86.8159V87.2818H111.536V87.0818Z" fill="#D9DDE4"/>
<path id="Vector_26" d="M111.536 85.6177H86.8159V85.8177H111.536V85.6177Z" fill="#D9DDE4"/>
<path id="Vector_27" d="M111.536 84.1536H86.8159V84.3536H111.536V84.1536Z" fill="#D9DDE4"/>
<path id="Vector_28" d="M111.536 82.6934H86.8159V82.8934H111.536V82.6934Z" fill="#D9DDE4"/>
<path id="Vector_29" d="M111.536 81.2295H86.8159V81.4295H111.536V81.2295Z" fill="#D9DDE4"/>
<path id="Vector_30" d="M38.3758 100.726H28.7758C28.4804 100.726 28.1969 100.609 27.9866 100.402C27.7763 100.195 27.656 99.9129 27.6518 99.6176V27.1376C27.6523 27.0164 27.6289 26.8964 27.5829 26.7843C27.5369 26.6722 27.4692 26.5703 27.3837 26.4845C27.2983 26.3986 27.1967 26.3305 27.0848 26.284C26.9729 26.2375 26.8529 26.2136 26.7318 26.2136H15.3838V26.0176H26.7318C26.8792 26.0176 27.0252 26.0467 27.1613 26.1032C27.2975 26.1598 27.4211 26.2426 27.5252 26.347C27.6292 26.4515 27.7116 26.5754 27.7677 26.7117C27.8237 26.8481 27.8523 26.9942 27.8518 27.1416V99.6176C27.8518 99.8626 27.9491 100.098 28.1224 100.271C28.2957 100.444 28.5307 100.542 28.7758 100.542H38.3758V100.726Z" fill="#D9DDE4"/>
<path id="Vector_31" d="M38.376 102.19H27.84C27.5419 102.19 27.256 102.071 27.0452 101.861C26.8344 101.65 26.716 101.364 26.716 101.066V28.6018C26.7165 28.4806 26.6931 28.3606 26.6471 28.2485C26.6011 28.1364 26.5334 28.0345 26.448 27.9487C26.3625 27.8628 26.2609 27.7947 26.149 27.7482C26.0371 27.7017 25.9171 27.6778 25.796 27.6778H15.396V27.4778H25.796C26.0934 27.4788 26.3783 27.5977 26.5882 27.8084C26.7981 28.0191 26.916 28.3044 26.916 28.6018V101.066C26.916 101.311 27.0133 101.546 27.1866 101.719C27.3599 101.892 27.5949 101.99 27.84 101.99H38.376V102.19Z" fill="#D9DDE4"/>
<path id="Vector_32" d="M38.3758 103.654H26.9038C26.7562 103.654 26.61 103.625 26.4737 103.568C26.3373 103.512 26.2134 103.429 26.109 103.325C26.0046 103.22 25.9218 103.096 25.8653 102.96C25.8089 102.824 25.7798 102.678 25.7798 102.53V30.0619C25.7798 29.8179 25.6829 29.5839 25.5103 29.4114C25.3378 29.2388 25.1038 29.1419 24.8598 29.1419H15.3838V28.9419H24.8598C25.1565 28.9429 25.4408 29.0613 25.6506 29.2711C25.8604 29.4809 25.9787 29.7652 25.9798 30.0619V102.53C25.9808 102.775 26.0785 103.009 26.2516 103.182C26.4246 103.355 26.6591 103.453 26.9038 103.454H38.3758V103.654Z" fill="#D9DDE4"/>
<path id="Vector_33" d="M38.3758 105.118H25.9758C25.6777 105.118 25.3918 104.999 25.181 104.789C24.9702 104.578 24.8518 104.292 24.8518 103.994V31.5257C24.8518 31.4044 24.8279 31.2842 24.7815 31.1721C24.735 31.06 24.667 30.9582 24.5812 30.8724C24.4954 30.7866 24.3935 30.7185 24.2814 30.6721C24.1693 30.6256 24.0491 30.6017 23.9278 30.6017H15.3838V30.4177H23.9198C24.2179 30.4177 24.5038 30.5361 24.7146 30.7469C24.9254 30.9577 25.0438 31.2436 25.0438 31.5417V103.994C25.0448 104.238 25.1425 104.473 25.3156 104.646C25.4886 104.819 25.7231 104.917 25.9678 104.918H38.3678L38.3758 105.118Z" fill="#D9DDE4"/>
<path id="Vector_34" d="M38.3758 106.581H25.0318C24.8842 106.581 24.738 106.552 24.6017 106.496C24.4653 106.439 24.3414 106.356 24.237 106.252C24.1326 106.148 24.0498 106.024 23.9933 105.887C23.9369 105.751 23.9078 105.605 23.9078 105.457V32.9892C23.9078 32.8679 23.8839 32.7477 23.8375 32.6356C23.791 32.5235 23.723 32.4217 23.6372 32.3359C23.5514 32.2501 23.4495 32.182 23.3374 32.1356C23.2253 32.0891 23.1051 32.0652 22.9838 32.0652H15.3838V31.8652H22.9838C23.2819 31.8652 23.5678 31.9837 23.7786 32.1944C23.9894 32.4052 24.1078 32.6911 24.1078 32.9892V105.457C24.1088 105.702 24.2065 105.936 24.3796 106.109C24.5526 106.282 24.7871 106.38 25.0318 106.381H38.3758V106.581Z" fill="#D9DDE4"/>
<path id="Vector_35" d="M38.3758 108.041H24.0958C23.7984 108.041 23.5131 107.923 23.3024 107.714C23.0917 107.504 22.9728 107.219 22.9718 106.921V34.4533C22.9707 34.2086 22.873 33.9742 22.7 33.8011C22.5269 33.6281 22.2925 33.5304 22.0478 33.5293H15.3838V33.3293H22.0478C22.3459 33.3293 22.6318 33.4478 22.8426 33.6586C23.0534 33.8693 23.1718 34.1552 23.1718 34.4533V106.921C23.1728 107.166 23.2707 107.4 23.4438 107.572C23.617 107.745 23.8514 107.841 24.0958 107.841H38.3758V108.041Z" fill="#D9DDE4"/>
<path id="Vector_36" d="M38.3758 109.505H23.1758C22.8784 109.505 22.5931 109.388 22.3824 109.178C22.1717 108.968 22.0528 108.683 22.0518 108.385V35.9175C22.0507 35.6727 21.953 35.4383 21.78 35.2653C21.6069 35.0922 21.3725 34.9945 21.1278 34.9935H15.3838V34.7935H21.1118C21.4099 34.7935 21.6958 34.9119 21.9066 35.1227C22.1174 35.3335 22.2358 35.6194 22.2358 35.9175V108.385C22.2358 108.507 22.2597 108.627 22.3062 108.738C22.3527 108.85 22.4208 108.952 22.5067 109.037C22.5925 109.123 22.6944 109.191 22.8065 109.237C22.9186 109.283 23.0386 109.306 23.1598 109.305H38.3598L38.3758 109.505Z" fill="#D9DDE4"/>
<path id="Vector_37" d="M78.96 107.754H38.376V113.774H78.96V107.754Z" fill="#D0D5DD"/>
<path id="Vector_38" d="M78.9604 113.778H87.1924V107.758H78.9604V113.778Z" fill="#EAECF0"/>
<path id="Vector_39" d="M78.9599 1.37012H35.6279V107.758H78.9599V1.37012Z" fill="#F1F2F5"/>
<path id="Vector_40" d="M86.3001 0.45752H39.2681V1.36552H86.3001V0.45752Z" fill="#D0D5DD"/>
<path id="Vector_41" d="M78.96 107.754H89.936L89.936 1.36566H78.96L78.96 107.754Z" fill="#D0D5DD"/>
<path id="Vector_42" d="M77.6679 2.64185H36.9199V14.2978H77.6679V2.64185Z" fill="#D0D5DD"/>
<path id="Vector_43" d="M77.6679 94.7576H36.9199V106.414H77.6679V94.7576Z" fill="#D0D5DD"/>
<path id="Vector_44" d="M77.6679 81.5974H36.9199V93.2534H77.6679V81.5974Z" fill="#D0D5DD"/>
<path id="Vector_45" d="M77.6679 68.4419H36.9199V80.0979H77.6679V68.4419Z" fill="#D0D5DD"/>
<path id="Vector_46" d="M77.6679 55.2817H36.9199V66.9377H77.6679V55.2817Z" fill="#D0D5DD"/>
<path id="Vector_47" d="M77.6679 42.1216H36.9199V53.7776H77.6679V42.1216Z" fill="#D0D5DD"/>
<path id="Vector_48" d="M77.6679 28.9614H36.9199V40.6174H77.6679V28.9614Z" fill="#D0D5DD"/>
<path id="Vector_49" d="M77.6679 15.802H36.9199V27.458H77.6679V15.802Z" fill="#D0D5DD"/>
<path id="Vector_50" opacity="0.7" d="M74.3759 4.30981H66.4319C65.493 4.30981 64.7319 5.07093 64.7319 6.00981V10.9378C64.7319 11.8767 65.493 12.6378 66.4319 12.6378H74.3759C75.3148 12.6378 76.0759 11.8767 76.0759 10.9378V6.00981C76.0759 5.07093 75.3148 4.30981 74.3759 4.30981Z" fill="#EAECF0"/>
<path id="Vector_51" d="M74.752 9.02592V7.92191C74.752 7.63914 74.5227 7.40991 74.24 7.40991H73.132C72.8492 7.40991 72.62 7.63914 72.62 7.92191V9.02592C72.62 9.30869 72.8492 9.53791 73.132 9.53791H74.24C74.5227 9.53791 74.752 9.30869 74.752 9.02592Z" fill="#F2F4F7"/>
<path id="Vector_52" opacity="0.7" d="M74.3759 17.4653H66.4319C65.493 17.4653 64.7319 18.2264 64.7319 19.1653V24.0933C64.7319 25.0322 65.493 25.7933 66.4319 25.7933H74.3759C75.3148 25.7933 76.0759 25.0322 76.0759 24.0933V19.1653C76.0759 18.2264 75.3148 17.4653 74.3759 17.4653Z" fill="#EAECF0"/>
<path id="Vector_53" d="M74.752 22.1861V21.0821C74.752 20.7993 74.5227 20.5701 74.24 20.5701H73.132C72.8492 20.5701 72.62 20.7993 72.62 21.0821V22.1861C72.62 22.4688 72.8492 22.6981 73.132 22.6981H74.24C74.5227 22.6981 74.752 22.4688 74.752 22.1861Z" fill="#F2F4F7"/>
<path id="Vector_54" opacity="0.7" d="M74.3759 30.6255H66.4319C65.493 30.6255 64.7319 31.3866 64.7319 32.3255V37.2535C64.7319 38.1924 65.493 38.9535 66.4319 38.9535H74.3759C75.3148 38.9535 76.0759 38.1924 76.0759 37.2535V32.3255C76.0759 31.3866 75.3148 30.6255 74.3759 30.6255Z" fill="#EAECF0"/>
<path id="Vector_55" d="M74.752 35.3455V34.2415C74.752 33.9587 74.5227 33.7295 74.24 33.7295H73.132C72.8492 33.7295 72.62 33.9587 72.62 34.2415V35.3455C72.62 35.6283 72.8492 35.8575 73.132 35.8575H74.24C74.5227 35.8575 74.752 35.6283 74.752 35.3455Z" fill="#F2F4F7"/>
<path id="Vector_56" opacity="0.7" d="M74.3759 43.7856H66.4319C65.493 43.7856 64.7319 44.5468 64.7319 45.4856V50.4136C64.7319 51.3525 65.493 52.1136 66.4319 52.1136H74.3759C75.3148 52.1136 76.0759 51.3525 76.0759 50.4136V45.4856C76.0759 44.5468 75.3148 43.7856 74.3759 43.7856Z" fill="#EAECF0"/>
<path id="Vector_57" d="M74.752 48.5017V47.3977C74.752 47.115 74.5227 46.8857 74.24 46.8857H73.132C72.8492 46.8857 72.62 47.115 72.62 47.3977V48.5017C72.62 48.7845 72.8492 49.0137 73.132 49.0137H74.24C74.5227 49.0137 74.752 48.7845 74.752 48.5017Z" fill="#F2F4F7"/>
<path id="Vector_58" opacity="0.7" d="M74.3759 56.9458H66.4319C65.493 56.9458 64.7319 57.7069 64.7319 58.6458V63.5738C64.7319 64.5127 65.493 65.2738 66.4319 65.2738H74.3759C75.3148 65.2738 76.0759 64.5127 76.0759 63.5738V58.6458C76.0759 57.7069 75.3148 56.9458 74.3759 56.9458Z" fill="#EAECF0"/>
<path id="Vector_59" d="M74.752 61.6619V60.5579C74.752 60.2751 74.5227 60.0459 74.24 60.0459H73.132C72.8492 60.0459 72.62 60.2751 72.62 60.5579V61.6619C72.62 61.9447 72.8492 62.1739 73.132 62.1739H74.24C74.5227 62.1739 74.752 61.9447 74.752 61.6619Z" fill="#F2F4F7"/>
<path id="Vector_60" opacity="0.7" d="M74.3759 70.106H66.4319C65.493 70.106 64.7319 70.8671 64.7319 71.806V76.734C64.7319 77.6728 65.493 78.434 66.4319 78.434H74.3759C75.3148 78.434 76.0759 77.6728 76.0759 76.734V71.806C76.0759 70.8671 75.3148 70.106 74.3759 70.106Z" fill="#EAECF0"/>
<path id="Vector_61" d="M74.752 74.8221V73.7181C74.752 73.4353 74.5227 73.2061 74.24 73.2061H73.1319C72.8492 73.2061 72.6199 73.4353 72.6199 73.7181V74.8221C72.6199 75.1048 72.8492 75.3341 73.1319 75.3341H74.24C74.5227 75.3341 74.752 75.1048 74.752 74.8221Z" fill="#F2F4F7"/>
<path id="Vector_62" opacity="0.7" d="M74.3759 83.2654H66.4319C65.493 83.2654 64.7319 84.0265 64.7319 84.9654V89.8934C64.7319 90.8323 65.493 91.5934 66.4319 91.5934H74.3759C75.3148 91.5934 76.0759 90.8323 76.0759 89.8934V84.9654C76.0759 84.0265 75.3148 83.2654 74.3759 83.2654Z" fill="#EAECF0"/>
<path id="Vector_63" d="M74.752 87.9812V86.8772C74.752 86.5945 74.5227 86.3652 74.2399 86.3652H73.1319C72.8492 86.3652 72.6199 86.5945 72.6199 86.8772V87.9812C72.6199 88.264 72.8492 88.4932 73.1319 88.4932H74.2399C74.5227 88.4932 74.752 88.264 74.752 87.9812Z" fill="#F2F4F7"/>
<path id="Vector_64" opacity="0.7" d="M74.3759 96.4216H66.4319C65.493 96.4216 64.7319 97.1827 64.7319 98.1216V103.05C64.7319 103.989 65.493 104.75 66.4319 104.75H74.3759C75.3148 104.75 76.0759 103.989 76.0759 103.05V98.1216C76.0759 97.1827 75.3148 96.4216 74.3759 96.4216Z" fill="#EAECF0"/>
<path id="Vector_65" d="M74.752 101.141V100.037C74.752 99.7546 74.5227 99.5254 74.24 99.5254H73.132C72.8492 99.5254 72.62 99.7546 72.62 100.037V101.141C72.62 101.424 72.8492 101.653 73.132 101.653H74.24C74.5227 101.653 74.752 101.424 74.752 101.141Z" fill="#F2F4F7"/>
<path id="Vector_66" d="M71.4678 9.022V7.91801C71.4678 7.63524 71.2385 7.40601 70.9558 7.40601H69.8478C69.565 7.40601 69.3358 7.63524 69.3358 7.91801V9.022C69.3358 9.30477 69.565 9.534 69.8478 9.534H70.9558C71.2385 9.534 71.4678 9.30477 71.4678 9.022Z" fill="#F2F4F7"/>
<path id="Vector_67" d="M71.4678 22.1814V21.0774C71.4678 20.7947 71.2385 20.5654 70.9558 20.5654H69.8478C69.565 20.5654 69.3358 20.7947 69.3358 21.0774V22.1814C69.3358 22.4642 69.565 22.6934 69.8478 22.6934H70.9558C71.2385 22.6934 71.4678 22.4642 71.4678 22.1814Z" fill="#F2F4F7"/>
<path id="Vector_68" d="M71.4678 35.3416V34.2376C71.4678 33.9548 71.2385 33.7256 70.9558 33.7256H69.8478C69.565 33.7256 69.3358 33.9548 69.3358 34.2376V35.3416C69.3358 35.6244 69.565 35.8536 69.8478 35.8536H70.9558C71.2385 35.8536 71.4678 35.6244 71.4678 35.3416Z" fill="#F2F4F7"/>
<path id="Vector_69" d="M71.4678 48.5017V47.3977C71.4678 47.115 71.2385 46.8857 70.9558 46.8857H69.8478C69.565 46.8857 69.3358 47.115 69.3358 47.3977V48.5017C69.3358 48.7845 69.565 49.0137 69.8478 49.0137H70.9558C71.2385 49.0137 71.4678 48.7845 71.4678 48.5017Z" fill="#F2F4F7"/>
<path id="Vector_70" d="M71.4717 61.6619V60.5579C71.4717 60.2751 71.2424 60.0459 70.9597 60.0459H69.8517C69.5689 60.0459 69.3397 60.2751 69.3397 60.5579V61.6619C69.3397 61.9447 69.5689 62.1739 69.8517 62.1739H70.9597C71.2424 62.1739 71.4717 61.9447 71.4717 61.6619Z" fill="#F2F4F7"/>
<path id="Vector_71" d="M71.4717 74.8221V73.7181C71.4717 73.4353 71.2424 73.2061 70.9597 73.2061H69.8517C69.5689 73.2061 69.3397 73.4353 69.3397 73.7181V74.8221C69.3397 75.1048 69.5689 75.3341 69.8517 75.3341H70.9597C71.2424 75.3341 71.4717 75.1048 71.4717 74.8221Z" fill="#F2F4F7"/>
<path id="Vector_72" d="M71.4678 87.9773V86.8733C71.4678 86.5906 71.2385 86.3613 70.9558 86.3613H69.8478C69.565 86.3613 69.3358 86.5906 69.3358 86.8733V87.9773C69.3358 88.2601 69.565 88.4893 69.8478 88.4893H70.9558C71.2385 88.4893 71.4678 88.2601 71.4678 87.9773Z" fill="#F2F4F7"/>
<path id="Vector_73" d="M71.4678 101.137V100.033C71.4678 99.7507 71.2385 99.5215 70.9558 99.5215H69.8478C69.565 99.5215 69.3358 99.7507 69.3358 100.033V101.137C69.3358 101.42 69.565 101.649 69.8478 101.649H70.9558C71.2385 101.649 71.4678 101.42 71.4678 101.137Z" fill="#F2F4F7"/>
<path id="Vector_74" d="M60.6399 9.81349C61.3822 9.81349 61.9839 9.21176 61.9839 8.46949C61.9839 7.72722 61.3822 7.12549 60.6399 7.12549C59.8976 7.12549 59.2959 7.72722 59.2959 8.46949C59.2959 9.21176 59.8976 9.81349 60.6399 9.81349Z" fill="#F2F4F7"/>
<path id="Vector_75" d="M58.1442 8.46949C58.145 8.73627 58.0666 8.99728 57.919 9.21949C57.7714 9.44169 57.5611 9.61509 57.3149 9.71773C57.0686 9.82037 56.7975 9.84764 56.5357 9.79608C56.274 9.74452 56.0334 9.61645 55.8445 9.42809C55.6556 9.23972 55.5268 8.99954 55.4744 8.73795C55.4221 8.47635 55.4486 8.20511 55.5505 7.95856C55.6524 7.71201 55.8252 7.50125 56.0469 7.35295C56.2687 7.20465 56.5295 7.12549 56.7962 7.12549C57.1531 7.12549 57.4953 7.26696 57.748 7.51889C58.0007 7.77083 58.1432 8.11267 58.1442 8.46949Z" fill="#F2F4F7"/>
<path id="Vector_76" d="M54.3 8.46949C54.3008 8.73627 54.2224 8.99728 54.0748 9.21949C53.9271 9.44169 53.7169 9.61509 53.4706 9.71773C53.2244 9.82037 52.9532 9.84764 52.6915 9.79608C52.4297 9.74452 52.1892 9.61645 52.0002 9.42809C51.8113 9.23972 51.6825 8.99954 51.6302 8.73795C51.5779 8.47635 51.6043 8.20511 51.7062 7.95856C51.8081 7.71201 51.9809 7.50125 52.2027 7.35295C52.4244 7.20465 52.6852 7.12549 52.952 7.12549C53.3088 7.12549 53.6511 7.26696 53.9038 7.51889C54.1565 7.77083 54.2989 8.11267 54.3 8.46949Z" fill="#F2F4F7"/>
<path id="Vector_77" d="M49.1082 9.81349C49.8504 9.81349 50.4522 9.21176 50.4522 8.46949C50.4522 7.72722 49.8504 7.12549 49.1082 7.12549C48.3659 7.12549 47.7642 7.72722 47.7642 8.46949C47.7642 9.21176 48.3659 9.81349 49.1082 9.81349Z" fill="#F2F4F7"/>
<path id="Vector_78" d="M60.6399 22.9736C61.3822 22.9736 61.9839 22.3719 61.9839 21.6296C61.9839 20.8874 61.3822 20.2856 60.6399 20.2856C59.8976 20.2856 59.2959 20.8874 59.2959 21.6296C59.2959 22.3719 59.8976 22.9736 60.6399 22.9736Z" fill="#F2F4F7"/>
<path id="Vector_79" d="M58.1442 21.6179C58.145 21.8847 58.0666 22.1457 57.919 22.3679C57.7714 22.5901 57.5611 22.7635 57.3149 22.8662C57.0686 22.9688 56.7975 22.9961 56.5357 22.9445C56.274 22.893 56.0334 22.7649 55.8445 22.5765C55.6556 22.3882 55.5268 22.148 55.4744 21.8864C55.4221 21.6248 55.4486 21.3535 55.5505 21.107C55.6524 20.8604 55.8252 20.6497 56.0469 20.5014C56.2687 20.3531 56.5295 20.2739 56.7962 20.2739C57.1531 20.2739 57.4953 20.4154 57.748 20.6673C58.0007 20.9193 58.1432 21.2611 58.1442 21.6179Z" fill="#F2F4F7"/>
<path id="Vector_80" d="M54.3 21.6179C54.3008 21.8847 54.2224 22.1457 54.0748 22.3679C53.9271 22.5901 53.7169 22.7635 53.4706 22.8662C53.2244 22.9688 52.9532 22.9961 52.6915 22.9445C52.4297 22.893 52.1892 22.7649 52.0002 22.5765C51.8113 22.3882 51.6825 22.148 51.6302 21.8864C51.5779 21.6248 51.6043 21.3535 51.7062 21.107C51.8081 20.8604 51.9809 20.6497 52.2027 20.5014C52.4244 20.3531 52.6852 20.2739 52.952 20.2739C53.3088 20.2739 53.6511 20.4154 53.9038 20.6673C54.1565 20.9193 54.2989 21.2611 54.3 21.6179Z" fill="#F2F4F7"/>
<path id="Vector_81" d="M49.1082 22.9736C49.8504 22.9736 50.4522 22.3719 50.4522 21.6296C50.4522 20.8874 49.8504 20.2856 49.1082 20.2856C48.3659 20.2856 47.7642 20.8874 47.7642 21.6296C47.7642 22.3719 48.3659 22.9736 49.1082 22.9736Z" fill="#F2F4F7"/>
<path id="Vector_82" d="M61.9997 34.7898C62.0005 35.0566 61.9221 35.3176 61.7745 35.5398C61.6268 35.762 61.4166 35.9354 61.1703 36.038C60.9241 36.1407 60.6529 36.1679 60.3912 36.1164C60.1294 36.0648 59.8889 35.9368 59.7 35.7484C59.511 35.56 59.3822 35.3199 59.3299 35.0583C59.2776 34.7967 59.304 34.5254 59.4059 34.2789C59.5078 34.0323 59.6806 33.8216 59.9024 33.6733C60.1241 33.525 60.3849 33.4458 60.6517 33.4458C60.8285 33.4453 61.0037 33.4797 61.1673 33.547C61.3308 33.6143 61.4794 33.7132 61.6046 33.838C61.7299 33.9629 61.8292 34.1112 61.897 34.2746C61.9648 34.4379 61.9997 34.613 61.9997 34.7898Z" fill="#F2F4F7"/>
<path id="Vector_83" d="M58.1442 34.7898C58.145 35.0566 58.0666 35.3176 57.919 35.5398C57.7714 35.762 57.5611 35.9354 57.3149 36.038C57.0686 36.1407 56.7975 36.1679 56.5357 36.1164C56.274 36.0648 56.0334 35.9368 55.8445 35.7484C55.6556 35.56 55.5268 35.3199 55.4744 35.0583C55.4221 34.7967 55.4486 34.5254 55.5505 34.2789C55.6524 34.0323 55.8252 33.8216 56.0469 33.6733C56.2687 33.525 56.5295 33.4458 56.7962 33.4458C56.9731 33.4453 57.1483 33.4797 57.3118 33.547C57.4753 33.6143 57.6239 33.7132 57.7492 33.838C57.8744 33.9629 57.9738 34.1112 58.0416 34.2746C58.1093 34.4379 58.1442 34.613 58.1442 34.7898Z" fill="#F2F4F7"/>
<path id="Vector_84" d="M54.3 34.7898C54.3008 35.0566 54.2224 35.3176 54.0748 35.5398C53.9271 35.762 53.7169 35.9354 53.4706 36.038C53.2244 36.1407 52.9532 36.1679 52.6915 36.1164C52.4297 36.0648 52.1892 35.9368 52.0002 35.7484C51.8113 35.56 51.6825 35.3199 51.6302 35.0583C51.5779 34.7967 51.6043 34.5254 51.7062 34.2789C51.8081 34.0323 51.9809 33.8216 52.2027 33.6733C52.4244 33.525 52.6852 33.4458 52.952 33.4458C53.1288 33.4453 53.304 33.4797 53.4676 33.547C53.6311 33.6143 53.7797 33.7132 53.9049 33.838C54.0302 33.9629 54.1295 34.1112 54.1973 34.2746C54.2651 34.4379 54.3 34.613 54.3 34.7898Z" fill="#F2F4F7"/>
<path id="Vector_85" d="M50.4562 34.7898C50.457 35.0566 50.3787 35.3176 50.231 35.5398C50.0834 35.762 49.8731 35.9354 49.6269 36.038C49.3806 36.1407 49.1095 36.1679 48.8477 36.1164C48.586 36.0648 48.3454 35.9368 48.1565 35.7484C47.9676 35.56 47.8388 35.3199 47.7865 35.0583C47.7341 34.7967 47.7606 34.5254 47.8625 34.2789C47.9644 34.0323 48.1372 33.8216 48.3589 33.6733C48.5807 33.525 48.8415 33.4458 49.1082 33.4458C49.2851 33.4453 49.4603 33.4797 49.6238 33.547C49.7873 33.6143 49.936 33.7132 50.0612 33.838C50.1864 33.9629 50.2858 34.1112 50.3536 34.2746C50.4214 34.4379 50.4562 34.613 50.4562 34.7898Z" fill="#F2F4F7"/>
<path id="Vector_86" d="M61.9997 47.95C62.0005 48.2167 61.9221 48.4778 61.7745 48.7C61.6268 48.9222 61.4166 49.0956 61.1703 49.1982C60.9241 49.3008 60.6529 49.3281 60.3912 49.2765C60.1294 49.225 59.8889 49.0969 59.7 48.9086C59.511 48.7202 59.3822 48.48 59.3299 48.2184C59.2776 47.9568 59.304 47.6856 59.4059 47.439C59.5078 47.1925 59.6806 46.9817 59.9024 46.8334C60.1241 46.6851 60.3849 46.606 60.6517 46.606C60.8285 46.6054 61.0037 46.6398 61.1673 46.7071C61.3308 46.7744 61.4794 46.8733 61.6046 46.9982C61.7299 47.123 61.8292 47.2714 61.897 47.4347C61.9648 47.598 61.9997 47.7731 61.9997 47.95Z" fill="#F2F4F7"/>
<path id="Vector_87" d="M58.1442 47.95C58.145 48.2167 58.0666 48.4778 57.919 48.7C57.7714 48.9222 57.5611 49.0956 57.3149 49.1982C57.0686 49.3008 56.7975 49.3281 56.5357 49.2765C56.274 49.225 56.0334 49.0969 55.8445 48.9086C55.6556 48.7202 55.5268 48.48 55.4744 48.2184C55.4221 47.9568 55.4486 47.6856 55.5505 47.439C55.6524 47.1925 55.8252 46.9817 56.0469 46.8334C56.2687 46.6851 56.5295 46.606 56.7962 46.606C56.9731 46.6054 57.1483 46.6398 57.3118 46.7071C57.4753 46.7744 57.6239 46.8733 57.7492 46.9982C57.8744 47.123 57.9738 47.2714 58.0416 47.4347C58.1093 47.598 58.1442 47.7731 58.1442 47.95Z" fill="#F2F4F7"/>
<path id="Vector_88" d="M54.3 47.95C54.3008 48.2167 54.2224 48.4778 54.0748 48.7C53.9271 48.9222 53.7169 49.0956 53.4706 49.1982C53.2244 49.3008 52.9532 49.3281 52.6915 49.2765C52.4297 49.225 52.1892 49.0969 52.0002 48.9086C51.8113 48.7202 51.6825 48.48 51.6302 48.2184C51.5779 47.9568 51.6043 47.6856 51.7062 47.439C51.8081 47.1925 51.9809 46.9817 52.2027 46.8334C52.4244 46.6851 52.6852 46.606 52.952 46.606C53.1288 46.6054 53.304 46.6398 53.4676 46.7071C53.6311 46.7744 53.7797 46.8733 53.9049 46.9982C54.0302 47.123 54.1295 47.2714 54.1973 47.4347C54.2651 47.598 54.3 47.7731 54.3 47.95Z" fill="#F2F4F7"/>
<path id="Vector_89" d="M50.4562 47.95C50.457 48.2167 50.3787 48.4778 50.231 48.7C50.0834 48.9222 49.8731 49.0956 49.6269 49.1982C49.3806 49.3008 49.1095 49.3281 48.8477 49.2765C48.586 49.225 48.3454 49.0969 48.1565 48.9086C47.9676 48.7202 47.8388 48.48 47.7865 48.2184C47.7341 47.9568 47.7606 47.6856 47.8625 47.439C47.9644 47.1925 48.1372 46.9817 48.3589 46.8334C48.5807 46.6851 48.8415 46.606 49.1082 46.606C49.2851 46.6054 49.4603 46.6398 49.6238 46.7071C49.7873 46.7744 49.936 46.8733 50.0612 46.9982C50.1864 47.123 50.2858 47.2714 50.3536 47.4347C50.4214 47.598 50.4562 47.7731 50.4562 47.95Z" fill="#F2F4F7"/>
<path id="Vector_90" d="M61.9997 61.1095C61.9997 61.3761 61.9207 61.6367 61.7725 61.8584C61.6244 62.0801 61.4139 62.2528 61.1676 62.3549C60.9213 62.4569 60.6502 62.4836 60.3887 62.4316C60.1272 62.3796 59.8871 62.2512 59.6985 62.0627C59.51 61.8741 59.3816 61.6339 59.3296 61.3725C59.2776 61.111 59.3043 60.8399 59.4063 60.5936C59.5083 60.3473 59.6811 60.1368 59.9028 59.9887C60.1245 59.8405 60.3851 59.7615 60.6517 59.7615C60.8289 59.761 61.0044 59.7955 61.1682 59.863C61.332 59.9306 61.4808 60.0298 61.6061 60.1551C61.7314 60.2804 61.8306 60.4292 61.8982 60.593C61.9657 60.7568 62.0002 60.9323 61.9997 61.1095Z" fill="#F2F4F7"/>
<path id="Vector_91" d="M58.1442 61.1095C58.1442 61.3761 58.0652 61.6367 57.9171 61.8584C57.7689 62.0801 57.5584 62.2528 57.3121 62.3549C57.0658 62.4569 56.7947 62.4836 56.5333 62.4316C56.2718 62.3796 56.0316 62.2512 55.8431 62.0627C55.6545 61.8741 55.5262 61.6339 55.4741 61.3725C55.4221 61.111 55.4488 60.8399 55.5509 60.5936C55.6529 60.3473 55.8257 60.1368 56.0473 59.9887C56.269 59.8405 56.5296 59.7615 56.7962 59.7615C56.9734 59.761 57.1489 59.7955 57.3127 59.863C57.4765 59.9306 57.6253 60.0298 57.7506 60.1551C57.8759 60.2804 57.9751 60.4292 58.0427 60.593C58.1103 60.7568 58.1448 60.9323 58.1442 61.1095Z" fill="#F2F4F7"/>
<path id="Vector_92" d="M54.3 61.1095C54.3 61.3761 54.2209 61.6367 54.0728 61.8584C53.9247 62.0801 53.7142 62.2528 53.4679 62.3549C53.2215 62.4569 52.9505 62.4836 52.689 62.4316C52.4275 62.3796 52.1873 62.2512 51.9988 62.0627C51.8103 61.8741 51.6819 61.6339 51.6299 61.3725C51.5779 61.111 51.6046 60.8399 51.7066 60.5936C51.8086 60.3473 51.9814 60.1368 52.2031 59.9887C52.4248 59.8405 52.6854 59.7615 52.952 59.7615C53.1292 59.761 53.3047 59.7955 53.4685 59.863C53.6323 59.9306 53.7811 60.0298 53.9064 60.1551C54.0316 60.2804 54.1309 60.4292 54.1985 60.593C54.266 60.7568 54.3005 60.9323 54.3 61.1095Z" fill="#F2F4F7"/>
<path id="Vector_93" d="M50.4563 61.1095C50.4563 61.3761 50.3772 61.6367 50.2291 61.8584C50.081 62.0801 49.8704 62.2528 49.6241 62.3549C49.3778 62.4569 49.1068 62.4836 48.8453 62.4316C48.5838 62.3796 48.3436 62.2512 48.1551 62.0627C47.9666 61.8741 47.8382 61.6339 47.7862 61.3725C47.7341 61.111 47.7608 60.8399 47.8629 60.5936C47.9649 60.3473 48.1377 60.1368 48.3593 59.9887C48.581 59.8405 48.8416 59.7615 49.1083 59.7615C49.2854 59.761 49.461 59.7955 49.6247 59.863C49.7885 59.9306 49.9373 60.0298 50.0626 60.1551C50.1879 60.2804 50.2872 60.4292 50.3547 60.593C50.4223 60.7568 50.4568 60.9323 50.4563 61.1095Z" fill="#F2F4F7"/>
<path id="Vector_94" d="M61.9997 74.2696C61.9997 74.5362 61.9207 74.7969 61.7725 75.0185C61.6244 75.2402 61.4139 75.413 61.1676 75.515C60.9213 75.617 60.6502 75.6437 60.3887 75.5917C60.1272 75.5397 59.8871 75.4113 59.6985 75.2228C59.51 75.0343 59.3816 74.7941 59.3296 74.5326C59.2776 74.2711 59.3043 74.0001 59.4063 73.7538C59.5083 73.5075 59.6811 73.2969 59.9028 73.1488C60.1245 73.0007 60.3851 72.9216 60.6517 72.9216C61.0092 72.9216 61.3521 73.0636 61.6049 73.3164C61.8577 73.5692 61.9997 73.9121 61.9997 74.2696Z" fill="#F2F4F7"/>
<path id="Vector_95" d="M58.1442 74.2696C58.1442 74.5362 58.0652 74.7969 57.9171 75.0185C57.7689 75.2402 57.5584 75.413 57.3121 75.515C57.0658 75.617 56.7947 75.6437 56.5333 75.5917C56.2718 75.5397 56.0316 75.4113 55.8431 75.2228C55.6545 75.0343 55.5262 74.7941 55.4741 74.5326C55.4221 74.2711 55.4488 74.0001 55.5509 73.7538C55.6529 73.5075 55.8257 73.2969 56.0473 73.1488C56.269 73.0007 56.5296 72.9216 56.7962 72.9216C57.1538 72.9216 57.4966 73.0636 57.7494 73.3164C58.0022 73.5692 58.1442 73.9121 58.1442 74.2696Z" fill="#F2F4F7"/>
<path id="Vector_96" d="M54.3 74.2696C54.3 74.5362 54.2209 74.7969 54.0728 75.0185C53.9247 75.2402 53.7142 75.413 53.4679 75.515C53.2215 75.617 52.9505 75.6437 52.689 75.5917C52.4275 75.5397 52.1873 75.4113 51.9988 75.2228C51.8103 75.0343 51.6819 74.7941 51.6299 74.5326C51.5779 74.2711 51.6046 74.0001 51.7066 73.7538C51.8086 73.5075 51.9814 73.2969 52.2031 73.1488C52.4248 73.0007 52.6854 72.9216 52.952 72.9216C53.3095 72.9216 53.6524 73.0636 53.9052 73.3164C54.158 73.5692 54.3 73.9121 54.3 74.2696Z" fill="#F2F4F7"/>
<path id="Vector_97" d="M50.4563 74.2696C50.4563 74.5362 50.3772 74.7969 50.2291 75.0185C50.081 75.2402 49.8704 75.413 49.6241 75.515C49.3778 75.617 49.1068 75.6437 48.8453 75.5917C48.5838 75.5397 48.3436 75.4113 48.1551 75.2228C47.9666 75.0343 47.8382 74.7941 47.7862 74.5326C47.7341 74.2711 47.7608 74.0001 47.8629 73.7538C47.9649 73.5075 48.1377 73.2969 48.3593 73.1488C48.581 73.0007 48.8416 72.9216 49.1083 72.9216C49.4658 72.9216 49.8086 73.0636 50.0614 73.3164C50.3142 73.5692 50.4563 73.9121 50.4563 74.2696Z" fill="#F2F4F7"/>
<path id="Vector_98" d="M60.6399 88.7698C61.3822 88.7698 61.9839 88.1681 61.9839 87.4258C61.9839 86.6835 61.3822 86.0818 60.6399 86.0818C59.8976 86.0818 59.2959 86.6835 59.2959 87.4258C59.2959 88.1681 59.8976 88.7698 60.6399 88.7698Z" fill="#F2F4F7"/>
<path id="Vector_99" d="M58.1442 87.4258C58.145 87.6926 58.0666 87.9536 57.919 88.1758C57.7714 88.398 57.5611 88.5714 57.3149 88.674C57.0686 88.7767 56.7975 88.8039 56.5357 88.7524C56.274 88.7008 56.0334 88.5727 55.8445 88.3844C55.6556 88.196 55.5268 87.9558 55.4744 87.6942C55.4221 87.4326 55.4486 87.1614 55.5505 86.9149C55.6524 86.6683 55.8252 86.4575 56.0469 86.3092C56.2687 86.1609 56.5295 86.0818 56.7962 86.0818C57.1531 86.0818 57.4953 86.2233 57.748 86.4752C58.0007 86.7271 58.1432 87.069 58.1442 87.4258Z" fill="#F2F4F7"/>
<path id="Vector_100" d="M54.3 87.4258C54.3008 87.6926 54.2224 87.9536 54.0748 88.1758C53.9271 88.398 53.7169 88.5714 53.4706 88.674C53.2244 88.7767 52.9532 88.8039 52.6915 88.7524C52.4297 88.7008 52.1892 88.5727 52.0002 88.3844C51.8113 88.196 51.6825 87.9558 51.6302 87.6942C51.5779 87.4326 51.6043 87.1614 51.7062 86.9149C51.8081 86.6683 51.9809 86.4575 52.2027 86.3092C52.4244 86.1609 52.6852 86.0818 52.952 86.0818C53.3088 86.0818 53.6511 86.2233 53.9038 86.4752C54.1565 86.7271 54.2989 87.069 54.3 87.4258Z" fill="#F2F4F7"/>
<path id="Vector_101" d="M49.1082 88.7698C49.8504 88.7698 50.4522 88.1681 50.4522 87.4258C50.4522 86.6835 49.8504 86.0818 49.1082 86.0818C48.3659 86.0818 47.7642 86.6835 47.7642 87.4258C47.7642 88.1681 48.3659 88.7698 49.1082 88.7698Z" fill="#F2F4F7"/>
<path id="Vector_102" d="M60.6399 101.93C61.3822 101.93 61.9839 101.328 61.9839 100.586C61.9839 99.8437 61.3822 99.2419 60.6399 99.2419C59.8976 99.2419 59.2959 99.8437 59.2959 100.586C59.2959 101.328 59.8976 101.93 60.6399 101.93Z" fill="#F2F4F7"/>
<path id="Vector_103" d="M58.1442 100.586C58.145 100.853 58.0666 101.114 57.919 101.336C57.7714 101.558 57.5611 101.732 57.3149 101.834C57.0686 101.937 56.7975 101.964 56.5357 101.913C56.274 101.861 56.0334 101.733 55.8445 101.545C55.6556 101.356 55.5268 101.116 55.4744 100.854C55.4221 100.593 55.4486 100.322 55.5505 100.075C55.6524 99.8285 55.8252 99.6177 56.0469 99.4694C56.2687 99.3211 56.5295 99.2419 56.7962 99.2419C57.1531 99.2419 57.4953 99.3834 57.748 99.6354C58.0007 99.8873 58.1432 100.229 58.1442 100.586Z" fill="#F2F4F7"/>
<path id="Vector_104" d="M54.3 100.586C54.3008 100.853 54.2224 101.114 54.0748 101.336C53.9271 101.558 53.7169 101.732 53.4706 101.834C53.2244 101.937 52.9532 101.964 52.6915 101.913C52.4297 101.861 52.1892 101.733 52.0002 101.545C51.8113 101.356 51.6825 101.116 51.6302 100.854C51.5779 100.593 51.6043 100.322 51.7062 100.075C51.8081 99.8285 51.9809 99.6177 52.2027 99.4694C52.4244 99.3211 52.6852 99.2419 52.952 99.2419C53.3088 99.2419 53.6511 99.3834 53.9038 99.6354C54.1565 99.8873 54.2989 100.229 54.3 100.586Z" fill="#F2F4F7"/>
<path id="Vector_105" d="M49.1082 101.93C49.8504 101.93 50.4522 101.328 50.4522 100.586C50.4522 99.8437 49.8504 99.2419 49.1082 99.2419C48.3659 99.2419 47.7642 99.8437 47.7642 100.586C47.7642 101.328 48.3659 101.93 49.1082 101.93Z" fill="#F2F4F7"/>
<path id="Vector_106" d="M42.168 11.3857C43.7784 11.3857 45.084 10.0802 45.084 8.46971C45.084 6.85925 43.7784 5.55371 42.168 5.55371C40.5575 5.55371 39.252 6.85925 39.252 8.46971C39.252 10.0802 40.5575 11.3857 42.168 11.3857Z" fill="#EAECF0"/>
<path id="Vector_107" d="M42.168 24.5459C43.7784 24.5459 45.084 23.2403 45.084 21.6299C45.084 20.0194 43.7784 18.7139 42.168 18.7139C40.5575 18.7139 39.252 20.0194 39.252 21.6299C39.252 23.2403 40.5575 24.5459 42.168 24.5459Z" fill="#EAECF0"/>
<path id="Vector_108" d="M45.0489 35.2607C45.3064 33.671 44.2263 32.1735 42.6366 31.916C41.0469 31.6585 39.5494 32.7386 39.2919 34.3283C39.0344 35.918 40.1144 37.4155 41.7042 37.673C43.2939 37.9305 44.7914 36.8505 45.0489 35.2607Z" fill="#EAECF0"/>
<path id="Vector_109" d="M45.0474 48.4209C45.3049 46.8311 44.2249 45.3337 42.6351 45.0762C41.0454 44.8187 39.5479 45.8987 39.2904 47.4885C39.0329 49.0782 40.113 50.5757 41.7027 50.8332C43.2925 51.0906 44.7899 50.0106 45.0474 48.4209Z" fill="#EAECF0"/>
<path id="Vector_110" d="M43.2741 63.8109C44.7631 63.1975 45.473 61.4931 44.8595 60.004C44.2461 58.5149 42.5417 57.8051 41.0526 58.4186C39.5636 59.032 38.8537 60.7364 39.4672 62.2255C40.0806 63.7145 41.785 64.4243 43.2741 63.8109Z" fill="#EAECF0"/>
<path id="Vector_111" d="M43.2707 76.9711C44.7597 76.3576 45.4695 74.6532 44.8561 73.1642C44.2427 71.6751 42.5383 70.9653 41.0492 71.5787C39.5601 72.1922 38.8503 73.8966 39.4638 75.3856C40.0772 76.8747 41.7816 77.5845 43.2707 76.9711Z" fill="#EAECF0"/>
<path id="Vector_112" d="M42.168 90.3418C43.7784 90.3418 45.084 89.0362 45.084 87.4258C45.084 85.8153 43.7784 84.5098 42.168 84.5098C40.5575 84.5098 39.252 85.8153 39.252 87.4258C39.252 89.0362 40.5575 90.3418 42.168 90.3418Z" fill="#EAECF0"/>
<path id="Vector_113" d="M42.168 103.502C43.7784 103.502 45.084 102.196 45.084 100.586C45.084 98.9755 43.7784 97.6699 42.168 97.6699C40.5575 97.6699 39.252 98.9755 39.252 100.586C39.252 102.196 40.5575 103.502 42.168 103.502Z" fill="#EAECF0"/>
<path id="Vector_114" d="M157.072 108.254H110.148V113.778H157.072V108.254Z" fill="#D0D5DD"/>
<path id="Vector_115" d="M157.072 113.778H164.888V108.254H157.072V113.778Z" fill="#EAECF0"/>
<path id="Vector_116" d="M157.068 10.6777H107.54V108.254H157.068V10.6777Z" fill="#F1F2F5"/>
<path id="Vector_117" d="M164.036 9.8418H110.996V10.6778H164.036V9.8418Z" fill="#D0D5DD"/>
<path id="Vector_118" d="M157.068 108.254H167.492V10.6777H157.068V108.254Z" fill="#D0D5DD"/>
<path id="Vector_119" d="M108.768 22.5381L155.844 22.5381V11.8461L108.768 11.8461V22.5381Z" fill="#D0D5DD"/>
<path id="Vector_120" d="M108.768 107.025H155.844V96.3334H108.768V107.025Z" fill="#D0D5DD"/>
<path id="Vector_121" d="M108.768 94.9536H155.844V84.2616H108.768V94.9536Z" fill="#D0D5DD"/>
<path id="Vector_122" d="M108.768 82.8857H155.844V72.1937H108.768V82.8857Z" fill="#D0D5DD"/>
<path id="Vector_123" d="M108.768 70.8137H155.844V60.1217L108.768 60.1217V70.8137Z" fill="#D0D5DD"/>
<path id="Vector_124" d="M108.768 58.7498L155.844 58.7498V48.0578L108.768 48.0578V58.7498Z" fill="#D0D5DD"/>
<path id="Vector_125" d="M108.768 46.6777L155.844 46.6777V35.9857L108.768 35.9857V46.6777Z" fill="#D0D5DD"/>
<path id="Vector_126" d="M108.768 34.6099L155.844 34.6099V23.9179L108.768 23.9179V34.6099Z" fill="#D0D5DD"/>
<path id="Vector_127" d="M111.864 21.0098L134.524 21.0098C135.401 21.0098 136.112 20.2988 136.112 19.4218V14.9618C136.112 14.0847 135.401 13.3738 134.524 13.3738L111.864 13.3738C110.987 13.3738 110.276 14.0847 110.276 14.9618V19.4218C110.276 20.2988 110.987 21.0098 111.864 21.0098Z" fill="#EAECF0"/>
<path id="Vector_128" d="M113.556 17.6938V16.6938C113.556 16.4309 113.343 16.2178 113.08 16.2178H112.008C111.745 16.2178 111.532 16.4309 111.532 16.6938V17.6938C111.532 17.9567 111.745 18.1698 112.008 18.1698H113.08C113.343 18.1698 113.556 17.9567 113.556 17.6938Z" fill="#F2F4F7"/>
<path id="Vector_129" d="M111.864 33.0818H134.524C135.401 33.0818 136.112 32.3708 136.112 31.4938V27.0338C136.112 26.1568 135.401 25.4458 134.524 25.4458L111.864 25.4458C110.987 25.4458 110.276 26.1568 110.276 27.0338V31.4938C110.276 32.3708 110.987 33.0818 111.864 33.0818Z" fill="#EAECF0"/>
<path id="Vector_130" d="M113.56 29.7616V28.7616C113.56 28.4988 113.347 28.2856 113.084 28.2856H112.012C111.749 28.2856 111.536 28.4988 111.536 28.7616V29.7616C111.536 30.0245 111.749 30.2376 112.012 30.2376H113.084C113.347 30.2376 113.56 30.0245 113.56 29.7616Z" fill="#F2F4F7"/>
<path id="Vector_131" d="M111.864 45.1497H134.524C135.401 45.1497 136.112 44.4387 136.112 43.5617V39.1017C136.112 38.2246 135.401 37.5137 134.524 37.5137H111.864C110.987 37.5137 110.276 38.2246 110.276 39.1017V43.5617C110.276 44.4387 110.987 45.1497 111.864 45.1497Z" fill="#EAECF0"/>
<path id="Vector_132" d="M113.56 41.8334V40.8334C113.56 40.5705 113.347 40.3574 113.084 40.3574H112.012C111.749 40.3574 111.536 40.5705 111.536 40.8334V41.8334C111.536 42.0963 111.749 42.3094 112.012 42.3094H113.084C113.347 42.3094 113.56 42.0963 113.56 41.8334Z" fill="#F2F4F7"/>
<path id="Vector_133" d="M111.864 57.2217H134.524C135.401 57.2217 136.112 56.5107 136.112 55.6337V51.1737C136.112 50.2967 135.401 49.5857 134.524 49.5857H111.864C110.987 49.5857 110.276 50.2967 110.276 51.1737V55.6337C110.276 56.5107 110.987 57.2217 111.864 57.2217Z" fill="#EAECF0"/>
<path id="Vector_134" d="M113.556 53.9015V52.9015C113.556 52.6387 113.343 52.4255 113.08 52.4255H112.008C111.745 52.4255 111.532 52.6387 111.532 52.9015V53.9015C111.532 54.1644 111.745 54.3775 112.008 54.3775H113.08C113.343 54.3775 113.556 54.1644 113.556 53.9015Z" fill="#F2F4F7"/>
<path id="Vector_135" d="M111.864 69.2896H134.524C135.401 69.2896 136.112 68.5786 136.112 67.7016V63.2415C136.112 62.3645 135.401 61.6535 134.524 61.6535H111.864C110.987 61.6535 110.276 62.3645 110.276 63.2415V67.7016C110.276 68.5786 110.987 69.2896 111.864 69.2896Z" fill="#EAECF0"/>
<path id="Vector_136" d="M113.56 65.9694V64.9694C113.56 64.7065 113.347 64.4934 113.084 64.4934H112.012C111.749 64.4934 111.536 64.7065 111.536 64.9694V65.9694C111.536 66.2323 111.749 66.4454 112.012 66.4454H113.084C113.347 66.4454 113.56 66.2323 113.56 65.9694Z" fill="#F2F4F7"/>
<path id="Vector_137" d="M111.864 81.3574H134.524C135.401 81.3574 136.112 80.6464 136.112 79.7694V75.3094C136.112 74.4324 135.401 73.7214 134.524 73.7214H111.864C110.987 73.7214 110.276 74.4324 110.276 75.3094V79.7694C110.276 80.6464 110.987 81.3574 111.864 81.3574Z" fill="#EAECF0"/>
<path id="Vector_138" d="M113.556 78.0414V77.0414C113.556 76.7785 113.343 76.5654 113.08 76.5654H112.008C111.745 76.5654 111.532 76.7785 111.532 77.0414V78.0414C111.532 78.3043 111.745 78.5174 112.008 78.5174H113.08C113.343 78.5174 113.556 78.3043 113.556 78.0414Z" fill="#F2F4F7"/>
<path id="Vector_139" d="M111.864 93.4294H134.524C135.401 93.4294 136.112 92.7185 136.112 91.8414V87.3814C136.112 86.5044 135.401 85.7934 134.524 85.7934H111.864C110.987 85.7934 110.276 86.5044 110.276 87.3814V91.8414C110.276 92.7185 110.987 93.4294 111.864 93.4294Z" fill="#EAECF0"/>
<path id="Vector_140" d="M113.56 90.1093V89.1093C113.56 88.8464 113.347 88.6333 113.084 88.6333H112.012C111.749 88.6333 111.536 88.8464 111.536 89.1093V90.1093C111.536 90.3722 111.749 90.5853 112.012 90.5853H113.084C113.347 90.5853 113.56 90.3722 113.56 90.1093Z" fill="#F2F4F7"/>
<path id="Vector_141" d="M111.864 105.497H134.524C135.401 105.497 136.112 104.786 136.112 103.909V99.4493C136.112 98.5723 135.401 97.8613 134.524 97.8613H111.864C110.987 97.8613 110.276 98.5723 110.276 99.4493V103.909C110.276 104.786 110.987 105.497 111.864 105.497Z" fill="#EAECF0"/>
<path id="Vector_142" d="M113.56 102.182V101.182C113.56 100.919 113.347 100.706 113.084 100.706H112.012C111.749 100.706 111.536 100.919 111.536 101.182V102.182C111.536 102.445 111.749 102.658 112.012 102.658H113.084C113.347 102.658 113.56 102.445 113.56 102.182Z" fill="#F2F4F7"/>
<path id="Vector_143" d="M116.672 17.6938V16.6938C116.672 16.4309 116.459 16.2178 116.196 16.2178H115.124C114.861 16.2178 114.648 16.4309 114.648 16.6938V17.6938C114.648 17.9567 114.861 18.1698 115.124 18.1698H116.196C116.459 18.1698 116.672 17.9567 116.672 17.6938Z" fill="#F2F4F7"/>
<path id="Vector_144" d="M116.676 29.7616V28.7616C116.676 28.4988 116.463 28.2856 116.2 28.2856H115.128C114.865 28.2856 114.652 28.4988 114.652 28.7616V29.7616C114.652 30.0245 114.865 30.2376 115.128 30.2376H116.2C116.463 30.2376 116.676 30.0245 116.676 29.7616Z" fill="#F2F4F7"/>
<path id="Vector_145" d="M116.676 41.8334V40.8334C116.676 40.5705 116.463 40.3574 116.2 40.3574H115.128C114.865 40.3574 114.652 40.5705 114.652 40.8334V41.8334C114.652 42.0963 114.865 42.3094 115.128 42.3094H116.2C116.463 42.3094 116.676 42.0963 116.676 41.8334Z" fill="#F2F4F7"/>
<path id="Vector_146" d="M116.676 53.9015V52.9015C116.676 52.6387 116.463 52.4255 116.2 52.4255H115.128C114.865 52.4255 114.652 52.6387 114.652 52.9015V53.9015C114.652 54.1644 114.865 54.3775 115.128 54.3775H116.2C116.463 54.3775 116.676 54.1644 116.676 53.9015Z" fill="#F2F4F7"/>
<path id="Vector_147" d="M116.676 65.9694V64.9694C116.676 64.7065 116.463 64.4934 116.2 64.4934H115.128C114.865 64.4934 114.652 64.7065 114.652 64.9694V65.9694C114.652 66.2323 114.865 66.4454 115.128 66.4454H116.2C116.463 66.4454 116.676 66.2323 116.676 65.9694Z" fill="#F2F4F7"/>
<path id="Vector_148" d="M116.672 78.0414V77.0414C116.672 76.7785 116.459 76.5654 116.196 76.5654H115.124C114.861 76.5654 114.648 76.7785 114.648 77.0414V78.0414C114.648 78.3043 114.861 78.5174 115.124 78.5174H116.196C116.459 78.5174 116.672 78.3043 116.672 78.0414Z" fill="#F2F4F7"/>
<path id="Vector_149" d="M116.676 90.1093V89.1093C116.676 88.8464 116.463 88.6333 116.2 88.6333H115.128C114.865 88.6333 114.652 88.8464 114.652 89.1093V90.1093C114.652 90.3722 114.865 90.5853 115.128 90.5853H116.2C116.463 90.5853 116.676 90.3722 116.676 90.1093Z" fill="#F2F4F7"/>
<path id="Vector_150" d="M116.676 102.182V101.182C116.676 100.919 116.463 100.706 116.2 100.706H115.128C114.865 100.706 114.652 100.919 114.652 101.182V102.182C114.652 102.445 114.865 102.658 115.128 102.658H116.2C116.463 102.658 116.676 102.445 116.676 102.182Z" fill="#F2F4F7"/>
<path id="Vector_151" d="M119.788 17.6938V16.6938C119.788 16.4309 119.575 16.2178 119.312 16.2178H118.24C117.977 16.2178 117.764 16.4309 117.764 16.6938V17.6938C117.764 17.9567 117.977 18.1698 118.24 18.1698H119.312C119.575 18.1698 119.788 17.9567 119.788 17.6938Z" fill="#F2F4F7"/>
<path id="Vector_152" d="M119.792 29.7616V28.7616C119.792 28.4988 119.579 28.2856 119.316 28.2856H118.244C117.981 28.2856 117.768 28.4988 117.768 28.7616V29.7616C117.768 30.0245 117.981 30.2376 118.244 30.2376H119.316C119.579 30.2376 119.792 30.0245 119.792 29.7616Z" fill="#F2F4F7"/>
<path id="Vector_153" d="M119.792 41.8295V40.8295C119.792 40.5666 119.579 40.3535 119.316 40.3535H118.244C117.981 40.3535 117.768 40.5666 117.768 40.8295V41.8295C117.768 42.0924 117.981 42.3055 118.244 42.3055H119.316C119.579 42.3055 119.792 42.0924 119.792 41.8295Z" fill="#F2F4F7"/>
<path id="Vector_154" d="M119.792 53.9015V52.9015C119.792 52.6387 119.579 52.4255 119.316 52.4255H118.244C117.981 52.4255 117.768 52.6387 117.768 52.9015V53.9015C117.768 54.1644 117.981 54.3775 118.244 54.3775H119.316C119.579 54.3775 119.792 54.1644 119.792 53.9015Z" fill="#F2F4F7"/>
<path id="Vector_155" d="M119.792 65.9694V64.9694C119.792 64.7065 119.579 64.4934 119.316 64.4934H118.244C117.981 64.4934 117.768 64.7065 117.768 64.9694V65.9694C117.768 66.2323 117.981 66.4454 118.244 66.4454H119.316C119.579 66.4454 119.792 66.2323 119.792 65.9694Z" fill="#F2F4F7"/>
<path id="Vector_156" d="M119.788 78.0414V77.0414C119.788 76.7785 119.575 76.5654 119.312 76.5654H118.24C117.977 76.5654 117.764 76.7785 117.764 77.0414V78.0414C117.764 78.3043 117.977 78.5174 118.24 78.5174H119.312C119.575 78.5174 119.788 78.3043 119.788 78.0414Z" fill="#F2F4F7"/>
<path id="Vector_157" d="M119.792 90.1093V89.1093C119.792 88.8464 119.579 88.6333 119.316 88.6333H118.244C117.981 88.6333 117.768 88.8464 117.768 89.1093V90.1093C117.768 90.3722 117.981 90.5853 118.244 90.5853H119.316C119.579 90.5853 119.792 90.3722 119.792 90.1093Z" fill="#F2F4F7"/>
<path id="Vector_158" d="M119.792 102.178V101.178C119.792 100.915 119.579 100.702 119.316 100.702H118.244C117.981 100.702 117.768 100.915 117.768 101.178V102.178C117.768 102.441 117.981 102.654 118.244 102.654H119.316C119.579 102.654 119.792 102.441 119.792 102.178Z" fill="#F2F4F7"/>
<path id="Vector_159" d="M122.908 17.6938V16.6938C122.908 16.4309 122.695 16.2178 122.432 16.2178H121.36C121.097 16.2178 120.884 16.4309 120.884 16.6938V17.6938C120.884 17.9567 121.097 18.1698 121.36 18.1698H122.432C122.695 18.1698 122.908 17.9567 122.908 17.6938Z" fill="#F2F4F7"/>
<path id="Vector_160" d="M122.908 29.7616V28.7616C122.908 28.4988 122.695 28.2856 122.432 28.2856H121.36C121.097 28.2856 120.884 28.4988 120.884 28.7616V29.7616C120.884 30.0245 121.097 30.2376 121.36 30.2376H122.432C122.695 30.2376 122.908 30.0245 122.908 29.7616Z" fill="#F2F4F7"/>
<path id="Vector_161" d="M122.908 41.8295V40.8295C122.908 40.5666 122.695 40.3535 122.432 40.3535H121.36C121.097 40.3535 120.884 40.5666 120.884 40.8295V41.8295C120.884 42.0924 121.097 42.3055 121.36 42.3055H122.432C122.695 42.3055 122.908 42.0924 122.908 41.8295Z" fill="#F2F4F7"/>
<path id="Vector_162" d="M122.908 53.9015V52.9015C122.908 52.6387 122.695 52.4255 122.432 52.4255H121.36C121.097 52.4255 120.884 52.6387 120.884 52.9015V53.9015C120.884 54.1644 121.097 54.3775 121.36 54.3775H122.432C122.695 54.3775 122.908 54.1644 122.908 53.9015Z" fill="#F2F4F7"/>
<path id="Vector_163" d="M122.908 65.9694V64.9694C122.908 64.7065 122.695 64.4934 122.432 64.4934H121.36C121.097 64.4934 120.884 64.7065 120.884 64.9694V65.9694C120.884 66.2323 121.097 66.4454 121.36 66.4454H122.432C122.695 66.4454 122.908 66.2323 122.908 65.9694Z" fill="#F2F4F7"/>
<path id="Vector_164" d="M122.908 78.0414V77.0414C122.908 76.7785 122.695 76.5654 122.432 76.5654H121.36C121.097 76.5654 120.884 76.7785 120.884 77.0414V78.0414C120.884 78.3043 121.097 78.5174 121.36 78.5174H122.432C122.695 78.5174 122.908 78.3043 122.908 78.0414Z" fill="#F2F4F7"/>
<path id="Vector_165" d="M122.908 90.1093V89.1093C122.908 88.8464 122.695 88.6333 122.432 88.6333H121.36C121.097 88.6333 120.884 88.8464 120.884 89.1093V90.1093C120.884 90.3722 121.097 90.5853 121.36 90.5853H122.432C122.695 90.5853 122.908 90.3722 122.908 90.1093Z" fill="#F2F4F7"/>
<path id="Vector_166" d="M122.908 102.178V101.178C122.908 100.915 122.695 100.702 122.432 100.702H121.36C121.097 100.702 120.884 100.915 120.884 101.178V102.178C120.884 102.441 121.097 102.654 121.36 102.654H122.432C122.695 102.654 122.908 102.441 122.908 102.178Z" fill="#F2F4F7"/>
<path id="Vector_167" d="M138.72 17.1938C138.711 17.4486 138.779 17.7003 138.914 17.9165C139.049 18.1327 139.246 18.3036 139.479 18.4072C139.712 18.5109 139.971 18.5426 140.222 18.4983C140.473 18.454 140.705 18.3357 140.888 18.1585C141.072 17.9814 141.198 17.7535 141.251 17.5041C141.304 17.2547 141.282 16.9951 141.186 16.7586C141.091 16.5222 140.927 16.3196 140.715 16.1769C140.504 16.0342 140.255 15.9579 140 15.9578C139.835 15.9546 139.67 15.984 139.517 16.0445C139.363 16.1049 139.222 16.1952 139.103 16.31C138.984 16.4248 138.889 16.562 138.824 16.7137C138.758 16.8653 138.723 17.0285 138.72 17.1938Z" fill="#F2F4F7"/>
<path id="Vector_168" d="M142.372 17.1937C142.363 17.4487 142.431 17.7005 142.566 17.9168C142.702 18.1331 142.898 18.304 143.132 18.4075C143.365 18.5111 143.624 18.5426 143.875 18.4979C144.126 18.4533 144.358 18.3346 144.542 18.1571C144.725 17.9795 144.851 17.7513 144.904 17.5016C144.956 17.2519 144.933 16.9922 144.837 16.7558C144.741 16.5194 144.576 16.3171 144.364 16.1749C144.153 16.0327 143.903 15.957 143.648 15.9577C143.483 15.955 143.319 15.9849 143.166 16.0456C143.012 16.1063 142.872 16.1966 142.754 16.3114C142.635 16.4261 142.541 16.5631 142.475 16.7145C142.41 16.8659 142.374 17.0287 142.372 17.1937Z" fill="#F2F4F7"/>
<path id="Vector_169" d="M146.02 17.1938C146.011 17.4486 146.079 17.7003 146.214 17.9165C146.349 18.1327 146.546 18.3036 146.779 18.4072C147.012 18.5109 147.27 18.5426 147.521 18.4983C147.773 18.454 148.005 18.3357 148.188 18.1585C148.372 17.9814 148.498 17.7535 148.551 17.5041C148.604 17.2547 148.581 16.9951 148.486 16.7586C148.391 16.5222 148.227 16.3196 148.015 16.1769C147.804 16.0342 147.555 15.9579 147.3 15.9578C147.135 15.9546 146.97 15.984 146.816 16.0445C146.663 16.1049 146.522 16.1952 146.403 16.31C146.284 16.4248 146.189 16.562 146.123 16.7137C146.058 16.8653 146.022 17.0285 146.02 17.1938Z" fill="#F2F4F7"/>
<path id="Vector_170" d="M149.672 17.1937C149.664 17.4476 149.732 17.6981 149.867 17.9132C150.003 18.1282 150.199 18.2979 150.431 18.4007C150.664 18.5034 150.921 18.5345 151.172 18.4898C151.422 18.4452 151.653 18.327 151.835 18.1502C152.018 17.9734 152.143 17.7462 152.196 17.4977C152.248 17.2491 152.226 16.9906 152.13 16.7551C152.035 16.5196 151.872 16.3179 151.661 16.1758C151.45 16.0338 151.202 15.9578 150.948 15.9577C150.783 15.955 150.619 15.9849 150.466 16.0456C150.312 16.1063 150.172 16.1966 150.054 16.3114C149.935 16.4261 149.841 16.5631 149.775 16.7145C149.71 16.8659 149.675 17.0287 149.672 17.1937Z" fill="#F2F4F7"/>
<path id="Vector_171" d="M138.72 29.2618C138.713 29.5164 138.782 29.7673 138.918 29.9825C139.054 30.1977 139.252 30.3673 139.485 30.4697C139.718 30.5721 139.977 30.6027 140.227 30.5574C140.478 30.5122 140.709 30.3932 140.892 30.2157C141.074 30.0382 141.2 29.8103 141.252 29.5611C141.305 29.3118 141.282 29.0526 141.186 28.8167C141.09 28.5807 140.926 28.3786 140.715 28.2363C140.504 28.094 140.255 28.0179 140 28.0178C139.834 28.0146 139.669 28.0444 139.515 28.1053C139.361 28.1663 139.22 28.2572 139.101 28.3729C138.982 28.4886 138.887 28.6267 138.822 28.7793C138.756 28.9318 138.722 29.0958 138.72 29.2618Z" fill="#F2F4F7"/>
<path id="Vector_172" d="M142.372 29.2616C142.363 29.5166 142.431 29.7684 142.566 29.9847C142.702 30.201 142.898 30.3719 143.132 30.4754C143.365 30.579 143.624 30.6104 143.875 30.5658C144.126 30.5212 144.358 30.4025 144.542 30.2249C144.725 30.0474 144.851 29.8191 144.904 29.5694C144.956 29.3198 144.933 29.06 144.837 28.8236C144.741 28.5872 144.576 28.385 144.364 28.2427C144.153 28.1005 143.903 28.0249 143.648 28.0256C143.483 28.0229 143.319 28.0528 143.166 28.1135C143.012 28.1741 142.872 28.2645 142.754 28.3792C142.635 28.494 142.541 28.631 142.475 28.7824C142.41 28.9338 142.374 29.0966 142.372 29.2616Z" fill="#F2F4F7"/>
<path id="Vector_173" d="M146.02 29.2616C146.011 29.5165 146.079 29.7681 146.214 29.9843C146.349 30.2005 146.546 30.3714 146.779 30.4751C147.012 30.5787 147.27 30.6105 147.521 30.5662C147.773 30.5218 148.005 30.4035 148.188 30.2264C148.372 30.0493 148.498 29.8214 148.551 29.572C148.604 29.3225 148.581 29.063 148.486 28.8265C148.391 28.59 148.227 28.3875 148.015 28.2448C147.804 28.1021 147.555 28.0258 147.3 28.0256C147.135 28.0224 146.97 28.0519 146.816 28.1124C146.663 28.1728 146.522 28.263 146.403 28.3779C146.284 28.4927 146.189 28.6299 146.123 28.7815C146.058 28.9332 146.022 29.0963 146.02 29.2616Z" fill="#F2F4F7"/>
<path id="Vector_174" d="M149.672 29.2616C149.664 29.5155 149.732 29.766 149.867 29.981C150.003 30.1961 150.199 30.3658 150.431 30.4686C150.664 30.5713 150.921 30.6023 151.172 30.5577C151.422 30.5131 151.653 30.3948 151.835 30.2181C152.018 30.0413 152.143 29.8141 152.196 29.5656C152.248 29.317 152.226 29.0584 152.13 28.8229C152.035 28.5874 151.872 28.3857 151.661 28.2437C151.45 28.1016 151.202 28.0257 150.948 28.0256C150.783 28.0229 150.619 28.0528 150.466 28.1135C150.312 28.1741 150.172 28.2645 150.054 28.3792C149.935 28.494 149.841 28.631 149.775 28.7824C149.71 28.9338 149.675 29.0966 149.672 29.2616Z" fill="#F2F4F7"/>
<path id="Vector_175" d="M138.72 41.3296C138.711 41.5846 138.777 41.8367 138.912 42.0534C139.047 42.2701 139.243 42.4416 139.476 42.5459C139.709 42.6502 139.968 42.6825 140.219 42.6386C140.47 42.5948 140.703 42.4768 140.887 42.2999C141.071 42.1229 141.197 41.8951 141.251 41.6455C141.304 41.396 141.282 41.1362 141.187 40.8996C141.091 40.6629 140.927 40.46 140.716 40.3172C140.505 40.1743 140.255 40.0978 140 40.0976C139.835 40.0945 139.671 40.1238 139.518 40.184C139.364 40.2442 139.224 40.3341 139.105 40.4485C138.986 40.5629 138.891 40.6996 138.825 40.8508C138.759 41.002 138.723 41.1647 138.72 41.3296Z" fill="#F2F4F7"/>
<path id="Vector_176" d="M142.372 41.3296C142.362 41.5847 142.429 41.8369 142.564 42.0537C142.699 42.2705 142.896 42.442 143.129 42.5462C143.362 42.6504 143.621 42.6824 143.872 42.6383C144.124 42.5941 144.356 42.4758 144.54 42.2984C144.724 42.121 144.85 41.8928 144.903 41.643C144.956 41.3932 144.933 41.1333 144.837 40.8967C144.741 40.6601 144.577 40.4575 144.365 40.3151C144.153 40.1727 143.903 40.097 143.648 40.0976C143.316 40.0922 142.995 40.2189 142.755 40.4498C142.516 40.6808 142.378 40.9971 142.372 41.3296Z" fill="#F2F4F7"/>
<path id="Vector_177" d="M146.02 41.3296C146.01 41.5846 146.077 41.8367 146.212 42.0534C146.347 42.2701 146.543 42.4416 146.776 42.5459C147.009 42.6502 147.268 42.6825 147.519 42.6386C147.77 42.5948 148.003 42.4768 148.187 42.2999C148.371 42.1229 148.497 41.8951 148.551 41.6455C148.604 41.396 148.582 41.1362 148.486 40.8996C148.391 40.6629 148.227 40.46 148.016 40.3172C147.804 40.1743 147.555 40.0978 147.3 40.0976C147.135 40.0945 146.971 40.1238 146.817 40.184C146.664 40.2442 146.524 40.3341 146.405 40.4485C146.286 40.5629 146.191 40.6996 146.125 40.8508C146.059 41.002 146.023 41.1647 146.02 41.3296Z" fill="#F2F4F7"/>
<path id="Vector_178" d="M149.672 41.3296C149.663 41.5836 149.73 41.8345 149.865 42.0501C150 42.2656 150.196 42.436 150.428 42.5393C150.66 42.6427 150.918 42.6743 151.169 42.6302C151.419 42.586 151.65 42.4681 151.833 42.2915C152.016 42.115 152.142 41.8878 152.195 41.6391C152.248 41.3905 152.225 41.1317 152.13 40.896C152.035 40.6602 151.872 40.4583 151.661 40.3161C151.45 40.1738 151.202 40.0977 150.948 40.0976C150.615 40.0922 150.294 40.2189 150.055 40.4498C149.816 40.6808 149.678 40.9971 149.672 41.3296Z" fill="#F2F4F7"/>
<path id="Vector_179" d="M138.72 53.4015C138.711 53.6564 138.779 53.908 138.914 54.1242C139.049 54.3404 139.246 54.5113 139.479 54.615C139.712 54.7186 139.971 54.7504 140.222 54.706C140.473 54.6617 140.705 54.5434 140.888 54.3663C141.072 54.1892 141.198 53.9613 141.251 53.7119C141.304 53.4624 141.282 53.2029 141.186 52.9664C141.091 52.7299 140.927 52.5274 140.715 52.3847C140.504 52.242 140.255 52.1657 140 52.1655C139.835 52.1623 139.67 52.1918 139.517 52.2523C139.363 52.3127 139.222 52.4029 139.103 52.5178C138.984 52.6326 138.889 52.7698 138.824 52.9214C138.758 53.0731 138.723 53.2362 138.72 53.4015Z" fill="#F2F4F7"/>
<path id="Vector_180" d="M142.372 53.4014C142.363 53.6565 142.431 53.9083 142.566 54.1246C142.702 54.3409 142.898 54.5118 143.132 54.6153C143.365 54.7189 143.624 54.7503 143.875 54.7057C144.126 54.6611 144.358 54.5424 144.542 54.3648C144.725 54.1873 144.851 53.959 144.904 53.7093C144.956 53.4597 144.933 53.1999 144.837 52.9635C144.741 52.7271 144.576 52.5249 144.364 52.3826C144.153 52.2404 143.903 52.1648 143.648 52.1654C143.483 52.1628 143.319 52.1927 143.166 52.2534C143.012 52.314 142.872 52.4044 142.754 52.5191C142.635 52.6339 142.541 52.7709 142.475 52.9223C142.41 53.0737 142.374 53.2365 142.372 53.4014Z" fill="#F2F4F7"/>
<path id="Vector_181" d="M146.02 53.4015C146.011 53.6564 146.079 53.908 146.214 54.1242C146.349 54.3404 146.546 54.5113 146.779 54.615C147.012 54.7186 147.27 54.7504 147.521 54.706C147.773 54.6617 148.005 54.5434 148.188 54.3663C148.372 54.1892 148.498 53.9613 148.551 53.7119C148.604 53.4624 148.581 53.2029 148.486 52.9664C148.391 52.7299 148.227 52.5274 148.015 52.3847C147.804 52.242 147.555 52.1657 147.3 52.1655C147.135 52.1623 146.97 52.1918 146.816 52.2523C146.663 52.3127 146.522 52.4029 146.403 52.5178C146.284 52.6326 146.189 52.7698 146.123 52.9214C146.058 53.0731 146.022 53.2362 146.02 53.4015Z" fill="#F2F4F7"/>
<path id="Vector_182" d="M149.672 53.4014C149.664 53.6554 149.732 53.9059 149.867 54.1209C150.003 54.336 150.199 54.5057 150.431 54.6084C150.664 54.7112 150.921 54.7422 151.172 54.6976C151.422 54.653 151.653 54.5347 151.835 54.358C152.018 54.1812 152.143 53.954 152.196 53.7055C152.248 53.4569 152.226 53.1983 152.13 52.9628C152.035 52.7273 151.872 52.5256 151.661 52.3836C151.45 52.2415 151.202 52.1656 150.948 52.1654C150.783 52.1628 150.619 52.1927 150.466 52.2534C150.312 52.314 150.172 52.4044 150.054 52.5191C149.935 52.6339 149.841 52.7709 149.775 52.9223C149.71 53.0737 149.675 53.2365 149.672 53.4014Z" fill="#F2F4F7"/>
<path id="Vector_183" d="M138.72 65.4695C138.711 65.7245 138.777 65.9766 138.912 66.1933C139.047 66.41 139.243 66.5815 139.476 66.6858C139.709 66.79 139.968 66.8224 140.219 66.7785C140.47 66.7347 140.703 66.6167 140.887 66.4398C141.071 66.2628 141.197 66.035 141.251 65.7854C141.304 65.5359 141.282 65.2761 141.187 65.0394C141.091 64.8027 140.927 64.5999 140.716 64.457C140.505 64.3142 140.255 64.2377 140 64.2375C139.835 64.2344 139.671 64.2637 139.518 64.3239C139.364 64.3841 139.224 64.474 139.105 64.5884C138.986 64.7028 138.891 64.8395 138.825 64.9907C138.759 65.1419 138.723 65.3046 138.72 65.4695Z" fill="#F2F4F7"/>
<path id="Vector_184" d="M142.372 65.4695C142.362 65.7246 142.429 65.9768 142.564 66.1936C142.699 66.4104 142.896 66.5819 143.129 66.6861C143.362 66.7903 143.621 66.8223 143.872 66.7782C144.124 66.734 144.356 66.6157 144.54 66.4383C144.724 66.2609 144.85 66.0327 144.903 65.7829C144.956 65.5331 144.933 65.2732 144.837 65.0366C144.741 64.8 144.577 64.5974 144.365 64.455C144.153 64.3126 143.903 64.2368 143.648 64.2375C143.316 64.2321 142.995 64.3588 142.755 64.5897C142.516 64.8207 142.378 65.137 142.372 65.4695Z" fill="#F2F4F7"/>
<path id="Vector_185" d="M146.02 65.4695C146.01 65.7245 146.077 65.9766 146.212 66.1933C146.347 66.41 146.543 66.5815 146.776 66.6858C147.009 66.79 147.268 66.8224 147.519 66.7785C147.77 66.7347 148.003 66.6167 148.187 66.4398C148.371 66.2628 148.497 66.035 148.551 65.7854C148.604 65.5359 148.582 65.2761 148.486 65.0394C148.391 64.8027 148.227 64.5999 148.016 64.457C147.804 64.3142 147.555 64.2377 147.3 64.2375C147.135 64.2344 146.971 64.2637 146.817 64.3239C146.664 64.3841 146.524 64.474 146.405 64.5884C146.286 64.7028 146.191 64.8395 146.125 64.9907C146.059 65.1419 146.023 65.3046 146.02 65.4695Z" fill="#F2F4F7"/>
<path id="Vector_186" d="M149.672 65.4695C149.663 65.7235 149.73 65.9744 149.865 66.19C150 66.4055 150.196 66.5759 150.428 66.6792C150.66 66.7826 150.918 66.8142 151.169 66.7701C151.419 66.7259 151.65 66.608 151.833 66.4314C152.016 66.2549 152.142 66.0277 152.195 65.779C152.248 65.5304 152.225 65.2716 152.13 65.0359C152.035 64.8001 151.872 64.5982 151.661 64.4559C151.45 64.3137 151.202 64.2376 150.948 64.2375C150.615 64.2321 150.294 64.3588 150.055 64.5897C149.816 64.8207 149.678 65.137 149.672 65.4695Z" fill="#F2F4F7"/>
<path id="Vector_187" d="M138.72 77.5414C138.711 77.7963 138.779 78.0479 138.914 78.2641C139.049 78.4803 139.246 78.6512 139.479 78.7549C139.712 78.8585 139.971 78.8902 140.222 78.8459C140.473 78.8016 140.705 78.6833 140.888 78.5062C141.072 78.3291 141.198 78.1012 141.251 77.8517C141.304 77.6023 141.282 77.3428 141.186 77.1063C141.091 76.8698 140.927 76.6673 140.715 76.5246C140.504 76.3819 140.255 76.3056 140 76.3054C139.835 76.3022 139.67 76.3317 139.517 76.3922C139.363 76.4526 139.222 76.5428 139.103 76.6577C138.984 76.7725 138.889 76.9097 138.824 77.0613C138.758 77.213 138.723 77.3761 138.72 77.5414Z" fill="#F2F4F7"/>
<path id="Vector_188" d="M142.372 77.5413C142.363 77.7964 142.431 78.0482 142.566 78.2645C142.702 78.4808 142.898 78.6517 143.132 78.7552C143.365 78.8588 143.624 78.8902 143.875 78.8456C144.126 78.801 144.358 78.6823 144.542 78.5047C144.725 78.3272 144.851 78.0989 144.904 77.8492C144.956 77.5995 144.933 77.3398 144.837 77.1034C144.741 76.867 144.576 76.6647 144.364 76.5225C144.153 76.3803 143.903 76.3047 143.648 76.3053C143.483 76.3027 143.319 76.3326 143.166 76.3933C143.012 76.4539 142.872 76.5442 142.754 76.659C142.635 76.7738 142.541 76.9108 142.475 77.0622C142.41 77.2136 142.374 77.3764 142.372 77.5413Z" fill="#F2F4F7"/>
<path id="Vector_189" d="M146.02 77.5414C146.011 77.7963 146.079 78.0479 146.214 78.2641C146.349 78.4803 146.546 78.6512 146.779 78.7549C147.012 78.8585 147.27 78.8902 147.521 78.8459C147.773 78.8016 148.005 78.6833 148.188 78.5062C148.372 78.3291 148.498 78.1012 148.551 77.8517C148.604 77.6023 148.581 77.3428 148.486 77.1063C148.391 76.8698 148.227 76.6673 148.015 76.5246C147.804 76.3819 147.555 76.3056 147.3 76.3054C147.135 76.3022 146.97 76.3317 146.816 76.3922C146.663 76.4526 146.522 76.5428 146.403 76.6577C146.284 76.7725 146.189 76.9097 146.123 77.0613C146.058 77.213 146.022 77.3761 146.02 77.5414Z" fill="#F2F4F7"/>
<path id="Vector_190" d="M149.672 77.5413C149.664 77.7953 149.732 78.0458 149.867 78.2608C150.003 78.4758 150.199 78.6456 150.431 78.7483C150.664 78.8511 150.921 78.8821 151.172 78.8375C151.422 78.7929 151.653 78.6746 151.835 78.4979C152.018 78.3211 152.143 78.0939 152.196 77.8454C152.248 77.5968 152.226 77.3382 152.13 77.1027C152.035 76.8672 151.872 76.6655 151.661 76.5235C151.45 76.3814 151.202 76.3055 150.948 76.3053C150.783 76.3027 150.619 76.3326 150.466 76.3933C150.312 76.4539 150.172 76.5442 150.054 76.659C149.935 76.7738 149.841 76.9108 149.775 77.0622C149.71 77.2136 149.675 77.3764 149.672 77.5413Z" fill="#F2F4F7"/>
<path id="Vector_191" d="M138.72 89.618C138.711 89.873 138.777 90.125 138.912 90.3417C139.047 90.5584 139.243 90.7299 139.476 90.8342C139.709 90.9385 139.968 90.9708 140.219 90.9269C140.47 90.8831 140.703 90.7651 140.887 90.5882C141.071 90.4112 141.197 90.1834 141.251 89.9339C141.304 89.6843 141.282 89.4246 141.187 89.1879C141.091 88.9512 140.927 88.7484 140.716 88.6055C140.505 88.4626 140.255 88.3862 140 88.386C139.835 88.3828 139.671 88.4121 139.518 88.4723C139.364 88.5325 139.224 88.6224 139.105 88.7368C138.986 88.8512 138.891 88.9879 138.825 89.1391C138.759 89.2903 138.723 89.453 138.72 89.618Z" fill="#F2F4F7"/>
<path id="Vector_192" d="M142.372 89.6179C142.362 89.8731 142.429 90.1252 142.564 90.342C142.699 90.5588 142.896 90.7304 143.129 90.8345C143.362 90.9387 143.621 90.9708 143.872 90.9266C144.124 90.8824 144.356 90.7641 144.54 90.5867C144.724 90.4094 144.85 90.1811 144.903 89.9314C144.956 89.6816 144.933 89.4216 144.837 89.185C144.741 88.9484 144.577 88.7458 144.365 88.6034C144.153 88.461 143.903 88.3853 143.648 88.3859C143.316 88.3806 142.995 88.5072 142.755 88.7382C142.516 88.9691 142.378 89.2855 142.372 89.6179Z" fill="#F2F4F7"/>
<path id="Vector_193" d="M146.02 89.618C146.01 89.873 146.077 90.125 146.212 90.3417C146.347 90.5584 146.543 90.7299 146.776 90.8342C147.009 90.9385 147.268 90.9708 147.519 90.9269C147.77 90.8831 148.003 90.7651 148.187 90.5882C148.371 90.4112 148.497 90.1834 148.551 89.9339C148.604 89.6843 148.582 89.4246 148.486 89.1879C148.391 88.9512 148.227 88.7484 148.016 88.6055C147.804 88.4626 147.555 88.3862 147.3 88.386C147.135 88.3828 146.971 88.4121 146.817 88.4723C146.664 88.5325 146.524 88.6224 146.405 88.7368C146.286 88.8512 146.191 88.9879 146.125 89.1391C146.059 89.2903 146.023 89.453 146.02 89.618Z" fill="#F2F4F7"/>
<path id="Vector_194" d="M149.672 89.6179C149.663 89.872 149.73 90.1229 149.865 90.3384C150 90.5539 150.196 90.7243 150.428 90.8277C150.66 90.931 150.918 90.9627 151.169 90.9185C151.419 90.8744 151.65 90.7564 151.833 90.5799C152.016 90.4033 152.142 90.1761 152.195 89.9275C152.248 89.6788 152.225 89.42 152.13 89.1843C152.035 88.9486 151.872 88.7466 151.661 88.6044C151.45 88.4621 151.202 88.3861 150.948 88.3859C150.615 88.3806 150.294 88.5072 150.055 88.7382C149.816 88.9691 149.678 89.2855 149.672 89.6179Z" fill="#F2F4F7"/>
<path id="Vector_195" d="M138.72 101.678C138.711 101.933 138.777 102.185 138.912 102.402C139.047 102.618 139.243 102.79 139.476 102.894C139.709 102.999 139.968 103.031 140.219 102.987C140.47 102.943 140.703 102.825 140.887 102.648C141.071 102.471 141.197 102.243 141.251 101.994C141.304 101.744 141.282 101.485 141.187 101.248C141.091 101.011 140.927 100.808 140.716 100.666C140.505 100.523 140.255 100.446 140 100.446C139.835 100.443 139.671 100.472 139.518 100.532C139.364 100.593 139.224 100.682 139.105 100.797C138.986 100.911 138.891 101.048 138.825 101.199C138.759 101.35 138.723 101.513 138.72 101.678Z" fill="#F2F4F7"/>
<path id="Vector_196" d="M142.372 101.678C142.362 101.933 142.429 102.185 142.564 102.402C142.699 102.619 142.896 102.79 143.129 102.895C143.362 102.999 143.621 103.031 143.872 102.987C144.124 102.943 144.356 102.824 144.54 102.647C144.724 102.469 144.85 102.241 144.903 101.991C144.956 101.742 144.933 101.482 144.837 101.245C144.741 101.008 144.577 100.806 144.365 100.664C144.153 100.521 143.903 100.445 143.648 100.446C143.316 100.441 142.995 100.567 142.755 100.798C142.516 101.029 142.378 101.346 142.372 101.678Z" fill="#F2F4F7"/>
<path id="Vector_197" d="M146.02 101.678C146.01 101.933 146.077 102.185 146.212 102.402C146.347 102.618 146.543 102.79 146.776 102.894C147.009 102.999 147.268 103.031 147.519 102.987C147.77 102.943 148.003 102.825 148.187 102.648C148.371 102.471 148.497 102.243 148.551 101.994C148.604 101.744 148.582 101.485 148.486 101.248C148.391 101.011 148.227 100.808 148.016 100.666C147.804 100.523 147.555 100.446 147.3 100.446C147.135 100.443 146.971 100.472 146.817 100.532C146.664 100.593 146.524 100.682 146.405 100.797C146.286 100.911 146.191 101.048 146.125 101.199C146.059 101.35 146.023 101.513 146.02 101.678Z" fill="#F2F4F7"/>
<path id="Vector_198" d="M149.672 101.678C149.663 101.932 149.73 102.183 149.865 102.398C150 102.614 150.196 102.784 150.428 102.888C150.66 102.991 150.918 103.023 151.169 102.979C151.419 102.934 151.65 102.816 151.833 102.64C152.016 102.463 152.142 102.236 152.195 101.988C152.248 101.739 152.225 101.48 152.13 101.244C152.035 101.009 151.872 100.807 151.661 100.664C151.45 100.522 151.202 100.446 150.948 100.446C150.615 100.441 150.294 100.567 150.055 100.798C149.816 101.029 149.678 101.346 149.672 101.678Z" fill="#F2F4F7"/>
</g>
</svg>
