<svg width="113" height="132" viewBox="0 0 113 132" fill="none" xmlns="http://www.w3.org/2000/svg">
<g id="Group">
<g id="Layer 2">
<g id="Secondary shapes">
<g id="Group_2">
<g id="Group_3">
<path id="Vector" d="M0.0834961 99.0332V122.805C0.0834961 127.456 25.3616 131.225 56.5426 131.225C87.7235 131.225 113.002 127.456 113.002 122.805V99.0332H0.0834961Z" fill="#D0D5DD"/>
<path id="Vector_2" d="M45.1514 99.0332H0.0834961V122.805C0.0834961 126.873 19.4302 130.268 45.1514 131.054V99.0332Z" fill="#EAECF0"/>
<path id="Vector_3" d="M56.5426 107.453C87.724 107.453 113.002 103.683 113.002 99.0326C113.002 94.3824 87.724 90.6125 56.5426 90.6125C25.3611 90.6125 0.0834961 94.3824 0.0834961 99.0326C0.0834961 103.683 25.3611 107.453 56.5426 107.453Z" fill="#E2E5EA"/>
</g>
<g id="Group_4">
<path id="Vector_4" opacity="0.5" d="M50.575 121.021H50.5643C45.5172 120.943 40.5684 120.762 35.859 120.485C35.4892 120.464 35.2087 120.148 35.2302 119.778C35.2516 119.408 35.575 119.126 35.9376 119.149C40.6292 119.424 45.5565 119.603 50.5857 119.681C50.9555 119.687 51.2503 119.992 51.2449 120.362C51.2396 120.728 50.9394 121.021 50.575 121.021Z" fill="#98A2B3"/>
<g id="Vector_5" style="mix-blend-mode:screen">
<path d="M54.9077 120.35C54.9077 119.894 55.2775 119.525 55.7331 119.525C56.1887 119.525 56.5585 119.894 56.5585 120.35C56.5585 120.806 56.1887 121.175 55.7331 121.175C55.2775 121.175 54.9077 120.806 54.9077 120.35Z" fill="#F2F4F7"/>
</g>
<g id="Vector_6" style="mix-blend-mode:screen">
<path d="M61.9138 120.3C61.9138 119.845 62.2836 119.475 62.7392 119.475C63.1948 119.475 63.5646 119.845 63.5646 120.3C63.5646 120.756 63.1948 121.126 62.7392 121.126C62.2836 121.126 61.9138 120.756 61.9138 120.3Z" fill="#EAECF0"/>
</g>
<g id="Vector_7" style="mix-blend-mode:screen">
<path d="M68.9189 120.12C68.9189 119.664 69.2888 119.295 69.7443 119.295C70.1999 119.295 70.5697 119.664 70.5697 120.12C70.5697 120.576 70.1999 120.945 69.7443 120.945C69.2888 120.945 68.9189 120.576 68.9189 120.12Z" fill="#F2F4F7"/>
</g>
</g>
<g id="Group_5">
<path id="Vector_8" d="M0.0834961 79.6743V87.4369C0.0834961 92.0874 25.3616 95.857 56.5426 95.857C87.7235 95.857 113.002 92.0874 113.002 87.4369V79.6743H0.0834961Z" fill="#D0D5DD"/>
<path id="Vector_9" d="M45.1514 79.6743H0.0834961V87.4369C0.0834961 91.505 19.4302 94.8994 45.1514 95.6855V79.6761V79.6743Z" fill="#EAECF0"/>
<path id="Vector_10" d="M56.5426 88.0938C87.724 88.0938 113.002 84.324 113.002 79.6737C113.002 75.0235 87.724 71.2537 56.5426 71.2537C25.3611 71.2537 0.0834961 75.0235 0.0834961 79.6737C0.0834961 84.324 25.3611 88.0938 56.5426 88.0938Z" fill="#E2E5EA"/>
</g>
<g id="Vector_11" style="mix-blend-mode:screen">
<path d="M54.6663 92.2943C54.6663 91.7065 55.1433 91.2295 55.731 91.2295C56.3188 91.2295 56.7958 91.7065 56.7958 92.2943C56.7958 92.8821 56.3188 93.3591 55.731 93.3591C55.1433 93.3591 54.6663 92.8821 54.6663 92.2943Z" fill="#F2F4F7"/>
</g>
<g id="Group_6">
<path id="Vector_12" d="M0.0834961 44.3093V68.0814C0.0834961 72.7318 25.3616 76.5015 56.5426 76.5015C87.7235 76.5015 113.002 72.7318 113.002 68.0814V44.3093H0.0834961Z" fill="#D0D5DD"/>
<path id="Vector_13" d="M45.1514 44.3093H0.0834961V68.0814C0.0834961 72.1494 19.4302 75.5439 45.1514 76.3299V44.3093Z" fill="#EAECF0"/>
<path id="Vector_14" d="M56.5426 52.7288C87.724 52.7288 113.002 48.959 113.002 44.3088C113.002 39.6585 87.724 35.8887 56.5426 35.8887C25.3611 35.8887 0.0834961 39.6585 0.0834961 44.3088C0.0834961 48.959 25.3611 52.7288 56.5426 52.7288Z" fill="#E2E5EA"/>
</g>
<g id="Group_7">
<path id="Vector_15" d="M0.0834961 8.93579V32.7078C0.0834961 37.3583 25.3616 41.1279 56.5426 41.1279C87.7235 41.1279 113.002 37.3583 113.002 32.7078V8.93579H0.0834961Z" fill="#D0D5DD"/>
<path id="Vector_16" d="M45.1514 8.93579H0.0834961V32.7078C0.0834961 36.7759 19.4302 40.1703 45.1514 40.9564V8.93579Z" fill="#EAECF0"/>
<path id="Vector_17" d="M56.5426 17.3553C87.724 17.3553 113.002 13.5855 113.002 8.93522C113.002 4.28493 87.724 0.515137 56.5426 0.515137C25.3611 0.515137 0.0834961 4.28493 0.0834961 8.93522C0.0834961 13.5855 25.3611 17.3553 56.5426 17.3553Z" fill="#E2E5EA"/>
<path id="Vector_18" d="M56.5416 5.58841C72.5403 5.58841 85.7805 7.34639 88.0548 9.63856C88.2817 9.40988 88.4032 9.17584 88.4032 8.93822C88.4032 6.31376 74.1392 4.18774 56.5416 4.18774C38.9439 4.18774 24.6799 6.31554 24.6799 8.93822C24.6799 9.17584 24.8014 9.40988 25.0283 9.63856C27.3026 7.34639 40.5429 5.58841 56.5416 5.58841Z" fill="#D0D5DD"/>
<path id="Vector_19" d="M56.5425 13.6882C72.5412 13.6882 85.7815 11.9302 88.0558 9.63804C85.7815 7.34587 72.5412 5.58789 56.5425 5.58789C40.5438 5.58789 27.3036 7.34587 25.0293 9.63804C27.3036 11.9302 40.5438 13.6882 56.5425 13.6882Z" fill="#EAECF0"/>
</g>
<g id="Group_8">
<path id="Vector_20" opacity="0.5" d="M56.5429 66.3381C51.0474 66.3381 45.6163 66.2202 40.3995 65.9897C40.0297 65.9736 39.7438 65.661 39.7599 65.2912C39.776 64.9214 40.0886 64.6319 40.4585 64.6516C45.6538 64.882 51.0653 64.9982 56.5411 64.9982C56.911 64.9982 57.2111 65.2983 57.2111 65.6681C57.2111 66.038 56.911 66.3381 56.5411 66.3381H56.5429Z" fill="#98A2B3"/>
<g id="Vector_21" style="mix-blend-mode:screen">
<path d="M61.9153 65.6467C61.9153 65.1911 62.2851 64.8213 62.7407 64.8213C63.1963 64.8213 63.5661 65.1911 63.5661 65.6467C63.5661 66.1023 63.1963 66.4721 62.7407 66.4721C62.2851 66.4721 61.9153 66.1023 61.9153 65.6467Z" fill="#F2F4F7"/>
</g>
<g id="Vector_22" style="mix-blend-mode:screen">
<path d="M68.9202 65.4665C68.9202 65.0109 69.29 64.6411 69.7456 64.6411C70.2011 64.6411 70.571 65.0109 70.571 65.4665C70.571 65.9221 70.2011 66.2919 69.7456 66.2919C69.29 66.2919 68.9202 65.9221 68.9202 65.4665Z" fill="#D0D5DD"/>
</g>
</g>
<g id="Group_9">
<g id="Vector_23" style="mix-blend-mode:screen">
<path d="M54.9062 30.3005C54.9062 29.8449 55.2761 29.4751 55.7316 29.4751C56.1872 29.4751 56.557 29.8449 56.557 30.3005C56.557 30.7561 56.1872 31.1259 55.7316 31.1259C55.2761 31.1259 54.9062 30.7561 54.9062 30.3005Z" fill="#F2F4F7"/>
</g>
<g id="Vector_24" style="mix-blend-mode:screen">
<path d="M61.9148 30.2507C61.9148 29.7951 62.2846 29.4253 62.7402 29.4253C63.1958 29.4253 63.5656 29.7951 63.5656 30.2507C63.5656 30.7063 63.1958 31.0761 62.7402 31.0761C62.2846 31.0761 61.9148 30.7063 61.9148 30.2507Z" fill="#D0D5DD"/>
</g>
<g id="Vector_25" style="mix-blend-mode:screen">
<path d="M68.9197 30.0683C68.9197 29.6127 69.2895 29.2429 69.7451 29.2429C70.2006 29.2429 70.5705 29.6127 70.5705 30.0683C70.5705 30.5239 70.2006 30.8937 69.7451 30.8937C69.2895 30.8937 68.9197 30.5239 68.9197 30.0683Z" fill="#D0D5DD"/>
</g>
<g id="Vector_26" style="mix-blend-mode:screen">
<path d="M49.5495 30.2507C49.5495 29.7951 49.1796 29.4253 48.7241 29.4253C48.2685 29.4253 47.8987 29.7951 47.8987 30.2507C47.8987 30.7063 48.2685 31.0761 48.7241 31.0761C49.1796 31.0761 49.5495 30.7063 49.5495 30.2507Z" fill="#F2F4F7"/>
</g>
<g id="Vector_27" style="mix-blend-mode:screen">
<path d="M42.5421 30.0683C42.5421 29.6127 42.1723 29.2429 41.7168 29.2429C41.2612 29.2429 40.8914 29.6127 40.8914 30.0683C40.8914 30.5239 41.2612 30.8937 41.7168 30.8937C42.1723 30.8937 42.5421 30.5239 42.5421 30.0683Z" fill="#F2F4F7"/>
</g>
</g>
</g>
</g>
</g>
</g>
</svg>
