<svg width="200" height="200" viewBox="0 0 200 200" fill="none" xmlns="http://www.w3.org/2000/svg">
<path d="M141.092 33.1653H38.5294C37.1826 33.1653 36.0908 33.9618 36.0908 34.9444V165.686C36.0908 166.669 37.1826 167.465 38.5294 167.465H141.092C142.439 167.465 143.531 166.669 143.531 165.686V34.9444C143.531 33.9618 142.439 33.1653 141.092 33.1653Z" fill="#D0D5DD"/>
<path opacity="0.7" d="M141.092 33.1653H38.5294C37.1826 33.1653 36.0908 33.9618 36.0908 34.9444V165.686C36.0908 166.669 37.1826 167.465 38.5294 167.465H141.092C142.439 167.465 143.531 166.669 143.531 165.686V34.9444C143.531 33.9618 142.439 33.1653 141.092 33.1653Z" fill="white"/>
<path d="M63.7356 56.0989H43.415V58.8572H63.7356V56.0989Z" fill="#D0D5DD"/>
<path d="M63.7356 62.2971H43.415V65.0554H63.7356V62.2971Z" fill="#D0D5DD"/>
<path d="M136.093 56.0989H115.772V58.8572H136.093V56.0989Z" fill="#D0D5DD"/>
<path d="M98.2103 43.3406H77.8896V46.0989H98.2103V43.3406Z" fill="#D0D5DD"/>
<path d="M136.092 38.5264H43.415V41.2847H136.092V38.5264Z" fill="#D0D5DD"/>
<path d="M136.082 70.8928H53.7461V73.6511H136.082V70.8928Z" fill="#D0D5DD"/>
<path d="M136.092 76.3992H43.415V79.1575H136.092V76.3992Z" fill="#D0D5DD"/>
<path d="M136.092 81.9155H43.415V84.6738H136.092V81.9155Z" fill="#D0D5DD"/>
<path d="M136.092 87.4219H43.415V90.1802H136.092V87.4219Z" fill="#D0D5DD"/>
<path d="M125.751 92.9282H43.415V95.6865H125.751V92.9282Z" fill="#D0D5DD"/>
<path d="M136.082 102.938H53.7461V105.697H136.082V102.938Z" fill="#D0D5DD"/>
<path d="M136.092 108.445H43.415V111.203H136.092V108.445Z" fill="#D0D5DD"/>
<path d="M136.092 113.961H43.415V116.719H136.092V113.961Z" fill="#D0D5DD"/>
<path d="M136.092 119.468H43.415V122.226H136.092V119.468Z" fill="#D0D5DD"/>
<path d="M125.751 124.974H43.415V127.732H125.751V124.974Z" fill="#D0D5DD"/>
<path d="M136.082 134.985H53.7461V137.743H136.082V134.985Z" fill="#D0D5DD"/>
<path d="M136.092 140.491H43.415V143.25H136.092V140.491Z" fill="#D0D5DD"/>
<path d="M136.092 146.008H43.415V148.766H136.092V146.008Z" fill="#D0D5DD"/>
<path d="M136.092 151.514H43.415V154.272H136.092V151.514Z" fill="#D0D5DD"/>
<path d="M125.751 157.021H43.415V159.779H125.751V157.021Z" fill="#D0D5DD"/>
<g opacity="0.2">
<path d="M63.7366 56.0984H43.416V58.8567H63.7366V56.0984Z" fill="white"/>
<path d="M63.7366 62.2969H43.416V65.0552H63.7366V62.2969Z" fill="white"/>
<path d="M136.092 56.0984H115.771V58.8567H136.092V56.0984Z" fill="white"/>
<path d="M98.2093 43.3403H77.8887V46.0986H98.2093V43.3403Z" fill="white"/>
<path d="M136.093 38.5261H43.416V41.2844H136.093V38.5261Z" fill="white"/>
<path d="M136.083 70.8926H53.7471V73.6509H136.083V70.8926Z" fill="white"/>
<path d="M136.093 76.3989H43.416V79.1572H136.093V76.3989Z" fill="white"/>
<path d="M136.093 81.9153H43.416V84.6736H136.093V81.9153Z" fill="white"/>
<path d="M136.093 87.4216H43.416V90.1799H136.093V87.4216Z" fill="white"/>
<path d="M125.752 92.928H43.416V95.6863H125.752V92.928Z" fill="white"/>
<path d="M136.083 102.938H53.7471V105.696H136.083V102.938Z" fill="white"/>
<path d="M136.093 108.444H43.416V111.203H136.093V108.444Z" fill="white"/>
<path d="M136.093 113.961H43.416V116.719H136.093V113.961Z" fill="white"/>
<path d="M136.093 119.467H43.416V122.226H136.093V119.467Z" fill="white"/>
<path d="M125.752 124.974H43.416V127.732H125.752V124.974Z" fill="white"/>
<path d="M136.083 134.985H53.7471V137.743H136.083V134.985Z" fill="white"/>
<path d="M136.093 140.491H43.416V143.249H136.093V140.491Z" fill="white"/>
<path d="M136.093 146.007H43.416V148.766H136.093V146.007Z" fill="white"/>
<path d="M136.093 151.514H43.416V154.272H136.093V151.514Z" fill="white"/>
<path d="M125.752 157.02H43.416V159.779H125.752V157.02Z" fill="white"/>
</g>
<path opacity="0.04" d="M61.8874 48.6614H4.44839C3.09618 48.6614 2 49.7576 2 51.1098V98.0011C2 99.3533 3.09618 100.449 4.44839 100.449H61.8874C63.2396 100.449 64.3358 99.3533 64.3358 98.0011V51.1098C64.3358 49.7576 63.2396 48.6614 61.8874 48.6614Z" fill="black"/>
<path d="M69.573 58.4646H12.1339C10.7817 58.4646 9.68555 59.5608 9.68555 60.913V107.804C9.68555 109.157 10.7817 110.253 12.1339 110.253H69.573C70.9252 110.253 72.0214 109.157 72.0214 107.804V60.913C72.0214 59.5608 70.9252 58.4646 69.573 58.4646Z" fill="#D0D5DD"/>
<path d="M28.1782 88.6406H15.7812V94.8391H28.1782V88.6406Z" fill="#EAECF0"/>
<path d="M64.3355 88.6406H29.2109V94.8391H64.3355V88.6406Z" fill="#EAECF0"/>
<path d="M28.1782 80.376H15.7812V87.6075H28.1782V80.376Z" fill="#EAECF0"/>
<path d="M28.1782 73.1445H15.7812V79.343H28.1782V73.1445Z" fill="#EAECF0"/>
<path d="M64.3355 80.376H29.2109V87.6075H64.3355V80.376Z" fill="#EAECF0"/>
<path d="M64.3355 95.8721H29.2109V103.104H64.3355V95.8721Z" fill="#EAECF0"/>
<path d="M64.3355 73.1445H29.2109V79.343H64.3355V73.1445Z" fill="#EAECF0"/>
<path d="M28.1782 95.8721H15.7812V103.104H28.1782V95.8721Z" fill="#EAECF0"/>
<path d="M28.1782 64.8799H15.7812V72.1114H28.1782V64.8799Z" fill="#EAECF0"/>
<path d="M64.3355 64.8799H29.2109V72.1114H64.3355V64.8799Z" fill="#EAECF0"/>
<path opacity="0.04" d="M168.293 119.293H110.854C109.501 119.293 108.405 120.39 108.405 121.742V168.633C108.405 169.985 109.501 171.082 110.854 171.082H168.293C169.645 171.082 170.741 169.985 170.741 168.633V121.742C170.741 120.39 169.645 119.293 168.293 119.293Z" fill="black"/>
<path d="M179.832 116.845H122.393C121.041 116.845 119.944 117.941 119.944 119.293V166.185C119.944 167.537 121.041 168.633 122.393 168.633H179.832C181.184 168.633 182.28 167.537 182.28 166.185V119.293C182.28 117.941 181.184 116.845 179.832 116.845Z" fill="#D0D5DD"/>
<path d="M175.628 123.818H160.132V131.05H175.628V123.818Z" fill="#EAECF0"/>
<path d="M159.099 123.818H143.603V131.05H159.099V123.818Z" fill="#EAECF0"/>
<path d="M159.099 131.05H143.603V162.042H159.099V131.05Z" fill="#EAECF0"/>
<path d="M175.628 131.05H160.132V162.042H175.628V131.05Z" fill="#EAECF0"/>
<path d="M142.569 123.818H127.073V131.05H142.569V123.818Z" fill="#EAECF0"/>
<path d="M142.569 131.05H127.073V162.042H142.569V131.05Z" fill="#EAECF0"/>
<path opacity="0.04" d="M185.349 37.3079H127.91C126.558 37.3079 125.462 38.404 125.462 39.7562V86.6476C125.462 87.9998 126.558 89.096 127.91 89.096H185.349C186.702 89.096 187.798 87.9998 187.798 86.6476V39.7562C187.798 38.404 186.702 37.3079 185.349 37.3079Z" fill="black"/>
<path d="M195.69 28H138.251C136.899 28 135.803 29.0962 135.803 30.4484V77.3397C135.803 78.6919 136.899 79.7881 138.251 79.7881H195.69C197.042 79.7881 198.139 78.6919 198.139 77.3397V30.4484C198.139 29.0962 197.042 28 195.69 28Z" fill="#D0D5DD"/>
<path d="M180.123 34.7351H160.494V39.9005H180.123V34.7351Z" fill="#EAECF0"/>
<path d="M169.792 40.9336H160.494V72.959H169.792V40.9336Z" fill="#EAECF0"/>
<path d="M191.486 34.7351H181.155V39.9005H191.486V34.7351Z" fill="#EAECF0"/>
<path d="M191.486 40.9336H181.155V72.959H191.486V40.9336Z" fill="#EAECF0"/>
<path d="M180.122 40.9336H170.824V72.959H180.122V40.9336Z" fill="#EAECF0"/>
<path d="M159.461 40.9336H142.932V72.959H159.461V40.9336Z" fill="#EAECF0"/>
<path d="M159.461 34.7351H142.932V39.9005H159.461V34.7351Z" fill="#EAECF0"/>
</svg>
