<svg width="304" height="160" viewBox="0 0 304 160" fill="none" xmlns="http://www.w3.org/2000/svg">
<g clip-path="url(#clip0_5709_15032)">
<rect width="304" height="160" fill="white"/>
<mask id="mask0_5709_15032" style="mask-type:alpha" maskUnits="userSpaceOnUse" x="0" y="0" width="304" height="160">
<rect width="304" height="160" fill="url(#paint0_radial_5709_15032)"/>
</mask>
<g mask="url(#mask0_5709_15032)">
<g filter="url(#filter0_d_5709_15032)">
<g filter="url(#filter1_d_5709_15032)">
<rect x="25" y="22" width="255" height="167" rx="8" fill="white"/>
<rect x="25.5711" y="22.5711" width="253.858" height="165.858" rx="7.42889" stroke="#D0D5DD" stroke-opacity="0.8" stroke-width="1.14222"/>
<rect x="25" y="22" width="28" height="150" fill="#EBEEF7"/>
<path d="M40.754 54V53.3524H42.5282V48.3582H42.4661L40.9048 49.813L40.4701 49.3429L42.1112 47.8082H43.2733V53.3524H44.9055V54H40.754Z" fill="#667085"/>
<path d="M42.3951 92.434C42.8268 92.434 43.1491 92.3393 43.362 92.1501C43.5808 91.9549 43.6902 91.7066 43.6902 91.405V91.3429C43.6902 91.0117 43.5838 90.7633 43.3709 90.5977C43.1639 90.4321 42.8919 90.3493 42.5548 90.3493C42.2236 90.3493 41.9545 90.4233 41.7475 90.5711C41.5465 90.713 41.3809 90.9023 41.2508 91.1388L40.6919 90.713C40.7688 90.5889 40.8634 90.4676 40.9758 90.3493C41.0881 90.2252 41.2182 90.1158 41.3661 90.0211C41.5199 89.9265 41.6943 89.8496 41.8895 89.7905C42.0905 89.7314 42.3182 89.7018 42.5725 89.7018C42.8386 89.7018 43.087 89.7373 43.3177 89.8082C43.5483 89.8733 43.7494 89.9738 43.9209 90.1098C44.0924 90.2399 44.2254 90.4026 44.32 90.5977C44.4206 90.7929 44.4708 91.0147 44.4708 91.263C44.4708 91.4641 44.4383 91.6445 44.3733 91.8041C44.3141 91.9638 44.2284 92.1028 44.116 92.2211C44.0096 92.3393 43.8824 92.4399 43.7346 92.5227C43.5867 92.6055 43.43 92.6676 43.2644 92.709V92.7444C43.4359 92.7799 43.6015 92.8391 43.7612 92.9219C43.9209 92.9987 44.0628 93.1022 44.187 93.2323C44.3112 93.3565 44.4088 93.5103 44.4797 93.6936C44.5566 93.871 44.595 94.0751 44.595 94.3057C44.595 94.5718 44.5418 94.8172 44.4354 95.042C44.3348 95.2608 44.1899 95.45 44.0007 95.6097C43.8174 95.7634 43.5926 95.8847 43.3265 95.9734C43.0663 96.0621 42.7765 96.1064 42.4572 96.1064C42.1852 96.1064 41.9427 96.0769 41.7298 96.0177C41.5228 95.9586 41.3365 95.8788 41.1709 95.7782C41.0113 95.6777 40.8693 95.5653 40.7451 95.4411C40.6269 95.317 40.5204 95.1869 40.4258 95.0508L40.9847 94.625C41.0674 94.7492 41.1532 94.8616 41.2419 94.9621C41.3306 95.0627 41.4311 95.1514 41.5435 95.2282C41.6618 95.2992 41.7948 95.3554 41.9427 95.3968C42.0905 95.4382 42.262 95.4589 42.4572 95.4589C42.8948 95.4589 43.2289 95.3584 43.4596 95.1573C43.6961 94.9562 43.8144 94.6694 43.8144 94.2968V94.2259C43.8144 93.8592 43.6991 93.5753 43.4685 93.3743C43.2437 93.1732 42.9037 93.0727 42.4483 93.0727H41.7121V92.434H42.3951Z" fill="#667085"/>
<path d="M43.3531 115V113.785H40.3016V113.128L42.9806 108.808H44.0628V113.173H44.9853V113.785H44.0628V115H43.3531ZM40.9669 113.173H43.3531V109.385H43.3177L40.9669 113.173Z" fill="#667085"/>
<rect opacity="0.5" x="204" y="45" width="26" height="9" rx="4.5" fill="#D0D5DD"/>
<rect opacity="0.5" x="204" y="62" width="26" height="9" rx="4.5" fill="#D0D5DD"/>
<rect opacity="0.5" x="204" y="78" width="26" height="9" rx="4.5" fill="#D0D5DD"/>
<rect opacity="0.5" x="204" y="111" width="26" height="9" rx="4.5" fill="#D0D5DD"/>
<rect opacity="0.5" x="240" y="45" width="28" height="9" rx="4.5" fill="#D0D5DD"/>
<rect opacity="0.5" x="240" y="62" width="28" height="9" rx="4.5" fill="#D0D5DD"/>
<rect opacity="0.5" x="240" y="78" width="28" height="9" rx="4.5" fill="#D0D5DD"/>
<rect opacity="0.5" x="240" y="111" width="28" height="9" rx="4.5" fill="#D0D5DD"/>
<rect opacity="0.5" x="134" y="45" width="60" height="9" rx="4.5" fill="#D0D5DD"/>
<rect opacity="0.5" x="134" y="62" width="60" height="9" rx="4.5" fill="#D0D5DD"/>
<rect opacity="0.5" x="134" y="78" width="60" height="9" rx="4.5" fill="#D0D5DD"/>
<rect opacity="0.5" x="134" y="111" width="60" height="9" rx="4.5" fill="#D0D5DD"/>
</g>
<path d="M68.7056 55.1453C68.0517 55.1453 67.4866 55.0363 67.0102 54.8184C66.542 54.5923 66.1424 54.2936 65.8114 53.9222L66.4653 53.3531C66.764 53.6679 67.091 53.9101 67.4462 54.0796C67.8014 54.2492 68.2293 54.334 68.7298 54.334C69.2142 54.334 69.6098 54.2492 69.9166 54.0796C70.2315 53.902 70.3889 53.6275 70.3889 53.2562C70.3889 53.0947 70.3566 52.9615 70.292 52.8566C70.2355 52.7435 70.1548 52.6547 70.0498 52.5901C69.9449 52.5255 69.8278 52.4771 69.6986 52.4448C69.5695 52.4045 69.4322 52.3722 69.2869 52.3479L68.306 52.2026C68.088 52.1703 67.8499 52.1259 67.5915 52.0694C67.3412 52.0129 67.1112 51.9241 66.9013 51.803C66.6913 51.6738 66.5137 51.5043 66.3684 51.2944C66.2312 51.0845 66.1625 50.81 66.1625 50.4709C66.1625 50.1561 66.2231 49.8856 66.3442 49.6595C66.4734 49.4254 66.651 49.2317 66.877 49.0783C67.1031 48.9168 67.3695 48.7997 67.6763 48.7271C67.9831 48.6464 68.3181 48.606 68.6814 48.606C69.2465 48.606 69.735 48.6948 70.1467 48.8724C70.5665 49.05 70.9258 49.2962 71.2245 49.6111L70.5948 50.2045C70.5221 50.1157 70.4293 50.0269 70.3162 49.9381C70.2113 49.8412 70.0781 49.7564 69.9166 49.6838C69.7632 49.603 69.5816 49.5384 69.3717 49.49C69.1618 49.4416 68.9196 49.4173 68.6451 49.4173C68.1526 49.4173 67.7732 49.5021 67.5067 49.6717C67.2484 49.8412 67.1192 50.0874 67.1192 50.4104C67.1192 50.5718 67.1475 50.7091 67.204 50.8221C67.2686 50.927 67.3534 51.0118 67.4583 51.0764C67.5633 51.141 67.6803 51.1935 67.8095 51.2338C67.9467 51.2661 68.084 51.2944 68.2212 51.3186L69.2021 51.4639C69.4282 51.4962 69.6663 51.5406 69.9166 51.5971C70.1669 51.6536 70.397 51.7465 70.6069 51.8757C70.8168 51.9968 70.9904 52.1623 71.1276 52.3722C71.2729 52.5821 71.3456 52.8566 71.3456 53.1956C71.3456 53.8173 71.1034 54.2976 70.619 54.6367C70.1427 54.9758 69.5049 55.1453 68.7056 55.1453ZM75.882 55.1453C75.4299 55.1453 75.0222 55.0686 74.6589 54.9152C74.3037 54.7618 73.9969 54.5439 73.7386 54.2613C73.4883 53.9707 73.2946 53.6275 73.1573 53.232C73.0201 52.8283 72.9515 52.3802 72.9515 51.8878C72.9515 51.3872 73.0201 50.9351 73.1573 50.5315C73.3026 50.1278 73.5004 49.7847 73.7507 49.5021C74.001 49.2115 74.2997 48.9895 74.6468 48.8361C75.0021 48.6827 75.3936 48.606 75.8215 48.606C76.2413 48.606 76.6207 48.6827 76.9598 48.8361C77.307 48.9895 77.6016 49.2034 77.8438 49.4779C78.086 49.7443 78.2717 50.0632 78.4009 50.4346C78.5301 50.8059 78.5947 51.2136 78.5947 51.6577V52.1178H73.9687V52.4085C73.9687 52.683 74.0131 52.9373 74.1019 53.1714C74.1907 53.4055 74.3158 53.6074 74.4773 53.7769C74.6468 53.9464 74.8487 54.0796 75.0828 54.1765C75.325 54.2653 75.5914 54.3097 75.882 54.3097C76.3019 54.3097 76.6652 54.2129 76.9719 54.0191C77.2787 53.8253 77.5128 53.5589 77.6743 53.2198L78.3888 53.7042C78.2031 54.1241 77.8923 54.4712 77.4563 54.7457C77.0284 55.0121 76.5037 55.1453 75.882 55.1453ZM75.8215 49.4052C75.5551 49.4052 75.3088 49.4537 75.0828 49.5506C74.8567 49.6474 74.6589 49.7806 74.4894 49.9502C74.3279 50.1197 74.1988 50.3216 74.1019 50.5557C74.0131 50.7817 73.9687 51.032 73.9687 51.3065V51.3913H77.5532V51.258C77.5532 50.9836 77.5088 50.7333 77.42 50.5072C77.3393 50.2812 77.2222 50.0874 77.0688 49.926C76.9235 49.7564 76.7418 49.6273 76.5239 49.5384C76.314 49.4496 76.0798 49.4052 75.8215 49.4052ZM80.249 54.1765H82.4288V46.8622H80.249V46.0387H83.3975V54.1765H85.5773V55H80.249V54.1765ZM90.1622 55.1453C89.7101 55.1453 89.3024 55.0686 88.9391 54.9152C88.5839 54.7618 88.2771 54.5439 88.0188 54.2613C87.7685 53.9707 87.5748 53.6275 87.4375 53.232C87.3003 52.8283 87.2316 52.3802 87.2316 51.8878C87.2316 51.3872 87.3003 50.9351 87.4375 50.5315C87.5828 50.1278 87.7806 49.7847 88.0309 49.5021C88.2812 49.2115 88.5799 48.9895 88.927 48.8361C89.2823 48.6827 89.6738 48.606 90.1017 48.606C90.5215 48.606 90.9009 48.6827 91.24 48.8361C91.5872 48.9895 91.8818 49.2034 92.124 49.4779C92.3662 49.7443 92.5519 50.0632 92.6811 50.4346C92.8103 50.8059 92.8748 51.2136 92.8748 51.6577V52.1178H88.2489V52.4085C88.2489 52.683 88.2933 52.9373 88.3821 53.1714C88.4709 53.4055 88.596 53.6074 88.7575 53.7769C88.927 53.9464 89.1289 54.0796 89.363 54.1765C89.6052 54.2653 89.8716 54.3097 90.1622 54.3097C90.582 54.3097 90.9453 54.2129 91.2521 54.0191C91.5589 53.8253 91.793 53.5589 91.9545 53.2198L92.669 53.7042C92.4833 54.1241 92.1725 54.4712 91.7365 54.7457C91.3086 55.0121 90.7839 55.1453 90.1622 55.1453ZM90.1017 49.4052C89.8353 49.4052 89.589 49.4537 89.363 49.5506C89.1369 49.6474 88.9391 49.7806 88.7696 49.9502C88.6081 50.1197 88.479 50.3216 88.3821 50.5557C88.2933 50.7817 88.2489 51.032 88.2489 51.3065V51.3913H91.8334V51.258C91.8334 50.9836 91.789 50.7333 91.7002 50.5072C91.6195 50.2812 91.5024 50.0874 91.349 49.926C91.2037 49.7564 91.022 49.6273 90.8041 49.5384C90.5942 49.4496 90.36 49.4052 90.1017 49.4052ZM97.4113 55.1453C96.9592 55.1453 96.5556 55.0686 96.2003 54.9152C95.8532 54.7538 95.5585 54.5318 95.3163 54.2492C95.0741 53.9666 94.8884 53.6235 94.7593 53.2198C94.6382 52.8162 94.5776 52.3681 94.5776 51.8757C94.5776 51.3832 94.6422 50.9351 94.7714 50.5315C94.9005 50.1278 95.0862 49.7847 95.3284 49.5021C95.5706 49.2115 95.8653 48.9895 96.2124 48.8361C96.5596 48.6827 96.9552 48.606 97.3992 48.606C98.0047 48.606 98.4972 48.7392 98.8766 49.0056C99.2561 49.272 99.5346 49.6192 99.7122 50.0471L98.9372 50.4588C98.8241 50.1359 98.6344 49.8856 98.368 49.708C98.1097 49.5304 97.7867 49.4416 97.3992 49.4416C97.1166 49.4416 96.8623 49.49 96.6363 49.5869C96.4183 49.6757 96.2326 49.8049 96.0792 49.9744C95.9258 50.1439 95.8088 50.3458 95.728 50.5799C95.6554 50.814 95.6191 51.0683 95.6191 51.3428V52.4085C95.6191 52.683 95.6554 52.9373 95.728 53.1714C95.8088 53.4055 95.9258 53.6074 96.0792 53.7769C96.2326 53.9464 96.4223 54.0796 96.6484 54.1765C96.8745 54.2653 97.1328 54.3097 97.4234 54.3097C97.8432 54.3097 98.1904 54.2129 98.4649 54.0191C98.7394 53.8253 98.9573 53.5589 99.1188 53.2198L99.8091 53.6921C99.6234 54.1119 99.3328 54.4591 98.9372 54.7336C98.5496 55.0081 98.041 55.1453 97.4113 55.1453ZM104.636 55C104.16 55 103.809 54.8668 103.583 54.6004C103.365 54.334 103.256 53.9908 103.256 53.571V49.5748H101.173V48.7513H102.723C102.933 48.7513 103.078 48.7109 103.159 48.6302C103.248 48.5414 103.292 48.392 103.292 48.1821V46.5473H104.224V48.7513H107.07V49.5748H104.224V54.1765H107.07V55H104.636Z" fill="#98A2B3"/>
<path d="M66.0051 94.1765H68.1122V89.5748H65.884V88.7513H68.1122V87.4677C68.1122 87.0478 68.2212 86.7047 68.4392 86.4383C68.6653 86.1719 69.0164 86.0387 69.4928 86.0387H71.5878V86.8622H69.081V88.7513H71.5878V89.5748H69.081V94.1765H71.3092V95H66.0051V94.1765ZM73.0726 94.1765H74.9011V89.5748H73.0726V88.7513H75.8699V90.3256H75.9305C76.0597 89.8331 76.3019 89.4496 76.6571 89.1752C77.0204 88.8926 77.4805 88.7513 78.0376 88.7513H78.9095V89.7201H77.7349C77.1778 89.7201 76.7257 89.8816 76.3786 90.2045C76.0395 90.5274 75.8699 90.9513 75.8699 91.476V94.1765H78.2919V95H73.0726V94.1765ZM82.9132 95.1453C82.4772 95.1453 82.0816 95.0686 81.7264 94.9152C81.3792 94.7618 81.0805 94.5439 80.8303 94.2613C80.5881 93.9707 80.4024 93.6275 80.2732 93.232C80.144 92.8283 80.0794 92.3762 80.0794 91.8757C80.0794 91.3832 80.144 90.9351 80.2732 90.5315C80.4024 90.1278 80.5881 89.7847 80.8303 89.5021C81.0805 89.2115 81.3792 88.9895 81.7264 88.8361C82.0816 88.6827 82.4772 88.606 82.9132 88.606C83.3491 88.606 83.7407 88.6827 84.0878 88.8361C84.443 88.9895 84.7417 89.2115 84.9839 89.5021C85.2342 89.7847 85.4239 90.1278 85.5531 90.5315C85.6823 90.9351 85.7469 91.3832 85.7469 91.8757C85.7469 92.3762 85.6823 92.8283 85.5531 93.232C85.4239 93.6275 85.2342 93.9707 84.9839 94.2613C84.7417 94.5439 84.443 94.7618 84.0878 94.9152C83.7407 95.0686 83.3491 95.1453 82.9132 95.1453ZM82.9132 94.3097C83.4541 94.3097 83.89 94.1483 84.221 93.8253C84.552 93.5024 84.7175 93.0019 84.7175 92.3237V91.4276C84.7175 90.7494 84.552 90.2489 84.221 89.926C83.89 89.603 83.4541 89.4416 82.9132 89.4416C82.3722 89.4416 81.9363 89.603 81.6053 89.926C81.2743 90.2489 81.1088 90.7494 81.1088 91.4276V92.3237C81.1088 93.0019 81.2743 93.5024 81.6053 93.8253C81.9363 94.1483 82.3722 94.3097 82.9132 94.3097ZM87.0742 95V88.7513H87.9703V89.4779H88.0188C88.1157 89.2357 88.2529 89.0298 88.4305 88.8603C88.6081 88.6908 88.8705 88.606 89.2177 88.606C89.581 88.606 89.8514 88.6988 90.029 88.8845C90.2066 89.0621 90.3156 89.2962 90.356 89.5869H90.3923C90.5053 89.3043 90.6668 89.0702 90.8767 88.8845C91.0866 88.6988 91.3773 88.606 91.7486 88.606C92.2572 88.606 92.5963 88.7836 92.7659 89.1388C92.9435 89.494 93.0323 90.0027 93.0323 90.6647V95H92.1361V90.8221C92.1361 90.2893 92.0796 89.9219 91.9666 89.7201C91.8617 89.5102 91.6639 89.4052 91.3732 89.4052C91.1149 89.4052 90.905 89.49 90.7435 89.6595C90.582 89.821 90.5013 90.0713 90.5013 90.4104V95H89.6052V90.8221C89.6052 90.2893 89.5487 89.9219 89.4356 89.7201C89.3307 89.5102 89.1369 89.4052 88.8544 89.4052C88.596 89.4052 88.3821 89.49 88.2125 89.6595C88.0511 89.821 87.9703 90.0713 87.9703 90.4104V95H87.0742Z" fill="#98A2B3"/>
<path d="M75.4044 74.1281L74.7141 73.6195L76.2157 71.5608L73.8059 70.7615L74.0602 69.9623L76.4701 70.7373V68.1216H77.3662V70.7373L79.776 69.9623L80.0304 70.7615L77.6205 71.5608L79.1221 73.6195L78.4319 74.1281L76.9181 72.0452L75.4044 74.1281Z" fill="#98A2B3"/>
<path d="M78.3955 113.983H78.3471C78.2825 114.136 78.2018 114.286 78.1049 114.431C78.008 114.568 77.8869 114.689 77.7416 114.794C77.6043 114.899 77.4388 114.984 77.2451 115.048C77.0513 115.113 76.8253 115.145 76.5669 115.145C75.913 115.145 75.3882 114.939 74.9926 114.528C74.5971 114.108 74.3993 113.519 74.3993 112.76V108.751H75.3681V112.59C75.3681 113.163 75.4932 113.591 75.7435 113.874C75.9937 114.148 76.3611 114.286 76.8455 114.286C77.0392 114.286 77.2289 114.261 77.4146 114.213C77.6003 114.164 77.7658 114.092 77.9111 113.995C78.0564 113.898 78.1735 113.777 78.2623 113.632C78.3511 113.478 78.3955 113.297 78.3955 113.087V108.751H79.3643V115H78.3955V113.983ZM84.1309 115.145C83.4769 115.145 82.9118 115.036 82.4355 114.818C81.9672 114.592 81.5676 114.294 81.2366 113.922L81.8905 113.353C82.1893 113.668 82.5162 113.91 82.8714 114.08C83.2267 114.249 83.6546 114.334 84.1551 114.334C84.6395 114.334 85.0351 114.249 85.3419 114.08C85.6567 113.902 85.8141 113.628 85.8141 113.256C85.8141 113.095 85.7819 112.962 85.7173 112.857C85.6608 112.744 85.58 112.655 85.4751 112.59C85.3701 112.526 85.2531 112.477 85.1239 112.445C84.9947 112.404 84.8575 112.372 84.7121 112.348L83.7312 112.203C83.5133 112.17 83.2751 112.126 83.0168 112.069C82.7665 112.013 82.5364 111.924 82.3265 111.803C82.1166 111.674 81.939 111.504 81.7937 111.294C81.6564 111.084 81.5878 110.81 81.5878 110.471C81.5878 110.156 81.6483 109.886 81.7694 109.66C81.8986 109.425 82.0762 109.232 82.3023 109.078C82.5283 108.917 82.7948 108.8 83.1015 108.727C83.4083 108.646 83.7434 108.606 84.1067 108.606C84.6718 108.606 85.1602 108.695 85.5719 108.872C85.9918 109.05 86.351 109.296 86.6497 109.611L86.02 110.204C85.9474 110.116 85.8545 110.027 85.7415 109.938C85.6365 109.841 85.5033 109.756 85.3419 109.684C85.1885 109.603 85.0068 109.538 84.7969 109.49C84.587 109.442 84.3448 109.417 84.0703 109.417C83.5779 109.417 83.1984 109.502 82.932 109.672C82.6737 109.841 82.5445 110.087 82.5445 110.41C82.5445 110.572 82.5727 110.709 82.6292 110.822C82.6938 110.927 82.7786 111.012 82.8836 111.076C82.9885 111.141 83.1056 111.193 83.2347 111.234C83.372 111.266 83.5092 111.294 83.6465 111.319L84.6274 111.464C84.8534 111.496 85.0916 111.541 85.3419 111.597C85.5921 111.654 85.8222 111.746 86.0321 111.876C86.242 111.997 86.4156 112.162 86.5528 112.372C86.6982 112.582 86.7708 112.857 86.7708 113.196C86.7708 113.817 86.5286 114.298 86.0442 114.637C85.5679 114.976 84.9301 115.145 84.1309 115.145ZM91.3073 115.145C90.8552 115.145 90.4475 115.069 90.0842 114.915C89.729 114.762 89.4222 114.544 89.1639 114.261C88.9136 113.971 88.7198 113.628 88.5826 113.232C88.4453 112.828 88.3767 112.38 88.3767 111.888C88.3767 111.387 88.4453 110.935 88.5826 110.531C88.7279 110.128 88.9257 109.785 89.176 109.502C89.4262 109.211 89.7249 108.989 90.0721 108.836C90.4273 108.683 90.8189 108.606 91.2467 108.606C91.6666 108.606 92.046 108.683 92.3851 108.836C92.7322 108.989 93.0269 109.203 93.2691 109.478C93.5113 109.744 93.697 110.063 93.8262 110.435C93.9553 110.806 94.0199 111.214 94.0199 111.658V112.118H89.3939V112.408C89.3939 112.683 89.4383 112.937 89.5271 113.171C89.616 113.406 89.7411 113.607 89.9026 113.777C90.0721 113.946 90.2739 114.08 90.508 114.177C90.7502 114.265 91.0167 114.31 91.3073 114.31C91.7271 114.31 92.0904 114.213 92.3972 114.019C92.704 113.825 92.9381 113.559 93.0996 113.22L93.814 113.704C93.6284 114.124 93.3175 114.471 92.8816 114.746C92.4537 115.012 91.9289 115.145 91.3073 115.145ZM91.2467 109.405C90.9803 109.405 90.7341 109.454 90.508 109.551C90.282 109.647 90.0842 109.781 89.9147 109.95C89.7532 110.12 89.624 110.322 89.5271 110.556C89.4383 110.782 89.3939 111.032 89.3939 111.306V111.391H92.9785V111.258C92.9785 110.984 92.9341 110.733 92.8453 110.507C92.7645 110.281 92.6475 110.087 92.4941 109.926C92.3487 109.756 92.1671 109.627 91.9491 109.538C91.7392 109.45 91.5051 109.405 91.2467 109.405ZM95.6379 114.177H97.4665V109.575H95.6379V108.751H98.4353V110.326H98.4958C98.625 109.833 98.8672 109.45 99.2224 109.175C99.5857 108.893 100.046 108.751 100.603 108.751H101.475V109.72H100.3C99.7431 109.72 99.291 109.882 98.9439 110.204C98.6048 110.527 98.4353 110.951 98.4353 111.476V114.177H100.857V115H95.6379V114.177ZM105.551 115.145C104.897 115.145 104.332 115.036 103.856 114.818C103.388 114.592 102.988 114.294 102.657 113.922L103.311 113.353C103.61 113.668 103.937 113.91 104.292 114.08C104.647 114.249 105.075 114.334 105.575 114.334C106.06 114.334 106.455 114.249 106.762 114.08C107.077 113.902 107.234 113.628 107.234 113.256C107.234 113.095 107.202 112.962 107.138 112.857C107.081 112.744 107 112.655 106.895 112.59C106.79 112.526 106.673 112.477 106.544 112.445C106.415 112.404 106.278 112.372 106.132 112.348L105.152 112.203C104.934 112.17 104.695 112.126 104.437 112.069C104.187 112.013 103.957 111.924 103.747 111.803C103.537 111.674 103.359 111.504 103.214 111.294C103.077 111.084 103.008 110.81 103.008 110.471C103.008 110.156 103.069 109.886 103.19 109.66C103.319 109.425 103.497 109.232 103.723 109.078C103.949 108.917 104.215 108.8 104.522 108.727C104.829 108.646 105.164 108.606 105.527 108.606C106.092 108.606 106.58 108.695 106.992 108.872C107.412 109.05 107.771 109.296 108.07 109.611L107.44 110.204C107.368 110.116 107.275 110.027 107.162 109.938C107.057 109.841 106.924 109.756 106.762 109.684C106.609 109.603 106.427 109.538 106.217 109.49C106.007 109.442 105.765 109.417 105.491 109.417C104.998 109.417 104.619 109.502 104.352 109.672C104.094 109.841 103.965 110.087 103.965 110.41C103.965 110.572 103.993 110.709 104.05 110.822C104.114 110.927 104.199 111.012 104.304 111.076C104.409 111.141 104.526 111.193 104.655 111.234C104.792 111.266 104.93 111.294 105.067 111.319L106.048 111.464C106.274 111.496 106.512 111.541 106.762 111.597C107.012 111.654 107.243 111.746 107.452 111.876C107.662 111.997 107.836 112.162 107.973 112.372C108.118 112.582 108.191 112.857 108.191 113.196C108.191 113.817 107.949 114.298 107.465 114.637C106.988 114.976 106.35 115.145 105.551 115.145ZM112.098 113.353H113.66L112.267 116.707H111.456L112.098 113.353ZM112.619 110.313C112.288 110.313 112.053 110.245 111.916 110.108C111.787 109.97 111.722 109.797 111.722 109.587V109.369C111.722 109.159 111.787 108.985 111.916 108.848C112.053 108.711 112.288 108.642 112.619 108.642C112.95 108.642 113.18 108.711 113.309 108.848C113.446 108.985 113.515 109.159 113.515 109.369V109.587C113.515 109.797 113.446 109.97 113.309 110.108C113.18 110.245 112.95 110.313 112.619 110.313Z" fill="#98A2B3"/>
<path d="M119.19 116.671V105.796H120.328V116.671H119.19Z" fill="#00249C"/>
</g>
</g>
<rect x="26" y="63" width="27" height="17" fill="#00249C"/>
<path d="M44.7636 75H40.6298V74.2371L42.6967 72.3743C42.9983 72.1022 43.2467 71.8243 43.4418 71.5404C43.637 71.2506 43.7346 70.9461 43.7346 70.6267V70.5203C43.7346 70.1477 43.637 69.8609 43.4418 69.6598C43.2467 69.4528 42.9569 69.3493 42.5725 69.3493C42.194 69.3493 41.9013 69.4469 41.6943 69.6421C41.4932 69.8313 41.3424 70.0856 41.2419 70.405L40.5766 70.1566C40.6357 69.9733 40.7156 69.7958 40.8161 69.6243C40.9226 69.4469 41.0556 69.2902 41.2153 69.1542C41.375 69.0182 41.5672 68.9088 41.7919 68.826C42.0225 68.7432 42.2886 68.7018 42.5903 68.7018C42.8978 68.7018 43.1698 68.7461 43.4064 68.8348C43.6488 68.9236 43.8499 69.0477 44.0096 69.2074C44.1752 69.3671 44.2993 69.5563 44.3821 69.7751C44.4708 69.994 44.5152 70.2335 44.5152 70.4937C44.5152 70.7302 44.4797 70.952 44.4088 71.159C44.3437 71.366 44.2491 71.5641 44.1249 71.7533C44.0066 71.9426 43.8617 72.1288 43.6902 72.3122C43.5246 72.4896 43.3384 72.667 43.1314 72.8444L41.4016 74.3524H44.7636V75Z" fill="white"/>
</g>
<defs>
<filter id="filter0_d_5709_15032" x="1" y="-2" width="303" height="215" filterUnits="userSpaceOnUse" color-interpolation-filters="sRGB">
<feFlood flood-opacity="0" result="BackgroundImageFix"/>
<feColorMatrix in="SourceAlpha" type="matrix" values="0 0 0 0 0 0 0 0 0 0 0 0 0 0 0 0 0 0 127 0" result="hardAlpha"/>
<feOffset/>
<feGaussianBlur stdDeviation="12"/>
<feComposite in2="hardAlpha" operator="out"/>
<feColorMatrix type="matrix" values="0 0 0 0 0 0 0 0 0 0 0 0 0 0 0 0 0 0 0.06 0"/>
<feBlend mode="normal" in2="BackgroundImageFix" result="effect1_dropShadow_5709_15032"/>
<feBlend mode="normal" in="SourceGraphic" in2="effect1_dropShadow_5709_15032" result="shape"/>
</filter>
<filter id="filter1_d_5709_15032" x="1" y="-4" width="303" height="215" filterUnits="userSpaceOnUse" color-interpolation-filters="sRGB">
<feFlood flood-opacity="0" result="BackgroundImageFix"/>
<feColorMatrix in="SourceAlpha" type="matrix" values="0 0 0 0 0 0 0 0 0 0 0 0 0 0 0 0 0 0 127 0" result="hardAlpha"/>
<feOffset dy="-2"/>
<feGaussianBlur stdDeviation="12"/>
<feComposite in2="hardAlpha" operator="out"/>
<feColorMatrix type="matrix" values="0 0 0 0 0 0 0 0 0 0 0 0 0 0 0 0 0 0 0.08 0"/>
<feBlend mode="normal" in2="BackgroundImageFix" result="effect1_dropShadow_5709_15032"/>
<feBlend mode="normal" in="SourceGraphic" in2="effect1_dropShadow_5709_15032" result="shape"/>
</filter>
<radialGradient id="paint0_radial_5709_15032" cx="0" cy="0" r="1" gradientUnits="userSpaceOnUse" gradientTransform="translate(152 79.5812) rotate(90) scale(80.4188 393.143)">
<stop offset="0.106626" stop-color="#D9D9D9"/>
<stop offset="1" stop-color="#D9D9D9" stop-opacity="0"/>
</radialGradient>
<clipPath id="clip0_5709_15032">
<rect width="304" height="160" fill="white"/>
</clipPath>
</defs>
</svg>
