<svg width="304" height="160" viewBox="0 0 304 160" fill="none" xmlns="http://www.w3.org/2000/svg">
<g clip-path="url(#clip0_5709_15119)">
<rect width="304" height="160" fill="white"/>
<mask id="mask0_5709_15119" style="mask-type:alpha" maskUnits="userSpaceOnUse" x="0" y="0" width="304" height="160">
<rect width="304" height="160" fill="url(#paint0_radial_5709_15119)"/>
</mask>
<g mask="url(#mask0_5709_15119)">
<g filter="url(#filter0_d_5709_15119)">
<rect x="35.5711" y="-27.4289" width="232.858" height="215.858" rx="13.1356" stroke="#EAECF0" stroke-width="1.14222"/>
<path d="M49.5997 36.7623C49.1137 36.7623 48.6937 36.6813 48.3397 36.5193C47.9917 36.3513 47.6947 36.1293 47.4487 35.8533L47.9347 35.4303C48.1567 35.6643 48.3997 35.8443 48.6637 35.9703C48.9277 36.0963 49.2457 36.1593 49.6177 36.1593C49.9777 36.1593 50.2717 36.0963 50.4997 35.9703C50.7337 35.8383 50.8507 35.6343 50.8507 35.3583C50.8507 35.2383 50.8267 35.1393 50.7787 35.0613C50.7367 34.9773 50.6767 34.9113 50.5987 34.8633C50.5207 34.8153 50.4337 34.7793 50.3377 34.7553C50.2417 34.7253 50.1397 34.7013 50.0317 34.6833L49.3027 34.5753C49.1407 34.5513 48.9637 34.5183 48.7717 34.4763C48.5857 34.4343 48.4147 34.3683 48.2587 34.2783C48.1027 34.1823 47.9707 34.0563 47.8627 33.9003C47.7607 33.7443 47.7097 33.5403 47.7097 33.2883C47.7097 33.0543 47.7547 32.8533 47.8447 32.6853C47.9407 32.5113 48.0727 32.3673 48.2407 32.2533C48.4087 32.1333 48.6067 32.0463 48.8347 31.9923C49.0627 31.9323 49.3117 31.9023 49.5817 31.9023C50.0017 31.9023 50.3647 31.9683 50.6707 32.1003C50.9827 32.2323 51.2497 32.4153 51.4717 32.6493L51.0037 33.0903C50.9497 33.0243 50.8807 32.9583 50.7967 32.8923C50.7187 32.8203 50.6197 32.7573 50.4997 32.7033C50.3857 32.6433 50.2507 32.5953 50.0947 32.5593C49.9387 32.5233 49.7587 32.5053 49.5547 32.5053C49.1887 32.5053 48.9067 32.5683 48.7087 32.6943C48.5167 32.8203 48.4207 33.0033 48.4207 33.2433C48.4207 33.3633 48.4417 33.4653 48.4837 33.5493C48.5317 33.6273 48.5947 33.6903 48.6727 33.7383C48.7507 33.7863 48.8377 33.8253 48.9337 33.8553C49.0357 33.8793 49.1377 33.9003 49.2397 33.9183L49.9687 34.0263C50.1367 34.0503 50.3137 34.0833 50.4997 34.1253C50.6857 34.1673 50.8567 34.2363 51.0127 34.3323C51.1687 34.4223 51.2977 34.5453 51.3997 34.7013C51.5077 34.8573 51.5617 35.0613 51.5617 35.3133C51.5617 35.7753 51.3817 36.1323 51.0217 36.3843C50.6677 36.6363 50.1937 36.7623 49.5997 36.7623ZM55.0142 36.7623C54.6782 36.7623 54.3782 36.7053 54.1142 36.5913C53.8562 36.4713 53.6372 36.3063 53.4572 36.0963C53.2772 35.8863 53.1392 35.6313 53.0432 35.3313C52.9532 35.0313 52.9082 34.6983 52.9082 34.3323C52.9082 33.9663 52.9562 33.6333 53.0522 33.3333C53.1482 33.0333 53.2862 32.7783 53.4662 32.5683C53.6462 32.3523 53.8652 32.1873 54.1232 32.0733C54.3812 31.9593 54.6752 31.9023 55.0052 31.9023C55.4552 31.9023 55.8212 32.0013 56.1032 32.1993C56.3852 32.3973 56.5922 32.6553 56.7242 32.9733L56.1482 33.2793C56.0642 33.0393 55.9232 32.8533 55.7252 32.7213C55.5332 32.5893 55.2932 32.5233 55.0052 32.5233C54.7952 32.5233 54.6062 32.5593 54.4382 32.6313C54.2762 32.6973 54.1382 32.7933 54.0242 32.9193C53.9102 33.0453 53.8232 33.1953 53.7632 33.3693C53.7092 33.5433 53.6822 33.7323 53.6822 33.9363V34.7283C53.6822 34.9323 53.7092 35.1213 53.7632 35.2953C53.8232 35.4693 53.9102 35.6193 54.0242 35.7453C54.1382 35.8713 54.2792 35.9703 54.4472 36.0423C54.6152 36.1083 54.8072 36.1413 55.0232 36.1413C55.3352 36.1413 55.5932 36.0693 55.7972 35.9253C56.0012 35.7813 56.1632 35.5833 56.2832 35.3313L56.7962 35.6823C56.6582 35.9943 56.4422 36.2523 56.1482 36.4563C55.8602 36.6603 55.4822 36.7623 55.0142 36.7623ZM58.3407 29.9943H59.0607V32.7663H59.0967C59.1447 32.6523 59.2047 32.5443 59.2767 32.4423C59.3487 32.3343 59.4357 32.2413 59.5377 32.1633C59.6457 32.0853 59.7717 32.0223 59.9157 31.9743C60.0597 31.9263 60.2277 31.9023 60.4197 31.9023C60.9057 31.9023 61.2957 32.0583 61.5897 32.3703C61.8837 32.6763 62.0307 33.1113 62.0307 33.6753V36.6543H61.3107V33.8013C61.3107 33.3753 61.2177 33.0603 61.0317 32.8563C60.8457 32.6463 60.5727 32.5413 60.2127 32.5413C60.0687 32.5413 59.9277 32.5593 59.7897 32.5953C59.6517 32.6313 59.5287 32.6853 59.4207 32.7573C59.3127 32.8293 59.2257 32.9223 59.1597 33.0363C59.0937 33.1503 59.0607 33.2823 59.0607 33.4323V36.6543H58.3407V29.9943ZM65.5462 36.7623C65.2102 36.7623 64.9072 36.7053 64.6372 36.5913C64.3732 36.4773 64.1452 36.3153 63.9532 36.1053C63.7672 35.8893 63.6232 35.6343 63.5212 35.3403C63.4192 35.0403 63.3682 34.7073 63.3682 34.3413C63.3682 33.9693 63.4192 33.6333 63.5212 33.3333C63.6292 33.0333 63.7762 32.7783 63.9622 32.5683C64.1482 32.3523 64.3702 32.1873 64.6282 32.0733C64.8922 31.9593 65.1832 31.9023 65.5012 31.9023C65.8132 31.9023 66.0952 31.9593 66.3472 32.0733C66.6052 32.1873 66.8242 32.3463 67.0042 32.5503C67.1842 32.7483 67.3222 32.9853 67.4182 33.2613C67.5142 33.5373 67.5622 33.8403 67.5622 34.1703V34.5123H64.1242V34.7283C64.1242 34.9323 64.1572 35.1213 64.2232 35.2953C64.2892 35.4693 64.3822 35.6193 64.5022 35.7453C64.6282 35.8713 64.7782 35.9703 64.9522 36.0423C65.1322 36.1083 65.3302 36.1413 65.5462 36.1413C65.8582 36.1413 66.1282 36.0693 66.3562 35.9253C66.5842 35.7813 66.7582 35.5833 66.8782 35.3313L67.4092 35.6913C67.2712 36.0033 67.0402 36.2613 66.7162 36.4653C66.3982 36.6633 66.0082 36.7623 65.5462 36.7623ZM65.5012 32.4963C65.3032 32.4963 65.1202 32.5323 64.9522 32.6043C64.7842 32.6763 64.6372 32.7753 64.5112 32.9013C64.3912 33.0273 64.2952 33.1773 64.2232 33.3513C64.1572 33.5193 64.1242 33.7053 64.1242 33.9093V33.9723H66.7882V33.8733C66.7882 33.6693 66.7552 33.4833 66.6892 33.3153C66.6292 33.1473 66.5422 33.0033 66.4282 32.8833C66.3202 32.7573 66.1852 32.6613 66.0232 32.5953C65.8672 32.5293 65.6932 32.4963 65.5012 32.4963ZM68.5576 36.6543V32.0103H69.2236V32.5503H69.2596C69.3316 32.3703 69.4336 32.2173 69.5656 32.0913C69.6976 31.9653 69.8926 31.9023 70.1506 31.9023C70.4206 31.9023 70.6216 31.9713 70.7536 32.1093C70.8856 32.2413 70.9666 32.4153 70.9966 32.6313H71.0236C71.1076 32.4213 71.2276 32.2473 71.3836 32.1093C71.5396 31.9713 71.7556 31.9023 72.0316 31.9023C72.4096 31.9023 72.6616 32.0343 72.7876 32.2983C72.9196 32.5623 72.9856 32.9403 72.9856 33.4323V36.6543H72.3196V33.5493C72.3196 33.1533 72.2776 32.8803 72.1936 32.7303C72.1156 32.5743 71.9686 32.4963 71.7526 32.4963C71.5606 32.4963 71.4046 32.5593 71.2846 32.6853C71.1646 32.8053 71.1046 32.9913 71.1046 33.2433V36.6543H70.4386V33.5493C70.4386 33.1533 70.3966 32.8803 70.3126 32.7303C70.2346 32.5743 70.0906 32.4963 69.8806 32.4963C69.6886 32.4963 69.5296 32.5593 69.4036 32.6853C69.2836 32.8053 69.2236 32.9913 69.2236 33.2433V36.6543H68.5576ZM77.8331 36.6543C77.5511 36.6543 77.3501 36.5823 77.2301 36.4383C77.1101 36.2943 77.0351 36.1143 77.0051 35.8983H76.9601C76.8581 36.1683 76.6931 36.3813 76.4651 36.5373C76.2431 36.6873 75.9431 36.7623 75.5651 36.7623C75.0791 36.7623 74.6921 36.6363 74.4041 36.3843C74.1161 36.1323 73.9721 35.7873 73.9721 35.3493C73.9721 34.9173 74.1281 34.5843 74.4401 34.3503C74.7581 34.1163 75.2681 33.9993 75.9701 33.9993H76.9601V33.5403C76.9601 33.1983 76.8641 32.9433 76.6721 32.7753C76.4801 32.6013 76.2071 32.5143 75.8531 32.5143C75.5411 32.5143 75.2861 32.5773 75.0881 32.7033C74.8901 32.8233 74.7311 32.9883 74.6111 33.1983L74.1251 32.8383C74.1851 32.7183 74.2661 32.6013 74.3681 32.4873C74.4701 32.3733 74.5961 32.2743 74.7461 32.1903C74.8961 32.1003 75.0671 32.0313 75.2591 31.9833C75.4511 31.9293 75.6641 31.9023 75.8981 31.9023C76.4441 31.9023 76.8761 32.0403 77.1941 32.3163C77.5181 32.5923 77.6801 32.9763 77.6801 33.4683V36.0243H78.3281V36.6543H77.8331ZM75.6911 36.1593C75.8771 36.1593 76.0451 36.1383 76.1951 36.0963C76.3511 36.0483 76.4861 35.9883 76.6001 35.9163C76.7141 35.8383 76.8011 35.7483 76.8611 35.6463C76.9271 35.5383 76.9601 35.4243 76.9601 35.3043V34.5393H75.9701C75.5381 34.5393 75.2231 34.5993 75.0251 34.7193C74.8271 34.8393 74.7281 35.0133 74.7281 35.2413V35.4303C74.7281 35.6703 74.8121 35.8533 74.9801 35.9793C75.1541 36.0993 75.3911 36.1593 75.6911 36.1593ZM81.3846 36.7353C81.1386 36.7353 80.9646 36.6843 80.8626 36.5823C80.7666 36.4803 80.7186 36.3513 80.7186 36.1953V36.0333C80.7186 35.8773 80.7666 35.7483 80.8626 35.6463C80.9646 35.5443 81.1386 35.4933 81.3846 35.4933C81.6306 35.4933 81.8016 35.5443 81.8976 35.6463C81.9996 35.7483 82.0506 35.8773 82.0506 36.0333V36.1953C82.0506 36.3513 81.9996 36.4803 81.8976 36.5823C81.8016 36.6843 81.6306 36.7353 81.3846 36.7353ZM86.9161 36.6543C86.5621 36.6543 86.3011 36.5553 86.1331 36.3573C85.9711 36.1593 85.8901 35.9043 85.8901 35.5923V32.6223H84.3421V32.0103H85.4941C85.6501 32.0103 85.7581 31.9803 85.8181 31.9203C85.8841 31.8543 85.9171 31.7433 85.9171 31.5873V30.3723H86.6101V32.0103H88.7251V32.6223H86.6101V36.0423H88.7251V36.6543H86.9161ZM93.7526 36.6543C93.4706 36.6543 93.2696 36.5823 93.1496 36.4383C93.0296 36.2943 92.9546 36.1143 92.9246 35.8983H92.8796C92.7776 36.1683 92.6126 36.3813 92.3846 36.5373C92.1626 36.6873 91.8626 36.7623 91.4846 36.7623C90.9986 36.7623 90.6116 36.6363 90.3236 36.3843C90.0356 36.1323 89.8916 35.7873 89.8916 35.3493C89.8916 34.9173 90.0476 34.5843 90.3596 34.3503C90.6776 34.1163 91.1876 33.9993 91.8896 33.9993H92.8796V33.5403C92.8796 33.1983 92.7836 32.9433 92.5916 32.7753C92.3996 32.6013 92.1266 32.5143 91.7726 32.5143C91.4606 32.5143 91.2056 32.5773 91.0076 32.7033C90.8096 32.8233 90.6506 32.9883 90.5306 33.1983L90.0446 32.8383C90.1046 32.7183 90.1856 32.6013 90.2876 32.4873C90.3896 32.3733 90.5156 32.2743 90.6656 32.1903C90.8156 32.1003 90.9866 32.0313 91.1786 31.9833C91.3706 31.9293 91.5836 31.9023 91.8176 31.9023C92.3636 31.9023 92.7956 32.0403 93.1136 32.3163C93.4376 32.5923 93.5996 32.9763 93.5996 33.4683V36.0243H94.2476V36.6543H93.7526ZM91.6106 36.1593C91.7966 36.1593 91.9646 36.1383 92.1146 36.0963C92.2706 36.0483 92.4056 35.9883 92.5196 35.9163C92.6336 35.8383 92.7206 35.7483 92.7806 35.6463C92.8466 35.5383 92.8796 35.4243 92.8796 35.3043V34.5393H91.8896C91.4576 34.5393 91.1426 34.5993 90.9446 34.7193C90.7466 34.8393 90.6476 35.0133 90.6476 35.2413V35.4303C90.6476 35.6703 90.7316 35.8533 90.8996 35.9793C91.0736 36.0993 91.3106 36.1593 91.6106 36.1593ZM95.4591 29.9943H96.1791V32.7663H96.2151C96.5151 32.1903 96.9921 31.9023 97.6461 31.9023C98.2161 31.9023 98.6601 32.1153 98.9781 32.5413C99.3021 32.9673 99.4641 33.5643 99.4641 34.3323C99.4641 35.1003 99.3021 35.6973 98.9781 36.1233C98.6601 36.5493 98.2161 36.7623 97.6461 36.7623C96.9921 36.7623 96.5151 36.4743 96.2151 35.8983H96.1791V36.6543H95.4591V29.9943ZM97.3671 36.1233C97.7871 36.1233 98.1111 35.9973 98.3391 35.7453C98.5731 35.4873 98.6901 35.1483 98.6901 34.7283V33.9363C98.6901 33.5163 98.5731 33.1803 98.3391 32.9283C98.1111 32.6703 97.7871 32.5413 97.3671 32.5413C97.2051 32.5413 97.0521 32.5623 96.9081 32.6043C96.7641 32.6463 96.6381 32.7093 96.5301 32.7933C96.4221 32.8713 96.3351 32.9703 96.2691 33.0903C96.2091 33.2043 96.1791 33.3393 96.1791 33.4953V35.1693C96.1791 35.3253 96.2091 35.4633 96.2691 35.5833C96.3351 35.6973 96.4221 35.7963 96.5301 35.8803C96.6381 35.9583 96.7641 36.0183 96.9081 36.0603C97.0521 36.1023 97.2051 36.1233 97.3671 36.1233ZM100.631 36.0423H102.251V30.6063H100.631V29.9943H102.971V36.0423H104.591V36.6543H100.631V36.0423ZM107.998 36.7623C107.662 36.7623 107.359 36.7053 107.089 36.5913C106.825 36.4773 106.597 36.3153 106.405 36.1053C106.219 35.8893 106.075 35.6343 105.973 35.3403C105.871 35.0403 105.82 34.7073 105.82 34.3413C105.82 33.9693 105.871 33.6333 105.973 33.3333C106.081 33.0333 106.228 32.7783 106.414 32.5683C106.6 32.3523 106.822 32.1873 107.08 32.0733C107.344 31.9593 107.635 31.9023 107.953 31.9023C108.265 31.9023 108.547 31.9593 108.799 32.0733C109.057 32.1873 109.276 32.3463 109.456 32.5503C109.636 32.7483 109.774 32.9853 109.87 33.2613C109.966 33.5373 110.014 33.8403 110.014 34.1703V34.5123H106.576V34.7283C106.576 34.9323 106.609 35.1213 106.675 35.2953C106.741 35.4693 106.834 35.6193 106.954 35.7453C107.08 35.8713 107.23 35.9703 107.404 36.0423C107.584 36.1083 107.782 36.1413 107.998 36.1413C108.31 36.1413 108.58 36.0693 108.808 35.9253C109.036 35.7813 109.21 35.5833 109.33 35.3313L109.861 35.6913C109.723 36.0033 109.492 36.2613 109.168 36.4653C108.85 36.6633 108.46 36.7623 107.998 36.7623ZM107.953 32.4963C107.755 32.4963 107.572 32.5323 107.404 32.6043C107.236 32.6763 107.089 32.7753 106.963 32.9013C106.843 33.0273 106.747 33.1773 106.675 33.3513C106.609 33.5193 106.576 33.7053 106.576 33.9093V33.9723H109.24V33.8733C109.24 33.6693 109.207 33.4833 109.141 33.3153C109.081 33.1473 108.994 33.0033 108.88 32.8833C108.772 32.7573 108.637 32.6613 108.475 32.5953C108.319 32.5293 108.145 32.4963 107.953 32.4963ZM113.224 36.7353C112.978 36.7353 112.804 36.6843 112.702 36.5823C112.606 36.4803 112.558 36.3513 112.558 36.1953V36.0333C112.558 35.8773 112.606 35.7483 112.702 35.6463C112.804 35.5443 112.978 35.4933 113.224 35.4933C113.47 35.4933 113.641 35.5443 113.737 35.6463C113.839 35.7483 113.89 35.8773 113.89 36.0333V36.1953C113.89 36.3513 113.839 36.4803 113.737 36.5823C113.641 36.6843 113.47 36.7353 113.224 36.7353ZM116.712 36.6543V32.0103H117.432V32.7663H117.468C117.516 32.6523 117.576 32.5443 117.648 32.4423C117.72 32.3343 117.807 32.2413 117.909 32.1633C118.017 32.0853 118.143 32.0223 118.287 31.9743C118.431 31.9263 118.599 31.9023 118.791 31.9023C119.277 31.9023 119.667 32.0583 119.961 32.3703C120.255 32.6763 120.402 33.1113 120.402 33.6753V36.6543H119.682V33.8013C119.682 33.3753 119.589 33.0603 119.403 32.8563C119.217 32.6463 118.944 32.5413 118.584 32.5413C118.44 32.5413 118.299 32.5593 118.161 32.5953C118.023 32.6313 117.9 32.6853 117.792 32.7573C117.684 32.8293 117.597 32.9223 117.531 33.0363C117.465 33.1503 117.432 33.2823 117.432 33.4323V36.6543H116.712ZM125.591 36.6543C125.309 36.6543 125.108 36.5823 124.988 36.4383C124.868 36.2943 124.793 36.1143 124.763 35.8983H124.718C124.616 36.1683 124.451 36.3813 124.223 36.5373C124.001 36.6873 123.701 36.7623 123.323 36.7623C122.837 36.7623 122.45 36.6363 122.162 36.3843C121.874 36.1323 121.73 35.7873 121.73 35.3493C121.73 34.9173 121.886 34.5843 122.198 34.3503C122.516 34.1163 123.026 33.9993 123.728 33.9993H124.718V33.5403C124.718 33.1983 124.622 32.9433 124.43 32.7753C124.238 32.6013 123.965 32.5143 123.611 32.5143C123.299 32.5143 123.044 32.5773 122.846 32.7033C122.648 32.8233 122.489 32.9883 122.369 33.1983L121.883 32.8383C121.943 32.7183 122.024 32.6013 122.126 32.4873C122.228 32.3733 122.354 32.2743 122.504 32.1903C122.654 32.1003 122.825 32.0313 123.017 31.9833C123.209 31.9293 123.422 31.9023 123.656 31.9023C124.202 31.9023 124.634 32.0403 124.952 32.3163C125.276 32.5923 125.438 32.9763 125.438 33.4683V36.0243H126.086V36.6543H125.591ZM123.449 36.1593C123.635 36.1593 123.803 36.1383 123.953 36.0963C124.109 36.0483 124.244 35.9883 124.358 35.9163C124.472 35.8383 124.559 35.7483 124.619 35.6463C124.685 35.5383 124.718 35.4243 124.718 35.3043V34.5393H123.728C123.296 34.5393 122.981 34.5993 122.783 34.7193C122.585 34.8393 122.486 35.0133 122.486 35.2413V35.4303C122.486 35.6703 122.57 35.8533 122.738 35.9793C122.912 36.0993 123.149 36.1593 123.449 36.1593ZM126.929 36.6543V32.0103H127.595V32.5503H127.631C127.703 32.3703 127.805 32.2173 127.937 32.0913C128.069 31.9653 128.264 31.9023 128.522 31.9023C128.792 31.9023 128.993 31.9713 129.125 32.1093C129.257 32.2413 129.338 32.4153 129.368 32.6313H129.395C129.479 32.4213 129.599 32.2473 129.755 32.1093C129.911 31.9713 130.127 31.9023 130.403 31.9023C130.781 31.9023 131.033 32.0343 131.159 32.2983C131.291 32.5623 131.357 32.9403 131.357 33.4323V36.6543H130.691V33.5493C130.691 33.1533 130.649 32.8803 130.565 32.7303C130.487 32.5743 130.34 32.4963 130.124 32.4963C129.932 32.4963 129.776 32.5593 129.656 32.6853C129.536 32.8053 129.476 32.9913 129.476 33.2433V36.6543H128.81V33.5493C128.81 33.1533 128.768 32.8803 128.684 32.7303C128.606 32.5743 128.462 32.4963 128.252 32.4963C128.06 32.4963 127.901 32.5593 127.775 32.6853C127.655 32.8053 127.595 32.9913 127.595 33.2433V36.6543H126.929ZM134.53 36.7623C134.194 36.7623 133.891 36.7053 133.621 36.5913C133.357 36.4773 133.129 36.3153 132.937 36.1053C132.751 35.8893 132.607 35.6343 132.505 35.3403C132.403 35.0403 132.352 34.7073 132.352 34.3413C132.352 33.9693 132.403 33.6333 132.505 33.3333C132.613 33.0333 132.76 32.7783 132.946 32.5683C133.132 32.3523 133.354 32.1873 133.612 32.0733C133.876 31.9593 134.167 31.9023 134.485 31.9023C134.797 31.9023 135.079 31.9593 135.331 32.0733C135.589 32.1873 135.808 32.3463 135.988 32.5503C136.168 32.7483 136.306 32.9853 136.402 33.2613C136.498 33.5373 136.546 33.8403 136.546 34.1703V34.5123H133.108V34.7283C133.108 34.9323 133.141 35.1213 133.207 35.2953C133.273 35.4693 133.366 35.6193 133.486 35.7453C133.612 35.8713 133.762 35.9703 133.936 36.0423C134.116 36.1083 134.314 36.1413 134.53 36.1413C134.842 36.1413 135.112 36.0693 135.34 35.9253C135.568 35.7813 135.742 35.5833 135.862 35.3313L136.393 35.6913C136.255 36.0033 136.024 36.2613 135.7 36.4653C135.382 36.6633 134.992 36.7623 134.53 36.7623ZM134.485 32.4963C134.287 32.4963 134.104 32.5323 133.936 32.6043C133.768 32.6763 133.621 32.7753 133.495 32.9013C133.375 33.0273 133.279 33.1773 133.207 33.3513C133.141 33.5193 133.108 33.7053 133.108 33.9093V33.9723H135.772V33.8733C135.772 33.6693 135.739 33.4833 135.673 33.3153C135.613 33.1473 135.526 33.0033 135.412 32.8833C135.304 32.7573 135.169 32.6613 135.007 32.5953C134.851 32.5293 134.677 32.4963 134.485 32.4963ZM139.756 36.7353C139.51 36.7353 139.336 36.6843 139.234 36.5823C139.138 36.4803 139.09 36.3513 139.09 36.1953V36.0333C139.09 35.8773 139.138 35.7483 139.234 35.6463C139.336 35.5443 139.51 35.4933 139.756 35.4933C140.002 35.4933 140.173 35.5443 140.269 35.6463C140.371 35.7483 140.422 35.8773 140.422 36.0333V36.1953C140.422 36.3513 140.371 36.4803 140.269 36.5823C140.173 36.6843 140.002 36.7353 139.756 36.7353ZM143.127 36.6543V35.9973H144.927V30.9303H144.864L143.28 32.4063L142.839 31.9293L144.504 30.3723H145.683V35.9973H147.339V36.6543H143.127Z" fill="#667085"/>
<rect x="162" y="28.6699" width="42.3776" height="10.9362" rx="5.46808" fill="#EAECF0"/>
<rect x="214.189" y="28.6699" width="42.3776" height="10.9362" rx="5.46808" fill="#EAECF0"/>
<rect opacity="0.5" x="48.7803" y="62.1113" width="92.9574" height="10.9362" rx="5.46808" fill="#D8C3FA"/>
<rect opacity="0.5" x="156.775" y="62.1113" width="39.6436" height="10.9362" rx="5.46808" fill="#D8C3FA"/>
<rect opacity="0.5" x="214.189" y="62.1113" width="39.6436" height="10.9362" rx="5.46808" fill="#D8C3FA"/>
<rect opacity="0.8" x="164" y="97.5547" width="39.6436" height="10.9362" rx="5.46808" fill="#EAECF0"/>
<rect opacity="0.7" x="164" y="131.527" width="39.6436" height="10.9362" rx="5.46808" fill="#D0D5DD"/>
<rect opacity="0.8" x="214.189" y="97.5537" width="43.7447" height="10.9362" rx="5.46808" fill="#EAECF0"/>
<rect opacity="0.7" x="214.189" y="131.526" width="43.7447" height="10.9362" rx="5.46808" fill="#D0D5DD"/>
<path d="M49.5997 105.762C49.1137 105.762 48.6937 105.681 48.3397 105.519C47.9917 105.351 47.6947 105.129 47.4487 104.853L47.9347 104.43C48.1567 104.664 48.3997 104.844 48.6637 104.97C48.9277 105.096 49.2457 105.159 49.6177 105.159C49.9777 105.159 50.2717 105.096 50.4997 104.97C50.7337 104.838 50.8507 104.634 50.8507 104.358C50.8507 104.238 50.8267 104.139 50.7787 104.061C50.7367 103.977 50.6767 103.911 50.5987 103.863C50.5207 103.815 50.4337 103.779 50.3377 103.755C50.2417 103.725 50.1397 103.701 50.0317 103.683L49.3027 103.575C49.1407 103.551 48.9637 103.518 48.7717 103.476C48.5857 103.434 48.4147 103.368 48.2587 103.278C48.1027 103.182 47.9707 103.056 47.8627 102.9C47.7607 102.744 47.7097 102.54 47.7097 102.288C47.7097 102.054 47.7547 101.853 47.8447 101.685C47.9407 101.511 48.0727 101.367 48.2407 101.253C48.4087 101.133 48.6067 101.046 48.8347 100.992C49.0627 100.932 49.3117 100.902 49.5817 100.902C50.0017 100.902 50.3647 100.968 50.6707 101.1C50.9827 101.232 51.2497 101.415 51.4717 101.649L51.0037 102.09C50.9497 102.024 50.8807 101.958 50.7967 101.892C50.7187 101.82 50.6197 101.757 50.4997 101.703C50.3857 101.643 50.2507 101.595 50.0947 101.559C49.9387 101.523 49.7587 101.505 49.5547 101.505C49.1887 101.505 48.9067 101.568 48.7087 101.694C48.5167 101.82 48.4207 102.003 48.4207 102.243C48.4207 102.363 48.4417 102.465 48.4837 102.549C48.5317 102.627 48.5947 102.69 48.6727 102.738C48.7507 102.786 48.8377 102.825 48.9337 102.855C49.0357 102.879 49.1377 102.9 49.2397 102.918L49.9687 103.026C50.1367 103.05 50.3137 103.083 50.4997 103.125C50.6857 103.167 50.8567 103.236 51.0127 103.332C51.1687 103.422 51.2977 103.545 51.3997 103.701C51.5077 103.857 51.5617 104.061 51.5617 104.313C51.5617 104.775 51.3817 105.132 51.0217 105.384C50.6677 105.636 50.1937 105.762 49.5997 105.762ZM55.0142 105.762C54.6782 105.762 54.3782 105.705 54.1142 105.591C53.8562 105.471 53.6372 105.306 53.4572 105.096C53.2772 104.886 53.1392 104.631 53.0432 104.331C52.9532 104.031 52.9082 103.698 52.9082 103.332C52.9082 102.966 52.9562 102.633 53.0522 102.333C53.1482 102.033 53.2862 101.778 53.4662 101.568C53.6462 101.352 53.8652 101.187 54.1232 101.073C54.3812 100.959 54.6752 100.902 55.0052 100.902C55.4552 100.902 55.8212 101.001 56.1032 101.199C56.3852 101.397 56.5922 101.655 56.7242 101.973L56.1482 102.279C56.0642 102.039 55.9232 101.853 55.7252 101.721C55.5332 101.589 55.2932 101.523 55.0052 101.523C54.7952 101.523 54.6062 101.559 54.4382 101.631C54.2762 101.697 54.1382 101.793 54.0242 101.919C53.9102 102.045 53.8232 102.195 53.7632 102.369C53.7092 102.543 53.6822 102.732 53.6822 102.936V103.728C53.6822 103.932 53.7092 104.121 53.7632 104.295C53.8232 104.469 53.9102 104.619 54.0242 104.745C54.1382 104.871 54.2792 104.97 54.4472 105.042C54.6152 105.108 54.8072 105.141 55.0232 105.141C55.3352 105.141 55.5932 105.069 55.7972 104.925C56.0012 104.781 56.1632 104.583 56.2832 104.331L56.7962 104.682C56.6582 104.994 56.4422 105.252 56.1482 105.456C55.8602 105.66 55.4822 105.762 55.0142 105.762ZM58.3407 98.9943H59.0607V101.766H59.0967C59.1447 101.652 59.2047 101.544 59.2767 101.442C59.3487 101.334 59.4357 101.241 59.5377 101.163C59.6457 101.085 59.7717 101.022 59.9157 100.974C60.0597 100.926 60.2277 100.902 60.4197 100.902C60.9057 100.902 61.2957 101.058 61.5897 101.37C61.8837 101.676 62.0307 102.111 62.0307 102.675V105.654H61.3107V102.801C61.3107 102.375 61.2177 102.06 61.0317 101.856C60.8457 101.646 60.5727 101.541 60.2127 101.541C60.0687 101.541 59.9277 101.559 59.7897 101.595C59.6517 101.631 59.5287 101.685 59.4207 101.757C59.3127 101.829 59.2257 101.922 59.1597 102.036C59.0937 102.15 59.0607 102.282 59.0607 102.432V105.654H58.3407V98.9943ZM65.5462 105.762C65.2102 105.762 64.9072 105.705 64.6372 105.591C64.3732 105.477 64.1452 105.315 63.9532 105.105C63.7672 104.889 63.6232 104.634 63.5212 104.34C63.4192 104.04 63.3682 103.707 63.3682 103.341C63.3682 102.969 63.4192 102.633 63.5212 102.333C63.6292 102.033 63.7762 101.778 63.9622 101.568C64.1482 101.352 64.3702 101.187 64.6282 101.073C64.8922 100.959 65.1832 100.902 65.5012 100.902C65.8132 100.902 66.0952 100.959 66.3472 101.073C66.6052 101.187 66.8242 101.346 67.0042 101.55C67.1842 101.748 67.3222 101.985 67.4182 102.261C67.5142 102.537 67.5622 102.84 67.5622 103.17V103.512H64.1242V103.728C64.1242 103.932 64.1572 104.121 64.2232 104.295C64.2892 104.469 64.3822 104.619 64.5022 104.745C64.6282 104.871 64.7782 104.97 64.9522 105.042C65.1322 105.108 65.3302 105.141 65.5462 105.141C65.8582 105.141 66.1282 105.069 66.3562 104.925C66.5842 104.781 66.7582 104.583 66.8782 104.331L67.4092 104.691C67.2712 105.003 67.0402 105.261 66.7162 105.465C66.3982 105.663 66.0082 105.762 65.5462 105.762ZM65.5012 101.496C65.3032 101.496 65.1202 101.532 64.9522 101.604C64.7842 101.676 64.6372 101.775 64.5112 101.901C64.3912 102.027 64.2952 102.177 64.2232 102.351C64.1572 102.519 64.1242 102.705 64.1242 102.909V102.972H66.7882V102.873C66.7882 102.669 66.7552 102.483 66.6892 102.315C66.6292 102.147 66.5422 102.003 66.4282 101.883C66.3202 101.757 66.1852 101.661 66.0232 101.595C65.8672 101.529 65.6932 101.496 65.5012 101.496ZM68.5576 105.654V101.01H69.2236V101.55H69.2596C69.3316 101.37 69.4336 101.217 69.5656 101.091C69.6976 100.965 69.8926 100.902 70.1506 100.902C70.4206 100.902 70.6216 100.971 70.7536 101.109C70.8856 101.241 70.9666 101.415 70.9966 101.631H71.0236C71.1076 101.421 71.2276 101.247 71.3836 101.109C71.5396 100.971 71.7556 100.902 72.0316 100.902C72.4096 100.902 72.6616 101.034 72.7876 101.298C72.9196 101.562 72.9856 101.94 72.9856 102.432V105.654H72.3196V102.549C72.3196 102.153 72.2776 101.88 72.1936 101.73C72.1156 101.574 71.9686 101.496 71.7526 101.496C71.5606 101.496 71.4046 101.559 71.2846 101.685C71.1646 101.805 71.1046 101.991 71.1046 102.243V105.654H70.4386V102.549C70.4386 102.153 70.3966 101.88 70.3126 101.73C70.2346 101.574 70.0906 101.496 69.8806 101.496C69.6886 101.496 69.5296 101.559 69.4036 101.685C69.2836 101.805 69.2236 101.991 69.2236 102.243V105.654H68.5576ZM77.8331 105.654C77.5511 105.654 77.3501 105.582 77.2301 105.438C77.1101 105.294 77.0351 105.114 77.0051 104.898H76.9601C76.8581 105.168 76.6931 105.381 76.4651 105.537C76.2431 105.687 75.9431 105.762 75.5651 105.762C75.0791 105.762 74.6921 105.636 74.4041 105.384C74.1161 105.132 73.9721 104.787 73.9721 104.349C73.9721 103.917 74.1281 103.584 74.4401 103.35C74.7581 103.116 75.2681 102.999 75.9701 102.999H76.9601V102.54C76.9601 102.198 76.8641 101.943 76.6721 101.775C76.4801 101.601 76.2071 101.514 75.8531 101.514C75.5411 101.514 75.2861 101.577 75.0881 101.703C74.8901 101.823 74.7311 101.988 74.6111 102.198L74.1251 101.838C74.1851 101.718 74.2661 101.601 74.3681 101.487C74.4701 101.373 74.5961 101.274 74.7461 101.19C74.8961 101.1 75.0671 101.031 75.2591 100.983C75.4511 100.929 75.6641 100.902 75.8981 100.902C76.4441 100.902 76.8761 101.04 77.1941 101.316C77.5181 101.592 77.6801 101.976 77.6801 102.468V105.024H78.3281V105.654H77.8331ZM75.6911 105.159C75.8771 105.159 76.0451 105.138 76.1951 105.096C76.3511 105.048 76.4861 104.988 76.6001 104.916C76.7141 104.838 76.8011 104.748 76.8611 104.646C76.9271 104.538 76.9601 104.424 76.9601 104.304V103.539H75.9701C75.5381 103.539 75.2231 103.599 75.0251 103.719C74.8271 103.839 74.7281 104.013 74.7281 104.241V104.43C74.7281 104.67 74.8121 104.853 74.9801 104.979C75.1541 105.099 75.3911 105.159 75.6911 105.159ZM81.3846 105.735C81.1386 105.735 80.9646 105.684 80.8626 105.582C80.7666 105.48 80.7186 105.351 80.7186 105.195V105.033C80.7186 104.877 80.7666 104.748 80.8626 104.646C80.9646 104.544 81.1386 104.493 81.3846 104.493C81.6306 104.493 81.8016 104.544 81.8976 104.646C81.9996 104.748 82.0506 104.877 82.0506 105.033V105.195C82.0506 105.351 81.9996 105.48 81.8976 105.582C81.8016 105.684 81.6306 105.735 81.3846 105.735ZM86.9161 105.654C86.5621 105.654 86.3011 105.555 86.1331 105.357C85.9711 105.159 85.8901 104.904 85.8901 104.592V101.622H84.3421V101.01H85.4941C85.6501 101.01 85.7581 100.98 85.8181 100.92C85.8841 100.854 85.9171 100.743 85.9171 100.587V99.3723H86.6101V101.01H88.7251V101.622H86.6101V105.042H88.7251V105.654H86.9161ZM93.7526 105.654C93.4706 105.654 93.2696 105.582 93.1496 105.438C93.0296 105.294 92.9546 105.114 92.9246 104.898H92.8796C92.7776 105.168 92.6126 105.381 92.3846 105.537C92.1626 105.687 91.8626 105.762 91.4846 105.762C90.9986 105.762 90.6116 105.636 90.3236 105.384C90.0356 105.132 89.8916 104.787 89.8916 104.349C89.8916 103.917 90.0476 103.584 90.3596 103.35C90.6776 103.116 91.1876 102.999 91.8896 102.999H92.8796V102.54C92.8796 102.198 92.7836 101.943 92.5916 101.775C92.3996 101.601 92.1266 101.514 91.7726 101.514C91.4606 101.514 91.2056 101.577 91.0076 101.703C90.8096 101.823 90.6506 101.988 90.5306 102.198L90.0446 101.838C90.1046 101.718 90.1856 101.601 90.2876 101.487C90.3896 101.373 90.5156 101.274 90.6656 101.19C90.8156 101.1 90.9866 101.031 91.1786 100.983C91.3706 100.929 91.5836 100.902 91.8176 100.902C92.3636 100.902 92.7956 101.04 93.1136 101.316C93.4376 101.592 93.5996 101.976 93.5996 102.468V105.024H94.2476V105.654H93.7526ZM91.6106 105.159C91.7966 105.159 91.9646 105.138 92.1146 105.096C92.2706 105.048 92.4056 104.988 92.5196 104.916C92.6336 104.838 92.7206 104.748 92.7806 104.646C92.8466 104.538 92.8796 104.424 92.8796 104.304V103.539H91.8896C91.4576 103.539 91.1426 103.599 90.9446 103.719C90.7466 103.839 90.6476 104.013 90.6476 104.241V104.43C90.6476 104.67 90.7316 104.853 90.8996 104.979C91.0736 105.099 91.3106 105.159 91.6106 105.159ZM95.4591 98.9943H96.1791V101.766H96.2151C96.5151 101.19 96.9921 100.902 97.6461 100.902C98.2161 100.902 98.6601 101.115 98.9781 101.541C99.3021 101.967 99.4641 102.564 99.4641 103.332C99.4641 104.1 99.3021 104.697 98.9781 105.123C98.6601 105.549 98.2161 105.762 97.6461 105.762C96.9921 105.762 96.5151 105.474 96.2151 104.898H96.1791V105.654H95.4591V98.9943ZM97.3671 105.123C97.7871 105.123 98.1111 104.997 98.3391 104.745C98.5731 104.487 98.6901 104.148 98.6901 103.728V102.936C98.6901 102.516 98.5731 102.18 98.3391 101.928C98.1111 101.67 97.7871 101.541 97.3671 101.541C97.2051 101.541 97.0521 101.562 96.9081 101.604C96.7641 101.646 96.6381 101.709 96.5301 101.793C96.4221 101.871 96.3351 101.97 96.2691 102.09C96.2091 102.204 96.1791 102.339 96.1791 102.495V104.169C96.1791 104.325 96.2091 104.463 96.2691 104.583C96.3351 104.697 96.4221 104.796 96.5301 104.88C96.6381 104.958 96.7641 105.018 96.9081 105.06C97.0521 105.102 97.2051 105.123 97.3671 105.123ZM100.631 105.042H102.251V99.6063H100.631V98.9943H102.971V105.042H104.591V105.654H100.631V105.042ZM107.998 105.762C107.662 105.762 107.359 105.705 107.089 105.591C106.825 105.477 106.597 105.315 106.405 105.105C106.219 104.889 106.075 104.634 105.973 104.34C105.871 104.04 105.82 103.707 105.82 103.341C105.82 102.969 105.871 102.633 105.973 102.333C106.081 102.033 106.228 101.778 106.414 101.568C106.6 101.352 106.822 101.187 107.08 101.073C107.344 100.959 107.635 100.902 107.953 100.902C108.265 100.902 108.547 100.959 108.799 101.073C109.057 101.187 109.276 101.346 109.456 101.55C109.636 101.748 109.774 101.985 109.87 102.261C109.966 102.537 110.014 102.84 110.014 103.17V103.512H106.576V103.728C106.576 103.932 106.609 104.121 106.675 104.295C106.741 104.469 106.834 104.619 106.954 104.745C107.08 104.871 107.23 104.97 107.404 105.042C107.584 105.108 107.782 105.141 107.998 105.141C108.31 105.141 108.58 105.069 108.808 104.925C109.036 104.781 109.21 104.583 109.33 104.331L109.861 104.691C109.723 105.003 109.492 105.261 109.168 105.465C108.85 105.663 108.46 105.762 107.998 105.762ZM107.953 101.496C107.755 101.496 107.572 101.532 107.404 101.604C107.236 101.676 107.089 101.775 106.963 101.901C106.843 102.027 106.747 102.177 106.675 102.351C106.609 102.519 106.576 102.705 106.576 102.909V102.972H109.24V102.873C109.24 102.669 109.207 102.483 109.141 102.315C109.081 102.147 108.994 102.003 108.88 101.883C108.772 101.757 108.637 101.661 108.475 101.595C108.319 101.529 108.145 101.496 107.953 101.496ZM113.224 105.735C112.978 105.735 112.804 105.684 112.702 105.582C112.606 105.48 112.558 105.351 112.558 105.195V105.033C112.558 104.877 112.606 104.748 112.702 104.646C112.804 104.544 112.978 104.493 113.224 104.493C113.47 104.493 113.641 104.544 113.737 104.646C113.839 104.748 113.89 104.877 113.89 105.033V105.195C113.89 105.351 113.839 105.48 113.737 105.582C113.641 105.684 113.47 105.735 113.224 105.735ZM116.712 105.654V101.01H117.432V101.766H117.468C117.516 101.652 117.576 101.544 117.648 101.442C117.72 101.334 117.807 101.241 117.909 101.163C118.017 101.085 118.143 101.022 118.287 100.974C118.431 100.926 118.599 100.902 118.791 100.902C119.277 100.902 119.667 101.058 119.961 101.37C120.255 101.676 120.402 102.111 120.402 102.675V105.654H119.682V102.801C119.682 102.375 119.589 102.06 119.403 101.856C119.217 101.646 118.944 101.541 118.584 101.541C118.44 101.541 118.299 101.559 118.161 101.595C118.023 101.631 117.9 101.685 117.792 101.757C117.684 101.829 117.597 101.922 117.531 102.036C117.465 102.15 117.432 102.282 117.432 102.432V105.654H116.712ZM125.591 105.654C125.309 105.654 125.108 105.582 124.988 105.438C124.868 105.294 124.793 105.114 124.763 104.898H124.718C124.616 105.168 124.451 105.381 124.223 105.537C124.001 105.687 123.701 105.762 123.323 105.762C122.837 105.762 122.45 105.636 122.162 105.384C121.874 105.132 121.73 104.787 121.73 104.349C121.73 103.917 121.886 103.584 122.198 103.35C122.516 103.116 123.026 102.999 123.728 102.999H124.718V102.54C124.718 102.198 124.622 101.943 124.43 101.775C124.238 101.601 123.965 101.514 123.611 101.514C123.299 101.514 123.044 101.577 122.846 101.703C122.648 101.823 122.489 101.988 122.369 102.198L121.883 101.838C121.943 101.718 122.024 101.601 122.126 101.487C122.228 101.373 122.354 101.274 122.504 101.19C122.654 101.1 122.825 101.031 123.017 100.983C123.209 100.929 123.422 100.902 123.656 100.902C124.202 100.902 124.634 101.04 124.952 101.316C125.276 101.592 125.438 101.976 125.438 102.468V105.024H126.086V105.654H125.591ZM123.449 105.159C123.635 105.159 123.803 105.138 123.953 105.096C124.109 105.048 124.244 104.988 124.358 104.916C124.472 104.838 124.559 104.748 124.619 104.646C124.685 104.538 124.718 104.424 124.718 104.304V103.539H123.728C123.296 103.539 122.981 103.599 122.783 103.719C122.585 103.839 122.486 104.013 122.486 104.241V104.43C122.486 104.67 122.57 104.853 122.738 104.979C122.912 105.099 123.149 105.159 123.449 105.159ZM126.929 105.654V101.01H127.595V101.55H127.631C127.703 101.37 127.805 101.217 127.937 101.091C128.069 100.965 128.264 100.902 128.522 100.902C128.792 100.902 128.993 100.971 129.125 101.109C129.257 101.241 129.338 101.415 129.368 101.631H129.395C129.479 101.421 129.599 101.247 129.755 101.109C129.911 100.971 130.127 100.902 130.403 100.902C130.781 100.902 131.033 101.034 131.159 101.298C131.291 101.562 131.357 101.94 131.357 102.432V105.654H130.691V102.549C130.691 102.153 130.649 101.88 130.565 101.73C130.487 101.574 130.34 101.496 130.124 101.496C129.932 101.496 129.776 101.559 129.656 101.685C129.536 101.805 129.476 101.991 129.476 102.243V105.654H128.81V102.549C128.81 102.153 128.768 101.88 128.684 101.73C128.606 101.574 128.462 101.496 128.252 101.496C128.06 101.496 127.901 101.559 127.775 101.685C127.655 101.805 127.595 101.991 127.595 102.243V105.654H126.929ZM134.53 105.762C134.194 105.762 133.891 105.705 133.621 105.591C133.357 105.477 133.129 105.315 132.937 105.105C132.751 104.889 132.607 104.634 132.505 104.34C132.403 104.04 132.352 103.707 132.352 103.341C132.352 102.969 132.403 102.633 132.505 102.333C132.613 102.033 132.76 101.778 132.946 101.568C133.132 101.352 133.354 101.187 133.612 101.073C133.876 100.959 134.167 100.902 134.485 100.902C134.797 100.902 135.079 100.959 135.331 101.073C135.589 101.187 135.808 101.346 135.988 101.55C136.168 101.748 136.306 101.985 136.402 102.261C136.498 102.537 136.546 102.84 136.546 103.17V103.512H133.108V103.728C133.108 103.932 133.141 104.121 133.207 104.295C133.273 104.469 133.366 104.619 133.486 104.745C133.612 104.871 133.762 104.97 133.936 105.042C134.116 105.108 134.314 105.141 134.53 105.141C134.842 105.141 135.112 105.069 135.34 104.925C135.568 104.781 135.742 104.583 135.862 104.331L136.393 104.691C136.255 105.003 136.024 105.261 135.7 105.465C135.382 105.663 134.992 105.762 134.53 105.762ZM134.485 101.496C134.287 101.496 134.104 101.532 133.936 101.604C133.768 101.676 133.621 101.775 133.495 101.901C133.375 102.027 133.279 102.177 133.207 102.351C133.141 102.519 133.108 102.705 133.108 102.909V102.972H135.772V102.873C135.772 102.669 135.739 102.483 135.673 102.315C135.613 102.147 135.526 102.003 135.412 101.883C135.304 101.757 135.169 101.661 135.007 101.595C134.851 101.529 134.677 101.496 134.485 101.496ZM139.756 105.735C139.51 105.735 139.336 105.684 139.234 105.582C139.138 105.48 139.09 105.351 139.09 105.195V105.033C139.09 104.877 139.138 104.748 139.234 104.646C139.336 104.544 139.51 104.493 139.756 104.493C140.002 104.493 140.173 104.544 140.269 104.646C140.371 104.748 140.422 104.877 140.422 105.033V105.195C140.422 105.351 140.371 105.48 140.269 105.582C140.173 105.684 140.002 105.735 139.756 105.735ZM144.792 102.036C145.23 102.036 145.557 101.94 145.773 101.748C145.995 101.55 146.106 101.298 146.106 100.992V100.929C146.106 100.593 145.998 100.341 145.782 100.173C145.572 100.005 145.296 99.9213 144.954 99.9213C144.618 99.9213 144.345 99.9963 144.135 100.146C143.931 100.29 143.763 100.482 143.631 100.722L143.064 100.29C143.142 100.164 143.238 100.041 143.352 99.9213C143.466 99.7953 143.598 99.6843 143.748 99.5883C143.904 99.4923 144.081 99.4143 144.279 99.3543C144.483 99.2943 144.714 99.2643 144.972 99.2643C145.242 99.2643 145.494 99.3003 145.728 99.3723C145.962 99.4383 146.166 99.5403 146.34 99.6783C146.514 99.8103 146.649 99.9753 146.745 100.173C146.847 100.371 146.898 100.596 146.898 100.848C146.898 101.052 146.865 101.235 146.799 101.397C146.739 101.559 146.652 101.7 146.538 101.82C146.43 101.94 146.301 102.042 146.151 102.126C146.001 102.21 145.842 102.273 145.674 102.315V102.351C145.848 102.387 146.016 102.447 146.178 102.531C146.34 102.609 146.484 102.714 146.61 102.846C146.736 102.972 146.835 103.128 146.907 103.314C146.985 103.494 147.024 103.701 147.024 103.935C147.024 104.205 146.97 104.454 146.862 104.682C146.76 104.904 146.613 105.096 146.421 105.258C146.235 105.414 146.007 105.537 145.737 105.627C145.473 105.717 145.179 105.762 144.855 105.762C144.579 105.762 144.333 105.732 144.117 105.672C143.907 105.612 143.718 105.531 143.55 105.429C143.388 105.327 143.244 105.213 143.118 105.087C142.998 104.961 142.89 104.829 142.794 104.691L143.361 104.259C143.445 104.385 143.532 104.499 143.622 104.601C143.712 104.703 143.814 104.793 143.928 104.871C144.048 104.943 144.183 105 144.333 105.042C144.483 105.084 144.657 105.105 144.855 105.105C145.299 105.105 145.638 105.003 145.872 104.799C146.112 104.595 146.232 104.304 146.232 103.926V103.854C146.232 103.482 146.115 103.194 145.881 102.99C145.653 102.786 145.308 102.684 144.846 102.684H144.099V102.036H144.792Z" fill="#667085"/>
<rect opacity="0.7" x="48.7803" y="131.526" width="92.9574" height="10.9362" rx="5.46808" fill="#D0D5DD"/>
<rect x="43.3125" y="53.9092" width="217.356" height="1.36702" fill="#D8C3FA"/>
<rect x="43.3125" y="83.9844" width="217.356" height="1.36702" fill="#D8C3FA"/>
<rect opacity="0.4" x="43.3125" y="120.324" width="217.356" height="1.36702" fill="#98A2B3"/>
<g filter="url(#filter1_d_5709_15119)">
<rect x="27" y="52.001" width="250" height="33" rx="10.9362" fill="white"/>
<rect x="27.6835" y="52.6845" width="248.633" height="31.633" rx="10.2527" stroke="#EAECF0" stroke-width="1.36702"/>
</g>
<rect x="158.142" y="64.6469" width="39.6436" height="8.76602" rx="4.38301" fill="#00249C"/>
<rect x="216.924" y="64.8459" width="39.6436" height="8.20212" rx="4.10106" fill="#00249C"/>
<rect x="48.7803" y="64.8459" width="95.6915" height="8.20212" rx="4.10106" fill="#00249C"/>
</g>
</g>
</g>
<defs>
<filter id="filter0_d_5709_15119" x="3" y="-52" width="298" height="265" filterUnits="userSpaceOnUse" color-interpolation-filters="sRGB">
<feFlood flood-opacity="0" result="BackgroundImageFix"/>
<feColorMatrix in="SourceAlpha" type="matrix" values="0 0 0 0 0 0 0 0 0 0 0 0 0 0 0 0 0 0 127 0" result="hardAlpha"/>
<feOffset/>
<feGaussianBlur stdDeviation="12"/>
<feComposite in2="hardAlpha" operator="out"/>
<feColorMatrix type="matrix" values="0 0 0 0 0 0 0 0 0 0 0 0 0 0 0 0 0 0 0.06 0"/>
<feBlend mode="normal" in2="BackgroundImageFix" result="effect1_dropShadow_5709_15119"/>
<feBlend mode="normal" in="SourceGraphic" in2="effect1_dropShadow_5709_15119" result="shape"/>
</filter>
<filter id="filter1_d_5709_15119" x="3" y="30.001" width="298" height="81" filterUnits="userSpaceOnUse" color-interpolation-filters="sRGB">
<feFlood flood-opacity="0" result="BackgroundImageFix"/>
<feColorMatrix in="SourceAlpha" type="matrix" values="0 0 0 0 0 0 0 0 0 0 0 0 0 0 0 0 0 0 127 0" result="hardAlpha"/>
<feOffset dy="2"/>
<feGaussianBlur stdDeviation="12"/>
<feComposite in2="hardAlpha" operator="out"/>
<feColorMatrix type="matrix" values="0 0 0 0 0 0 0 0 0 0 0 0 0 0 0 0 0 0 0.1 0"/>
<feBlend mode="normal" in2="BackgroundImageFix" result="effect1_dropShadow_5709_15119"/>
<feBlend mode="normal" in="SourceGraphic" in2="effect1_dropShadow_5709_15119" result="shape"/>
</filter>
<radialGradient id="paint0_radial_5709_15119" cx="0" cy="0" r="1" gradientUnits="userSpaceOnUse" gradientTransform="translate(152 79.5812) rotate(90) scale(80.4188 393.143)">
<stop offset="0.106626" stop-color="#D9D9D9"/>
<stop offset="1" stop-color="#D9D9D9" stop-opacity="0"/>
</radialGradient>
<clipPath id="clip0_5709_15119">
<rect width="304" height="160" fill="white"/>
</clipPath>
</defs>
</svg>
