<svg xmlns="http://www.w3.org/2000/svg" viewBox="0 0 28.87 28.87" id="zendesk">
  <g data-name="Layer 2">
    <g data-name="Layer 1">
      <rect width="28.87" height="28.87" fill="#78a300" rx="6.48" ry="6.48"></rect>
      <path fill="#fff" fill-rule="evenodd"
        d="M9 19c-0.83 0-1.5 0.67-1.5 1.5S8.17 22 9 22h11c0.83 0 1.5-0.67 1.5-1.5s-0.67-1.5-1.5-1.5H9zm0-5c-0.83 0-1.5 0.67-1.5 1.5s0.67 1.5 1.5 1.5h11c0.83 0 1.5-0.67 1.5-1.5S20.83 14 20 14H9zm0-5c-0.83 0-1.5 0.67-1.5 1.5S8.17 12 9 12h11c0.83 0 1.5-0.67 1.5-1.5S20.83 9 20 9H9z">
      </path>
    </g>
  </g>
</svg>
