<?xml version="1.0" encoding="utf-8"?>
<!-- Generator: Adobe Illustrator 24.3.0, SVG Export Plug-In . SVG Version: 6.00 Build 0)  -->
<svg version="1.1" id="Layer_1" xmlns="http://www.w3.org/2000/svg" xmlns:xlink="http://www.w3.org/1999/xlink" x="0px" y="0px"
	 viewBox="0 0 126.2 40" style="enable-background:new 0 0 126.2 40;" xml:space="preserve">
<style type="text/css">
	.st0{fill:#8F8F8F;}
	.st1{fill:#714B67;}
</style>
<g id="Group_982" transform="translate(-13.729 -4.35)">
	<path id="Path_172" class="st0" d="M60.9,38c4.9,0,8.9-4,8.9-8.9c0-4.9-4-8.9-8.9-8.9c-4.9,0-8.9,4-8.9,8.9c0,0,0,0,0,0
		C51.9,34,55.9,38,60.9,38 M76.1,28.8c0.1,8.4-6.6,15.4-15,15.5c-8.4,0.1-15.4-6.6-15.5-15c0-0.2,0-0.3,0-0.5
		c0.3-8.6,7.6-15.4,16.2-15.1c2.9,0.1,5.6,1,8,2.6V7.4c0.1-1.7,1.5-3.1,3.3-3.1c1.7,0,3,1.4,3.1,3.1L76.1,28.8z M92.7,38
		c4.9,0,8.9-4,8.9-8.9c0-4.9-4-8.9-8.9-8.9c-4.9,0-8.9,4-8.9,8.9c0,0,0,0,0,0C83.8,34,87.8,38,92.7,38L92.7,38 M92.7,44.3
		c-8.4,0-15.2-6.8-15.2-15.2c0-8.4,6.8-15.2,15.2-15.2c8.4,0,15.2,6.8,15.2,15.2c0,0,0,0,0,0C108,37.4,101.2,44.3,92.7,44.3
		 M124.6,38c4.9,0,8.9-4,8.9-8.9s-4-8.9-8.9-8.9c-4.9,0-8.9,4-8.9,8.9c0,0,0,0,0,0C115.7,34,119.7,38,124.6,38 M124.6,44.3
		c-8.4,0-15.2-6.8-15.2-15.2c0-8.4,6.8-15.2,15.2-15.2c8.4,0,15.2,6.8,15.2,15.2c0,0,0,0,0,0C139.9,37.4,133,44.3,124.6,44.3"/>
	<path id="Path_173" class="st1" d="M29,38c4.9,0,8.9-4,8.9-8.9c0-4.9-4-8.9-8.9-8.9c-4.9,0-8.9,4-8.9,8.9c0,0,0,0,0,0
		C20,34,24,38,29,38 M29,44.3c-8.4,0-15.2-6.8-15.2-15.2S20.5,13.8,29,13.8S44.2,20.6,44.2,29c0,0,0,0,0,0
		C44.2,37.4,37.4,44.3,29,44.3C29,44.3,29,44.3,29,44.3"/>
</g>
</svg>
