<svg width="72" height="72" viewBox="0 0 72 72" fill="none" xmlns="http://www.w3.org/2000/svg">
<g clip-path="url(#clip0_17_1320)">
<path d="M8.88005 0.584229H63.1166C68.0348 0.584229 72.1333 4.50429 71.9967 9.37057V62.6293C71.9967 67.4956 68.0348 71.4157 63.1166 71.4157H8.88005C3.96187 71.4157 0 67.4956 0 62.6293V9.37057C0 4.50429 3.96187 0.584229 8.88005 0.584229Z" fill="#00249C"/>
<path d="M58.9816 36.0217C58.9816 36.983 58.9226 37.9397 58.8048 38.8693C58.6823 39.8397 58.5055 40.7919 58.2652 41.7214C58.0158 42.6963 57.6984 43.6486 57.3265 44.569C56.9819 45.426 56.5829 46.2558 56.134 47.0584C56.0705 47.1809 56.0025 47.2987 55.9345 47.4166C55.3541 48.4187 54.7011 49.371 53.9801 50.2688C53.758 50.5499 53.5267 50.822 53.2864 51.094C52.6561 51.815 51.9805 52.4861 51.264 53.1164C50.9965 53.3567 50.7199 53.5925 50.4388 53.8147C49.541 54.5357 48.5933 55.1886 47.5912 55.7645C47.4733 55.8325 47.3554 55.9005 47.2375 55.964C46.4349 56.4084 45.6051 56.8074 44.7436 57.1565C43.8231 57.5284 42.8709 57.8458 41.8914 58.0952C40.9619 58.3309 40.0142 58.5123 39.0438 58.6348C38.1143 58.7526 37.162 58.8116 36.1962 58.8116C35.2304 58.8116 34.2782 58.7526 33.3441 58.6348C32.3737 58.5123 31.426 58.3355 30.4965 58.0952C29.5171 57.8412 28.5694 57.5284 27.6489 57.1565C26.7873 56.8074 25.953 56.4084 25.1504 55.964C25.0325 55.9005 24.9146 55.8325 24.7967 55.7645V44.5736V36.0262C24.7967 35.0423 24.9192 34.0855 25.155 33.1741C25.418 32.1629 25.8124 31.2062 26.3248 30.3265C26.7057 29.669 27.1501 29.0523 27.6489 28.4901C27.9618 28.1318 28.3018 27.7918 28.66 27.4789C29.2223 26.9801 29.8435 26.5357 30.4965 26.1548C31.3762 25.647 32.3329 25.248 33.3441 24.985C34.2555 24.7492 35.2077 24.6267 36.1962 24.6267C37.1847 24.6267 38.1324 24.7492 39.0438 24.985V22.0648C38.1233 21.8789 37.1711 21.7791 36.1962 21.7791C35.2213 21.7791 34.2691 21.8789 33.3441 22.0648C32.3511 22.2689 31.3988 22.5681 30.4965 22.9626C29.4808 23.407 28.5286 23.9647 27.6489 24.6222C26.5742 25.4339 25.6129 26.3906 24.8013 27.4698C24.1438 28.345 23.5861 29.3017 23.1417 30.3174C22.7472 31.2198 22.4434 32.172 22.2439 33.165C22.058 34.0855 21.9582 35.0377 21.9582 36.0172V53.8011C21.6771 53.5789 21.4005 53.3431 21.1329 53.1028C20.4165 52.4725 19.7409 51.7969 19.1106 51.0804V36.0172C19.1106 35.0468 19.1922 34.0946 19.3464 33.165C19.5096 32.1811 19.759 31.2334 20.0855 30.3174C20.4346 29.3244 20.879 28.3676 21.3959 27.4698C21.5728 27.1615 21.7632 26.8577 21.9582 26.5629C22.4116 25.8782 22.915 25.2298 23.4636 24.6177C23.8853 24.1461 24.3342 23.6972 24.8058 23.2755C25.4179 22.7268 26.0664 22.2235 26.7511 21.7701C27.0458 21.5751 27.3496 21.3846 27.6579 21.2078C28.5558 20.6863 29.5125 20.2465 30.5055 19.8974C31.4215 19.5754 32.3692 19.326 33.3532 19.1628C34.2827 19.0086 35.2304 18.927 36.2053 18.927C37.1802 18.927 38.1279 19.0086 39.0529 19.1628C40.0323 19.326 40.9846 19.5754 41.9005 19.8974V29.6463C41.0798 28.9072 40.114 28.3314 39.0529 27.9595C38.1642 27.6421 37.2029 27.4698 36.2053 27.4698C35.2077 27.4698 34.2464 27.6421 33.3532 27.9595C32.2921 28.3314 31.3263 28.9118 30.5055 29.6463C30.2698 29.8549 30.0476 30.0816 29.839 30.3129C29.0999 31.1336 28.5195 32.0994 28.1477 33.1605C27.8302 34.0492 27.6579 35.0105 27.6579 36.0126V47.403H27.6534L27.6579 47.4076V54.0278C28.5694 54.4631 29.5216 54.8304 30.5055 55.1206C31.426 55.3972 32.3783 55.6058 33.3532 55.7418C34.2827 55.8778 35.2349 55.9459 36.2053 55.9459C37.1757 55.9459 38.1233 55.8778 39.0529 55.7418C40.0278 55.6058 40.98 55.3972 41.9005 55.1206C42.8845 54.8304 43.8367 54.4631 44.7526 54.0278C45.3467 53.7467 45.918 53.4383 46.4757 53.0983C46.8611 52.8715 47.2375 52.6267 47.6003 52.3682C48.5117 51.7334 49.3687 51.026 50.1576 50.2506C50.2574 50.1554 50.3526 50.0602 50.4479 49.9604C51.2232 49.1669 51.9351 48.3145 52.57 47.403C52.8284 47.0403 53.0687 46.6685 53.3 46.283C53.6355 45.7253 53.9439 45.1449 54.225 44.5554C54.6603 43.644 55.0276 42.6918 55.3223 41.7078C55.5989 40.7828 55.8075 39.8351 55.9481 38.8557C56.0796 37.9261 56.1521 36.9739 56.1521 36.0081V24.9714C56.5965 25.7739 56.9955 26.6037 57.3447 27.4653C57.7165 28.3858 58.0339 29.3335 58.2833 30.3129C58.5191 31.2424 58.705 32.1901 58.8229 33.1605C58.9408 34.0946 58.9997 35.0468 58.9997 36.0126L58.9816 36.0217Z" fill="white"/>
<path d="M53.1357 20.9583V36.0261C53.1357 36.9965 53.0541 37.9487 52.8999 38.8737C52.7366 39.8577 52.4873 40.8099 52.1608 41.7258C51.8116 42.7189 51.3673 43.6756 50.8503 44.5735C50.6735 44.8818 50.4831 45.1856 50.2881 45.4803C49.8346 46.165 49.3313 46.8089 48.7872 47.4211C48.3655 47.8926 47.9166 48.3415 47.4405 48.7678C46.8283 49.3164 46.1799 49.8198 45.4952 50.2732C45.2005 50.4682 44.9012 50.6586 44.5929 50.8355C43.6905 51.3569 42.7383 51.7968 41.7407 52.1504C40.8248 52.4724 39.8726 52.7218 38.8931 52.885C37.9681 53.0392 37.0159 53.1208 36.0455 53.1208C35.0752 53.1208 34.1229 53.0392 33.1934 52.885C32.2139 52.7218 31.2617 52.4724 30.3458 52.1504V42.4015C31.1665 43.1406 32.1323 43.721 33.1934 44.0883C34.0821 44.4102 35.0434 44.578 36.0455 44.578C37.0476 44.578 38.0044 44.4057 38.8931 44.0883C39.9542 43.7165 40.92 43.136 41.7407 42.4015C41.9765 42.1884 42.2032 41.9662 42.4118 41.7304C43.1509 40.9051 43.7313 39.9438 44.1032 38.8782C44.4206 37.9895 44.5929 37.0282 44.5929 36.0306V18.0064C43.6815 17.5711 42.7292 17.2038 41.7407 16.9136C40.8202 16.637 39.868 16.4284 38.8931 16.2924C37.9636 16.1564 37.0114 16.0883 36.0455 16.0883C35.0797 16.0883 34.1275 16.1564 33.1934 16.2924C32.223 16.4284 31.2663 16.637 30.3458 16.9136C29.3618 17.2038 28.4096 17.5711 27.4982 18.0064C26.9042 18.2875 26.3283 18.6004 25.766 18.9359C25.3806 19.1627 25.0133 19.4075 24.646 19.6615C23.7346 20.2963 22.8776 21.0082 22.0886 21.7836C21.9889 21.8788 21.8936 21.974 21.7984 22.0738C21.023 22.8673 20.3112 23.7197 19.6809 24.6312C19.4224 24.9984 19.1775 25.3703 18.9508 25.7602C18.6107 26.318 18.3069 26.8893 18.0213 27.4833C17.586 28.3947 17.2187 29.3469 16.9285 30.3309C16.6519 31.2514 16.4433 32.2036 16.3073 33.1785C16.1712 34.1081 16.1032 35.0648 16.1032 36.0306V47.0628C15.6588 46.2603 15.2598 45.4305 14.9107 44.5735C14.5388 43.653 14.2214 42.7007 13.972 41.7258C13.7363 40.7963 13.5549 39.8441 13.4325 38.8737C13.3146 37.9442 13.2556 36.9874 13.2556 36.0261C13.2556 35.0648 13.3146 34.1081 13.4325 33.174C13.5549 32.2036 13.7317 31.2559 13.972 30.3264C14.226 29.3469 14.5388 28.3992 14.9107 27.4788C15.2553 26.6218 15.6543 25.7874 16.1032 24.9848C16.1667 24.8624 16.2347 24.7491 16.3027 24.6266C16.8831 23.6245 17.5361 22.6768 18.2525 21.779C18.4792 21.4979 18.7105 21.2213 18.9508 20.9538C19.5811 20.2373 20.2567 19.5617 20.9732 18.9314C21.2407 18.6911 21.5218 18.4553 21.803 18.2331C22.7008 17.5121 23.6485 16.8637 24.6506 16.2833C24.773 16.2153 24.8864 16.1473 25.0088 16.0838C25.8114 15.6394 26.6412 15.2404 27.5027 14.8913C28.4232 14.5194 29.3709 14.202 30.3503 13.9526C31.2799 13.7169 32.2276 13.5355 33.1979 13.413C34.132 13.2952 35.0842 13.2362 36.05 13.2362C37.0159 13.2362 37.9681 13.2952 38.8977 13.413C39.868 13.5355 40.8157 13.7123 41.7453 13.9526C42.7247 14.2066 43.6724 14.5194 44.5974 14.8913C45.4544 15.2404 46.2842 15.6349 47.0868 16.0838C47.2092 16.1473 47.3271 16.2153 47.445 16.2833V27.4742V36.0216C47.445 37.0055 47.3226 37.9578 47.0868 38.8692C46.8238 39.8803 46.4293 40.8371 45.9169 41.7213C45.5406 42.3788 45.0962 42.9909 44.5974 43.5532C44.2845 43.9114 43.9445 44.2515 43.5862 44.5644C43.024 45.0632 42.4027 45.5075 41.7498 45.8839C40.8701 46.3963 39.9134 46.7908 38.9022 47.0538C37.9908 47.2896 37.0386 47.412 36.0546 47.412C35.0706 47.412 34.1184 47.2896 33.2024 47.0538V49.9785C34.1229 50.1644 35.0752 50.2641 36.0546 50.2641C37.034 50.2641 37.9817 50.1644 38.9022 49.9785C39.8907 49.7789 40.8429 49.4751 41.7498 49.0807C42.7655 48.6363 43.7223 48.0785 44.6019 47.4165C45.6766 46.6049 46.6333 45.6481 47.445 44.5735C48.1025 43.6983 48.6602 42.7416 49.1046 41.7258C49.4991 40.8235 49.8029 39.8667 50.0024 38.8737C50.1883 37.9532 50.2881 37.001 50.2881 36.0261V18.2377C50.5692 18.4644 50.8503 18.6956 51.1179 18.9359C51.8388 19.5662 52.5099 20.2419 53.1402 20.9583H53.1357Z" fill="white"/>
</g>
<defs>
<clipPath id="clip0_17_1320">
<rect width="72" height="72" fill="white"/>
</clipPath>
</defs>
</svg>
