<svg width="20" height="20" viewBox="0 0 20 20" fill="none" xmlns="http://www.w3.org/2000/svg">
<g clip-path="url(#clip0_6296_12396)">
<path fill-rule="evenodd" clip-rule="evenodd" d="M12.5 16.6667C12.7124 16.667 12.9167 16.7483 13.0712 16.8941C13.2256 17.0399 13.3185 17.2392 13.331 17.4512C13.3434 17.6633 13.2744 17.8721 13.1381 18.0349C13.0018 18.1978 12.8084 18.3025 12.5975 18.3276L12.5 18.3334H7.50001C7.28761 18.3332 7.08332 18.2518 6.92887 18.106C6.77442 17.9602 6.68148 17.761 6.66903 17.5489C6.65659 17.3369 6.72557 17.1281 6.8619 16.9652C6.99822 16.8023 7.1916 16.6977 7.40251 16.6726L7.50001 16.6667H12.5ZM12.5 1.66675C12.7041 1.66677 12.9011 1.74171 13.0537 1.87734C13.2062 2.01298 13.3036 2.19987 13.3275 2.40258L13.3333 2.50008V5.00008H15C15.4205 4.99995 15.8255 5.15875 16.1338 5.44466C16.4421 5.73057 16.631 6.12245 16.6625 6.54175L16.6667 6.66675V10.8334C16.6667 12.1271 16.1654 13.3704 15.268 14.3021C14.3705 15.2339 13.1469 15.7816 11.8542 15.8301L11.6667 15.8334H8.33334C7.03969 15.8335 5.79638 15.3321 4.86462 14.4347C3.93286 13.5373 3.38519 12.3137 3.33668 11.0209L3.33334 10.8334V6.66675C3.33321 6.24627 3.49202 5.84128 3.77792 5.53296C4.06383 5.22464 4.45571 5.03578 4.87501 5.00425L5.00001 5.00008H6.66668V2.50008C6.66691 2.28768 6.74824 2.08339 6.89405 1.92894C7.03986 1.77449 7.23914 1.68155 7.45117 1.6691C7.66321 1.65666 7.87199 1.72564 8.03487 1.86197C8.19775 1.99829 8.30242 2.19167 8.32751 2.40258L8.33334 2.50008V5.00008H11.6667V2.50008C11.6667 2.27907 11.7545 2.06711 11.9108 1.91083C12.067 1.75455 12.279 1.66675 12.5 1.66675ZM15 7.08341C15 6.8533 14.8135 6.66675 14.5833 6.66675H5.41668C5.18656 6.66675 5.00001 6.8533 5.00001 7.08341V10.8334C5.00001 11.6886 5.32871 12.5111 5.91811 13.1308C6.50752 13.7504 7.31254 14.1198 8.16668 14.1626L8.33334 14.1667H11.6667C12.5219 14.1667 13.3444 13.8381 13.964 13.2486C14.5837 12.6592 14.9531 11.8542 14.9958 11.0001L15 10.8334V7.08341Z" fill="#98A2B3"/>
</g>
<defs>
<clipPath id="clip0_6296_12396">
<rect width="20" height="20" fill="white"/>
</clipPath>
</defs>
</svg>
