<svg width="14" height="14" viewBox="0 0 14 14" fill="none" xmlns="http://www.w3.org/2000/svg">
<path fill-rule="evenodd" clip-rule="evenodd" d="M4.38215 0.666469C4.1059 0.500716 3.74758 0.590296 3.58183 0.866551C3.41607 1.14281 3.50565 1.50112 3.78191 1.66688L4.65097 2.18831C4.09884 2.78106 3.79037 3.56212 3.79037 4.37499V4.45892C3.69521 4.51294 3.60297 4.57246 3.51415 4.63729C3.48584 4.6198 3.45563 4.60451 3.42368 4.59173L2.25701 4.12506C1.95789 4.00541 1.6184 4.15091 1.49875 4.45003C1.3791 4.74915 1.5246 5.08864 1.82372 5.20829L2.69831 5.55812C2.46023 5.98397 2.33203 6.46729 2.33203 6.96382V7.58334H1.16536C0.843199 7.58334 0.582031 7.84451 0.582031 8.16667C0.582031 8.48884 0.843199 8.75001 1.16536 8.75001H2.33203C2.33203 9.36284 2.45274 9.96967 2.68726 10.5358C2.71619 10.6057 2.74678 10.6747 2.779 10.743L1.82372 11.1251C1.5246 11.2447 1.3791 11.5842 1.49875 11.8833C1.6184 12.1824 1.95789 12.3279 2.25701 12.2083L3.41874 11.7436C3.50738 11.8496 3.60083 11.9518 3.69887 12.0498C4.13221 12.4832 4.64666 12.8269 5.21284 13.0614C5.77903 13.296 6.38586 13.4167 6.9987 13.4167C7.61153 13.4167 8.21837 13.296 8.78456 13.0614C9.35074 12.8269 9.86519 12.4832 10.2985 12.0498C10.3966 11.9518 10.49 11.8496 10.5787 11.7436L11.7404 12.2083C12.0395 12.3279 12.379 12.1824 12.4986 11.8833C12.6183 11.5842 12.4728 11.2447 12.1737 11.1251L11.2184 10.743C11.2506 10.6747 11.2812 10.6057 11.3101 10.5358C11.5447 9.96967 11.6654 9.36284 11.6654 8.75001H12.832C13.1542 8.75001 13.4154 8.48884 13.4154 8.16667C13.4154 7.84451 13.1542 7.58334 12.832 7.58334H11.6654V6.96382C11.6654 6.46729 11.5372 5.98397 11.2991 5.55812L12.1737 5.20829C12.4728 5.08864 12.6183 4.74915 12.4986 4.45003C12.379 4.15091 12.0395 4.00541 11.7404 4.12506L10.5737 4.59173C10.5418 4.60451 10.5116 4.6198 10.4833 4.63728C10.3944 4.57245 10.3022 4.51292 10.207 4.4589V4.37499C10.207 3.56212 9.89856 2.78106 9.34643 2.18831L10.2155 1.66688C10.4917 1.50112 10.5813 1.14281 10.4156 0.866551C10.2498 0.590296 9.8915 0.500716 9.61524 0.666469L8.31262 1.44804C7.9033 1.2643 7.45603 1.16666 6.9987 1.16666C6.54137 1.16666 6.0941 1.2643 5.68478 1.44804L4.38215 0.666469ZM10.4987 6.96382C10.4987 6.50936 10.3182 6.07351 9.99688 5.75211C9.67561 5.43076 9.23971 5.25014 8.7853 5.24999H5.21153C4.75725 5.2503 4.32151 5.43096 4.00036 5.75227C3.67914 6.07365 3.4987 6.50944 3.4987 6.96382V8.74999C3.4987 9.20962 3.58923 9.66474 3.76512 10.0894C3.94101 10.514 4.19882 10.8999 4.52382 11.2249C4.84883 11.5499 5.23467 11.8077 5.65931 11.9836C5.90293 12.0845 6.15658 12.1573 6.41537 12.201V8.75001C6.41537 8.42784 6.67653 8.16667 6.9987 8.16667C7.32087 8.16667 7.58203 8.42784 7.58203 8.75001V12.201C7.84082 12.1573 8.09447 12.0845 8.33809 11.9836C8.76273 11.8077 9.14857 11.5499 9.47357 11.2249C9.79858 10.8999 10.0564 10.514 10.2323 10.0894C10.4082 9.66474 10.4987 9.20962 10.4987 8.74999V6.96382ZM8.44238 2.93131C8.75817 3.24711 8.95983 3.65571 9.02081 4.09301C8.94281 4.0866 8.86429 4.08334 8.78545 4.08332H5.21137C5.13272 4.08336 5.0544 4.08662 4.97659 4.09302C5.03756 3.65571 5.23922 3.24711 5.55502 2.93131C5.93791 2.54843 6.45722 2.33332 6.9987 2.33332C7.54018 2.33332 8.05949 2.54843 8.44238 2.93131Z" fill="#101828"/>
</svg>
